<?xml version="1.0" encoding="UTF-8"?><svg id="a" xmlns="http://www.w3.org/2000/svg" viewBox="0 0 230.86 230.01"><g id="b"><path d="M226.13,116.58c0,61.11-49.4,110.65-110.34,110.65S5.45,177.68,5.45,116.58,54.86,5.93,115.79,5.93s110.34,49.54,110.34,110.65ZM65.89,25.98C14.86,52.91-2.74,118.39,26.31,168.34c4.68,8.05,7.7,11.43,13.77,18.12,5.08,5.6,6.69,7.35,12.91,12.08,9.39,7.15,14.64,10.44,25.81,14.67,84.17,31.89,165.17-49.33,133.37-133.74-4.53-12.02-7.83-16.83-15.49-26.75-4.05-5.24-5.97-8.2-11.19-12.94-5.89-5.35-11.21-8.99-18.07-12.94-30.46-17.55-70.96-19.66-101.53-.86Z" style="fill:#080705;"/><path d="M78.8,213.21c5.36-2.76,9.64-8.56,13.77-12.94,26.58,7.2,57.82.76,78.75-17.23,3.15-2.71,14.95-14.3,15.09-17.68.05-1.27-1.05-3.06-.91-3.91.03-.21,2.24-3.33,2.58-3.45.52-.19,1.83.18,2.81-.17,2.88-1.02,7.58-15.54,8.48-19.14,3.5-13.94,3.63-31.51-.11-45.41,4.37-4.14,10.15-8.43,12.91-13.81,31.81,84.4-49.2,165.63-133.37,133.74Z" style="fill:#fbdb4f;"/><path d="M167.42,26.84c-4.09,3.84-9.58,7.87-12.05,12.94C81.34,1.24,1.25,81.12,38.36,155.4c-2.48,3.77-6.38,6.36-9.46,9.49-19.19-34.74-14.68-78.68,7.9-110.71,7.01-9.94,18.83-21.89,29.1-28.2,30.57-18.79,71.07-16.69,101.53.86Z" style="fill:#fbdb4f;"/><path d="M65.89,25.98c-10.27,6.31-22.09,18.26-29.1,28.2-22.58,32.03-27.09,75.97-7.9,110.71-.89.9-1.74,2.42-2.58,3.45C-2.74,118.39,14.86,52.91,65.89,25.98Z" style="fill:#e9c702;"/><path d="M212.16,79.47c-2.75,5.37-8.54,9.67-12.91,13.81-2.11-7.83-8.92-21.94-13.77-28.47l11.19-12.08c7.66,9.91,10.96,14.73,15.49,26.75Z" style="fill:#fae691;"/><path d="M92.56,200.27c-4.13,4.38-8.41,10.18-13.77,12.94-11.17-4.23-16.42-7.52-25.81-14.67,2.5-4.81,7.17-8.51,11.19-12.08,6.51,4.86,20.58,11.69,28.39,13.81Z" style="fill:#fae691;"/><path d="M185.49,39.78l-12.05,12.08c-5.08-4.56-12.02-8.93-18.07-12.08,2.47-5.07,7.96-9.1,12.05-12.94,6.86,3.95,12.18,7.59,18.07,12.94Z" style="fill:#fae691;"/><path d="M51.26,174.38l-11.19,12.08c-6.06-6.69-9.09-10.07-13.77-18.12.84-1.03,1.69-2.55,2.58-3.45,3.08-3.13,6.99-5.72,9.46-9.49,2.81,5.62,8.71,14.29,12.91,18.98Z" style="fill:#fae691;"/><path d="M64.17,186.46c-4.02,3.56-8.69,7.27-11.19,12.08-6.22-4.73-7.83-6.48-12.91-12.08l11.19-12.08c2.79,3.12,9.62,9.63,12.91,12.08Z" style="fill:#fbdb4f;"/><path d="M196.67,52.73l-11.19,12.08c-2.45-3.3-8.94-10.15-12.05-12.94l12.05-12.08c5.22,4.74,7.14,7.7,11.19,12.94Z" style="fill:#fbdb4f;"/><path d="M155.37,39.78c6.05,3.15,12.99,7.52,18.07,12.08,3.11,2.8,9.6,9.64,12.05,12.94,4.84,6.53,11.66,20.64,13.77,28.47,3.74,13.9,3.61,31.47.11,45.41-.9,3.59-5.61,18.11-8.48,19.14-.98.35-2.29-.03-2.81.17-3.72-4.49,2.2-11.85,3.88-17.25,12.12-38.98-6.58-80.24-43.46-96.65C67.54,8.08-2.61,110.01,59.87,172.66c20.92,20.97,48.21,28.75,77.25,20.95,3.95-1.06,11.86-3.76,14.81-6.28,7.07-2.8,15.26-8.83,20.65-14.24,3.74-3.76,7.1-11.83,12.91-11.64-.13.86.96,2.64.91,3.91-.14,3.38-11.93,14.97-15.09,17.68-20.93,18-52.17,24.43-78.75,17.23-7.81-2.12-21.88-8.95-28.39-13.81-3.29-2.45-10.12-8.96-12.91-12.08-4.2-4.69-10.1-13.36-12.91-18.98C1.25,81.12,81.34,1.24,155.37,39.78Z" style="fill:#080601;"/><path d="M188.07,157.99c-.34.13-2.55,3.24-2.58,3.45-5.81-.19-9.17,7.88-12.91,11.64-5.38,5.41-13.58,11.44-20.65,14.24,39.09-33.31,53.58-81.28,17.21-124.25-.21-.25-.19-1.44-.83-2.16-5.92-6.61-12.88-11.44-19.82-16.83,36.88,16.41,55.58,57.66,43.46,96.65-1.68,5.4-7.6,12.76-3.88,17.25Z" style="fill:#f08b00;"/><path d="M169.14,63.08c36.37,42.97,21.88,90.93-17.21,124.25-2.96,2.52-10.87,5.22-14.81,6.28-29.04,7.8-56.34.02-77.25-20.95,1.56-.92,3.46-2.3,3.44-4.31,4.9,1.26,4.79,5.07,12.97,3.08,4.8-1.17,10.24-10.26,12.54-10.71.71-.14,10.77,4.63,13.4,5.28,12.35,3.07,26.14,1.8,37.67-3.7,1.53,4.79,5.5,6.93,10.33,6.04,11.62,9.96,25.94-2.71,19.29-14.6-1.41-2.52-9.36-8.41-9.69-10.12-.14-.71,4.62-10.8,5.27-13.44,2.06-8.34,2.18-17.49.36-25.87-.66-3.05-5.78-14.02-5.63-14.8.31-1.6,7.89-7.39,9.33-9.61,2.9-4.47,2.16-12.4-1.73-15.97l1.72-.86Z" style="fill:#f7a100;"/><path d="M148.49,44.1c6.94,5.39,13.9,10.22,19.82,16.83.64.71.62,1.91.83,2.16l-1.72.86c-.2-.18-4.53-2.32-4.91-2.41-4.68-1.09-8.71.36-12.3,3.27-5.17-.88-8.48,2.03-11.19,6.04-12.76-5.29-23.02-7.12-36.81-3.7-2.63.65-12.69,5.42-13.4,5.28-2.3-.44-7.73-9.54-12.54-10.71-8.18-1.99-8.06,1.82-12.97,3.08-4.29,1.1-8.09-.83-9.92,6.02-2.23,8.32,8.16,12.01,11.5,18.7-10.24,17.33-10.24,36.78,0,54.1-3.33,6.7-13.72,10.38-11.5,18.7,1.84,6.85,5.64,4.91,9.92,6.02.02,2.01-1.88,3.39-3.44,4.31C-2.61,110.01,67.54,8.08,148.49,44.1Z" style="fill:#fcba00;"/><path d="M139.03,70.85c.74.31,1.54,1.45,2.34,1.59,3.09.52,6.63-5.84,8.84-7.63,3.59-2.91,7.62-4.36,12.3-3.27.38.09,4.71,2.22,4.91,2.41,3.88,3.56,4.63,11.5,1.73,15.97-1.44,2.22-9.03,8.01-9.33,9.61-.15.78,4.97,11.75,5.63,14.8,1.82,8.38,1.7,17.53-.36,25.87-.65,2.63-5.4,12.73-5.27,13.44.33,1.71,8.28,7.6,9.69,10.12,6.65,11.89-7.67,24.55-19.29,14.6-2.02-1.74-6.08-8.37-8.89-7.67-.96.24-1.26,1.55-1.43,1.63-11.53,5.5-25.32,6.76-37.67,3.7-2.63-.65-12.69-5.42-13.4-5.28-2.3.44-7.73,9.54-12.54,10.71-8.18,1.99-8.06-1.82-12.97-3.08-.01-1.61-1.98-3.67-2.38-5.81-2.11-11.33,11.16-16.07,10.85-19.49-9.55-16.74-8.89-36.69,0-53.53-7.33-7.69-15.51-13.12-8.47-24.71,4.9-1.26,4.79-5.07,12.97-3.08,4.8,1.17,10.24,10.26,12.54,10.71.71.14,10.77-4.63,13.4-5.28,13.79-3.42,24.05-1.59,36.81,3.7ZM162.91,69.33c-6.51-6.53-14.41,10.74-20.09,11.02-1.32.07-10.16-5.35-13.45-6.29-9.36-2.69-17.8-2.69-27.16,0-3.29.94-12.13,6.36-13.45,6.29-5.68-.28-13.58-17.56-20.09-11.02s10.71,14.45,10.99,20.15c.07,1.33-5.33,10.19-6.28,13.49-2.68,9.39-2.68,17.85,0,27.23.94,3.3,6.34,12.16,6.28,13.49-.28,5.69-17.51,13.61-10.99,20.15s14.42-10.76,20.09-11.03c1.61-.08,10.12,5.29,13.45,6.3,9.35,2.83,17.8,2.83,27.15,0,3.33-1.01,11.84-6.37,13.45-6.3,5.67.27,13.58,17.56,20.09,11.03s-10.73-14.46-11-20.15c-.08-1.66,5.28-10.1,6.28-13.49,2.69-9.15,2.69-18.08,0-27.23-1-3.39-6.36-11.82-6.28-13.49.27-5.68,17.51-13.61,11-20.15Z" style="fill:#090703;"/><path d="M150.21,168.34c-4.83.89-8.8-1.25-10.33-6.04.18-.08.47-1.39,1.43-1.63,2.81-.7,6.87,5.93,8.89,7.67Z" style="fill:#f08b00;"/><path d="M63.31,64.81c-7.04,11.59,1.14,17.02,8.47,24.71-8.88,16.84-9.55,36.79,0,53.53.31,3.42-12.96,8.15-10.85,19.49.4,2.13,2.37,4.2,2.38,5.81-4.29-1.1-8.09.83-9.92-6.02-2.23-8.32,8.16-12.01,11.5-18.7-10.24-17.32-10.24-36.77,0-54.1-3.33-6.7-13.72-10.38-11.5-18.7,1.84-6.85,5.64-4.91,9.92-6.02Z" style="fill:#f08b00;"/><path d="M150.21,64.81c-2.21,1.79-5.75,8.15-8.84,7.63-.8-.14-1.61-1.29-2.34-1.59,2.7-4.01,6.01-6.92,11.19-6.04Z" style="fill:#f08b00;"/><path d="M162.91,69.33c6.52,6.53-10.73,14.46-11,20.15-.08,1.66,5.28,10.1,6.28,13.49,2.69,9.15,2.69,18.08,0,27.23-1,3.39-6.36,11.82-6.28,13.49.27,5.68,17.51,13.61,11,20.15s-14.42-10.76-20.09-11.03c-1.61-.08-10.12,5.29-13.45,6.3-9.35,2.83-17.8,2.83-27.15,0-3.33-1.01-11.84-6.37-13.45-6.3-5.67.27-13.58,17.56-20.09,11.03s10.71-14.45,10.99-20.15c.07-1.33-5.33-10.19-6.28-13.49-2.68-9.39-2.68-17.84,0-27.23.94-3.3,6.34-12.16,6.28-13.49-.28-5.69-17.51-13.61-10.99-20.15s14.41,10.74,20.09,11.02c1.32.07,10.16-5.35,13.45-6.29,9.36-2.69,17.79-2.69,27.16,0,3.29.94,12.13,6.36,13.45,6.29,5.68-.28,13.58-17.56,20.09-11.02ZM94.28,95c-.3.02-1.38-1.14-2.81-.74-4.28,1.2-8.82,14.19-9.22,18.43-3.74,38.89,49.61,52.32,64.4,17.12,11.55-27.48-15.38-55.58-42.89-44.73-7.32,2.88-3.72,2.24-5.17,6.46-.09.26-4.03,3.43-4.3,3.45Z" style="fill:#fae691;"/><path d="M94.28,95c2.44,4.26-2.15,7.53-3.6,11.49-3.7,10.08-1.79,20.29,5.32,28.2s16.14,10.1,26.67,7.77c26.75-5.92,26.75-46.53-.86-51.77-3.78-.72-6.48-1.28-10.66-.77-4.88.6-8.92,5.15-12.57,1.63,1.46-4.23-2.14-3.58,5.17-6.46,27.51-10.85,54.43,17.25,42.89,44.73-14.79,35.2-68.14,21.76-64.4-17.12.41-4.24,4.94-17.23,9.22-18.43,1.43-.4,2.51.76,2.81.74Z" style="fill:#090703;"/><path d="M121.82,90.69c1.72,2.61,4.4,3.49,6.37,6.12,1.7,2.26,1.51,3.79,2.23,5.1l-34.42,32.79c-7.11-7.91-9.02-18.12-5.32-28.2,1.45-3.95,6.05-7.23,3.6-11.49.27-.02,4.21-3.19,4.3-3.45,3.66,3.52,7.7-1.03,12.57-1.63,4.18-.51,6.88.05,10.66.77Z" style="fill:#fcba00;"/><path d="M122.68,142.46c-10.54,2.33-19.41.31-26.67-7.77l34.42-32.79c6.11,11.08,7.07,19.81-.15,31.34-2.28,3.63-5.6,5.72-7.59,9.21Z" style="fill:#f7a100;"/><path d="M122.68,142.46c1.99-3.49,5.32-5.58,7.59-9.21,7.22-11.53,6.27-20.26.15-31.34-.73-1.31-.53-2.84-2.23-5.1-1.98-2.63-4.65-3.5-6.37-6.12,27.61,5.24,27.61,45.85.86,51.77Z" style="fill:#f08b00;"/></g></svg>