<?xml version="1.0" encoding="UTF-8"?><svg id="a" xmlns="http://www.w3.org/2000/svg" viewBox="0 0 230.86 230.01"><g id="b"><path d="M95.75,21.98c5.05-.87,10.41-.17,14.74,2.59,1.42.91,3.92,4.1,4.7,4.23.66.12,7.1-5.62,10.25-6.44,10.11-2.62,19.61,2.04,23.62,11.58,9.28,22.06-18.15,37.2-31.52,49.8-1.9.56-3.37.02-5.02-.86-2.95-1.56-16.15-13.32-19.21-16.29-9.57-9.29-17.01-20.32-10.8-33.89,2.14-4.69,8.07-9.83,13.25-10.72ZM112.17,42.85c-.86-.88-.99-3.47-1.82-4.83-10.86-17.63-29.03-.36-16.61,15.72,2.05,2.65,20.54,19.71,22.1,19.43,7.4-6.52,26.48-19.87,26.26-30.45s-10.98-16.66-18.61-8.11c-2.51,2.81-5.8,13.88-11.31,8.24Z" style="fill:#060505;"/><path d="M112.17,42.85c5.52,5.64,8.8-5.43,11.31-8.24,7.63-8.55,18.39-2.2,18.61,8.11s-18.86,23.93-26.26,30.45c-1.56.28-20.05-16.78-22.1-19.43-12.42-16.08,5.75-33.34,16.61-15.72.84,1.36.97,3.95,1.82,4.83Z" style="fill:#fb6179;"/><path d="M32.26,90.76c-1.66-1.6-3.3-8.49-5.53-10.89-3.2-3.45-14.02-4.77-13.35-10.6.54-4.69,10.67-6.28,13.09-8.7,2.63-2.63,3.98-13.37,9.48-13.09s6.33,9.61,9.39,12.9c3.48,3.75,12.89,3.88,12.54,9.74-.32,5.4-9.81,6-12.92,9.36-2.6,2.81-5.8,17.9-12.7,11.27ZM42.69,68.82c-.29-.38-6.82-2.1-6.65-6.22l-7.55,7.97c1.46.13,2.94.78,4.02,1.76,1.4,1.27,2.01,5.17,3.51,4.46s1.58-3.33,2.46-4.2c.64-.64,5.64-1.84,4.21-3.77Z" style="fill:#060604;"/><path d="M42.69,68.82c1.43,1.93-3.57,3.12-4.21,3.77-.88.87-.99,3.52-2.46,4.2s-2.12-3.19-3.51-4.46c-1.08-.98-2.57-1.62-4.02-1.76l7.55-7.97c-.17,4.12,6.37,5.84,6.65,6.22Z" style="fill:#eeb400;"/><path d="M37.37,146.02c2.59,23.61-29.23,23.61-26.64,0h26.64Z" style="fill:#fb6179;"/><rect x="10.72" y="128.27" width="26.64" height="8.88" style="fill:#dff3fe;"/><path d="M192.12,90.76c-1.66-1.6-3.3-8.49-5.53-10.89-3.2-3.45-14.02-4.77-13.35-10.6.54-4.69,10.67-6.28,13.09-8.7,2.63-2.63,3.98-13.37,9.48-13.09s6.33,9.61,9.39,12.9c3.48,3.75,12.89,3.88,12.54,9.74-.32,5.4-9.81,6-12.92,9.36-2.6,2.81-5.8,17.9-12.7,11.27ZM202.55,68.82c-.29-.38-6.82-2.1-6.65-6.22l-7.55,7.97c1.46.13,2.94.78,4.02,1.76,1.4,1.27,2.01,5.17,3.51,4.46s1.58-3.33,2.46-4.2c.64-.64,5.64-1.84,4.21-3.77Z" style="fill:#060604;"/><path d="M202.55,68.82c1.43,1.93-3.57,3.12-4.21,3.77-.88.87-.99,3.52-2.46,4.2s-2.12-3.19-3.51-4.46c-1.08-.98-2.57-1.62-4.02-1.76l7.55-7.97c-.17,4.12,6.37,5.84,6.65,6.22Z" style="fill:#eeb400;"/><path d="M48.91,199.28c-.4-5.19.05-10.41,4-14.19,1.12-1.07,4.39-2.41,4.67-2.88.71-1.17,2.45-12.68,3.74-16.23,6.37-17.55,23.07-32.99,41.76-35.93-6.74-25.92,31.55-26.05,24.86,0,18.13,2.77,34.69,17.79,41.29,34.64,1.57,4,3.41,16.18,4.22,17.53.28.47,3.55,1.81,4.67,2.88,3.95,3.78,4.4,9,4,14.19h20.43v-27.51c0-.24-3.07-.18-4.8-.98-6.44-2.99-11.71-9.47-12.73-16.56-.84-5.86-1.07-26-.02-31.55.68-3.58,3.34-3.11,6.41-3.32,4.71-.32,34.2-.46,36.3.86.49.31.67.65.89,1.16,1.18,2.78,1,26.08.62,30.45-.74,8.62-5.65,15.78-13.6,19.26-1.45.63-4.19.47-4.19.68v27.51h14.65c3.1,0,4.41,6.89,1.13,8.29-73.11,1.39-146.45.15-219.64.63-6.82,1.78-7.07-8.91-2.63-8.91h14.65v-27.51c0-.24-3.07-.18-4.8-.98-6.44-2.99-11.71-9.47-12.73-16.56-.84-5.86-1.07-26-.02-31.55.68-3.58,3.34-3.11,6.41-3.32,4.71-.32,34.2-.46,36.3.86.49.31.67.65.89,1.16,1.18,2.78,1,26.08.62,30.45-.74,8.62-5.65,15.78-13.6,19.26-1.45.63-4.19.47-4.19.68v27.51h20.43ZM120.04,123.77c0-2.53-2.05-4.58-4.58-4.58s-4.58,2.05-4.58,4.58,2.05,4.58,4.58,4.58,4.58-2.05,4.58-4.58ZM37.37,128.27H10.72v8.88h26.64v-8.88ZM220.32,128.27h-26.64v8.88h26.64v-8.88ZM164.37,181.52c-7.8-58.77-89.88-58.78-97.69,0h50.18c3.04,0,5.5,7.88-.94,8.79-15.69,2.22-36.08-1.33-52.39.05-6.23.52-7.96,4.2-3.05,8.45l108.75.44c3.83-.85,5.8-5.66,1.85-8.02-4.58-2.74-22.1,1.59-23.89-2.82-.97-2.37-.29-6.89,2.53-6.89h14.65ZM37.37,146.02H10.72c-2.59,23.61,29.23,23.61,26.64,0ZM220.32,146.02h-26.64c-2.59,23.61,29.23,23.61,26.64,0Z" style="fill:#020202;"/><path d="M220.32,146.02c2.59,23.61-29.23,23.61-26.64,0h26.64Z" style="fill:#fb6179;"/><rect x="193.67" y="128.27" width="26.64" height="8.88" style="fill:#dff3fe;"/><path d="M164.37,181.52h-14.65c-2.82,0-3.49,4.52-2.53,6.89,1.8,4.41,19.31.08,23.89,2.82,3.95,2.36,1.98,7.17-1.85,8.02l-108.75-.44c-4.91-4.25-3.18-7.92,3.05-8.45,16.31-1.37,36.69,2.17,52.39-.05,6.44-.91,3.98-8.79.94-8.79h-50.18c7.81-58.78,89.89-58.77,97.69,0ZM137.82,185.96c0-2.5-2.03-4.53-4.53-4.53s-4.53,2.03-4.53,4.53,2.03,4.53,4.53,4.53,4.53-2.03,4.53-4.53Z" style="fill:#fbbd00;"/><circle cx="115.47" cy="123.77" r="4.58" style="fill:#f0f0f0;"/><circle cx="133.29" cy="185.96" r="4.53" style="fill:#0e0a00;"/></g></svg>