<?xml version="1.0" encoding="UTF-8"?><svg id="a" xmlns="http://www.w3.org/2000/svg" viewBox="0 0 230.86 230.01"><g id="b"><path d="M163.77,80.66c.25-.88-.24-2.45,0-3.38.19-.75.15-1.54.8-2.12l29.87-33.62c2.61-7.88-5.39-12.99-11.62-7.4l-48.29,43.13c-1.16,2.11,5.01,6.18,6.4,7.63,1.28,1.33,6.14,7.35,7.31,7.55,4.37-1.42,6.46-9.85,11.31-5.02-.3.96.33,2.51-.44,4.2-1.37,3-10.96,10.59-13.14,13.95-.67,1.04-1.05,1.68-.8,3,11.72-.31,21.82,6.41,30.45,13.54.13-2.88-.28-5.81.21-8.68s2.76-4.95,3.14-7.01c1.54-8.22-2.21-17.35,2.2-25.72,1.43-2.71,16.26-15.75,18.94-16.59,4.27-1.34,9.26.08,10.67,4.65,2.56,8.31-1.01,27.12.34,36.89.41,2.99,2.9,4.62,3.37,7.63,1.21,7.74-.74,18.04,0,26.08,7.54,1.51,12.45,9.15,7.54,16.05-1.18,1.65-3.21,2.3-3.68,3.09-1.91,3.12.69,30.2-.8,37.27-1.01,4.82-4.59,7.68-9.43,8.34-5.42.74-20.54.68-25.93-.15-4.31-.66-8.04-2.94-9.12-7.39-3.43,3.58-7.12,1.98-11.21,2.73-12.04,2.22-16.19,6.47-30.28,3.66-3.52-.7-10.7-4.4-12.36-4.55-1.42-.12-10.4,7.35-14.21,5.8-26.01-1.73-54.76,2.2-80.44,0-15.35-1.32-19.15-11.7-17.24-25.76.67-4.97,5.19-10.35,10.08-11.51C-1.85,138.37,6.85,99.63,37.14,83.06c3.22-1.76,9.8-3.43,11.84-4.87.92-.65,1.94-3.84,3.93-5.59,5.12-4.48,19.26-4.41,24.05.53,1.46,1.5,2.09,4.17,3.93,5.38,2.62,1.71,8.76,3.33,12.37,5.39s9.84,8.11,12.16,9.06c.6.25,1.04.47,1.67.08l71.49-63.96c10.58-10.14,27.48.78,22.14,14.53-1,2.58-4.97,6.78-6.92,9.15-7.96,9.65-17.33,18.35-25.36,27.98l-4.68-.07ZM204.38,87.43c-.02-5.63.02-11.29,0-16.92-1.42-.21-2.49.27-3.69.96-1.54.88-10.21,8.14-11.57,9.58-.73.78-3.35,4.54-3.35,5.11v19.04c3.37-.04,6.78.06,10.15,0,2.81-.05,5.65.04,8.46,0-.02-5.91.02-11.86,0-17.77ZM72.4,78.12c-.68-.69-.34-1.37-2.1-1.68-1.97-.35-10.68-.3-12.27.42s-3.76,5.26-6.5,7.04c-3.15,2.05-7.67,2.87-11.3,4.78-23.62,12.39-32.82,41.96-22.13,66.16.75,1.71,5,9.35,6.08,10,1.93,1.16,6.13.08,8.46.42.45-.33-6.13-7.32-6.6-9.1-.63-2.41.62-3.31.68-4.43,7.1-.95,9.19,10.26,15.44,12.9,1.92.81,11.53,2.74,14.17,3.18,4.12.67,8.03,1.25,12.26.84,7.89-.77,16.24-5.2,24.97-3.37-.71-4.14,1.15-12.58-.44-16.07-.34-.75-8.82-7.76-10.59-9.72-10.92-12.11-21.28-31.26.02-38.94-5.87-4.61-13.93-5.13-21.15-4.66-17.15,1.12-32.96,15.14-34.68,32.58-.64,6.47-.35,9.08-1.7,15.64-6.02-.31-5.41-9.53-5.06-13.95,1.82-23.32,22.34-41.67,45.67-41.05,4.63.12,9.63,1,13.99,2.51,7.6,2.62,11.93,9.4,20.7,5.95.76-.75-8.06-6.85-9.05-7.44-4.33-2.59-11.36-4.29-14.6-6.55-2.21-1.54-2.59-3.75-4.27-5.46ZM116.39,113.66c2.01,1.77,5.66,7.01,9.07,5.33,4.16-6.17,15.38-14.5,18.47-20.58.41-.8.44-.83.02-1.66-.94-1.82-7.03-6.67-8.94-8.47-1.26-1.19-4.57-6.16-6.23-5.86l-20.41,18.57c-1.65,3.32,3.08,9.08,5.45,11.49.92.93,2.3.94,2.58,1.19ZM117.24,147.5c4.98-4.45,3.58-15.2,5.98-21.48-3.07-1.31-5.82-2.76-8.52-4.75-2.47-1.81-6.14-5.25-8.05-7.6-1.7-2.1-5.14-9.07-6.77-9.37s-16.06,2.4-17.95,3.24c-14.41,6.4,4.51,27.48,11.22,33.17,6.02,5.11,16.78,13.32,24.09,6.79ZM193.38,111.12c-2.73.08-8.29-.66-10.17,1.25-2.13,2.16-.1,22.99-.83,27.52,2.53.03,5.09-.05,7.62,0,5.91.11,11.86-.08,17.77,0v-26.65c0-2.99-11.95-2.19-14.38-2.12ZM139.23,131.42c8.96,9.25,21.58,24.28,31.3,31.73.85.65,1.07,1.64,2.54,1.26,1.88-6.83-3.24-6.42-5.42-10.22-2.55-4.45-1.14-9.32,2.86-12.23s8.53-.55,5.31-8.64-18.17-16.31-26.43-17.98c-3.04-.62-8.41-1.56-11.26-.69-.49.15-6.74,7.01-6.98,7.46-1.11,2.16,6.4,7.55,8.09,9.3ZM133.31,161.04c10.1,10.34,20.08,20.81,30.47,30.87,10.17,1.49,10.75-11.48,8.49-18.65-11.44-11.54-23.12-22.86-34.73-34.22-.89-.87-8.16-9.81-9.3-8.46-.37,4.46-.92,10.16-2.09,14.41-.57,2.1-2.79,4.99-2.89,5.62-.27,1.68,8.38,8.72,10.05,10.42ZM190.84,152.57c2.76.18,5.88-.12,5.08,3.38-.42.43,1.53,2.83-3.38,3.38-4.24.48-9.2-.35-13.54,0v35.11c0,.33.98,1.9,1.42,2.18,2.18,1.35,20.83,1,24.8.78,3.47-.19,5.19.53,5.86-3.86,1.55-10.02-1.05-23.33.09-33.73-.13-.78-3.85-.32-5.48-1.4-1.26-.83-1.2-2.38-1.31-2.46,1.03-6.18,9.12-1.82,11.89-3.76,1.22-.85,1.22-4.33,0-5.18s-22.71-.42-26.28-.37c-2.88.04-14.8-.52-16.12.38-1.5,1.02-.95,3.74.39,4.78,2.09,1.62,12.94.53,16.57.77ZM146,196.57c3.06-.38,6.04-.5,8.99-1.61.61-.23,1.78.1,1.16-1.34-1.05-2.44-16.29-15.9-19.45-19.05s-16.32-18.08-18.64-19.07c-1.32-.56-5.22,1.44-7.97,1.33-1.7-.07-3.85-.8-5.52-1.31-4.73-1.47-5.68-5.29-4.99,3.3,1.93,23.92,22.81,40.68,46.42,37.76ZM72.4,197.42c10.43-.07,23.38,1.01,33.42,0,1.1-.11,7.07-1.22,6.33-2.95-.64-1.5-7.06-6.75-8.81-8.97-3.24-4.12-5.29-8.98-7.83-13.5-4.61.33-9.6-.41-14.15.13-9.09,1.07-10.86,3.8-21.67,2.45-4.64-.58-8.95-2.12-13.12-2.53-4.39-.43-23.27-.68-26.69.37-6.56,2.02-6.56,11.41-5.9,16.99.57,4.79,4.28,7.49,8.9,8.02,14.05,1.6,34.72.09,49.49,0Z" style="fill:#060605;"/><path d="M163.77,77.28c-.24.93.25,2.5,0,3.38-.46,1.62-3.25,3.64-4.23,6.77-4.85-4.84-6.93,3.59-11.31,5.02-1.17-.2-6.03-6.22-7.31-7.55,5.84-5.21,15.29-7.06,22.84-7.61Z" style="fill:#938da2;"/><path d="M114.7,121.27c-.23,8.79.44,17.67,2.54,26.23-7.3,6.52-18.07-1.69-24.09-6.79-6.71-5.69-25.63-26.77-11.22-33.17,1.89-.84,16.28-3.54,17.95-3.24s5.07,7.26,6.77,9.37c1.91,2.36,5.58,5.79,8.05,7.6Z" style="fill:#da6541;"/><path d="M136.69,174.57c1.11,8.06,6.17,14.72,9.31,22-23.61,2.93-44.5-13.83-46.42-37.76-.69-8.59.26-4.77,4.99-3.3,1.66.52,3.82,1.24,5.52,1.31,2.75.12,6.65-1.89,7.97-1.33,2.32.99,15.57,16.01,18.64,19.07Z" style="fill:#fb5c9a;"/><path d="M140.93,84.89c-1.39-1.45-7.57-5.52-6.4-7.63l48.29-43.13c6.23-5.59,14.24-.48,11.62,7.4l-29.87,33.62c-.65.58-.61,1.37-.8,2.12-7.55.55-17,2.41-22.84,7.61Z" style="fill:#75708b;"/><path d="M137.54,139.04c11.61,11.36,23.29,22.68,34.73,34.22,2.26,7.16,1.68,20.14-8.49,18.65-10.39-10.06-20.37-20.53-30.47-30.87-.13-6.37.51-13.33,2.14-19.48.38-1.41-.12-2.99,2.09-2.52Z" style="fill:#c5c2e8;"/><path d="M149.39,115.35c8.26,1.67,23.2,9.86,26.43,17.98s-1.26,5.69-5.31,8.64-5.41,7.78-2.86,12.23c2.18,3.79,7.3,3.39,5.42,10.22-1.47.38-1.69-.61-2.54-1.26-9.72-7.45-22.34-22.49-31.3-31.73,2.48-5.92,6.19-11.08,10.15-16.07Z" style="fill:#f980b0;"/><path d="M135,88.28c1.91,1.8,8,6.65,8.94,8.47.43.83.39.86-.02,1.66-3.09,6.08-14.31,14.41-18.47,20.58-3.41,1.68-7.06-3.55-9.07-5.33,3.39-9.85,8.53-20.98,18.61-25.38Z" style="fill:#f6ec94;"/><path d="M135,88.28c-10.08,4.4-15.22,15.53-18.61,25.38-.28-.25-1.66-.26-2.58-1.19-2.37-2.41-7.1-8.17-5.45-11.49l20.41-18.57c1.66-.29,4.97,4.67,6.23,5.86Z" style="fill:#eee14c;"/><path d="M137.54,139.04c-2.22-.48-1.72,1.1-2.09,2.52-1.63,6.15-2.26,13.11-2.14,19.48-1.67-1.7-10.32-8.74-10.05-10.42.1-.63,2.31-3.52,2.89-5.62,1.17-4.26,1.72-9.96,2.09-14.41,1.14-1.36,8.41,7.59,9.3,8.46Z" style="fill:#b0ace2;"/><path d="M149.39,115.35c-3.96,4.99-7.67,10.16-10.15,16.07-1.69-1.75-9.2-7.14-8.09-9.3.23-.45,6.49-7.31,6.98-7.46,2.86-.87,8.22.07,11.26.69Z" style="fill:#fb5c9a;"/><path d="M136.69,174.57c3.16,3.15,18.4,16.61,19.45,19.05.62,1.45-.55,1.12-1.16,1.34-2.95,1.11-5.93,1.23-8.99,1.61-3.14-7.28-8.2-13.94-9.31-22Z" style="fill:#f980b0;"/><path d="M114.7,121.27c2.7,1.98,5.45,3.44,8.52,4.75-2.4,6.28-1,17.03-5.98,21.48-2.09-8.56-2.77-17.44-2.54-26.23Z" style="fill:#df8469;"/><path d="M192.53,159.34c.87,13.43,8.04,25.69,12.69,38.07-3.97.22-22.62.57-24.8-.78-.44-.27-1.42-1.84-1.42-2.18v-35.11c4.34-.35,9.29.48,13.54,0Z" style="fill:#75708b;"/><path d="M204.38,155.96c.12.08.06,1.62,1.31,2.46,1.63,1.08,5.36.62,5.48,1.4-1.14,10.4,1.46,23.71-.09,33.73-.68,4.39-2.4,3.68-5.86,3.86-4.65-12.38-11.82-24.64-12.69-38.07,4.92-.55,2.96-2.95,3.38-3.38.29-.3,8.11-.23,8.46,0Z" style="fill:#938da2;"/><path d="M193.38,111.12c2.43-.07,14.38-.87,14.38,2.12v26.65c-5.91-.08-11.86.11-17.77,0-.66-9.77,1.27-19.31,3.38-28.77Z" style="fill:#f6ec94;"/><path d="M195.92,105.2c-3.37.06-6.78-.04-10.15,0v-19.04c0-.57,2.62-4.33,3.35-5.11,1.36-1.44,10.03-8.7,11.57-9.58,1.2-.68,2.27-1.16,3.69-.96.02,5.63-.02,11.29,0,16.92-3.84,5.19-6.93,11.46-8.46,17.77Z" style="fill:#fb5c9a;"/><path d="M193.38,111.12c-2.11,9.45-4.04,19-3.38,28.77-2.53-.05-5.09.04-7.62,0,.73-4.53-1.3-25.37.83-27.52,1.88-1.91,7.44-1.17,10.17-1.25Z" style="fill:#eee14c;"/><path d="M204.38,155.96c-.35-.23-8.17-.3-8.46,0,.8-3.51-2.32-3.21-5.08-3.38l-.85-5.92c3.57-.05,25.08-.46,26.28.37s1.22,4.33,0,5.18c-2.77,1.94-10.86-2.42-11.89,3.76Z" style="fill:#75708b;"/><path d="M190,146.65l.85,5.92c-3.63-.23-14.49.86-16.57-.77-1.33-1.04-1.89-3.75-.39-4.78,1.31-.9,13.23-.34,16.12-.38Z" style="fill:#5b566d;"/><path d="M204.38,87.43c.02,5.91-.02,11.86,0,17.77-2.81.03-5.65-.05-8.46,0,1.54-6.31,4.62-12.57,8.46-17.77Z" style="fill:#f980b0;"/><path d="M61.4,95.89c7.21-.47,15.28.04,21.15,4.66-21.3,7.68-10.94,26.83-.02,38.94,1.77,1.96,10.25,8.96,10.59,9.72,1.59,3.49-.27,11.93.44,16.07-8.74-1.83-17.08,2.6-24.97,3.37-4.23.41-8.14-.16-12.26-.84-7.33-23.84-5.54-49.37,5.08-71.91Z" style="fill:#c5c2e8;"/><path d="M61.4,95.89c-10.61,22.54-12.41,48.07-5.08,71.91-2.64-.43-12.25-2.37-14.17-3.18-6.25-2.64-8.35-13.85-15.44-12.9.12-2.74-2.27-4.82-1.69-7.61,1.35-6.57,1.06-9.18,1.7-15.64,1.72-17.44,17.53-31.46,34.68-32.58Z" style="fill:#b0ace2;"/><path d="M59.7,174.57c2.66,8.43,8.46,15.25,12.69,22.84-14.77.09-35.44,1.6-49.49,0-4.62-.53-8.34-3.23-8.9-8.02-.66-5.58-.67-14.97,5.9-16.99,3.42-1.05,22.3-.8,26.69-.37,4.17.41,8.48,1.95,13.12,2.53Z" style="fill:#ebd900;"/><path d="M59.7,174.57c10.8,1.35,12.57-1.38,21.67-2.45,4.54-.53,9.54.21,14.15-.13,2.54,4.51,4.59,9.38,7.83,13.5,1.74,2.22,8.17,7.46,8.81,8.97.74,1.74-5.23,2.84-6.33,2.95-10.04,1-22.99-.07-33.42,0-4.23-7.6-10.03-14.41-12.69-22.84Z" style="fill:#f1e44c;"/><path d="M72.4,78.12c-2.49,3.32-5.65,6.95-6.77,11-23.34-.62-43.85,17.73-45.67,41.05-.34,4.41-.96,13.64,5.06,13.95-.57,2.79,1.82,4.87,1.69,7.61-.05,1.12-1.3,2.01-.68,4.43.46,1.78,7.05,8.77,6.6,9.1-2.33-.34-6.53.74-8.46-.42-1.08-.65-5.32-8.29-6.08-10-10.69-24.2-1.49-53.76,22.13-66.16,3.63-1.91,8.15-2.73,11.3-4.78,2.74-1.78,4.83-6.29,6.5-7.04s10.3-.76,12.27-.42c1.77.31,1.43.99,2.1,1.68Z" style="fill:#eee14c;"/><path d="M72.4,78.12c1.67,1.71,2.05,3.92,4.27,5.46,3.24,2.26,10.27,3.96,14.6,6.55.99.59,9.81,6.69,9.05,7.44-8.76,3.45-13.1-3.33-20.7-5.95-4.36-1.5-9.37-2.38-13.99-2.51,1.12-4.05,4.28-7.67,6.77-11Z" style="fill:#f6ec94;"/></g></svg>