<?xml version="1.0" encoding="UTF-8"?><svg id="a" xmlns="http://www.w3.org/2000/svg" viewBox="0 0 230.86 230.01"><g id="b"><path d="M34.54,40.3c.2-.5-.25-1.88.14-2.84,1.17-2.89,13.37-5.48,16.65-5.75,20.15-1.69,39.4,11.09,45.39,30.28.63,2.02,1.5,8.82,1.85,9.33,1.34,1.93,7.57-1.19,6.54,4.66-.63,3.61-6.06,1.8-6.06,2.16v19.35c0,.23-1.53,3.72-1.84,4.18-2.79,4.15-6.07,2.63-10.22,3.57l10.24,25.69c1.1,1.44,31.54.12,36.08.39l10.46-26.51c-4.13.09-7.65.67-10.2-3.13-.31-.46-1.84-3.96-1.84-4.18v-19.35c0-.48-8.1,1.85-5.92-4.62.84-2.51,5.22-.51,6.41-2.21.31-.45,1.57-8.38,2.3-10.6,2.61-7.94,9.05-16.32,15.86-21.13,2.64-1.87,14.53-6.79,14.79-7.57.64-1.91-.17-5.06.12-7.2-13.21,1.86-14.48-3.18-12.95-15.09.37-2.86,1.84-4.36,4.73-4.73,7.61-.98,27.45-.72,35.36,0,4.91.45,5.99,1.51,6.45,6.45,1.08,11.54-.81,14.65-12.95,13.37.28,1.52-.4,8.12.04,8.57.15.15,2.96.23,4.09.62,10.65,3.73,20.9,13.4,25.27,23.77,1.17,2.76,3.26,12.96,3.68,13.53,1.33,1.85,6.28-.62,6.53,2.97.45,6.47-5.79,2.21-6.8,5.28-2.86,8.68,6.67,27.85-11.3,25.26l9.89,25.79c1.37,1.59,7.25.86,8.15,5.62-.94,11.42,1.34,24.97.04,36.11-.79,6.78-6.18,3.85-6.9,7.73-1.23,12.61,1.63,28.24.04,40.47-.93,7.18-16.84,5.67-18.88,2.45-3.17-5.01.65-42.67-.94-44.21-3.93,1.88-11.2-3.13-13.34-3.12-1.68,0-6.2,3.25-10.29,3.15-3.29-.08-9.02-3.44-10.19-3.27-2.27.32-5.42,3.31-9.63,3.31-3.93,0-8.39-3.49-10.19-3.32-2.41.22-5.93,3.38-10.43,3.28-3.36-.08-8.64-3.38-9.35-3.32-2.29.2-5.93,3.42-10.43,3.31-3.85-.09-7.69-3.15-9.65-3.31-.8-.07-6.19,3.41-10.14,3.32-3.48-.08-8.71-3.41-10.22-3.28-2.32.21-5.38,3.33-9.6,3.32-4.21,0-7.36-2.99-9.63-3.31-1.18-.17-6.9,3.19-10.19,3.27-4.09.1-8.61-3.15-10.29-3.15-2.14,0-9.41,5.01-13.34,3.12-1.18,1.14,2.71,13.84-3.44,13.76-.06-.1-1.45-.08-2.11-.86-2.74-3.23-.71-12.05-1.34-16.34l-6.77,2.68c.85,5.78-1.61,37.69.28,40.38,1,1.44,4.78.65,6.51.81.64-4.4-1.45-13.92,1.33-17.2.66-.78,2.05-.77,2.11-.86,1.94.15,3.05,1.09,3.42,3.03.53,2.76.34,16.8-.93,18.81-2.04,3.22-17.95,4.74-18.88-2.45-1.59-12.23,1.28-27.85.04-40.47-.75-4.03-6.19-.49-6.92-8.56-1.03-11.36.7-24.44.22-35.98,1.59-3.51,5.02-3.46,7.99-4.91l9.91-25.35c-18.18,1.32-8.31-16.58-11.32-25.69-.83-2.51-8.7.41-6.7-6.02.77-2.47,5.2-.51,6.43-2.23.35-.49,2.12-9.4,2.95-11.67,1.17-3.2,5.69-12.38,8.66-13.72,1.69-.76,3.48-.15,4.27-.45,2.52,4.55-2.93,8.44-5.04,12.59-1.55,3.05-2.01,4.74-2.7,8.05-.36,1.71-1.57,3.59-.86,6.02,3.76-.49,8.89.65,12.41.05.78-.13,1.02-4.89,1.36-6.07,1.84-.1,11.6-.89,12.1-1.24,1.88-1.32-1.21-7.88,4.81-11.54,8.7-5.29,16.98,2.72,15.78,11.92,3.69-.84,8.1.73,11.19.86,1.46,1.05,1.54,5.76,1.76,5.98.5.5,11.72-.28,13.73.03-.41-7.1-2.95-12.43-6.88-18.06-8.57-12.24-20.78-16.99-35.69-15.47-5.51.56-10.69,5.5-15.07,1.71ZM191.54,11.06h-33.12v7.74c12.01-1.09,14.98.31,13.76,12.9h6.39c1.42-.2-1.05-9.53,2.58-12.11,2.87-2.04,9.88.45,11.3-1.6.87-1.25.74-6.42-.91-6.94ZM204.88,53.2c-20.54-27.46-62.38-14.83-66.26,18.48,5.8,2.24,5.11-1.24,7.2-3.58,1.53-1.71,3.94-3.62,5.99-4.72,2.68-1.44,18.52-8.2,20.78-8.47,1.71-.21,4.26-.14,5.97.1,2.08.29,18.04,6.79,20.34,8.05,2.46,1.35,3.74,3.3,5.98,4.78-1.04,3.1,4.06,5.41,6.89,4.3.64-7.4-2.76-13.41-6.89-18.92ZM58.63,65.25c1.37-9.39-8.29-9.29-6.89,0h6.89ZM185.95,74.7c-.01-2.33,1.02-2.41,2.97-2.63,4.93-.55,17.53,1.38,4.5-4.41-2.3-1.02-16.09-6.73-17.37-6.78-1.62-.07-2.86.44-4.34.88-1.88.56-17.3,7.11-18.03,7.77-.87.79-1.56,1.25-1.28,2.59.82.73,18.65-.66,21.94,0,1.63.33,2.06,1.49,3,2.59-.12.08-.19,1.9-1.19,2.65-3.43,2.54-31.27-.27-37.53.79.16,4.85-.21,9.78,0,14.62.1,2.29-.93,5.68,2.15,6.02l70.43-.12c1.12-.29,1.23-1.05,1.41-2.03.96-5.22-.71-12.96,0-18.5-2-.04-4.03.06-6.03,0-3.43-.1-19,.76-20.24-.87-.56-.74-.28-2.45-.4-2.57ZM72.39,71.26h-33.12c-1.84,0-1.84,7.74,0,7.74h31.83c1.79,0,1.29-6.31,1.29-7.74ZM18.19,92.76c.1,2.29-.93,5.68,2.15,6.02l70.43-.12c1.12-.29,1.23-1.05,1.41-2.03.96-5.22-.71-12.96,0-18.5-1.71-.05-3.45.07-5.17,0-1.41-.05-8.31-.32-8.6,0-1.01,1.08,2.36,6.13-6.41,6.92-7.44.68-28.3.99-35.26-.1-6.02-.94-4.33-6.83-4.79-6.83h-13.76c.15,4.85-.21,9.78,0,14.62ZM37.11,104.81l-6.78.1-10.42,27.41,6.78-.1,10.42-27.41ZM76.69,132.32c-1.97-9.21-6.56-18.36-10.31-27.11-1.33-.8-21.79-.78-22.47.12l-10.23,26.99h43.01ZM79.99,104.95c-1.1-.68-4.34.13-5.88-.14-.19,1.21.12,2.29.42,3.44.63,2.35,8.57,22.34,9.45,23.24,1.48,1.52,4.5.67,6.48.83-1.17-3.44-9.21-26.61-10.46-27.37ZM156.7,104.81l-6.11.53-10.23,26.99c2.49-.14,5.19.87,6.81-1.36,1.18-1.64,8.4-20.02,9.11-22.71.31-1.16.61-2.23.42-3.44ZM186.67,104.95c-.92-.57-20.44-.45-21.68-.03-1.5.51-2.02,3.53-2.27,5.04,8.42,2.77,17.33,2.18,25.81,0,.29-.32-1.63-4.87-1.86-5.01ZM200.48,104.91c-1.35.14-7.45-1.2-6.75,1.15,2.47,8.35,8.5,17.34,10.39,26.17l6.78.1-10.42-27.41ZM197.13,132.32c-.25-2.75-4.86-15.72-6.6-16.25s-11.89,2.54-15.3,2.52c-4.7-.02-10.7-2.12-15.46-2.68-1.7,5.48-5.21,10.67-5.66,16.4h43.01ZM12.17,166.73c-.04,1.72-3.14,4.73,2.14,5.23,5.19.49,7.84-3.63,11.21-3.58,3.76.06,5.68,4.95,12.71,3.33,2.48-.57,3.88-3.31,7.06-3.31,4.06,0,5.28,4.44,11.98,3.44,3.03-.45,5.19-3.42,7.79-3.46,3.34-.05,5.88,3.93,11.19,3.56,3.66-.26,5.74-3.42,8.62-3.58,4.55-.25,6.76,5.44,14.23,3.14,2.19-.68,3.29-3.1,6.41-3.1,4.24,0,5.62,4.94,12.73,3.31,2.48-.57,3.88-3.31,7.06-3.31,3.18,0,4.58,2.74,7.06,3.31,7.03,1.62,8.7-3.13,12.74-3.35,4.72-.25,6.14,5.32,14.04,2.95,2.33-.7,3.94-2.97,6.61-2.93,3.76.06,5.68,4.95,12.71,3.33,2.48-.57,3.88-3.31,7.06-3.31,4.06,0,5.28,4.44,11.98,3.44,3.03-.45,5.19-3.42,7.79-3.46,3.55-.06,8.59,5.84,13.41,3.13,1.92-1.34.2-28.65.81-33.17h-6.03s-202.17,0-202.17,0c.17,7.02-.2,14.08-.03,21.11.06,2.46.96,4.56.9,7.28ZM205.74,175.33v43.86c1.98-.18,6.01.88,6.76-1.41-.68-4.97,1.33-38.28.02-39.78-.24-.27-5.75-1.4-6.78-2.68Z" style="fill:#050504;"/><path d="M28.51,192.53c.24.36.24,8.24,0,8.6-.06.1-1.45.08-2.11.86-2.78,3.28-.68,12.8-1.33,17.2-1.73-.16-5.51.63-6.51-.81-1.88-2.69.57-34.6-.28-40.38l6.77-2.68c.63,4.28-1.4,13.11,1.34,16.34.66.78,2.05.77,2.11.86Z" style="fill:#f2b178;"/><path d="M213.48,138.34c-.69,7.77.92,16.98.04,24.55-.76,6.58-5.22.21-8.14.37-1.93.11-3.78,2.27-5.81,2.88-7.76,2.32-10.47-3.06-13.97-2.87-3.02.16-6.18,3.87-11.25,3.51-3.42-.24-6.69-3.78-9.43-3.51-2.25.22-4.95,3.52-9.51,3.52-4.31,0-8.24-3.72-10.26-3.54-2.12.18-4.98,3.54-9.52,3.54s-7.98-3.64-10.25-3.52c-2.74.14-6,3.63-10.37,3.49-3.68-.12-7.79-3.74-10.3-3.49-2.25.22-4.95,3.52-9.51,3.52-4.31,0-8.24-3.72-10.26-3.54-2.12.18-4.98,3.54-9.52,3.54-4.41,0-7.97-3.64-10.24-3.52-2.78.14-5.42,3.5-9.54,3.53-4.26.02-8.59-3.78-11.14-3.53-2.25.23-4.94,3.52-9.51,3.52-4.55,0-7.01-3.39-9.54-3.53-2.54-.14-8.91,5.47-13.26,3.46.06-2.72-.84-4.82-.9-7.28-.17-7.02.2-14.09.03-21.11h202.17Z" style="fill:#ea5468;"/><path d="M213.48,138.34h6.03c-.6,4.51,1.12,31.83-.81,33.16-4.82,2.71-9.86-3.19-13.41-3.13-2.6.04-4.75,3-7.79,3.46-6.7,1-7.92-3.44-11.98-3.44-3.18,0-4.58,2.74-7.06,3.31-7.03,1.62-8.95-3.27-12.71-3.33-2.67-.04-4.28,2.23-6.61,2.93-7.9,2.37-9.32-3.2-14.04-2.95-4.04.21-5.71,4.97-12.74,3.35-2.48-.57-3.88-3.31-7.06-3.31-3.18,0-4.58,2.74-7.06,3.31-7.11,1.63-8.48-3.31-12.73-3.31-3.12,0-4.22,2.42-6.41,3.1-7.47,2.31-9.68-3.38-14.23-3.14-2.89.16-4.97,3.33-8.62,3.58-5.31.37-7.85-3.61-11.19-3.56-2.6.04-4.75,3-7.79,3.46-6.7,1-7.92-3.44-11.98-3.44-3.18,0-4.58,2.74-7.06,3.31-7.03,1.62-8.95-3.27-12.71-3.33-3.37-.05-6.02,4.07-11.21,3.58-5.28-.5-2.18-3.51-2.14-5.23,4.35,2.01,10.72-3.6,13.26-3.46,2.52.14,4.99,3.53,9.54,3.53,4.57,0,7.26-3.29,9.51-3.52,2.56-.26,6.88,3.55,11.14,3.53,4.12-.02,6.76-3.39,9.54-3.53,2.27-.12,5.84,3.52,10.24,3.52,4.54,0,7.4-3.36,9.52-3.54s5.96,3.54,10.26,3.54c4.56,0,7.26-3.3,9.51-3.52,2.51-.25,6.62,3.37,10.3,3.49,4.37.14,7.63-3.35,10.37-3.49,2.26-.12,5.84,3.52,10.25,3.52s7.4-3.36,9.52-3.54c2.02-.18,5.96,3.54,10.26,3.54,4.56,0,7.27-3.3,9.51-3.52,2.74-.27,6.01,3.26,9.43,3.51,5.07.36,8.23-3.35,11.25-3.51,3.5-.19,6.22,5.19,13.97,2.87,2.03-.61,3.88-2.77,5.81-2.88,2.92-.16,7.38,6.21,8.14-.37.88-7.58-.73-16.78-.04-24.55Z" style="fill:#de384e;"/><path d="M205.74,175.33c1.03,1.28,6.54,2.4,6.78,2.68,1.31,1.5-.7,34.81-.02,39.78-.75,2.29-4.78,1.23-6.76,1.41v-43.86Z" style="fill:#f2b178;"/><path d="M135.4,39.23c-2.1-2.13-.4-9.13-1.17-10.01-.88-1-19.28-5.88-22.58-7.95-3.85-2.42-2.75-7.38-4.55-8.55-2.35-1.54-7.54-.97-8.07,2.24-1.38,8.29,6.33,4.7,9.38,9.55,2.07,3.3,6.96,21.7,7.95,22.57,1.14,1,9.93-1.65,10.73,2.63,1.21,6.42-13.06,6.26-16.64.27-2.64-4.43-5.28-18.14-7.55-20.84-1.98-2.36-7.94-1.48-10.08-7.99-3.34-10.16,4.56-18.41,14.85-15.7,5.22,1.37,6.19,6.31,8.61,10.31,5.59,3.13,23.27,5.69,24.74,12.25.86,3.87.26,17.17-5.63,11.21Z" style="fill:#050504;"/><path d="M204.88,53.2c.92,5.06,2.41,8.48,1.28,13.79-.11.53-1.25.74-1.28.83-2.24-1.48-3.51-3.42-5.98-4.78-2.3-1.26-18.26-7.76-20.34-8.05-1.72-.24-4.27-.3-5.97-.1-2.26.27-18.1,7.04-20.78,8.47-2.05,1.1-4.46,3.01-5.99,4.72-2.09,2.33-1.4,5.81-7.2,3.58,3.88-33.31,45.72-45.94,66.26-18.48Z" style="fill:#c0ddfa;"/><path d="M185.95,74.7c.12.12-.16,1.83.4,2.57,1.24,1.63,16.81.77,20.24.87-.62,3.46,1.8,13.23-2.32,14.45l-65.64.17c-.21-4.85.16-9.77,0-14.62,6.25-1.06,34.1,1.75,37.53-.79,1.01-.75,1.07-2.57,1.19-2.65.36-.23,8.29-.3,8.6,0Z" style="fill:#d7ebfd;"/><path d="M206.6,78.14c2,.06,4.03-.05,6.03,0-.72,5.54.96,13.27,0,18.5-.18.98-.3,1.74-1.41,2.03l-70.43.12c-3.08-.34-2.05-3.73-2.15-6.02l65.64-.17c4.12-1.22,1.7-10.99,2.32-14.45Z" style="fill:#bcd7f2;"/><path d="M191.54,11.06c1.65.51,1.78,5.68.91,6.94-1.42,2.05-8.43-.43-11.3,1.6-3.63,2.58-1.16,11.91-2.58,12.12h-6.39c1.22-12.6-1.75-14-13.76-12.91v-7.74h33.13Z" style="fill:#edc602;"/><path d="M177.35,74.7c-.94-1.1-1.37-2.26-3-2.59-3.29-.66-21.12.73-21.94,0-.29-1.34.4-1.8,1.28-2.59.73-.66,16.15-7.21,18.03-7.77,1.48-.44,2.72-.95,4.34-.88,1.28.06,15.07,5.76,17.37,6.78,13.03,5.78.43,3.86-4.5,4.41-1.95.22-2.98.3-2.97,2.63-.31-.3-8.24-.23-8.6,0Z" style="fill:#edc602;"/><path d="M156.7,104.81c.19,1.21-.12,2.29-.42,3.44-.72,2.69-7.93,21.07-9.11,22.71-1.61,2.23-4.32,1.22-6.81,1.36l10.23-26.99,6.11-.53Z" style="fill:#edc602;"/><path d="M200.48,104.91l10.42,27.41-6.78-.1c-1.89-8.83-7.92-17.82-10.39-26.17-.7-2.35,5.41-1.01,6.75-1.15Z" style="fill:#edc602;"/><path d="M186.67,104.95c.23.14,2.15,4.68,1.86,5.01-8.49,2.17-17.39,2.77-25.81,0,.25-1.5.77-4.53,2.27-5.04,1.25-.42,20.76-.55,21.68.03Z" style="fill:#bcd7f2;"/><path d="M204.88,53.2c4.13,5.52,7.53,11.53,6.89,18.92-2.82,1.1-7.93-1.21-6.89-4.3.03-.09,1.17-.3,1.28-.83,1.13-5.31-.36-8.73-1.28-13.79Z" style="fill:#bcd7f2;"/><path d="M85.29,54.06l1.36,11.22c-.98,1.34-7.87.9-9.97.82-3.09-.12-7.5-1.69-11.19-.86,1.19-9.2-7.08-17.21-15.78-11.92-6.02,3.66-2.92,10.21-4.81,11.54-.5.35-10.26,1.14-12.1,1.24-4.27.23-8.63-.16-12.9,0,.69-3.31,1.15-4.99,2.7-8.05,2.11-4.15,7.56-8.05,5.04-12.59,1.01-.38,6.61-4.47,6.88-5.16,4.37,3.79,9.56-1.15,15.07-1.71,14.91-1.52,27.12,3.23,35.69,15.47Z" style="fill:#d7ebfd;"/><path d="M18.19,92.76c-.21-4.84.15-9.77,0-14.62h13.76c.46,0-1.23,5.88,4.79,6.83,6.96,1.09,27.81.77,35.26.1,8.78-.8,5.41-5.84,6.41-6.92.29-.31,7.2-.05,8.6,0-.27,3.63,1.41,13.08-3.18,14.45l-65.65.17Z" style="fill:#d7ebfd;"/><path d="M87.02,78.14c1.72.06,3.45-.05,5.17,0-.72,5.54.96,13.27,0,18.5-.18.98-.3,1.74-1.41,2.03l-70.43.12c-3.08-.34-2.05-3.73-2.15-6.02l65.65-.17c4.59-1.38,2.91-10.82,3.18-14.45Z" style="fill:#bcd7f2;"/><path d="M72.39,71.26c0,1.43.5,7.74-1.29,7.74h-31.83c-1.84,0-1.84-7.74,0-7.74h33.12Z" style="fill:#edc602;"/><path d="M79.99,104.95c1.25.76,9.29,23.93,10.46,27.37-1.98-.16-5,.69-6.48-.83-.87-.9-8.82-20.89-9.45-23.24-.31-1.16-.61-2.23-.42-3.44,1.55.27,4.78-.53,5.88.14Z" style="fill:#edc602;"/><polygon points="37.11 104.81 26.7 132.22 19.92 132.32 30.33 104.91 37.11 104.81" style="fill:#edc602;"/><path d="M85.29,54.06c3.94,5.63,6.47,10.96,6.88,18.06-2.01-.32-13.23.46-13.73-.03-.22-.22-.29-4.93-1.76-5.98,2.09.08,8.98.52,9.97-.82l-1.36-11.22Z" style="fill:#bcd7f2;"/><path d="M32.82,66.1c-.34,1.18-.57,5.94-1.36,6.07-3.52.6-8.65-.54-12.41-.05-.71-2.43.5-4.32.86-6.02,4.28-.16,8.64.23,12.9,0Z" style="fill:#bcd7f2;"/><path d="M58.63,65.25h-6.89c-1.4-9.29,8.26-9.39,6.89,0Z" style="fill:#edc602;"/></g></svg>