<?xml version="1.0" encoding="UTF-8"?><svg id="a" xmlns="http://www.w3.org/2000/svg" viewBox="0 0 230.86 230.01"><g id="b"><rect x="38.04" y="170.68" width="155.76" height="4.3" style="fill:#c7ced2;"/><path d="M94.85,218l12.47-6.89c8.62-7.79,5.96-20.22,3.02-30.1h9.88c.79.09-2.01,10.81-2.13,12.48-.58,8.11.87,13.33,7.32,18.46l11.59,6.04h-42.16Z" style="fill:#abb2b8;"/><path d="M112.06,46.81c2.76-2.81-7.53-7.63-9.39-9.1-2.96-2.35-7.71-7.22-9.1-10.69-4.85-12.1,1.99-23.68,15.53-22.4,2.66.25,4.41,1.63,6.02,1.75,1.99.14,4.43-1.45,6.82-1.71,5.51-.59,10.55.27,14.22,4.72,8.38,10.16-.08,22.82-8.7,29.18-3.44,2.54-9.39,3.52-8.52,8.25h27.96c1.5,0,4.73,4.13,4.73,5.59v32.26h12.48c1.39,0,6.45,3.01,6.45,4.73v35.7c3.15.42,7.67-.69,10.58.18.78.23,4.05,3.42,4.05,3.69v35.7c7.47-.69,15.17-.26,14.68,9.06-.32,6.12-4.36,7.69-9.91,8.18-18.16,1.61-39.92-2.14-57.7-.05-8.21.96-8.67,14.22-6.61,20.42,2.73,8.21,17.62,7.81,18.94,13.77.91,4.11-.87,7.37-4.97,8.43-5.87,1.52-37.07,1.12-44.37.44-5.76-.53-11.65-4.35-7.67-10.32,4.5-6.74,20.11-3.35,19.31-19.37-.29-5.8-1.44-12.58-8.15-13.37-17.47-2.07-38.92,1.57-56.84.05-17.43-1.48-12.48-21.17,3.9-17.23v-34.84c0-5.15,11.08-5.22,14.63-4.73v-34.84c0-1.57,4.8-5.59,6.45-5.59h13.34v-33.98c0-.27,3.6-3.87,3.87-3.87,3.74,0,26.98,1,27.96,0ZM108.62,33.05c2.82,2.04,4.22,5.14,8.61,3.93,8.36-2.3,23.33-19.34,11.41-25.23-6.66-3.29-8.32,2.01-14,3.24-.09-.25-3.52-2.99-4.07-3.25-9.62-4.56-15.3,5.73-9.56,14.72,2.17,3.4,4.81,4.57,7.6,6.59ZM126.69,59.72c6.75.15,9.5,6.96,17.54.95,1.28-.96.21-5.19.54-6.97-6.01-.01-12.06.03-18.07,0-13.47-.06-26.97.05-40.44,0-1.45,4.98,2.38,9.31,7.33,9.53,5.23.23,6.67-5.16,14.89-2.91,2.45.67,4.29,2.79,6.6,2.93,4.07.25,6.75-3.63,11.62-3.52ZM126.69,66.6c-5.48,0-6.6,5.01-14.47,2.85-2.45-.67-4.29-2.79-6.6-2.93-3.71-.23-7.16,3.44-11.22,3.56-3.04.09-5.21-1.8-8.14-1.76v15.91c0,2.99,11.66-1.08,11.19,3.87-.12.12.16,1.83-.4,2.57-1.57,2.08-25.33.24-29.71.87.33,1.68-.57,5.62.14,6.75.25.39,7.72,4.21,8.25,4.29,4.55.75,9.44-6.04,18.53-3.98,2.76.63,5.32,4.33,8.72,4.11,2.72-.18,6.4-3.73,9.58-4.24,9.11-1.46,11.94,4.52,16.23,4.24,2.62-.17,6.16-3.54,8.86-4.1,1.77-.36,6.29-.53,7.98-.19,2.65.52,5.43,4.49,8.97,4.29.8-.04,8.69-4,8.96-4.42.71-1.12-.18-5.06.14-6.75-6.01-.01-12.06.03-18.07,0-9.61-.05-28.22,1.56-36.54-.02-3.13-.6-2.83-3.29-3.04-3.42.63-1.42,1.42-2.27,3.03-2.56,4.39-.8,12.65.02,17.62-.02,6.01-.05,12.06.03,18.07,0v-18.06c-7.25,6.37-12.89-.86-18.07-.86ZM145.62,106.17c-1.57-.65-2.7-1.83-4.66-1.71-4.55.27-5.91,5.39-14.72,4.31-3.91-.48-8.04-4.5-11.09-4.31-4.61.29-5.9,5.39-14.72,4.31-4.01-.49-7.58-4.35-10.28-4.39-3.56-.05-6.04,3.56-8.8,4.19-5.04,1.14-10.11.01-14.02-3.26v19.78c3.78.55,10.91-2.11,10.32,3.44-.1.06-.08,1.45-.86,2.11-3.59,3.04-18.83.48-24.09,1.33.37,1.82-.6,6.42.14,7.61.26.42,8.32,4.15,9.03,4.19,3.57.2,9.03-4.71,13.72-4.84,5.43-.14,9.53,4.64,12.95,4.84,3.6.21,8.79-4.59,12.87-4.88,6.03-.43,9.7,4.67,13.8,4.87,3.68.18,7.96-4.62,12.89-4.85,6.2-.3,9.68,4.65,13.78,4.85,3.57.18,7.61-4.29,12.16-4.73,1.47-.14,5.88.23,7.06.68,2.1.8,4.22,4.24,8.04,4.05,1.32-.07,8.44-3.64,9.18-4.47,1.63-1.81.63-5.04.85-7.33-6.01-.01-12.06.03-18.07,0-10.16-.05-68.31,1.37-72.62-.97-1.19-.65-2.08-2.41-2.24-2.47l2.32-3.27c18.98-.38,38.05-.08,57.04-.17,6.01-.03,12.06.02,18.07,0v-18.92c-2.06-.09-2.88,1.94-4.91,2.4-5.88,1.34-8.37-.42-13.16-2.4ZM161.1,148.32c-.73-.26-1.9-1.81-3.41-2.19-5.48-1.41-7.54,2.82-11.84,3.72-9.15,1.91-11.93-4.34-16.99-4.18-3.49.12-5.82,3.25-9,4-9.87,2.33-12.38-4.18-17.67-4-3.49.12-5.82,3.25-9,4-10.02,2.36-12.01-4.24-17.68-3.99-3.24.14-5.58,3.24-9,3.98-5.41,1.17-9.57.42-13.82-3.06v18.06c36.12-.13,72.29.17,108.41,0,6.01-.03,12.06.02,18.07,0v-18.06c-3.25,1.08-5.29,3.2-9.05,3.46-3.12.22-6.16-.72-9.02-1.74ZM38.04,170.68v4.3h155.76v-4.3H38.04ZM94.85,218h42.16l-11.59-6.04c-6.45-5.13-7.9-10.35-7.32-18.46.12-1.67,2.91-12.39,2.13-12.49h-9.88c2.94,9.89,5.6,22.31-3.02,30.11l-12.47,6.89Z" style="fill:#060404;"/><path d="M161.1,148.32v16.34c-36.12.17-72.29-.13-108.41,0v-18.06c4.24,3.48,8.4,4.22,13.82,3.06,3.42-.74,5.76-3.84,9-3.98,5.68-.25,7.66,6.36,17.68,3.99,3.18-.75,5.51-3.89,9-4,5.29-.18,7.8,6.33,17.67,4,3.18-.75,5.51-3.89,9-4,5.05-.17,7.83,6.09,16.99,4.18,4.29-.9,6.36-5.12,11.84-3.72,1.51.39,2.68,1.93,3.41,2.19Z" style="fill:#fc92a4;"/><path d="M145.62,106.17v18.92c-19,.09-38.06-.21-57.04.17l-2.32,3.27c-.44-.17-8.24-.24-8.6,0,.58-5.55-6.55-2.89-10.32-3.44v-19.78c3.91,3.28,8.98,4.4,14.02,3.26,2.76-.62,5.24-4.24,8.8-4.19,2.7.04,6.27,3.89,10.28,4.39,8.81,1.08,10.11-4.02,14.72-4.31,3.05-.19,7.19,3.83,11.09,4.31,8.8,1.08,10.17-4.04,14.72-4.31,1.96-.11,3.09,1.06,4.66,1.71Z" style="fill:#fc92a4;"/><path d="M86.25,128.53c.16.06,1.05,1.83,2.24,2.47,4.31,2.34,62.45.92,72.62.97v7.74c-1.19-.45-5.6-.82-7.06-.68-4.55.44-8.6,4.91-12.16,4.73-4.1-.21-7.58-5.15-13.78-4.85-4.93.24-9.21,5.04-12.89,4.85-4.1-.21-7.77-5.3-13.8-4.87-4.09.29-9.28,5.09-12.87,4.88s-7.52-4.98-12.95-4.84c-4.69.12-10.15,5.04-13.72,4.84-.71-.04-8.76-3.77-9.03-4.19-.75-1.19.22-5.79-.14-7.61,5.27-.85,20.5,1.71,24.09-1.33.78-.66.77-2.05.86-2.11.36-.24,8.17-.17,8.6,0Z" style="fill:#965341;"/><path d="M126.69,66.6v18.92c-4.97.04-13.23-.78-17.62.02-1.6.29-2.4,1.14-3.03,2.56-.36-.24-8.29-.3-8.6,0,.48-4.95-11.19-.88-11.19-3.87v-15.91c2.94-.04,5.1,1.86,8.14,1.76,4.06-.13,7.51-3.79,11.22-3.56,2.31.15,4.15,2.26,6.6,2.93,7.87,2.16,9-2.85,14.47-2.85Z" style="fill:#fc92a4;"/><path d="M106.04,88.1c.2.13-.1,2.82,3.04,3.42,8.32,1.58,26.94-.02,36.54.02v6.88c-1.7-.33-6.22-.17-7.98.19-2.7.55-6.24,3.93-8.86,4.1-4.29.28-7.13-5.7-16.23-4.24-3.18.51-6.86,4.06-9.58,4.24-3.4.22-5.96-3.48-8.72-4.11-9.09-2.06-13.97,4.73-18.53,3.98-.53-.09-8.01-3.9-8.25-4.29-.71-1.13.18-5.07-.14-6.75,4.39-.63,28.15,1.21,29.71-.87.56-.74.28-2.45.4-2.57.31-.3,8.24-.24,8.6,0Z" style="fill:#965341;"/><path d="M108.62,33.05c3.09-4.96,8.27-11.7,6.02-18.06,5.68-1.23,7.34-6.53,14-3.24,11.92,5.9-3.05,22.93-11.41,25.23-4.39,1.21-5.79-1.89-8.61-3.93Z" style="fill:#df4f50;"/><path d="M126.69,53.7v6.02c-4.86-.11-7.54,3.77-11.62,3.52-2.31-.14-4.15-2.26-6.6-2.93-8.22-2.24-9.66,3.15-14.89,2.91-4.95-.22-8.78-4.55-7.33-9.53,13.47.05,26.97-.06,40.44,0Z" style="fill:#965341;"/><path d="M145.62,106.17c4.79,1.98,7.28,3.74,13.16,2.4,2.03-.46,2.85-2.49,4.91-2.4v18.92c-6.01.02-12.06-.03-18.07,0v-18.92Z" style="fill:#e97e95;"/><path d="M126.69,66.6c5.18,0,10.82,7.23,18.07.86v18.06c-6.01.03-12.06-.05-18.07,0v-18.92Z" style="fill:#e97e95;"/><path d="M161.1,148.32c2.85,1.02,5.9,1.96,9.02,1.74,3.76-.27,5.8-2.38,9.05-3.46v18.06c-6.01.02-12.06-.03-18.07,0v-16.34Z" style="fill:#e97e95;"/><path d="M114.64,14.99c2.25,6.36-2.93,13.1-6.02,18.06-2.8-2.02-5.44-3.19-7.6-6.59-5.73-8.99-.06-19.28,9.56-14.72.55.26,3.98,3,4.07,3.25Z" style="fill:#f76856;"/><path d="M161.1,131.97c6.01.03,12.06-.02,18.07,0-.23,2.29.78,5.52-.85,7.33-.74.83-7.86,4.4-9.18,4.47-3.82.19-5.94-3.25-8.04-4.05v-7.74Z" style="fill:#814435;"/><path d="M145.62,91.54c6.01.03,12.06-.02,18.07,0-.33,1.69.56,5.63-.14,6.75-.27.42-8.16,4.38-8.96,4.42-3.54.2-6.31-3.77-8.97-4.29v-6.88Z" style="fill:#814435;"/><path d="M126.69,53.7c6.01.03,12.06-.02,18.07,0-.32,1.78.75,6.01-.54,6.97-8.03,6.01-10.79-.8-17.54-.95v-6.02Z" style="fill:#814435;"/></g></svg>