<?xml version="1.0" encoding="UTF-8"?><svg id="a" xmlns="http://www.w3.org/2000/svg" viewBox="0 0 230.86 230.01"><g id="b"><path d="M140.51,38.29c.32,2.22-.11,2.66-2.24,3.09-7.93,1.6-20.41-2.37-26.92,2.81-6.1,4.85-11.4,27.93-19.92,27.93h-22.69c4.44,6.93,2.67,15.61-4.18,20.16-5.14,3.41-8.74.44-7.37,9.54h27.22c23.44-40.38,82.34-38.65,106.84,0h23.51v-12.79c0-1.04-3.16-6.41-4.13-7.42-8.58-8.95-27.99-4.76-34.51-14.17-4.06-5.86-8.21-20.74-13.88-24.07-4.46-2.62-9-.81-11.86-2.18-1.46-.7-1.49-2.81-1.63-2.9,1.1-5.15,9.44-3.27,13.19-2.05,9.03,2.92,12.21,13.14,15.69,21.03,3.8-1.44,3.78-3.48,8.52-3.22,3.38.18,20.15,3.43,22.41,4.87,6.94,4.42,3.32,10.98,4.55,16.74.28,1.29,7.38,7.18,8.24,15.02,2.96,27.23-2.23,59.67,0,87.46-.68,6.32-5.82,12.33-12.16,13.41-13.11,2.23-31.26-1.82-44.3.25-8.6,1.36-16.09,6.62-27.27,6.63s-19.85-5.6-28.85-6.7c-9.92-1.21-43.98-1.35-53.68-.01-2.95.41-4.07,2.51-6.52,3.38-3.84,1.36-21.75,1.31-26.44.79-6.45-.72-11.27-5.51-11.96-11.96-2.76-25.77,2.09-56.26-.03-82.54,4.4-11.81,2.46-21.19,12.4-30.5,1.14-1.07,4.46-2.65,4.74-3.1,1.21-1.91-.05-5.27,4.38-6.76,2.64-.89,18.61-.9,21.77-.41,3.71.58,6.45,7,8.71,4.91.62-.57-1.97-8.69,3.94-11.33,4.05-1.81,22.34-1.9,25.74,1.05,1.7,1.48,1.5,4.42,3.32,5.33,3.59-7.68,7.78-20.39,16.18-23.84,4.49-1.84,25.23-3.13,28.4-.48.88.74.72,1.98.8,2.05ZM74.51,59.74c-5.33.19-7.29-1.19-6.6,5.78,2.19.04,4.41-.06,6.6,0,4.39.1,8.82-.08,13.2,0v-5.31c-.11-.79-11.59-.53-13.2-.47ZM191.66,62.21c-2.15-.36-5.26-2.62-8.25-1.65.21,1.66-.3,3.76-.04,5.3.07.42,7.03,1.83,8.3,2.13,4.8,1.11,9.72,1.78,14.43,3.31,3.3-9.84-8.3-8.07-14.43-9.09ZM33.24,67.15v9.1s19.83,0,19.83,0v-9.1s-19.83,0-19.83,0ZM31.61,82.84c-3.83-.76-4.32-4.14-4.53-7.42-4.24,2.6-6.88,8.27-7.02,13.19,3.57.04,7.16-.04,10.73,0,7.22.08,21.07,1.09,27.45-.19,7.47-1.5,9.18-13.25,1.43-15.48-.08,2.53.77,7.64-2.25,8.89s-22.41,1.68-25.81,1.01ZM138.86,191.76c30.87-.84,55.4-26.22,55.18-57.11-.22-30.88-25.12-55.91-56-56.3-20.53-.26-39.6,10.6-49.85,28.38-10.26,17.79-10.1,39.73.42,57.37,10.51,17.64,29.73,28.22,50.26,27.66ZM28.31,189.26c5.12.47,17.81,2.41,20.99-2.52,3.74-5.8-.18-33.3,1.31-41.59l3.28-2.91c.24.54,2.78-.3,3.3,4.52,1.3,12-.96,26.14,0,38.38h41.25c-16.77-14.75-25.79-33.72-23.91-56.5.58-7.03,3.49-13.44,4.94-20.23h-22.27c-.83,4.73,1.43,21.48-.76,24.43-.72.96-2.46,1.03-2.54,1.14-2.94.68-3.1-1.43-3.3-3.7-1-11.19.74-23.74,0-35.07-7.41.16-14.88-.2-22.28,0-5.41.15-9.93-1.34-11.5,5.41l.38,85.32c2.88,4.75,6.67,2.91,11.12,3.32ZM214.76,108.41h-19.8c.48,1.67,3.01,10.9,3.48,11.37.37.37,4.63,1.16,6.38,2.28,7.93,5.09,9.14,17.21,2.55,23.92-2.7,2.74-7.49,3.31-8.71,4.49-.77.74-2.64,7.65-3.55,9.65-4.56,9.95-10.77,17.99-19.12,25.02h33.41c.59,0,5.36-4.77,5.36-5.36v-71.36ZM199.91,143.06c7.38-2.49,7.71-13.33,0-15.67v15.67Z" style="fill:#040404;"/><path d="M148.76,38.29c.14.09.17,2.2,1.63,2.9,2.86,1.37,7.39-.44,11.86,2.18,5.67,3.33,9.82,18.21,13.88,24.07,6.52,9.41,25.92,5.22,34.51,14.17.97,1.01,4.13,6.38,4.13,7.42v12.79h-23.51c-24.5-38.65-83.39-40.38-106.84,0h-27.22c-1.37-9.1,2.23-6.14,7.37-9.54,6.86-4.54,8.62-13.23,4.18-20.16h22.69c8.53,0,13.82-23.08,19.92-27.93,6.52-5.18,19-1.21,26.92-2.81,2.13-.43,2.56-.87,2.24-3.09.66.49,7.45-.51,8.25,0ZM119.27,56.24c.94.93,3,.95,4.3,1.06,6.85.58,21.43.75,28.1-.02,5.27-.61,6.57-4.6,1.61-6.59-9.78.91-21.89-1.29-31.37-.06-3.28.43-5.03,3.26-2.64,5.61ZM88.47,81.06c0-1.79-1.45-3.24-3.24-3.24s-3.24,1.45-3.24,3.24,1.45,3.24,3.24,3.24,3.24-1.45,3.24-3.24Z" style="fill:#675d67;"/><path d="M28.31,95.21c7.4-.2,14.87.15,22.28,0,.73,11.34-1,23.88,0,35.07.2,2.28.36,4.38,3.3,3.7-.22.35-.17,7.87,0,8.25l-3.28,2.91c-1.48,8.29,2.43,35.79-1.31,41.59-3.18,4.93-15.87,2.99-20.99,2.52v-94.05Z" style="fill:#554e56;"/><path d="M53.88,133.99c.08-.12,1.82-.18,2.54-1.14,2.19-2.95-.07-19.7.76-24.43h22.27c-1.45,6.79-4.36,13.2-4.94,20.23-1.88,22.78,7.14,41.75,23.91,56.5h-41.25c-.96-12.23,1.3-26.38,0-38.38-.52-4.82-3.06-3.99-3.3-4.52-.17-.38-.22-7.9,0-8.25ZM78.07,173.18c0-4.83-3.92-8.75-8.75-8.75s-8.75,3.92-8.75,8.75,3.92,8.75,8.75,8.75,8.75-3.92,8.75-8.75Z" style="fill:#423e42;"/><path d="M138.86,191.76c-.63-3.96-8.67-3.06-9.08-7.44,18.8,2.02,36.69-4.9,47.7-20.36,3.28-4.6,10.4-17.2,7.98-22.56-.41-.92-1.99-1.47-2.05-1.62-.56-1.42.55-7.39,0-8.25,5.7-.39,1.63-10.72.4-14.02-8.22-22.1-31.71-35.2-54.85-31.36.41-4.39,8.45-3.48,9.08-7.79,30.88.39,55.78,25.42,56,56.3.22,30.88-24.3,56.27-55.18,57.11Z" style="fill:#a599a4;"/><path d="M138.04,78.35c-.63,4.31-8.67,3.4-9.08,7.79-57,9.46-51.78,92.52.83,98.17.41,4.39,8.45,3.48,9.08,7.44-20.52.56-39.75-10.02-50.26-27.66-10.51-17.64-10.67-39.58-.42-57.37,10.26-17.79,29.32-28.64,49.85-28.38Z" style="fill:#968a94;"/><path d="M214.76,108.41v71.36c0,.59-4.77,5.36-5.36,5.36h-33.41c8.35-7.03,14.56-15.07,19.12-25.02.92-2,2.78-8.9,3.55-9.65,1.22-1.18,6.01-1.75,8.71-4.49,6.59-6.71,5.39-18.82-2.55-23.92-1.75-1.13-6.02-1.92-6.38-2.28-.47-.47-3-9.71-3.48-11.37h19.8ZM211.39,173.18c0-4.82-3.91-8.72-8.72-8.72s-8.72,3.91-8.72,8.72,3.91,8.72,8.72,8.72,8.72-3.91,8.72-8.72Z" style="fill:#423e42;"/><path d="M28.31,95.21v94.05c-4.45-.41-8.24,1.43-11.12-3.32l-.38-85.32c1.58-6.75,6.1-5.26,11.5-5.41Z" style="fill:#423e42;"/><path d="M30.78,88.61l.83-5.77c3.4.67,22.84.23,25.81-1.01s2.16-6.36,2.25-8.89c7.75,2.23,6.04,13.98-1.43,15.48-6.38,1.28-20.23.27-27.45.19Z" style="fill:#786c77;"/><rect x="40.68" y="67.15" width="12.39" height="9.1" style="fill:#554e56;"/><path d="M31.61,82.84l-.83,5.77c-3.57-.04-7.16.03-10.73,0,.14-4.92,2.78-10.6,7.02-13.19.21,3.28.7,6.66,4.53,7.42Z" style="fill:#554e56;"/><path d="M191.66,62.21c6.13,1.01,17.72-.76,14.43,9.09-4.71-1.53-9.63-2.2-14.43-3.31v-5.77Z" style="fill:#554e56;"/><path d="M74.51,59.74c1.61-.06,13.1-.32,13.21.47v5.31c-4.4-.08-8.83.1-13.21,0v-5.77Z" style="fill:#554e56;"/><rect x="33.24" y="67.15" width="7.44" height="9.1" style="fill:#423e42;"/><path d="M199.91,143.06v-15.67c7.71,2.35,7.38,13.19,0,15.67Z" style="fill:#675d67;"/><path d="M191.66,62.21v5.77c-1.27-.29-8.23-1.7-8.3-2.13-.26-1.54.25-3.64.04-5.3,2.99-.97,6.1,1.3,8.25,1.65Z" style="fill:#423e42;"/><path d="M74.51,59.74v5.77c-2.19-.05-4.41.04-6.6,0-.68-6.97,1.27-5.59,6.6-5.78Z" style="fill:#423e42;"/><path d="M119.27,56.24c-2.39-2.36-.64-5.19,2.64-5.61,9.47-1.23,21.58.97,31.37.06,4.96,1.99,3.66,5.99-1.61,6.59-6.67.77-21.25.6-28.1.02-1.3-.11-3.35-.13-4.3-1.06Z" style="fill:#040404;"/><circle cx="85.24" cy="81.06" r="3.24" style="fill:#040404;"/><path d="M78.07,173.18c0,4.83-3.92,8.75-8.75,8.75s-8.75-3.92-8.75-8.75,3.92-8.75,8.75-8.75,8.75,3.92,8.75,8.75ZM67.08,175.24c6.74.93,6.85-5.03,0-4.13v4.13Z" style="fill:#040404;"/><path d="M183.41,131.51c.55.86-.56,6.83,0,8.25-4.44.96-4.4,7.88-5.97,11.76-6.62,16.37-24.09,27.72-41.88,27.01.45-2.05-1.07-1.68-2.18-2.31-28.18-16.06-33.46-49.85-11.88-74.03l13.23-10.28c19.77-.96,36.65,10.13,43.54,28.65,1.02,2.74,1.3,7.42,2.26,9.3.8,1.55,2.78,1.51,2.87,1.65ZM164.35,135.07c0-14.93-12.1-27.02-27.02-27.02s-27.02,12.1-27.02,27.02,12.1,27.02,27.02,27.02,27.02-12.1,27.02-27.02Z" style="fill:#675d67;"/><path d="M183.41,131.51c-.09-.14-2.07-.1-2.87-1.65-.96-1.87-1.24-6.56-2.26-9.3-6.89-18.52-23.77-29.61-43.54-28.65-54.17,2.63-53.26,84.46.82,86.62,17.79.71,35.26-10.64,41.88-27.01,1.57-3.89,1.53-10.8,5.97-11.76.06.15,1.64.71,2.05,1.62,2.42,5.37-4.7,17.96-7.98,22.56-11.01,15.46-28.9,22.39-47.7,20.36-52.6-5.65-57.82-88.72-.83-98.17,23.14-3.84,46.63,9.26,54.85,31.36,1.23,3.3,5.3,13.62-.4,14.02Z" style="fill:#040404;"/><path d="M211.39,173.18c0,4.82-3.91,8.72-8.72,8.72s-8.72-3.91-8.72-8.72,3.91-8.72,8.72-8.72,8.72,3.91,8.72,8.72ZM204.86,171.11c-6.74-.93-6.85,5.03,0,4.13v-4.13Z" style="fill:#040404;"/><path d="M67.08,175.24v-4.13c6.85-.9,6.74,5.06,0,4.13Z" style="fill:#675d67;"/><path d="M134.73,91.91l-13.23,10.28c-21.59,24.19-16.3,57.97,11.88,74.03,1.11.63,2.63.27,2.18,2.31-54.08-2.16-55-83.99-.82-86.62Z" style="fill:#554e56;"/><path d="M164.35,135.07c0,14.93-12.1,27.02-27.02,27.02s-27.02-12.1-27.02-27.02,12.1-27.02,27.02-27.02,27.02,12.1,27.02,27.02ZM141.3,155.27c9.65-1.92,16.61-10.39,16.63-20.23.02-9.84-6.9-18.34-16.54-20.31-8.21-1.67-16.61,1.77-21.29,8.72s-4.7,16.03-.05,23c4.64,6.97,13.03,10.45,21.25,8.81Z" style="fill:#040404;"/><path d="M204.86,171.11v4.13c-6.85.9-6.74-5.06,0-4.13Z" style="fill:#675d67;"/><path d="M141.3,155.27c-13.14-10.83-13.82-29.6.09-40.54,9.65,1.97,16.57,10.46,16.54,20.31-.02,9.84-6.98,18.31-16.63,20.23Z" style="fill:#ddf4fa;"/><path d="M141.39,114.74c-13.91,10.94-13.23,29.71-.09,40.54-8.21,1.64-16.61-1.84-21.25-8.81-4.64-6.97-4.62-16.05.05-23s13.08-10.39,21.29-8.72Z" style="fill:#c5ebfa;"/></g></svg>