<?xml version="1.0" encoding="UTF-8"?><svg id="a" xmlns="http://www.w3.org/2000/svg" viewBox="0 0 230.86 230.01"><g id="b"><path d="M76.92,63.79c35.13-.27,70.29.22,105.43-.02,3.78-.43,11.5,6.69,11.5,9.83v22.61c-40.38-.09-80.81.12-121.2,0-.9-11.06,2.46-21.67,4.27-32.43ZM140.68,71.65c-3.06.91-8.04,8.14-4.52,10.99,4.82,3.9,5.68-4.73,7.84-5.17,2.39-.49,4.62,10.14,8.97,4.73,4-4.97-5.14-12.69-12.29-10.56ZM86.06,72.48c-3.97,1.18-3.71,13.13,3.12,10.84,1.83-.61,3.86-12.92-3.12-10.84ZM106.49,77.54c-2,.67-1.65,3.51-.96,5.01,3.22,6.98,21.37,5.1,20.09-2.95-.86-5.46-6.21-.16-7.47.22-6.05,1.85-7.95-3.54-11.66-2.29Z" style="fill:#b1ade2;"/><path d="M140.94,102.19l-3.59,48.03c-1.94,3.68-5.24,7.91-9.58,8.34-4.84.48-22.23.74-26.49-.07-2.44-.47-5.29-4.69-7.17-6.49-3.01-16.36-2.7-33.25-4.38-49.81h51.21Z" style="fill:#bde5f5;"/><path d="M193,102.19l-6.09,31.46c-2.03,1.3-27.05-.95-32.57.29-4.55,1.02-6.49,5.93-9.99,8.35l2.55-37.97c-.03-.7.8-2.13,1.28-2.13h44.81Z" style="fill:#bde5f5;"/><path d="M76.92,63.79c-1.81,10.76-5.16,21.36-4.27,32.43-11.94-.04-23.91.03-35.85,0v-22.61c0-3.14,6.76-8.94,10.01-9.62,7.06-1.47,22.03-.13,30.11-.19Z" style="fill:#a09ada;"/><path d="M71.8,102.19l4.27,31.57c-5.23-.92-30.39,1.13-32.32-.11-.62-3.91-7.22-30.32-6.09-31.46,11.35.25,22.8-.33,34.14,0Z" style="fill:#8dceeb;"/><path d="M71.8,102.19c3.12.09,11.2-.93,11.96,2.98l2.54,37.13c-3.65-2.5-5.39-7.68-10.23-8.53l-4.27-31.57Z" style="fill:#bde5f5;"/><path d="M102.53,56.96c4.22-4.14,9.22-7.78,12.39-12.81l13.22,12.81h-25.61Z" style="fill:#fefefe;"/><path d="M111.07,15.15c-9.53,8.93-18.24,18.78-25.11,29.94-1.57,2.55-3.81,5.37-3.91,8.46-6.58-4.13-18.04-15.54-19.9-23.2-.97-4,.7-7.95-3.14-10.08.32-.24,4.15-6.44,4.27-6.83,5.47,1.72,9.09-2,15.6-.66,5,1.03,7.01,7.04,9.72,7.3,2.88.27,3.96-3.39,5.83-4.95,4.7-3.93,11.9-3.52,16.66.01Z" style="fill:#fa5b6e;"/><path d="M82.05,53.55c.1-3.09,2.34-5.91,3.91-8.46,6.86-11.16,15.58-21.01,25.11-29.94,8.81,6.54,5.18,17.2-.5,24.67-3.26,4.28-17.51,18.08-22.77,17.01-1.07-.22-4.47-2.48-5.75-3.29Z" style="fill:#fc748d;"/><path d="M124.72,12.59c2.59-.35,5.64-.03,8.15.81,4.01,1.35,6.12,6.33,8.63,6.66,2.81.37,5.15-5.89,9.65-7.07,14.08-3.69,21.73,8.55,15.85,20.96-2.84,5.99-17.74,21.8-24.15,22.87-5.62.93-16.24-10.2-19.84-14.37,5.71-9.36,7.39-20.01,1.71-29.87Z" style="fill:#fc748d;"/><path d="M124.72,12.59c5.68,9.85,4.01,20.51-1.71,29.87-1.01-1.17-3.21-1.56-3.44-3.88-.22-2.19,3.33-7.94,3.5-11.9.28-6.32-6.07-13.04,1.65-14.09Z" style="fill:#fa5b6e;"/><path d="M63.27,13.44c.39-1.31-.71-2.96.84-4.7,2.72-3.05,11.6-3.39,15.42-2.6,3.19.66,7.48,4.42,9.05,4.57,1.38.13,7.84-4.65,12.63-4.99,7.24-.5,9.83,3.18,13.75,3.44,3.57.23,8.13-4.41,16.08-3.33,4.1.56,8.64,4.7,10.45,4.87,1.47.14,7.33-4.37,11.03-4.87,11.16-1.52,22.15,6.07,23.3,17.51,1.37,13.55-11.15,25.39-20.39,33.61h28.59c8.46,0,16,11.33,16.67,19.17,1.69,19.64-2.57,37.88-6.86,56.77,26.13-2.68,16.38,13.8,18.83,29.39.75,4.78,5.24,10.48,5.91,17.13,1.1,10.89-2.83,26.63-11.74,33.71-3.66,2.91-4.14.75-6.18.84-3.48-3.82,6.19-7.34,4.23-10.2-.47-.68-12.71-6.35-14.2-8.44-1.17,1.72-8.81,3.64-8.81,4.13v17.92c2.76.76,6.05-1.49,8.29-1.5,1.4,0,2.14,1.37,2.81,1.5,1.62,5.82-5.47,6.45-9.83,6.81-22.86,1.92-39.92-13.43-44.47-35.03-15.51,5.64-31.7,5.34-47.26.06-10.69,57.99-95.53,38.34-76.62-19.85.79-2.42,2.77-4.63,3.16-7.08,2.45-15.59-7.3-32.07,18.83-29.39-4.29-18.89-8.54-37.13-6.86-56.77.67-7.87,8.23-19.17,16.67-19.17h28.59c-8.56-7.31-22.71-21.16-20.27-33.54.72-3.65,2.75-2.17,4.06-3.15,3.85,2.13,2.17,6.09,3.14,10.08,1.86,7.65,13.33,19.07,19.9,23.2,1.28.8,4.68,3.07,5.75,3.29,5.26,1.06,19.51-12.73,22.77-17.01,5.68-7.47,9.31-18.14.5-24.67-4.76-3.53-11.96-3.94-16.66-.01-1.86,1.56-2.95,5.22-5.83,4.95-2.71-.26-4.71-6.27-9.72-7.3-6.51-1.34-10.13,2.37-15.6.66ZM123.01,42.46c3.6,4.16,14.22,15.3,19.84,14.37,6.41-1.06,21.31-16.87,24.15-22.87,5.88-12.41-1.77-24.65-15.85-20.96-4.5,1.18-6.84,7.44-9.65,7.07-2.51-.33-4.62-5.31-8.63-6.66-2.51-.85-5.56-1.17-8.15-.81-7.72,1.05-1.37,7.77-1.65,14.09-.17,3.95-3.72,9.71-3.5,11.9.23,2.31,2.43,2.71,3.44,3.88ZM102.53,56.96h25.61l-13.22-12.81c-3.17,5.02-8.17,8.67-12.39,12.81ZM76.92,63.79c-8.08.06-23.04-1.28-30.11.19-3.25.68-10.01,6.48-10.01,9.62v22.61c11.94.03,23.91-.04,35.85,0,40.38.12,80.81-.09,121.2,0v-22.61c0-3.14-7.73-10.26-11.5-9.83-35.14.24-70.3-.26-105.43.02ZM71.8,102.19c-11.35-.34-22.79.25-34.14,0-1.13,1.15,5.47,27.55,6.09,31.46,1.93,1.24,27.09-.81,32.32.11,4.84.85,6.58,6.03,10.23,8.53l-2.54-37.13c-.76-3.9-8.84-2.88-11.96-2.98ZM140.94,102.19h-51.21c1.67,16.56,1.37,33.45,4.38,49.81,1.88,1.79,4.73,6.02,7.17,6.49,4.26.82,21.66.55,26.49.07,4.35-.43,7.65-4.65,9.58-8.34l3.59-48.03ZM193,102.19h-44.81c-.48,0-1.31,1.44-1.28,2.13l-2.55,37.97c3.5-2.43,5.44-7.34,9.99-8.35,5.52-1.24,30.54,1.01,32.57-.29l6.09-31.46ZM81.19,147.42c-.93-1.94-5.29-7.68-7.25-7.68H26.14c-.09,0-1.28,1.19-1.28,1.28v14.08c25.12-22.63,64.18-5.92,66.74,27.14,3.81,1.85,7.81,1.99,11.78,2.73,1.91.35,3.93,1.48,6.42,1.69,5.26.45,26.96-.92,29.24-5.72.95-1.99.82-5.43,1.63-7.75,9.85-28.31,42.06-37.99,65.12-18.09v-14.08c0-.09-1.19-1.28-1.28-1.28h-47.8c-4.35,0-17.36,24.16-27.39,25.52-5.99.81-20.21.66-26.42.11-11.06-.97-13.82-12-21.73-17.95ZM34.25,169.6c1.91,1.07,4.24,3.61,6.34,3.44,1.98-.16,5.15-3.92,8.07-3.53,1.07-5.07-1.27-10.39-.76-15.27.06-.52,1.19-1.54.85-2.55-4.69-2.19-23.63,8.59-23,12.27.22,1.32,6.84,4.71,8.49,5.64ZM54.73,169.6c3.21-.61,6.35,3.66,8.9,3.44,1.26-.11,13.92-8.21,14.1-9.09.71-3.5-18.52-14.54-23-12.28v17.92ZM161.42,169.6c1.91,1.07,4.24,3.61,6.34,3.44,1.98-.16,5.15-3.92,8.07-3.53,0-5.34.35-10.79.1-16.12-.03-.57.05-1.14,0-1.7-4.71-2.18-23.63,8.59-23.01,12.27.22,1.32,6.84,4.71,8.49,5.64ZM181.91,169.6c3.21-.61,6.35,3.66,8.9,3.44,1.26-.11,13.92-8.21,14.1-9.09.73-3.61-18.44-14.52-23-12.28v17.92ZM31.69,192.64c.91-.63,3.27-.94,4.26-2.14,1.3-1.58,1.33-9.66.44-11.51-.98-2.05-3.68-1.87-4.7-2.56-1.79-1.21-7.51-6.59-9.74-5.95-1.91.54-3.98,11.89-3.98,14.06s2.12,13.64,3.96,14.05c1.74.38,7.99-4.71,9.76-5.94ZM82,198.57c2.94-6.97,3.91-14.77,2.23-22.18-.38-1.66-1.44-6-3.43-5.97-.78.01-12.74,7.29-13.31,8.08-1.28,1.78-1.37,10.29.06,12,.46.54,10.98,7.25,11.97,7.66.82.34,1.57.7,2.48.4ZM158.01,175.58c-6.84-4.5-9.24-9.28-11.56,1.66-.94,4.44-.98,9.44-.16,13.9,2.08,11.29,4.41,7.41,11.72,2.35,2.52-1.74,5.59-1.91,6.03-5.49,1.14-9.39.07-8.42-6.03-12.43ZM207.27,170.6c-.92.24-12.68,7.69-13.02,8.39-.21.44-.54,9.19-.45,9.8.31,1.93,13.58,10.1,14.92,9.8,2.04-.45,3.98-12.55,3.92-14.85-.07-2.85-1.87-14.04-5.39-13.13ZM60.64,184.49c0-4.94-4-8.94-8.94-8.94s-8.94,4-8.94,8.94,4,8.94,8.94,8.94,8.94-4,8.94-8.94ZM187.91,184.48c0-4.94-4-8.94-8.94-8.94s-8.94,4-8.94,8.94,4,8.94,8.94,8.94,8.94-4,8.94-8.94ZM34.25,199.47c-1.31.74-8.23,3.92-8.5,4.31-2.17,3.11,10.86,10.75,13.39,11.71,2.97,1.13,6.42,1.98,9.62,1.9.04-.85-.02-1.71,0-2.56.13-5.06.01-10.19-.11-15.25-2.47.29-6.89-4.01-8-4.08-1.78-.11-4.89,3.12-6.4,3.97ZM54.73,199.47c-.77,1.16.58,15.14,0,17.92,5.57,1.25,23.07-7.77,23.07-13.2-3.94-1.03-11.27-8.1-14.49-8.61-.47-.07-8.32,3.5-8.58,3.89ZM160.57,200.32c-1.03.62-7.43,3.09-7.68,3.43-.47,6.18,20.12,15.85,23.05,13.64.04-.56-.03-1.14,0-1.7.24-5.33-.07-10.77-.11-16.1-2.42.31-7-4.05-8-4.11-1.57-.08-5.83,4-7.25,4.85Z" style="fill:#060606;"/><path d="M193,217.39c-.66-.13-1.4-1.51-2.81-1.5-2.23,0-5.53,2.26-8.29,1.5v-17.92c0-.49,7.64-2.41,8.81-4.13,1.49,2.09,13.73,7.76,14.2,8.44,1.96,2.86-7.71,6.38-4.23,10.2-1.18.05-4.57,4.03-7.68,3.41Z" style="fill:#bde5f5;"/><path d="M81.19,147.42c7.91,5.96,10.67,16.98,21.73,17.95,6.21.55,20.43.7,26.42-.11,10.03-1.36,23.04-25.52,27.39-25.52h47.8c.09,0,1.28,1.19,1.28,1.28v14.08c-23.07-19.9-55.27-10.23-65.12,18.09-.81,2.33-.69,5.76-1.63,7.75-2.28,4.8-23.98,6.17-29.24,5.72-2.5-.21-4.51-1.34-6.42-1.69-8.79-9.64-14.91-21.07-20.65-32.69-.72-1.46-.78-3.28-1.54-4.86Z" style="fill:#f4e97d;"/><path d="M81.19,147.42c.76,1.58.82,3.4,1.54,4.86,5.74,11.62,11.86,23.05,20.65,32.69-3.98-.73-7.98-.88-11.78-2.73-2.56-33.06-41.62-49.77-66.74-27.14v-14.08c0-.09,1.19-1.28,1.28-1.28h47.8c1.96,0,6.32,5.74,7.25,7.68Z" style="fill:#ece04b;"/><path d="M207.27,170.6c3.51-.91,5.32,10.28,5.39,13.13.05,2.3-1.89,14.41-3.92,14.85-1.35.3-14.61-7.88-14.92-9.8-.1-.6.23-9.35.45-9.8.34-.7,12.1-8.15,13.02-8.39Z" style="fill:#bde5f5;"/><path d="M181.91,169.6v-17.92c4.56-2.24,23.74,8.67,23,12.28-.18.87-12.85,8.98-14.1,9.09-2.55.22-5.69-4.05-8.9-3.44Z" style="fill:#bde5f5;"/><path d="M158.01,175.58c-1.15,6.1-1.15,11.83,0,17.92-7.31,5.06-9.65,8.93-11.72-2.35-.82-4.46-.78-9.47.16-13.9,2.33-10.94,4.73-6.16,11.56-1.66Z" style="fill:#8dceeb;"/><circle cx="178.97" cy="184.48" r="8.94" style="fill:#b1ade2;"/><path d="M175.93,153.39c.25,5.33-.09,10.78-.1,16.12-2.92-.39-6.09,3.37-8.07,3.53-2.1.17-4.43-2.37-6.34-3.44,1.18-7.04,7.86-13.91,14.51-16.21Z" style="fill:#bde5f5;"/><path d="M160.57,200.32c1.42-.85,5.68-4.93,7.25-4.85,1.01.05,5.59,4.41,8,4.11.05,5.33.35,10.77.11,16.1-6.81-2.38-11.49-9.68-15.36-15.36Z" style="fill:#bde5f5;"/><path d="M160.57,200.32c3.88,5.68,8.56,12.98,15.36,15.36-.03.57.04,1.14,0,1.7-2.92,2.21-23.52-7.46-23.05-13.64.25-.34,6.65-2.81,7.68-3.43Z" style="fill:#8dceeb;"/><path d="M161.42,169.6c-1.66-.93-8.27-4.32-8.49-5.64-.63-3.68,18.3-14.45,23.01-12.27.04.56-.03,1.14,0,1.7-6.65,2.3-13.33,9.18-14.51,16.21Z" style="fill:#8dceeb;"/><path d="M158.01,193.5c-1.15-6.09-1.15-11.82,0-17.92,6.1,4.01,7.17,3.04,6.03,12.43-.44,3.58-3.5,3.75-6.03,5.49Z" style="fill:#bde5f5;"/><path d="M82,198.57c-.91.3-1.66-.06-2.48-.4-.99-.41-11.51-7.12-11.97-7.66-1.43-1.71-1.34-10.22-.06-12,.57-.8,12.53-8.07,13.31-8.08,1.99-.03,3.06,4.31,3.43,5.97,1.68,7.42.72,15.22-2.23,22.18Z" style="fill:#bde5f5;"/><path d="M54.73,199.47c.26-.39,8.11-3.97,8.58-3.89,3.22.52,10.55,7.59,14.49,8.61,0,5.43-17.5,14.45-23.07,13.2.58-2.78-.77-16.76,0-17.92Z" style="fill:#bde5f5;"/><path d="M54.73,169.6v-17.92c4.48-2.26,23.72,8.77,23,12.28-.18.87-12.85,8.98-14.1,9.09-2.55.22-5.69-4.05-8.9-3.44Z" style="fill:#bde5f5;"/><path d="M31.69,176.43c-1.56,4.98-1.18,11.23,0,16.21-1.77,1.23-8.02,6.33-9.76,5.94-1.84-.41-3.96-11.94-3.96-14.05s2.08-13.52,3.98-14.06c2.23-.64,7.95,4.74,9.74,5.95Z" style="fill:#8dceeb;"/><circle cx="51.7" cy="184.49" r="8.94" style="fill:#b1ade2;"/><path d="M34.25,199.47c1.51-.85,4.61-4.08,6.4-3.97,1.1.07,5.53,4.37,8,4.08.12,5.06.25,10.19.11,15.25-6.89-1.35-12.09-9.16-14.51-15.36Z" style="fill:#bde5f5;"/><path d="M47.91,154.24c-.52,4.87,1.82,10.19.76,15.27-2.92-.39-6.09,3.37-8.07,3.53-2.1.17-4.43-2.37-6.34-3.44,2.01-6.24,7.42-12.97,13.66-15.36Z" style="fill:#bde5f5;"/><path d="M34.25,199.47c2.42,6.2,7.62,14.01,14.51,15.36-.02.85.04,1.71,0,2.56-3.21.08-6.65-.77-9.62-1.9-2.52-.96-15.56-8.6-13.39-11.71.27-.39,7.19-3.57,8.5-4.31Z" style="fill:#8dceeb;"/><path d="M34.25,169.6c-1.66-.93-8.27-4.32-8.49-5.64-.63-3.68,18.31-14.46,23-12.27.34,1.01-.8,2.03-.85,2.55-6.24,2.39-11.65,9.12-13.66,15.36Z" style="fill:#8dceeb;"/><path d="M31.69,192.64c-1.18-4.99-1.56-11.23,0-16.21,1.02.69,3.71.51,4.7,2.56.89,1.85.86,9.93-.44,11.51-.99,1.2-3.35,1.51-4.26,2.14Z" style="fill:#bde5f5;"/><path d="M140.68,71.65c7.15-2.13,16.29,5.59,12.29,10.56-4.35,5.4-6.57-5.22-8.97-4.73-2.16.44-3.02,9.06-7.84,5.17-3.53-2.85,1.45-10.08,4.52-10.99Z" style="fill:#060606;"/><path d="M106.49,77.54c3.72-1.25,5.62,4.14,11.66,2.29,1.26-.39,6.61-5.68,7.47-.22,1.28,8.05-16.88,9.93-20.09,2.95-.69-1.5-1.04-4.34.96-5.01Z" style="fill:#060606;"/><path d="M86.06,72.48c6.98-2.07,4.96,10.23,3.12,10.84-6.83,2.28-7.1-9.67-3.12-10.84Z" style="fill:#060606;"/></g></svg>