<?xml version="1.0" encoding="UTF-8"?><svg id="a" xmlns="http://www.w3.org/2000/svg" viewBox="0 0 230.86 230.01"><g id="b"><path d="M51.41,43.79c-2.86-3.89,3.09-8.3,5.8-10.63,1.89-1.62,10.57-6.73,10.9-7.3.79-1.34-.92-6.56-.74-9.13.7-10.28,10.75-17.05,20.69-15.35,2.64.45,6.57,3.36,8.21,3.3,1.31-.04,4.57-2.83,7.3-3.3,4.91-.85,10.29.01,14.38,2.95,1.76,1.27,3.53,4.49,3.79,4.64,1.02.57,4.16.08,6.09.58,2.39.62,4.74,2.75,5.93,3.01,2.09.45,6.54-3.14,10.39-3.45,7.15-.58,12.99,2.05,16.66,8.3,1.66,2.84,1.94,7.2,3.32,9.11,1.11,1.52,7.61,5.08,9.82,7.05,16.63,14.8,26.85,34.36,28.4,56.85.54,7.83-1.3,19.65.03,26.61.45,2.36,4.05,4.33,4.89,7.54,1.82,6.93-.33,10.79-4.92,15.54v39.96s-3.54,3.13-3.54,3.13c-.08-.13-1.96-.19-2.73-1.23-2.66-3.58.31-33.86-.81-40.51h-10.66v62.16h10.66c.21-2.39-.71-10.07,1.12-11.37.7-.5,2.28-.02,2.43-.17,6.24.97,2.51,9.45,3.53,13.58.11.45,3.64,2.2,4.66,5.31,5.72,17.46-12.16,19.04-24.64,17.54-8.55-1.03-12.52-10.04-10.19-17.78-8.97.02-29.31-4.58-35.11-11.52-9.58-11.47,5.56-21.02,11.99-28.92,9.31-11.45,16.71-24.56,21.34-38.59-16.68-3.02-32.65-10.5-45.3-21.75-1.74-1.55-9.48-10.4-10.19-10.22-13.27,17.08-33.4,28.15-54.62,31.98,4.63,14.03,12.03,27.14,21.34,38.59,6.41,7.88,20.44,16.44,12.81,27.95-4.91,7.42-27.13,12.7-35.92,12.48,2.13,6.44-.96,15.52-7.96,17.34-3.23.84-14.75.89-18.17.36-8.72-1.35-12.28-12.95-7.48-19.8,1.34-1.91,3.29-1.9,3.5-3.64-1.93-20.16,2.32-44.37,0-64.02-.39-3.27-1.79-2.32-2.74-3.72-3.49-5.18-3.92-10.06-.73-15.61.99-1.73,2.97-2.42,3.39-4.6,1.38-7.21-.57-19.4.03-27.5.69-9.29,4.08-21.68,8.09-30.09.56-1.17,4.71-8.48,5.13-8.86,1.47-1.33,3.11-.17,4.53-.57.66,1.45,1.93,2.64,1.42,4.46-.81,2.93-5.86,9.81-7.43,13.95-1.49,3.93-4.65,14.66-4.65,18.44v29.75h10.66v-25.31c0-4.09,3.04-14.28,4.65-18.44,5.1-13.13,16.07-26.11,29.09-31.75.97-1.33-6.91-7.75-7.61-9.74-5.94,1.5-13.83,12.38-18.58,13.18-.82.14-2.06-.81-2.22-.77ZM90.49,39.35c4.71,6.3,9.88,2.05,14.63-1.8s13.13-13.2,12.83-19.89c-.32-7.42-7.39-11.11-14.2-8.99-2.9.9-4.97,5.57-7.48,5.78-3.43.28-4.04-5.46-9.35-6.17-3.3-.45-5.74-.11-8.44,1.77-11.31,7.9,3.28,25.32,11.99,29.3ZM119.79,39.35c2.46,3.15,11.59,11.94,15.33,11.39,4.99-.74,17.32-13.19,19.46-17.9,4.55-10.03-1.66-19.6-12.64-16.18-6.86,2.13-2.42,9.3-12.38,2.27-1.44-1.02-2.37-3.38-5.32-2.66.25,3.08,0,5.51-.85,8.48-1.1,3.88-5.68,8.18-6.13,9.91-.67,2.6,1.55,3.42,2.54,4.69ZM195.27,116.6v-29.75c0-2.96-2.47-11.87-3.52-15.13-4.8-14.81-16.03-30.06-29.69-37.64-.77.18-5.96,8.08-5.75,9.14s7.63,6.25,9.12,7.76c9.06,9.14,19.18,27.26,19.18,40.31v25.31h10.66ZM106.47,45.56c-5.12,1.8-7.22,5.55-13.17,3.85-7.03-2.02-4.55-6.28-13.74-1-14.42,8.27-25.02,26.44-26.36,42.9-.31,3.81-.56,24.85.44,27.06.16.35,4.56,5.61,4.88,5.81,2.76,1.73,17.69-4.17,21.3-5.8,18.69-8.46,34.77-25.09,42.41-44.16,1.5-3.75,6.14-16.6,4.2-19.77-1.8-2.94-12.62-8.16-14.26-13.31-2.63.52-4.09,2.88-5.71,4.42ZM139.33,57.11c-.95.47-4.25-.38-5.41,1.47s-3.35,13.31-4.82,17.16c-.95,2.48-2.34,5.66-3.5,8.05-1.25,2.57-6.15,8.32-5.39,10.56.51,1.5,2.27,2.57,3.13,3.61,7.51,9.06,19.86,17.69,30.85,21.99,3.03,1.18,15.96,5.51,17.98,4.23.35-.22,5.04-6.03,5.16-6.42.99-3.32.48-22.74.07-27.23-1.07-11.69-7.59-25.54-15.83-33.9-2.4-2.43-9.23-8.5-12.43-7.05l-9.81,7.54ZM34.29,123.01c-5.05,1.13-7.16,8.42-2.2,10.7,3.37,1.55,17.71,1.7,19.56-2.23,4.47-9.49-12.04-9.66-17.36-8.47ZM183.47,123c-5.41,1.21-7.17,8.43-2.19,10.7,3.38,1.55,17.71,1.7,19.56-2.23,4.47-9.48-12.04-9.67-17.37-8.47ZM53.19,138.8v65.71c8.33-.57,28.11-3.12,34.2-8.86,6.71-6.32-5.73-14.59-9.8-19.54-9.08-11.05-16.9-23.16-21.66-36.78l-2.74-.53ZM177.51,138.8l-2.74.53c-4.76,13.61-12.58,25.73-21.66,36.78-4.06,4.94-16.5,13.22-9.8,19.54,6.1,5.74,25.87,8.3,34.2,8.86v-65.71ZM46.09,141.46h-10.66v62.16h10.66v-62.16ZM32.49,210.9c-4.33,1.29-4.34,8.54.65,10.55,3.52,1.42,13.96,1.51,16.97-.93s2.63-8.51-1.09-9.62c-1.66-.5-14.87-.5-16.53,0ZM181.68,210.9c-4.33,1.29-4.34,8.54.65,10.55,3.52,1.42,13.96,1.51,16.97-.93s2.63-8.51-1.09-9.62c-1.66-.5-14.87-.5-16.53,0Z" style="fill:#090807;"/><path d="M51.41,43.79c.17-.04,1.4.91,2.22.77,4.75-.8,12.65-11.69,18.58-13.18.7,1.99,8.58,8.41,7.61,9.74-13.02,5.64-23.99,18.62-29.09,31.75-1.61,4.15-4.65,14.35-4.65,18.44v25.31h-10.66v-29.75c0-3.77,3.16-14.51,4.65-18.44,1.57-4.14,6.61-11.02,7.43-13.95.51-1.82-.77-3.01-1.42-4.46.75-.22,4.93-6.12,5.33-6.22Z" style="fill:#fa975a;"/><path d="M198.82,192.08c-.15.15-1.73-.33-2.43.17-1.83,1.3-.91,8.98-1.12,11.38h-10.66v-62.16h10.66c1.12,6.64-1.84,36.92.81,40.5.77,1.04,2.65,1.11,2.73,1.23.24.37.32,8.57,0,8.88Z" style="fill:#fea975;"/><path d="M123.34,97.95c7.91-12.35,14.48-26.04,15.98-40.85l9.81-7.54c3.2-1.44,10.04,4.62,12.43,7.05,8.24,8.36,14.76,22.21,15.83,33.9.41,4.49.92,23.91-.07,27.23-.12.39-4.81,6.2-5.16,6.42-2.03,1.27-14.96-3.05-17.98-4.23-10.99-4.3-23.33-12.92-30.85-21.99Z" style="fill:#c0e8f8;"/><path d="M79.83,118.38c-6.62-29.16,6.15-53.25,26.64-72.81,1.61-1.54,3.07-3.9,5.71-4.42,1.64,5.14,12.47,10.36,14.26,13.31,1.94,3.17-2.7,16.02-4.2,19.77-7.65,19.08-23.72,35.71-42.41,44.16Z" style="fill:#c0e8f8;"/><path d="M106.47,45.56c-20.49,19.57-33.26,43.65-26.64,72.81-3.61,1.64-18.54,7.53-21.3,5.8-.32-.2-4.72-5.47-4.88-5.81-1.01-2.2-.76-23.24-.44-27.06,1.34-16.46,11.94-34.63,26.36-42.9,9.19-5.27,6.71-1.01,13.74,1,5.94,1.71,8.05-2.05,13.17-3.85Z" style="fill:#90d2f0;"/><path d="M53.19,138.8l2.74.53c4.76,13.61,12.58,25.73,21.66,36.78,4.06,4.94,16.5,13.22,9.8,19.54-6.1,5.74-25.87,8.3-34.2,8.86v-65.71Z" style="fill:#90d2f0;"/><path d="M177.51,138.8v65.71c-8.33-.57-28.11-3.12-34.2-8.86-6.71-6.32,5.73-14.59,9.8-19.54,9.08-11.05,16.9-23.16,21.66-36.78l2.74-.53Z" style="fill:#c0e8f8;"/><path d="M195.27,116.6h-10.66v-25.31c0-13.06-10.12-31.17-19.18-40.31-1.49-1.5-8.92-6.72-9.12-7.76s4.99-8.96,5.75-9.14c13.66,7.58,24.89,22.83,29.69,37.64,1.05,3.26,3.52,12.16,3.52,15.13v29.75Z" style="fill:#faa672;"/><path d="M86.93,8.27c5.3.72,5.92,6.46,9.35,6.17,2.51-.21,4.57-4.87,7.48-5.78,6.8-2.11,13.87,1.58,14.2,8.99.29,6.7-7.88,15.9-12.83,19.89s-9.92,8.09-14.63,1.8c-5.86-7.83-6.45-22.02-3.55-31.08Z" style="fill:#fb738d;"/><path d="M119.79,39.35c5.66-4.75,10.37-12.85,9.77-20.42,9.96,7.04,5.53-.13,12.38-2.27,10.98-3.42,17.18,6.15,12.64,16.18-2.13,4.71-14.47,17.16-19.46,17.9-3.73.55-12.87-8.24-15.33-11.39Z" style="fill:#fb738d;"/><rect x="35.43" y="141.46" width="10.66" height="62.16" style="fill:#fa975a;"/><path d="M86.93,8.27c-2.9,9.06-2.31,23.25,3.55,31.08-8.71-3.98-23.3-21.41-11.99-29.3,2.7-1.89,5.14-2.22,8.44-1.77Z" style="fill:#f85b6d;"/><path d="M183.47,123c5.32-1.19,21.84-1.01,17.37,8.47-1.85,3.93-16.18,3.78-19.56,2.23-4.97-2.28-3.21-9.49,2.19-10.7Z" style="fill:#f0e67b;"/><path d="M34.29,123.01c5.32-1.19,21.83-1.02,17.36,8.47-1.85,3.93-16.19,3.78-19.56,2.23-4.96-2.28-2.85-9.57,2.2-10.7Z" style="fill:#f0e67b;"/><path d="M32.49,210.9c1.66-.5,14.87-.5,16.53,0,3.71,1.11,4.2,7.1,1.09,9.62s-13.45,2.35-16.97.93c-4.98-2.01-4.97-9.26-.65-10.55Z" style="fill:#f0e67b;"/><path d="M181.68,210.9c1.66-.5,14.87-.5,16.53,0,3.71,1.11,4.2,7.1,1.09,9.62s-13.45,2.35-16.97.93c-4.98-2.01-4.97-9.26-.65-10.55Z" style="fill:#f0e67b;"/><path d="M139.33,57.11c-1.51,14.81-8.07,28.5-15.98,40.85-.86-1.03-2.61-2.1-3.13-3.61-.77-2.24,4.13-7.99,5.39-10.56,1.16-2.39,2.55-5.57,3.5-8.05,1.47-3.85,3.7-15.37,4.82-17.16s4.45-1,5.41-1.47Z" style="fill:#90d2f0;"/><path d="M129.56,18.92c.6,7.57-4.11,15.67-9.77,20.42-.99-1.27-3.21-2.09-2.54-4.69.45-1.73,5.03-6.04,6.13-9.91.84-2.97,1.1-5.4.85-8.48,2.95-.72,3.88,1.64,5.32,2.66Z" style="fill:#f85b6d;"/></g></svg>