<?xml version="1.0" encoding="UTF-8"?><svg id="a" xmlns="http://www.w3.org/2000/svg" viewBox="0 0 234.69 235.86"><g id="b"><path d="M93.46,22.01c4.71-1.36,4.19,10.18,3.67,12.98-.47,2.58-3.04,2.9-4.65,1.28-1.99-2-2.06-13.38.97-14.26Z" style="fill:#070708;"/><path d="M43.81,50.63c2.14-.69,13.96,5.61,12.56,8.35-2.67,5.21-19.26-6.2-12.56-8.35Z" style="fill:#070708;"/><path d="M63.58,30.48c2.83-4.43,10.45,8.76,9.88,11.07-2.07,8.35-11.61-8.37-9.88-11.07Z" style="fill:#070708;"/><path d="M179.63,86.74v-15.56c0-.28,1.11-1.28.84-2.1h25.67c.09,0,1.26,1.17,1.26,1.26v15.98c0,.73,3.01,1.45,3.79,2.1,3.23,2.73,4.99,5.33,5.47,9.67-1.83,27.43,2.42,57.95.03,85.01-.43,4.91-3.68,11.29-8.92,12.12-12.86,2.04-32.23-2.28-44.54.07-1.63.31-5.06,3.52-7.16,4.62-21.35,11.23-43.64,13.56-66.24,3.92-3.79-1.62-12.83-8.12-15.04-8.53-11.88-2.21-30.22,1.5-42.91-.02-7.12-.86-9.97-6.53-10.53-13.03-2.26-26.34,1.78-55.83,0-82.51,1.11-20.93,26.85-10.18,40.44-13.42,2-1.22,10.85-23.36,14.43-27.64.94-1.13,2.01-1.9,3.28-2.61l79.12-.09c1.79.72,2.94,2.02,4.02,3.55,5.05,7.12,8.28,18.77,13.18,26.37l3.8.83ZM92.09,60.66c-2.54.05-9.3-.56-10.94.43l-10.94,20.19c.31.99,1.8.32,2.49-.04,4.4-2.3,10.21-8.2,15.18-10.48,11.79-5.4,28.81-7.61,41.56-5.79,14.54,2.08,27.14,8.47,38.39,17.56-1.53-3.53-8.92-20.92-11.52-21.71-21.39.03-42.85-.6-64.23-.16ZM186.73,137.04c0-37.32-30.27-67.58-67.61-67.58s-67.61,30.26-67.61,67.58,30.27,67.58,67.61,67.58,67.61-30.26,67.61-67.58ZM202.35,74.12h-16.83v12.62h16.83v-12.62ZM41.59,91.79c-3.93.11-9.16-.98-12.22,1.67-.48.41-2.09,2.64-2.09,2.96v31.55c4.19-.09,8.43.13,12.63,0,1.84-.06,6.28.57,7.21-.79.34-.5,1.79-9.65,2.46-11.84,2.54-8.19,7.04-16.34,12.21-23.13-6.65-.62-13.51-.61-20.2-.42ZM211.61,127.96v-29.87c0-1.62-3.94-6.31-5.47-6.31h-29.88c8.14,10.56,13.32,22.93,15.15,36.18h20.2ZM39.9,133.01c-4.19-.1-8.43.07-12.63,0v15.98c4.2-.05,8.43.06,12.63,0,2.52-.04,5.06.03,7.57,0,.32-.91-.84-1.84-.84-2.1v-13.88c-2.24-.04-4.5.05-6.73,0ZM211.61,133.01h-20.2v15.98h20.2v-15.98ZM41.59,190.22c9.21.26,18.59.15,27.77-.42-10.67-9.46-17.42-21.97-21.16-35.64-2.75-.31-5.54-.05-8.3-.12-4.19-.09-8.43.07-12.63,0v31.55c0,.32,1.61,2.55,2.09,2.96,3.06,2.64,8.29,1.55,12.22,1.67ZM211.61,154.04h-21.88c-2.71,13.94-11.06,25.73-20.2,36.18h37.46c1.5,0,4.63-4.89,4.63-6.31v-29.87Z" style="fill:#070708;"/><path d="M186.73,137.04c0,37.32-30.27,67.58-67.61,67.58s-67.61-30.26-67.61-67.58,30.27-67.58,67.61-67.58,67.61,30.26,67.61,67.58ZM177.48,137.02c0-32.21-26.12-58.32-58.35-58.32s-58.35,26.11-58.35,58.32,26.12,58.32,58.35,58.32,58.35-26.11,58.35-58.32Z" style="fill:#d9dcec;"/><path d="M211.61,154.04v29.87c0,1.42-3.13,6.31-4.63,6.31h-37.46c9.14-10.45,17.49-22.23,20.2-36.18h21.88Z" style="fill:#d2c8e1;"/><path d="M211.61,127.96h-20.2c-1.83-13.25-7.01-25.61-15.15-36.18h29.88c1.53,0,5.47,4.69,5.47,6.31v29.87Z" style="fill:#d2c8e1;"/><path d="M39.9,154.04c2.76.06,5.55-.19,8.3.12,3.74,13.67,10.48,26.18,21.16,35.64-9.18.57-18.57.68-27.77.42-3.55-11.28-.85-24.32-1.68-36.18Z" style="fill:#d2c8e1;"/><path d="M92.09,60.66c21.38-.44,42.84.19,64.23.16,2.6.78,9.99,18.17,11.52,21.71-11.26-9.09-23.85-15.48-38.39-17.56-12.75-1.82-29.77.38-41.56,5.79l4.21-10.1Z" style="fill:#bbacd3;"/><path d="M41.59,91.79c6.68-.19,13.55-.2,20.2.42-5.16,6.79-9.66,14.94-12.21,23.13-.68,2.18-2.12,11.34-2.46,11.84-.93,1.36-5.37.74-7.21.79.83-11.85-1.87-24.9,1.68-36.18Z" style="fill:#d2c8e1;"/><path d="M41.59,91.79c-3.55,11.28-.85,24.32-1.68,36.18-4.19.13-8.43-.09-12.63,0v-31.55c0-.32,1.61-2.55,2.09-2.96,3.06-2.64,8.29-1.55,12.22-1.67Z" style="fill:#bbacd3;"/><path d="M39.9,154.04c.83,11.85-1.87,24.9,1.68,36.18-3.93-.11-9.16.98-12.22-1.67-.48-.41-2.09-2.64-2.09-2.96v-31.55c4.2.07,8.43-.09,12.63,0Z" style="fill:#bbacd3;"/><rect x="191.41" y="133.01" width="20.2" height="15.98" style="fill:#bbacd3;"/><rect x="185.52" y="74.12" width="16.83" height="12.62" style="fill:#bbacd3;"/><path d="M39.9,133.01v15.98c-4.2.06-8.43-.05-12.63,0v-15.98c4.19.07,8.43-.1,12.63,0Z" style="fill:#9e8abe;"/><path d="M92.09,60.66l-4.21,10.1c-4.98,2.28-10.79,8.19-15.18,10.48-.69.36-2.18,1.03-2.49.04l10.94-20.19c1.64-.99,8.4-.37,10.94-.43Z" style="fill:#9e8abe;"/><path d="M39.9,133.01c2.24.05,4.5-.04,6.73,0v13.88c0,.26,1.16,1.19.84,2.1-2.52.04-5.06-.03-7.57,0v-15.98Z" style="fill:#bbacd3;"/><path d="M177.48,137.02c0,32.21-26.12,58.32-58.35,58.32s-58.35-26.11-58.35-58.32,26.12-58.32,58.35-58.32,58.35,26.11,58.35,58.32ZM153.53,96.83c-4.28-3.71-7.47-6.26-12.89-8.56-41.01-17.44-82.18,17.95-73.8,60.73,1.44.53,1.92-.6,2.52-.84,3-1.25,5.76-3.06,9.26-2.53-4.05-6.21-5.37-13.74-5.89-21.02,1.02-2.27,2.87-6.58,4.21-8.41l.84-.84c.27-.27.55-.61.84-.84,9.89-7.89,24.57-3.22,29.62,7.83.85,1.86,2.98,7.85,2.98,9.58,0,1.98-6.2,13.19-5.66,13.71,10.47-.66,11.43,12.1,16.99-1.94,6.7-16.89,1.83-35.21,28.02-32.54,16.02,1.63,15.21,16.34,18.73,28.39.49,1.69,1.19,5.22,2.75,6.09v-17.25c0-10.13-11.09-25.11-18.52-31.55ZM86.19,116.19c1.25,15.42,8.77,6.52,18.51,11.36-2.14-8.33-10.21-13.28-18.51-11.36ZM130.81,130.48c1.47-.04,5.97-5.16,6.3-5.89.85-1.86.36-3.94.43-5.88-4.36,2.41-4.92,7.66-6.72,11.77ZM161.1,130.48c1.78-2.18-4.06-13.87-5.88-11.77l.43,5.87,5.45,5.9ZM78.63,130.49c4.26-2.21,3.38-6.93,3.35-10.94-4.26,2.21-3.38,6.93-3.35,10.94ZM150.16,122.07c.71-3.73-6.7-2.57-7.57-1.67-2.52,2.63,7.09.31,7.57,1.67ZM144.27,127.12c-1.49-1.62-10.13,7.4-9.25,10.09,1.04,1.07,11.59-6.46,9.25-10.09ZM157.74,137.21c1.5-1.62-5.35-10.65-8.41-10.09-1.6,1.83,5.31,10.78,8.41,10.09ZM103.73,133.14c-.16-.26-5.12-2.45-5.54-2.52-1.97-.32-3.69.79-5.64.74-2.12-.05-5.49-1.85-6.7-1.75-.35.03-2.24,3.74-3.03,4.69-1.17,1.42-2.91.45-2.52,3.24.87,6.07,8.11,9.71,13.83,8.88,4.78-.7,12.32-8.96,9.6-13.28ZM158.58,143.11c-4.04,1.75-10.25-7.84-12.09-7.52-1.65,1.18-2.76,2.87-4.47,4-5.88,3.89-9.88,2.88-5.35,11.52,6.67,12.73,22.21,4.32,21.91-8.01ZM121.55,162.46c.31.17.56,1.86,1.96,1.6,2.14-.39,7.89-6.86,12.34-4.97l-5.05-8.41-2.52-9.25c1.72,5.1-9.77,16.65-10.05,18.19-.36,2.02,2.34,2.29,3.31,2.84ZM166.99,161.61c4.06-6.88,1.76-13.15-3.35-18.51.6,6.25-3.73,10.65-5.9,15.98,3.68-.75,5.95,1.88,9.24,2.53ZM71.89,153.2c-.99.84-2.47,1.13-2.51,2.92-.07,3.55,8.18,13.97,10.52,17.27,2.77.27.02-2.56-.41-3.84-.3-.89.18-2.41-.02-2.88,3.3-7.56-8.51-8.42.84-15.98-3.94-.35-5.56.1-8.42,2.52ZM117.34,188.54v-21.45c0-.37-3.67-3.53-4.07-6.11-.37-2.42,1.59-4.8.29-6.93-.99-1.62-8.41-4.45-9.68-3.37-.37,2.2,2.27,2.76,2.95,4.22,1.78,3.81-3.05,5.35-3.63,8.17-.41,2,1.46,4.93.5,8.05-.73,2.38-9.11,9.71-9.13,11.95-.03,2.65,12.52,6.44,13.51,5.46-1.68-14.44,6.74-14.44,5.05,0h4.21ZM95.45,152.36h-7.57s3.37,10.09,3.37,10.09l3.8-7.55.4-2.54ZM160.26,164.14c-3.37,1.38-7-1.99-8.97-2.27-4.16-.59-9.29.8-12.87,1.9-1.62.5-5.61-.4-5.08,1.61,1.01,3.87,5.34,2.71,8.65,3.98,1.73.66,4.27,3.28,5.11,3.13.52-.09,2.4-2.23,3.9-2.89,3.97-1.75,9.02.07,9.26-5.46ZM89.56,174.23c.44-3.98-1.44-8.83-4.19-11.78-.8,5.34-.87,8.63,4.19,11.78ZM94.62,173.39c4.93-2.71,4.71-5.97,3.35-10.93l-3.16,6.5-.19,4.43ZM124.07,190.22c7.78.58,1.38-5.56,1.65-10.49.29-5.19,7.3-9.89,2.15-12.23-.72.15-3.8,5-3.8,5.47v17.25ZM156.9,173.4c-5.54-1.88-7.13,6.54-9.7,6.78-4.1.39-5.13-9.12-11.96-6.16-4.17,1.81-4.78,9.91-2.33,12.84,2.11,2.53,11.3-2.72,13.62-4.07,1.1-.64,12.1-7.88,10.37-9.39Z" style="fill:#070708;"/><path d="M153.53,96.83c7.43,6.44,18.52,21.42,18.52,31.55v17.25c-1.56-.87-2.25-4.4-2.75-6.09-3.52-12.06-2.71-26.77-18.73-28.39-26.2-2.66-21.32,15.65-28.02,32.54-5.57,14.04-6.53,1.28-16.99,1.94-.53-.52,5.67-11.73,5.66-13.71,0-1.74-2.13-7.72-2.98-9.58-5.05-11.06-19.74-15.72-29.62-7.83,1.44-5.76,8.02-11.37,12.7-14.65,15.14-10.59,33.48-13.38,51.09-7.46,3.88,1.3,7.03,4.03,11.13,4.44Z" style="fill:#cfebf5;"/><path d="M153.53,96.83c-4.09-.42-7.24-3.14-11.13-4.44-17.61-5.91-35.95-3.13-51.09,7.46-4.68,3.28-11.26,8.89-12.7,14.65-.29.24-.57.57-.84.84s-.6.51-.84.84c-1.33,1.83-3.19,6.14-4.21,8.41-3.29,7.37-6.07,15.25-3.37,23.56-.6.25-1.08,1.38-2.52.84-8.38-42.78,32.79-78.17,73.8-60.73,5.42,2.31,8.61,4.85,12.89,8.56Z" style="fill:#a5c5dd;"/><path d="M117.34,188.54h-4.21c1.69-14.44-6.73-14.43-5.05,0-1,.98-13.54-2.82-13.51-5.46.02-2.25,8.4-9.58,9.13-11.95.96-3.12-.91-6.04-.5-8.05.57-2.82,5.4-4.36,3.63-8.17-.68-1.45-3.32-2.02-2.95-4.22,1.27-1.08,8.69,1.75,9.68,3.37,1.3,2.12-.66,4.51-.29,6.93.39,2.58,4.07,5.74,4.07,6.11v21.45Z" style="fill:#a5c5dd;"/><path d="M158.58,143.11c.31,12.33-15.24,20.74-21.91,8.01-4.53-8.65-.53-7.63,5.35-11.52,1.71-1.13,2.82-2.82,4.47-4,1.84-.32,8.05,9.27,12.09,7.52Z" style="fill:#ebcab0;"/><path d="M103.73,133.14c2.72,4.32-4.82,12.59-9.6,13.28-5.72.83-12.96-2.81-13.83-8.88-.4-2.78,1.34-1.82,2.52-3.24.79-.95,2.67-4.66,3.03-4.69,1.21-.1,4.58,1.7,6.7,1.75,1.95.05,3.68-1.06,5.64-.74.42.07,5.38,2.26,5.54,2.52Z" style="fill:#ebcab0;"/><path d="M156.9,173.4c1.72,1.51-9.28,8.75-10.37,9.39-2.31,1.35-11.5,6.6-13.62,4.07-2.45-2.93-1.84-11.03,2.33-12.84,6.83-2.96,7.87,6.56,11.96,6.16,2.56-.25,4.15-8.66,9.7-6.78Z" style="fill:#a5c5dd;"/><path d="M160.26,164.14c-.25,5.53-5.29,3.7-9.26,5.46-1.5.66-3.38,2.8-3.9,2.89-.84.15-3.38-2.47-5.11-3.13-3.3-1.27-7.64-.11-8.65-3.98-.52-2.01,3.46-1.12,5.08-1.61,3.57-1.1,8.7-2.49,12.87-1.9,1.96.28,5.6,3.65,8.97,2.27Z" style="fill:#ebcab0;"/><path d="M72.73,124.6c.52,7.28,1.85,14.81,5.89,21.02-3.5-.53-6.26,1.28-9.26,2.53-2.71-8.3.07-16.19,3.37-23.56Z" style="fill:#cfebf5;"/><path d="M166.99,161.61c-3.3-.64-5.56-3.28-9.24-2.53,2.17-5.33,6.5-9.73,5.9-15.98,5.11,5.36,7.41,11.63,3.35,18.51Z" style="fill:#f6f6f6;"/><path d="M130.81,150.68c-3.68,3.34-4.85,9.13-9.26,11.78-.97-.54-3.67-.82-3.31-2.84.27-1.54,11.77-13.09,10.05-18.19l2.52,9.25Z" style="fill:#bbacd3;"/><path d="M130.81,150.68l5.05,8.41c-4.46-1.88-10.21,4.58-12.34,4.97-1.4.26-1.65-1.43-1.96-1.6,4.41-2.65,5.58-8.44,9.26-11.78Z" style="fill:#f6f6f6;"/><path d="M79.46,166.66c.21.48-.27,1.99.02,2.88.43,1.29,3.17,4.11.41,3.84-2.34-3.29-10.58-13.71-10.52-17.27.03-1.79,1.52-2.08,2.51-2.92,1.56,2.42,2.2,5.33,3.52,7.84.83,1.57,3.75,4.91,4.06,5.62Z" style="fill:#cfebf5;"/><path d="M124.07,190.22v-17.25c0-.47,3.08-5.31,3.8-5.47,5.15,2.34-1.87,7.04-2.15,12.23-.27,4.92,6.13,11.07-1.65,10.49Z" style="fill:#ebcab0;"/><path d="M71.89,153.2c2.85-2.42,4.48-2.86,8.42-2.52-9.35,7.56,2.46,8.41-.84,15.98-.31-.71-3.23-4.05-4.06-5.62-1.32-2.51-1.96-5.42-3.52-7.84Z" style="fill:#a5c5dd;"/><polygon points="95.45 152.36 95.05 154.9 91.26 162.45 87.88 152.36 95.45 152.36" style="fill:#d9dcec;"/><path d="M144.27,127.12c2.34,3.63-8.21,11.15-9.25,10.09-.88-2.69,7.76-11.71,9.25-10.09Z" style="fill:#676059;"/><path d="M157.74,137.21c-3.1.7-10.01-8.26-8.41-10.09,3.06-.56,9.9,8.47,8.41,10.09Z" style="fill:#676059;"/><path d="M161.1,130.48l-5.45-5.9-.43-5.87c1.82-2.1,7.66,9.59,5.88,11.77Z" style="fill:#d9dcec;"/><path d="M130.81,130.48c1.8-4.11,2.36-9.36,6.72-11.77-.07,1.93.42,4.02-.43,5.88-.33.73-4.83,5.85-6.3,5.89Z" style="fill:#bbacd3;"/><path d="M89.56,174.23c-5.06-3.15-4.99-6.44-4.19-11.78,2.75,2.95,4.63,7.79,4.19,11.78Z" style="fill:#9e8abe;"/><path d="M78.63,130.49c-.03-4.01-.91-8.73,3.35-10.94.03,4.01.91,8.73-3.35,10.94Z" style="fill:#676059;"/><path d="M94.62,173.39l.19-4.43,3.16-6.5c1.36,4.96,1.58,8.22-3.35,10.93Z" style="fill:#9e8abe;"/><path d="M150.16,122.07c-.48-1.36-10.09.96-7.57-1.67.87-.9,8.28-2.06,7.57,1.67Z" style="fill:#676059;"/><path d="M86.19,116.19c8.29-1.92,16.37,3.03,18.51,11.36-9.74-4.84-17.25,4.06-18.51-11.36Z" style="fill:#676059;"/><path d="M76.94,116.18c.24-.33.56-.56.84-.84l-.84.84Z" style="fill:#cfebf5;"/></g></svg>