<?xml version="1.0" encoding="UTF-8"?><svg id="a" xmlns="http://www.w3.org/2000/svg" viewBox="0 0 230.86 230.01"><g id="b"><path d="M28.32,185.27c1.31,1.12.46,10.72,9.51,14.91,1.71.79,7.12,1.67,7.37,1.96.23.27.35,6.78.09,7.02-.46.43-7.37.12-11.6,3.95-3.98,3.61-4.87,11.51-5.37,11.94-.27.23-6.77.34-7.02.08-.27-.28-.33-5.25-1.6-7.72-1.6-3.11-5.86-6.64-9.22-7.65-1.52-.46-4.98-.43-5.17-.61-.24-.23-.22-5.95-.06-6.56.18-.66,8.84-2.25,12.09-5.83,3.83-4.22,3.52-11.14,3.95-11.59.24-.26,6.76-.14,7.03.09ZM32.84,204.73c-3.38-.94-5.75-4.29-7.55-7.12-1.62,3.38-11.23,8.15-5.36,9.74l5.34,5.34,7.56-7.97Z" style="fill:#080807;"/><path d="M32.84,204.73l-7.56,7.97-5.34-5.34c-5.87-1.6,3.74-6.37,5.36-9.74,1.8,2.83,4.16,6.18,7.55,7.12Z" style="fill:#f6bd59;"/><path d="M189.18,205.61c0,6.33-1.71,2.3-7.15,3.95-7.18,2.18-6.42,13.38-6.17,19.14h-20.43v-12.88c0-11.46,13.51-25.14,24.64-26.87,7.61-1.18,26.18,3.15,28.47-7.06.54-2.4-.73-13.58,1.52-13.58h19.1v16.43c0,9.05-13.75,20.93-22.2,23.1-4.67,1.2-10.94,3.67-11.55-2.23-.12-1.16.06-2.39,0-3.56,14.95,1.74,30.02-10.95,26.14-26.65-8.36-.73-4.78.65-5.92,6.47-3.61,18.41-22.7,11.1-35.54,14.2-11.89,2.86-18.68,14.56-17.55,26.42,1.23-.21,5.9.31,6.21-.01.36-.37.83-7.89,1.74-10.25,2.85-7.43,11.09-11.09,18.7-10.17.02,1.18,0,2.37,0,3.56Z" style="fill:#080a0a;"/><path d="M189.18,205.61c0-1.19.02-2.37,0-3.56-7.62-.92-15.85,2.75-18.7,10.17-.91,2.36-1.38,9.88-1.74,10.25-.32.32-4.99-.2-6.21.01-1.13-11.86,5.66-23.56,17.55-26.42,12.84-3.09,31.93,4.21,35.54-14.2,1.14-5.82-2.45-7.2,5.92-6.47,3.88,15.71-11.19,28.4-26.14,26.65.07,1.17-.12,2.39,0,3.56h-6.22Z" style="fill:#7ee9ee;"/><path d="M35.51,1.34c2.64,22.64-11.15,36.39-33.76,33.75V14.66c13.35,1,14.32.03,13.32-13.32h20.43ZM15.08,20.88c-5.35,1.21-8.03-2.59-7.11,7.11,2.8.68,4.92-.43,7.11-.89,10.55-2.21,13.98-8.79,13.33-19.54-10.37-1.64-5.19,4.24-8.68,9.53-.69,1.04-3.81,3.61-4.65,3.79Z" style="fill:#080807;"/><path d="M15.08,20.88c.83-.19,3.96-2.75,4.65-3.79,3.49-5.29-1.68-11.17,8.68-9.53.65,10.75-2.77,17.33-13.33,19.54v-6.22Z" style="fill:#f6bd59;"/><path d="M15.08,20.88v6.22c-2.19.46-4.31,1.57-7.11.89-.92-9.7,1.76-5.9,7.11-7.11Z" style="fill:#eb5473;"/><path d="M164.93,103.57c2.88-.75,10.82,9.62,12.17,12.43,3.69,7.67,3.2,15.45-1.03,22.77-2.3,3.97-12.96,13.46-13.41,15.08-1.27,4.55,7.82,7.62,6.89,11.17-.26,1-12.57,13.16-13.55,12.99-13.16-10.25-19.29-23.55-8.41-38.42,2.01-2.75,10.79-10.18,11.27-11.89,1.27-4.55-7.82-7.62-6.89-11.17.23-.89,12.08-12.73,12.96-12.96ZM164.94,113.34c-1.07.27-3.32,2.69-3.32,3.9,0,1.78,4.68,4.16,4.51,9.74-.26,8.49-15.3,14.31-16.86,24.06-.72,4.47-.01,9.55,2.6,13.28,1.89,2.69,4.2,5.3,6.72,2.26,3.22-3.9-2.15-5.27-2.97-9.59-2.03-10.62,14.92-15.87,16.64-26.48.66-4.05-1.44-18.66-7.31-17.17Z" style="fill:#080807;"/><path d="M164.94,113.34c5.87-1.5,7.97,13.12,7.31,17.17-1.72,10.61-18.67,15.85-16.64,26.48.83,4.32,6.19,5.7,2.97,9.59-2.52,3.04-4.83.43-6.72-2.26-2.61-3.73-3.32-8.81-2.6-13.28,1.56-9.75,16.6-15.57,16.86-24.06.17-5.58-4.51-7.96-4.51-9.74,0-1.21,2.25-3.63,3.32-3.9Z" style="fill:#f6bd59;"/><path d="M44.39,90.15c-2.83-5.45,2.57-5.29,4.84-8.92,5.06-8.07-6.16-17.68-4.84-19.48,4.48-.32,13.24-8.5,16.6-8.79,2.91-.25,9.14,15.27,9.65,18.5,1.44,9.08-1.83,19.82-8.45,26.28-4.75,4.63-18.3,9.86-20.88,13.76-5.16,7.79,1.68,12.9,4.04,19.87-2.72,1.33-16.08,10.27-17.73,9.3-12.78-16.95-11.44-42.06,9.96-50.58.44.05,1.26,1.39,1.48,1.84,2.58,5.25-.5,4.21-3.48,6.74-8.88,7.55-11.79,15.64-8.07,27.01.78,2.37,1.75,3.96,2.74,6.17l6.2-3.12c.15-2.21-3.47-5.29-3.61-5.71-.41-1.26-.08-7.43.21-9.11,1.97-11.58,15.74-13.48,23.31-20.21,8.96-7.97,10.4-22.57,2.7-31.85-9.07,2.89-1.73,7.26-1.4,13.78.27,5.43-4.6,14.16-9.77,15.91-2.07.7-2.5-1.23-3.5-1.38Z" style="fill:#080807;"/><path d="M32.84,123.01l-5.33,2.66c-3.72-11.37-.82-19.46,8.07-27.01,2.98-2.53,6.06-1.49,3.48-6.74,1.72.03,3.83-2,5.33-1.78,1,.15,1.43,2.08,3.5,1.38,5.17-1.76,10.04-10.48,9.77-15.91-.33-6.52-7.67-10.89,1.4-13.78,7.7,9.28,6.26,23.88-2.7,31.85-7.57,6.73-21.34,8.63-23.31,20.21-.29,1.69-.62,7.85-.21,9.11Z" style="fill:#f6e583;"/><path d="M32.84,123.01c.14.42,3.75,3.51,3.61,5.71l-6.2,3.12c-.99-2.2-1.96-3.79-2.74-6.17l5.33-2.66Z" style="fill:#f7d902;"/><path d="M28.55,73.42c0,7.44-6.03,13.47-13.47,13.47s-13.47-6.03-13.47-13.47,6.03-13.47,13.47-13.47,13.47,6.03,13.47,13.47ZM21.66,73.53c0-3.64-2.95-6.58-6.58-6.58s-6.58,2.95-6.58,6.58,2.95,6.58,6.58,6.58,6.58-2.95,6.58-6.58Z" style="fill:#080a0a;"/><circle cx="15.08" cy="73.53" r="6.58" style="fill:#7ee9ee;"/><path d="M106.53,104.4c.28.28.97,6.02,1.57,7.76,2.57,7.41,8.61,12.78,16.18,14.9,1.54.43,5.19.2,5.39.39.24.23.21,5.96.05,6.56-.24.89-6.17,1.52-7.79,2.14-6.42,2.44-11.33,7.32-13.77,13.77-.59,1.55-1.38,7.39-1.68,7.64-.27.23-6.78.35-7.02.1-.19-.2,0-3.83-.4-5.38-1.5-5.72-5.84-11.81-11.1-14.66-2.96-1.6-11.14-2.67-11.55-3.1-.25-.25-.3-6.82-.05-7.07s4.94-.09,6.95-.6c8-2.06,14.41-9.78,16.08-17.68.26-1.21-.13-4.61.07-4.81.25-.25,6.82-.2,7.07.05ZM90.58,131.88c5.72,1.83,9.14,7.27,12.88,11.54,3.17-5.29,6.68-8.8,11.97-11.97-4.6-3.72-9.32-7.43-11.97-12.87-3.3,5.62-7.98,9.23-12.88,13.31Z" style="fill:#080807;"/><path d="M90.58,131.88c4.9-4.08,9.58-7.69,12.88-13.31,2.65,5.44,7.37,9.15,11.97,12.87-5.29,3.17-8.8,6.68-11.97,11.97-3.74-4.27-7.16-9.7-12.88-11.54Z" style="fill:#f08a9f;"/><path d="M229.16,41.31v20.43h-12.88c-2.39,0-8.87-3.35-11.03-4.96-11.87-8.89-9.38-21.01-10.24-34.17-1.49-2.13-12.94.61-12.94-2.16V1.34h15.55c7.11,0,17.18,12.22,18.13,19.17,1.74,12.69-6.33,23.69,13.4,20.79ZM196.29,8.45c-1.12-.16-7-.3-7.12.51v5.71s7.12,0,7.12,0c.34,1.39,2.86,2.2,3.97,3.59,4.22,5.26,1.42,15.88,2.33,22.53,1.28,9.34,11.32,15.43,20.36,13.85,1.11-9.89-2.43-5.78-8.05-7.5-7.73-2.36-4.78-14.31-5.29-20.46-.64-7.62-4.69-17-13.31-18.22Z" style="fill:#080807;"/><path d="M196.29,8.45c8.63,1.22,12.67,10.6,13.31,18.22.51,6.15-2.43,18.1,5.29,20.46,5.62,1.72,9.16-2.39,8.05,7.5-9.04,1.59-19.07-4.51-20.36-13.85-.91-6.65,1.89-17.27-2.33-22.53-1.11-1.38-3.63-2.2-3.97-3.59-.4-1.65.28-4.37,0-6.22Z" style="fill:#8fe2b0;"/><path d="M196.29,8.45c.28,1.85-.4,4.57,0,6.22h-7.11s-.01-5.71-.01-5.71c.12-.81,6-.67,7.12-.51Z" style="fill:#7ee9ee;"/><path d="M216.63,83.14c.23.27.35,6.78.1,7.02-.2.2-3.61-.18-4.81.07-7.3,1.54-14.41,7-16.94,14.16-.87,2.45-1.04,8.54-1.35,8.86-.25.26-6.86.24-7.1-.01-.3-.31-.77-6.29-1.62-8.59-2.19-5.92-7.7-11.85-13.89-13.64-2.31-.67-7.32-.57-7.6-.84-.25-.24-.13-6.75.1-7.02.27-.32,6.43-1.25,8.24-1.97,6.05-2.39,11.07-7.23,13.25-13.4.75-2.13,1.22-8.37,1.52-8.69.27-.28,5.94-.31,6.71.82.72,1.06.26,3.81.78,5.43,2.15,6.7,6.8,13.14,13.56,15.75,1.81.7,8.75,1.69,9.05,2.05ZM190.94,74.17c-1.6-1.1-4.84,5.34-6.17,6.69-.98.99-7.1,4.81-7.12,5.3,3.52,1.01,10.53,11.31,11.98,11.99s4.27-5.88,5.73-6.69l7.14-5.3c-3.08-1.6-5.65-3.63-8.01-6.19-1.47-1.6-3.27-5.59-3.55-5.79Z" style="fill:#080807;"/><path d="M190.94,74.17c.28.19,2.08,4.19,3.55,5.79,2.35,2.57,4.93,4.59,8.01,6.19l-7.14,5.3c-1.46.81-4.28,7.36-5.73,6.69s-8.46-10.98-11.98-11.99c.02-.49,6.14-4.31,7.12-5.3,1.34-1.34,4.57-7.79,6.17-6.69Z" style="fill:#f6e583;"/><path d="M229.26,141.22c0,7.42-6.01,13.43-13.43,13.43s-13.43-6.01-13.43-13.43,6.01-13.43,13.43-13.43,13.43,6.01,13.43,13.43ZM222.5,141.21c0-3.68-2.99-6.67-6.67-6.67s-6.67,2.98-6.67,6.67,2.99,6.67,6.67,6.67,6.67-2.98,6.67-6.67Z" style="fill:#080807;"/><circle cx="215.84" cy="141.21" r="6.67" style="fill:#f08a9f;"/><path d="M147.43,76.83c-13.35-1-14.32-.03-13.32,13.32h-20.43v-14.65c0-5.21,7.7-13.7,12.4-16.02,3.28-1.62,21.35-5.69,21.35-1.74v19.09ZM140.33,63.51c-10.59-1.34-19.58,5.91-20.38,16.55-.4,5.25,2.99,3.76,7.06,3.88-.86-4.91,1.48-11.93,6.84-13.14,6.54-1.47,7.07,2.98,6.48-7.3Z" style="fill:#080a0a;"/><path d="M140.33,63.51c.59,10.27.05,5.82-6.48,7.3-5.36,1.21-7.7,8.23-6.84,13.14-4.07-.12-7.46,1.37-7.06-3.88.8-10.64,9.79-17.89,20.38-16.55Z" style="fill:#7ee9ee;"/><path d="M164.25,21.32c0,11.11-9.01,20.12-20.12,20.12s-20.12-9.01-20.12-20.12S133.01,1.21,144.12,1.21s20.12,9.01,20.12,20.12ZM142.97,34.52c4.97.41,9.76-2.01,12.37-6.26s2.61-9.61,0-13.86-7.4-6.67-12.37-6.26c-6.87.57-12.16,6.31-12.16,13.2,0,6.89,5.29,12.63,12.16,13.2Z" style="fill:#080807;"/><path d="M142.97,34.52c-7.27-8.12-7.26-18.27,0-26.39,4.97-.41,9.76,2.01,12.37,6.26s2.61,9.61,0,13.86-7.4,6.67-12.37,6.26ZM147.44,18.21h-6.23v6.23h6.23v-6.23Z" style="fill:#f6e583;"/><path d="M142.96,8.12c-7.26,8.13-7.27,18.27,0,26.39-6.87-.57-12.16-6.3-12.16-13.2,0-6.89,5.29-12.63,12.16-13.2Z" style="fill:#f7d902;"/><rect x="141.21" y="18.21" width="6.23" height="6.23" style="fill:#080807;"/><path d="M131.7,208.71c0,11.1-9,20.09-20.1,20.09s-20.1-8.99-20.1-20.09,9-20.09,20.1-20.09,20.1,8.99,20.1,20.09ZM110.09,221.84c5.07.61,10.05-1.75,12.78-6.07,2.73-4.32,2.73-9.82,0-14.14s-7.7-6.68-12.78-6.07c-6.65.8-11.65,6.45-11.65,13.14,0,6.7,5,12.34,11.65,13.14Z" style="fill:#080807;"/><path d="M110.09,221.84c-6.96-8.74-6.73-17.49,0-26.28,5.07-.61,10.05,1.75,12.78,6.07s2.73,9.82,0,14.14c-2.73,4.32-7.7,6.68-12.78,6.07ZM114.57,205.6h-6.23v6.23h6.23v-6.23Z" style="fill:#f08a9f;"/><path d="M110.09,195.56c-6.73,8.78-6.96,17.54,0,26.28-6.65-.8-11.65-6.44-11.65-13.14,0-6.7,5-12.34,11.65-13.14Z" style="fill:#eb5473;"/><rect x="108.34" y="205.6" width="6.23" height="6.23" style="fill:#fdfdfd;"/><path d="M63.61,148.83c12.43,8.5,19.18,21.55,10.82,35.74-1.18,2-8,10.4-10.06,10.4-1.44,0-13.8-12.46-13.8-13.8,0-2.53,6.9-6.05,7.18-8.93.38-3.84-7.93-7.09-7.06-10.43.23-.89,12.01-12.83,12.91-12.99ZM63.61,158.6c-.4.07-4.1,3.65-4.11,3.93s2.95,2.82,3.71,4.26c4.73,8.95-3.99,13.31-3.66,15.16.12.71,3.66,4.22,4.7,4.05,4.12-.69,7.05-11.71,6.83-15.5-.18-3.16-3.99-12.51-7.47-11.9Z" style="fill:#080807;"/><path d="M63.61,158.6c3.48-.61,7.29,8.73,7.47,11.9.22,3.8-2.71,14.82-6.83,15.5-1.04.17-4.58-3.34-4.7-4.05-.32-1.85,8.39-6.2,3.66-15.16-.76-1.44-3.71-3.98-3.71-4.26s3.71-3.86,4.11-3.93Z" style="fill:#8fe2b0;"/><path d="M79.04,8.44c.38.41-.22,5.79,3.53,10.24,4.95,5.89,11.94,5.26,12.45,5.76.24.23.22,5.95.06,6.56-.18.66-8.84,2.25-12.09,5.83-3.83,4.22-3.52,11.14-3.95,11.59-.23.24-5.97.21-6.57.05-.93-.25-1.46-11.48-10.58-15.33-1.49-.63-6.52-1.42-6.75-1.69s-.35-6.78-.09-7.02c.2-.18,3.75.08,5.37-.41,3.62-1.1,7.95-4.79,9.51-8.25.66-1.47,1.68-6.91,2.12-7.2.36-.23,6.75-.37,6.99-.12ZM71.62,25.01c-1.13,1.13-3.16,1.82-4.11,3.42,3.18,2.08,5.45,4.35,7.53,7.53,2.28-3.02,4.51-5.25,7.54-7.53l-7.53-7.53c-1.61.95-2.29,2.98-3.42,4.11Z" style="fill:#080807;"/><path d="M71.62,25.01c1.13-1.13,1.81-3.16,3.42-4.11l7.53,7.53c-3.02,2.29-5.25,4.51-7.54,7.53-2.08-3.18-4.35-5.45-7.53-7.53.96-1.6,2.98-2.29,4.11-3.42Z" style="fill:#f08a9f;"/></g></svg>