<?xml version="1.0" encoding="UTF-8"?><svg id="a" xmlns="http://www.w3.org/2000/svg" viewBox="0 0 230.86 230.01"><g id="b"><path d="M57.82,19.47c.13.08.19,1.96,1.23,2.73,42.72,2.68,86.38-.77,129.3.82v6.21c-47.74,1.02-97.89,1.02-145.63,0v-6.21c7.59-.67,4.65-2.55,6.22-3.55.37-.24,8.51-.24,8.88,0Z" style="fill:#e3917f;"/><path d="M212.33,69.18c.54.78-.55,8.03,0,8.88l-3.16,2.62-.4,84.38c-4.89-3.63-14.13-3.12-18.89-5.52-1.59-.8-2.04-2.83-3.87-4.12-2.19-1.54-6.25-1.7-6.49-1.95-.44-.45-.09-5.03.41-6.16.99-2.21,7.27-6.48,9.16-9.48,1.86-2.94,2.13-7.44,3.28-9.15.73-1.09,3.43-1.78,4.88-3.11,5.34-4.92,9.25-13,5.81-20.05-.76-1.54-2.64-2.96-2.98-4.13-1.51-5.18.65-12.89-1.53-19.78-2.75-8.72-7.51-9.22-12-14.64-3.56-4.3-2.87-7.9-9.76-10.66-5.6-2.24-26.17-2.2-31.67.29-6.73,3.04-6,6.71-9.56,10.86-1.84,2.14-5.31,3.77-7.58,6.62-8.08,10.13-3.45,16.57-5.37,26.59-.41,2.13-3.29,3.99-4,6.65-1.86,6.98,2.03,14.18,7.12,18.67,1.28,1.13,3.64,1.53,4.41,2.69,1.27,1.89,1.43,6.44,3.64,9.68,1.81,2.65,7.88,6.87,8.81,8.95.51,1.13.85,5.71.41,6.16-.24.24-4.21.49-6.47,1.97-2.23,1.46-3.29,4.36-4.78,4.99s-13.07,2.81-14.95,2.88c-4.22.15-7.17-2.59-10.63-2.54-2.76.04-4.36,2.48-6.83,2.36-1.14-.05-15.21-3.73-15.67-4.4-.3-.44-.24-3.29-.13-3.41.28-.29,6.02-.77,7.98-1.35,4.87-1.44,21.27-7.3,22.04-12.6.58-4-4.43-12.56-4.33-16.71.09-3.56,5.2-7.44,4.33-13.93-.68-5.04-4.48-5.94-5.01-7.48-1.19-3.43.35-12.82-1.16-17.48-.61-1.87-2.86-1.52-4.31-1.46.53-1.42-2.73-7.69-3.55-7.99,3.94-6.56-6.62-8.68-8.88-11.1-1.33-1.42-1.62-6.19-4.07-9.25-6.85-8.57-24.57-8.8-31.92-.97-3.57,3.8-3.18,7.76-4.79,10.1-.39.56-3.88,1.67-5.33,2.87-7.85,6.47-11.58,12.72-12.49,23.02-.31,3.53.71,9.38,0,12.24-.12.51-4.69,2.78-5.31,7.36-.91,6.72,4.05,9.89,4.39,13.27.41,4.1-4.66,12.75-4.41,16.78.43,6.85,19.78,12.83,25.7,14.3,3.02.75,5.53-.78,4.52,3.4-.2.84-15.24,4.91-16.51,4.87-2.4-.08-3.86-2.55-6.82-2.36-3.76.23-8.22,3.14-11.34,5.14.25-3.17-.77-6.14-.94-9.28-1.82-33.7.26-69.73.93-103.46,7.56-3.1,13.62-9.42,16.87-16.87,52.73-1.89,106.55,1.42,159.4,0,2.12.28,2.48,2.64,3.96,4.03,1.36,1.27,6.69,5.46,6.96,6.35,1.43,4.68-1.49,19.14,1.07,22.01.39.44,1.66.31,1.76.46Z" style="fill:#b1d8fb;"/><path d="M212.33,69.18c6.9-.32,1.95-17.91,3.56-19.53l7.15,1.4v128.58s-7.15,1.4-7.15,1.4l.04-99.02c-.58-4.34-3.31-3.52-3.59-3.95-.55-.85.54-8.1,0-8.88Z" style="fill:#cf7760;"/><path d="M145.73,197.9c.12.08.06,1.68,1.38,2.58,2.99,2.02,34.71.83,41.24.97v6.21c-46.22,1.71-99.41,1.71-145.63,0v-6.21c11.87-.25,89.16,1.96,92.9-.82,1.04-.77,1.11-2.65,1.23-2.73.37-.24,8.51-.24,8.88,0Z" style="fill:#e3917f;"/><polygon points="15.2 56.75 15.2 173.93 8.03 173.04 8.03 57.64 15.2 56.75" style="fill:#e3917f;"/><path d="M29.41,23.02c-.59,10.56-10.64,20.78-21.31,20.42v-20.42h21.31Z" style="fill:#f4d772;"/><path d="M222.99,23.02v20.42c-10.67.36-20.72-9.85-21.31-20.42h21.31Z" style="fill:#f4d772;"/><path d="M29.41,207.66H8.09v-20.42c10.67-.36,20.72,9.85,21.31,20.42Z" style="fill:#f4d772;"/><path d="M222.99,187.25v20.42h-21.31c.59-10.56,10.64-20.78,21.31-20.42Z" style="fill:#f4d772;"/><path d="M39.17,36.33c-3.25,7.44-9.32,13.77-16.87,16.87,0-.16-.93-1.45-.98-3.04-.21-5.71,2.01-4.55,5-7.6,1.12-1.13,4.54-5.59,4.87-5.79,1.65-1,5.79-.37,7.99-.45Z" style="fill:#9b9494;"/><polygon points="15.2 173.93 15.2 181.07 8.03 181.07 8.03 173.04 15.2 173.93" style="fill:#cf7760;"/><polygon points="8.03 57.64 8.03 49.65 15.2 49.65 15.2 56.75 8.03 57.64" style="fill:#cf7760;"/><path d="M42.73,23.02v6.21c-2.02-.04-7.15,1.04-7.14-1.34.03-6.8,2.23-4.44,7.14-4.88Z" style="fill:#cf7760;"/><path d="M188.36,23.02c5.07.19,7.11-1.63,7.14,4.88.01,2.38-5.12,1.3-7.14,1.34v-6.21Z" style="fill:#cf7760;"/><path d="M42.73,201.45v6.21c-5.07-.19-7.11,1.63-7.14-4.88-.01-2.38,5.12-1.3,7.14-1.34Z" style="fill:#cf7760;"/><path d="M188.36,201.45c2.02.04,7.15-1.04,7.14,1.34-.03,6.51-2.07,4.69-7.14,4.88v-6.21Z" style="fill:#cf7760;"/><path d="M48.94,19.47c-1.57,1,1.37,2.88-6.22,3.55-4.91.44-7.11-1.93-7.14,4.88-.01,2.38,5.12,1.3,7.14,1.34,47.74,1.02,97.89,1.02,145.63,0,2.02-.04,7.15,1.04,7.14-1.34-.03-6.51-2.07-4.69-7.14-4.88-42.92-1.59-86.58,1.87-129.3-.82-1.04-.77-1.11-2.65-1.23-2.73l2.4-3.38,164.15-.23,4.03,1.3.62,195.2-1.59,1.96-220.72.49c-2.82.23-4.86-1.02-4.87-4.01l.22-192.5c.67-1.94,1.96-2.2,3.78-2.44,7.08-.94,32.08-.94,39.15,0,2.38.32,3.7.92,3.96,3.59ZM29.41,23.02H8.09v20.42c10.67.36,20.72-9.85,21.31-20.42ZM222.99,23.02h-21.31c.59,10.56,10.64,20.78,21.31,20.42v-20.42ZM22.3,53.2c-.67,33.73-2.75,69.76-.93,103.46.17,3.14,1.19,6.11.94,9.28,3.11-2,7.58-4.91,11.34-5.14,2.96-.18,4.43,2.29,6.82,2.36,1.26.04,16.3-4.04,16.51-4.87,1.01-4.18-1.5-2.65-4.52-3.4-5.92-1.47-25.27-7.45-25.7-14.3-.25-4.04,4.81-12.68,4.41-16.78-.33-3.39-5.3-6.56-4.39-13.27.62-4.58,5.19-6.85,5.31-7.36.7-2.86-.32-8.7,0-12.24.91-10.3,4.64-16.55,12.49-23.02,1.45-1.2,4.94-2.31,5.33-2.87,1.61-2.34,1.23-6.29,4.79-10.1,7.34-7.83,25.07-7.6,31.92.97,2.45,3.06,2.74,7.83,4.07,9.25,2.26,2.41,12.82,4.54,8.88,11.1-.81-.29-2.86.16-4.47-.39-4.46-1.53-5.11-4.56-12.4-5.82-5.73-.99-11.55-1.78-8.74,6.52.42,1.25,6.82,4.15,8.66,5.54,3.7,2.8,7.12,6.99,9.42,11s1.61,7.08,5.76,8.89c1.14.5,1.84,1.41,3.55.89.59-.57-.48-13.79.02-16.45.33-1.79,1.72-2.06,1.76-2.2,1.45-.05,3.71-.41,4.31,1.46,1.51,4.66-.03,14.05,1.16,17.48.53,1.55,4.34,2.45,5.01,7.48.87,6.49-4.24,10.37-4.33,13.93-.1,4.15,4.91,12.71,4.33,16.71-.77,5.31-17.18,11.16-22.04,12.6-1.96.58-7.7,1.06-7.98,1.35-.12.12-.17,2.98.13,3.41.46.67,14.53,4.35,15.67,4.4,2.48.12,4.07-2.32,6.83-2.36,3.46-.05,6.4,2.69,10.63,2.54,1.88-.07,13.45-2.25,14.95-2.88s2.55-3.53,4.78-4.99c2.26-1.48,6.23-1.72,6.47-1.97.44-.45.09-5.03-.41-6.16-.93-2.08-7-6.3-8.81-8.95-2.21-3.24-2.37-7.79-3.64-9.68-.78-1.16-3.13-1.56-4.41-2.69-5.1-4.49-8.99-11.69-7.12-18.67.71-2.66,3.59-4.52,4-6.65,1.92-10.02-2.71-16.46,5.37-26.59,2.27-2.85,5.75-4.48,7.58-6.62,3.55-4.15,2.83-7.82,9.56-10.86,5.51-2.49,26.07-2.53,31.67-.29,6.89,2.76,6.19,6.37,9.76,10.66,4.49,5.42,9.25,5.91,12,14.64,2.17,6.89.02,14.6,1.53,19.78.34,1.16,2.22,2.58,2.98,4.13,3.45,7.05-.47,15.13-5.81,20.05-1.45,1.34-4.15,2.02-4.88,3.11-1.15,1.71-1.42,6.21-3.28,9.15-1.9,3-8.17,7.27-9.16,9.48-.51,1.13-.85,5.71-.41,6.16.24.24,4.29.41,6.49,1.95,1.84,1.29,2.28,3.32,3.87,4.12,4.77,2.4,14,1.89,18.89,5.52l.4-84.38,3.16-2.62c.28.43,3.01-.39,3.59,3.95l-.04,99.02,7.15-1.4V51.05s-7.15-1.4-7.15-1.4c-1.6,1.62,3.35,19.21-3.56,19.53-.11-.15-1.37-.02-1.76-.46-2.55-2.87.37-17.32-1.07-22.01-.27-.89-5.6-5.08-6.96-6.35-1.49-1.38-1.84-3.75-3.96-4.03-52.85,1.42-106.68-1.88-159.4,0-2.2.08-6.34-.55-7.99.45-.32.2-3.75,4.65-4.87,5.79-2.99,3.04-5.21,1.88-5,7.6.06,1.58.99,2.88.98,3.04ZM15.2,49.65h-7.17s0,131.41,0,131.41h7.17s0-131.41,0-131.41ZM82.68,62.96c-2.12-9.29-21.72-8.84-24.85-1.31-.75,1.81,1.22,1.26,2.2,1.32,7.74.51,14.9.45,22.66,0ZM149.93,62.28c-8.73,1.77-9.13,11.92-5.58,18.48,2.29,4.23,13.15,11.93,17.72,11.49,3.12-.3,13.22-7.06,15.13-9.82,5.17-7.46,4.58-19.09-6.14-20.38-4.04-.49-17.37-.54-21.13.22ZM39.17,87.38c-.66,4.71.48,10.67,0,15.54,1.73.09,4.02-.07,5.32-1.34,1.62-1.6,4.58-10.12,7.55-13.76,1.37-1.68,4.13-4.37,5.86-5.68,5.12-3.87,10.01-2.85,8.86-10.78-.5-3.46-9.71-1.73-12.48-.83-6.98,2.27-14.06,9.47-15.1,16.86ZM129.75,85.6c-.71,4.29.52,10.15,0,14.65,1.21-.19,3.43.43,4.32-.12.65-.4,4.61-13.32,4.6-14.54-.02-3.23-3.4-5.78-2.71-9.31-2.61,1.25-5.77,6.71-6.21,9.32ZM192.8,100.25v-14.65c0-1.35-5.13-10.43-6.21-9.32.3,3.27-2.69,6.34-2.71,9.3-.01,1.21,3.96,14.14,4.6,14.54.89.55,3.1-.07,4.32.12ZM94.04,108.42c-.16-.27-2.61-1.36-3.76-2.9-4.39-5.91-3.28-10.55-10.68-16.84-6.39-5.43-8.99-6.95-16.39-2.14-9.25,6.02-7.97,12.22-12.98,18.98-1.06,1.43-3.84,2.81-3.96,3.34-.87,3.59-.15,17.9,1.62,21.3,1.4,2.7,12.6,13.54,15.37,14.82,3.83,1.77,8.03,2.07,12.1.74s16.12-12.75,17.76-16.86c1.09-2.74,1.98-18.65.93-20.45ZM178.58,91.37c-.99-.73-14.18,8.96-17.3,8.96s-16.32-9.7-17.3-8.96c-1.31,3.68-2.16,8.3-3.76,11.78-.76,1.64-2.75,2.51-3.17,3.93-1.19,3.94-.31,21.71,1.43,25.73,1.36,3.14,13.34,14.17,16.53,15.44,3.59,1.43,10.37,1.33,13.76-.58,1.72-.97,11.42-9.45,12.86-11.11.92-1.07,2.28-3.05,2.76-4.35,1.53-4.13,2.14-20.09,1.31-24.4-.43-2.23-2.48-2.8-3.33-4.66-1.6-3.48-2.45-8.1-3.76-11.78ZM130.64,107.35c-9.18-1.53-5.71,10.73,0,13.32v-13.32ZM191.91,120.67c5.21-2.75,9.33-14.93,0-13.32v13.32ZM39.17,109.12c-8.54-2.55-5.22,9.92-1.32,11.54,1.82.75,1.25-1.23,1.32-2.2.22-3.08-.15-6.26,0-9.34ZM101.34,120.66c2.08,2.35,11.14-13.89,0-11.54v11.54ZM55.15,148.18c.37-1.7-.87-2.12-1.86-3.02-2.91-2.64-6.35-4.92-8.77-8.09-1.37-1.8-4.04-7.75-4.43-8-.72-.48-3.33-.65-3.58-.41-.43.41-2.6,11.05-2.29,11.55,1.18,1.89,19.61,9.16,20.93,7.98ZM100.96,128.72c-.92.28-4.42,7.46-5.86,9.24-3.35,4.13-8.66,6.27-11.09,11.1,3.95-1.12,20.44-5.94,22.28-8.85.36-.57-1.73-12.6-5.33-11.49ZM76.47,152.63c-4.41,1.1-8.01,1.1-12.42,0,2.32,14.51-11.25,13.85-21.32,16.87,1,8.63,10.03,6.62,16.86,8.43,2.88.76,8.51,3.86,10.29,3.98,1.59.1,10.67-3.97,13.83-4.74,6.13-1.49,13.1.65,14.07-7.67-10.07-3.02-23.63-2.36-21.32-16.87ZM150.17,157.06c1.47,8.08,20.8,8.02,22.2,0,.19-1.06-.12-2.41,0-3.55-1.55-.61-3.29,1.77-3.99,1.77h-14.21c-.59,0-3.79-2.04-3.99-1.78.11,1.13-.2,2.5,0,3.55ZM143.8,160.78c-2.24-1.3-5.36.99-5.18,3.75.1,1.52,4.82,12.44,6.62,12.03.43-.1,6.51-5.31,6.77-5.68,2.78-3.91-2.1-3.58-4.94-5.83-1.51-1.2-3.04-4.13-3.27-4.27ZM178.75,160.78c-.23.14-1.75,3.08-3.27,4.27-2.06,1.63-4.77,2.07-6.64,3.99,2.82,2.76,5.42,6.08,9.25,7.54.67-.14,5.77-10.91,5.84-12.05.17-2.76-2.94-5.05-5.18-3.75ZM164.38,174.82v19.53h35.52c.15,0,.26-1.65,1.27-2.68,1.32-1.36,7.51-6.32,7.62-6.82.13-.55.84-9.79.73-10.3-.99-4.32-15.21-7-19.31-7.66-1.19.87-6.02,15.26-8.17,18.04-4.95,6.38-12.6-9.43-17.67-10.11ZM23.19,177.48c-3.51,8.76.39,7.69,6.26,13.73.8.82,1.66,2.8,1.91,2.94,1.52.89,6.56-.21,8.7.19.04-.59-.03-1.18,0-1.77.17-3.49.46-9.45-.2-12.67-.23-1.14-5.44-11.45-6-11.81-3.46-2.22-9.5,6.48-10.67,9.39ZM119.09,194.35v-12.87c0-4.24-6.89-13.26-11.27-13.65-1.42-.13-7.38,11.16-7.38,11.87v14.65h18.65ZM145.73,197.9c1.44-5.8,7.87-2.95,12.43-3.55v-19.53c-5.12.76-11.99,15.46-17.33,10.66-2.73-2.45-6.2-16.69-9.02-17.64-1.62-.54-9.78.7-10.07,2.12.53,1.78,3.56,6.54,3.56,7.97v16.42c3.65.48,12.44-1.86,11.54,3.55-.13.08-.19,1.96-1.23,2.73-3.73,2.77-81.03.56-92.9.82-2.02.04-7.15-1.04-7.14,1.34.03,6.51,2.07,4.69,7.14,4.88,46.22,1.71,99.41,1.71,145.63,0,5.07-.19,7.11,1.63,7.14-4.88.01-2.38-5.12-1.3-7.14-1.34-6.53-.14-38.25,1.05-41.24-.97-1.32-.9-1.26-2.5-1.38-2.58ZM46.28,194.35h47.95v-11.54c-7.48-2.62-19.03,6.51-24.4,6.28s-16.06-8.88-23.55-6.28v11.54ZM29.41,207.66c-.59-10.56-10.64-20.78-21.31-20.42v20.42h21.31ZM222.99,187.25c-10.67-.36-20.72,9.85-21.31,20.42h21.31v-20.42Z" style="fill:#070707;"/><path d="M178.58,91.37c1.31,3.68,2.16,8.3,3.76,11.78.86,1.86,2.9,2.42,3.33,4.66.83,4.31.22,20.27-1.31,24.4-.48,1.3-1.83,3.28-2.76,4.35-1.44,1.67-11.13,10.14-12.86,11.11-3.4,1.91-10.17,2.01-13.76.58-3.18-1.26-15.17-12.3-16.53-15.44-1.74-4.03-2.62-21.8-1.43-25.73.43-1.42,2.42-2.29,3.17-3.93,1.6-3.48,2.45-8.1,3.76-11.78.99-.73,14.18,8.96,17.3,8.96s16.32-9.7,17.3-8.96ZM153.46,128.79c-1.79.44-2.89,2.85-2.31,4.61,1.61,4.92,22.97,5,19.02-2.96-1.8-3.64-6.41.16-9.76.04-2.36-.08-5.15-2.13-6.95-1.69Z" style="fill:#df8f7d;"/><path d="M149.93,62.28c3.76-.76,17.09-.71,21.13-.22,10.71,1.29,11.3,12.92,6.14,20.38-1.91,2.76-12,9.51-15.13,9.82-4.56.44-15.43-7.25-17.72-11.49-3.55-6.57-3.16-16.72,5.58-18.48Z" style="fill:#9b9494;"/><path d="M164.38,174.82c5.07.68,12.71,16.5,17.67,10.11,2.15-2.77,6.98-17.17,8.17-18.04,4.1.66,18.32,3.34,19.31,7.66.12.5-.6,9.74-.73,10.3-.12.5-6.3,5.46-7.62,6.82-1.01,1.04-1.13,2.68-1.27,2.68h-35.52v-19.53Z" style="fill:#9b9494;"/><path d="M136.85,197.9c.9-5.42-7.89-3.07-11.54-3.55v-16.42c0-1.42-3.02-6.19-3.56-7.97.28-1.42,8.45-2.66,10.07-2.12,2.81.94,6.29,15.19,9.02,17.64,5.34,4.8,12.21-9.9,17.33-10.66v19.53c-4.56.6-10.99-2.25-12.43,3.55-.37-.24-8.51-.24-8.88,0Z" style="fill:#9b9494;"/><path d="M192.8,100.25c-1.21-.19-3.43.43-4.32-.12-.65-.4-4.61-13.33-4.6-14.54.02-2.96,3.01-6.03,2.71-9.3,1.07-1.11,6.21,7.97,6.21,9.32v14.65Z" style="fill:#9b9494;"/><path d="M129.75,85.6c.43-2.61,3.6-8.07,6.21-9.32-.69,3.52,2.69,6.07,2.71,9.31,0,1.22-3.95,14.13-4.6,14.54-.89.55-3.1-.07-4.32.12.52-4.5-.71-10.36,0-14.65Z" style="fill:#9b9494;"/><path d="M178.75,160.78c2.24-1.3,5.35.98,5.18,3.75-.07,1.14-5.17,11.91-5.84,12.05-3.83-1.46-6.42-4.77-9.25-7.54,1.87-1.92,4.58-2.37,6.64-3.99,1.51-1.19,3.04-4.13,3.27-4.27Z" style="fill:#e7f0f4;"/><path d="M143.8,160.78c.23.14,1.76,3.07,3.27,4.27,2.84,2.25,7.71,1.92,4.94,5.83-.26.37-6.34,5.58-6.77,5.68-1.8.41-6.52-10.51-6.62-12.03-.17-2.76,2.95-5.05,5.18-3.75Z" style="fill:#e7f0f4;"/><path d="M150.17,157.06c-.19-1.05.12-2.42,0-3.55.2-.27,3.4,1.78,3.99,1.78h14.21c.7,0,2.44-2.38,3.99-1.77-.11,1.13.19,2.48,0,3.55-6.82,2.62-15.33,2.64-22.2,0Z" style="fill:#cf7760;"/><path d="M172.37,157.06c-1.4,8.02-20.73,8.08-22.2,0,6.87,2.64,15.38,2.62,22.2,0Z" style="fill:#df8f7d;"/><path d="M130.64,107.35v13.32c-5.71-2.59-9.18-14.84,0-13.32Z" style="fill:#cf7760;"/><path d="M191.91,120.67v-13.32c9.33-1.61,5.21,10.57,0,13.32Z" style="fill:#cf7760;"/><path d="M153.46,128.79c1.8-.44,4.59,1.6,6.95,1.69,3.35.12,7.96-3.68,9.76-.04,3.95,7.96-17.41,7.88-19.02,2.96-.58-1.76.52-4.18,2.31-4.61Z" style="fill:#070707;"/><path d="M94.04,108.42c1.05,1.79.16,17.71-.93,20.45-1.64,4.11-13.52,15.48-17.76,16.86s-8.27,1.03-12.1-.74c-2.77-1.28-13.97-12.12-15.37-14.82-1.76-3.4-2.49-17.71-1.62-21.3.13-.53,2.9-1.91,3.96-3.34,5.02-6.76,3.73-12.96,12.98-18.98,7.4-4.81,10-3.29,16.39,2.14,7.4,6.28,6.29,10.93,10.68,16.84,1.14,1.54,3.6,2.63,3.76,2.9ZM62.02,127.02c-1.86.54-2.96,2.52-2.02,4.3,2.63,4.99,18.62,4.47,19.93-.61,1.47-5.72-7.61-2.86-10.12-2.86s-5.65-1.44-7.79-.83Z" style="fill:#facbc5;"/><path d="M76.47,152.63c-2.31,14.51,11.25,13.85,21.32,16.87-.97,8.32-7.94,6.18-14.07,7.67-3.16.77-12.24,4.84-13.83,4.74-1.78-.12-7.41-3.22-10.29-3.98-6.83-1.81-15.86.2-16.86-8.43,10.07-3.02,23.63-2.37,21.32-16.87,4.41,1.1,8.01,1.1,12.42,0Z" style="fill:#facbc5;"/><path d="M46.28,194.35v-11.54c7.49-2.59,18.19,6.06,23.55,6.28s16.92-8.9,24.41-6.28v11.54h-47.96Z" style="fill:#e7f0f4;"/><path d="M39.17,87.38c1.04-7.39,8.13-14.59,15.1-16.86,2.77-.9,11.97-2.63,12.48.83,1.16,7.93-3.74,6.91-8.86,10.78-1.73,1.31-4.49,4-5.86,5.68-2.97,3.64-5.92,12.16-7.55,13.76-1.29,1.27-3.59,1.43-5.32,1.34.48-4.87-.66-10.83,0-15.54Z" style="fill:#df8f7d;"/><path d="M119.09,194.35h-18.65v-14.65c0-.71,5.96-12,7.38-11.87,4.38.39,11.27,9.4,11.27,13.65v12.87Z" style="fill:#e7f0f4;"/><path d="M82.69,70.07c11.7,7.45,16.9,17.96,15.1,31.96-4.15-1.81-3.56-5.05-5.76-8.89s-5.71-8.2-9.42-11c-1.84-1.4-8.24-4.29-8.66-5.54-2.81-8.3,3.01-7.51,8.74-6.52Z" style="fill:#df8f7d;"/><path d="M40.06,192.57l-9.76-10.22-7.11-4.87c1.17-2.91,7.21-11.62,10.67-9.39.56.36,5.77,10.67,6,11.81.66,3.22.37,9.19.2,12.67Z" style="fill:#e7f0f4;"/><path d="M99.56,76.28c.83.3,4.09,6.57,3.55,7.99-.05.13-1.43.4-1.76,2.2-.49,2.66.58,15.88-.02,16.45-1.71.52-2.4-.39-3.55-.89,1.81-14-3.4-24.51-15.1-31.96,7.29,1.27,7.94,4.29,12.4,5.82,1.61.55,3.66.1,4.47.39Z" style="fill:#cf7760;"/><path d="M55.15,148.18c-1.32,1.18-19.75-6.09-20.93-7.98-.31-.5,1.86-11.14,2.29-11.55.25-.24,2.86-.06,3.58.41.38.25,3.05,6.21,4.43,8,2.42,3.18,5.86,5.45,8.77,8.09.99.9,2.23,1.31,1.86,3.02Z" style="fill:#e7f0f4;"/><path d="M82.68,62.96c-7.76.46-14.91.52-22.66,0-.98-.06-2.95.48-2.2-1.32,3.14-7.53,22.73-7.98,24.85,1.31Z" style="fill:#cf7760;"/><path d="M40.06,192.57c-.03.59.05,1.19,0,1.77-2.14-.4-7.18.7-8.7-.19-.25-.15-1.12-2.12-1.91-2.94-5.87-6.05-9.78-4.98-6.26-13.73l7.11,4.87,9.76,10.22Z" style="fill:#b1d8fb;"/><path d="M101.34,120.66v-11.54c11.14-2.35,2.08,13.89,0,11.54Z" style="fill:#facbc5;"/><path d="M39.17,109.12c-.15,3.08.22,6.26,0,9.34-.07.97.5,2.95-1.32,2.2-3.9-1.62-7.22-14.08,1.32-11.54Z" style="fill:#facbc5;"/><path d="M100.96,128.72c3.59-1.11,5.69,10.91,5.33,11.49-1.84,2.91-18.33,7.73-22.28,8.85,2.43-4.83,7.74-6.97,11.09-11.1,1.44-1.78,4.95-8.95,5.86-9.24Z" style="fill:#e7f0f4;"/><path d="M62.02,127.02c2.14-.61,5.21.83,7.79.83s11.59-2.86,10.12,2.86c-1.31,5.08-17.3,5.61-19.93.61-.94-1.78.16-3.76,2.02-4.3Z" style="fill:#070707;"/></g></svg>