<?xml version="1.0" encoding="UTF-8"?><svg id="a" xmlns="http://www.w3.org/2000/svg" viewBox="0 0 234.69 235.86"><g id="b"><path d="M100.99,58.51c1.86.28,4.75,1.17,6.73,1.68,13.66,3.54,24.04,11.74,32.57,22.73,10.87-.5,22.5,1.3,32.26,6.26,3.7,1.88,11.22,5.52,8.38,10.55-1.26-.02-2.53,1.15-4.4.69s-6.08-3.95-8.48-5.05c-46.6-21.28-93.41,30.06-67.41,74.12,29.65,50.24,106.86,20.88,97.02-35.58-.79-4.52-4.85-12.42-4.94-15.35-.07-2.05,1.63-3.05,1.68-3.68,5.6-1.47,7.36,6.07,8.63,10.3,17.15,57.11-50.28,101.58-95.7,63.71-2.33-1.95-9.68-10.93-10.55-11.32-2.73-1.24-9.51-.12-13.02-.44-63.06-5.74-70.55-100.96-8.85-116.92,2.05-.53,5.61-1.41,7.57-1.68,6.13-.86,12.37-.92,18.51,0ZM92.57,170.39c.32-.29-2.97-7.78-3.33-8.02-.88-.58-7.71-1.18-9.94-1.84-13.55-3.97-25.49-14.49-30.02-28.03-14.25-42.56,33.86-77.51,69.79-50.42,5.48,4.13,4.44,7.01,13.04,2.08-23.47-28.24-68.52-24.46-86.49,7.74-20.12,36.06,6.84,78.11,46.95,78.48ZM86.68,154.42c-1.53-12.19-.66-23.66,4.06-35.06,5.15-12.42,15.2-22,26.22-29.29-17.46-16.52-46.54-11.76-58.18,9.11-12.85,23.04,1.82,52.24,27.9,55.24Z" style="fill:#feb326;"/><path d="M180.93,99.74c2.23.04,3.03,2.54,5.89,3.36-3.62,4.73-1.76,7.68,4.21,6.73.04.3,3.46,3.81,3.37,5.05-.05.63-1.75,1.63-1.68,3.68.1,2.92,4.15,10.82,4.94,15.35,9.84,56.46-67.37,85.82-97.02,35.58-26-44.05,20.81-95.4,67.41-74.12,2.4,1.1,6.7,4.61,8.48,5.05,1.88.46,3.15-.71,4.4-.69ZM190.65,142.84c0-24.77-20.08-44.84-44.85-44.84s-44.85,20.08-44.85,44.84,20.08,44.84,44.85,44.84,44.85-20.08,44.85-44.84Z" style="fill:#fedaac;"/><path d="M186.82,103.1c.97.28,4.36.05,4.93.96,1.08,1.71-.8,5.19-.73,5.77-5.97.96-7.83-2-4.21-6.73Z" style="fill:#feb326;"/><path d="M92.57,170.39c-40.11-.38-67.07-42.43-46.95-78.48,17.97-32.2,63.02-35.98,86.49-7.74-8.61,4.92-7.57,2.04-13.04-2.08-35.93-27.09-84.04,7.86-69.79,50.42,4.54,13.54,16.47,24.06,30.02,28.03,2.23.65,9.07,1.26,9.94,1.84.36.24,3.65,7.72,3.33,8.02Z" style="fill:#fefcf8;"/><path d="M190.65,142.84c0,24.77-20.08,44.84-44.85,44.84s-44.85-20.08-44.85-44.84,20.08-44.84,44.85-44.84,44.85,20.08,44.85,44.84ZM143.06,105.62c-1.15,0-7.27.61-7.53.88-.51.53,1.02,11.83.79,14.67-.78,9.42-5.98,21.04-12.61,27.77-2.11,2.14-11.31,7.51-11.67,8.12-.67,1.15,1.67,6.16,2.97,6.54,1.54.45,4.41-1.57,5.78-2.44,18.03-11.4,26.5-34.88,22.28-55.55ZM120.34,169.57c15.58,17.08,45.11,12.83,57.07-6.47,14.71-23.73.25-53.24-26.77-57.47-.36,5.09,1.06,9.57.82,14.71-.9,19.4-13.43,40.74-31.12,49.23ZM128.76,110.67c-6.95,1.04-13.85,9.55-16.73,15.67-.67,1.43-3.47,9.04-3.47,9.99v12.62c0,2.52,4.19-.63,4.82-1.07,6.05-4.1,15.37-16.88,15.37-24.17v-13.04Z" style="fill:#feb326;"/><path d="M143.06,105.62c4.22,20.66-4.25,44.14-22.28,55.55-1.37.86-4.24,2.89-5.78,2.44-1.29-.38-3.64-5.39-2.97-6.54.36-.61,9.55-5.97,11.67-8.12,6.63-6.73,11.83-18.35,12.61-27.77.24-2.84-1.3-14.14-.79-14.67.26-.27,6.38-.89,7.53-.88Z" style="fill:#fefcf8;"/><path d="M107.72,60.2c-1.98-.51-4.87-1.4-6.73-1.68-.17-2.99,5.91-9.32,5.75-11.22-.08-.94-7.34-10.63-8.29-11.06-1.54-.7-12.03-.79-13.72-.27s-4.61,5.69-5.63,7.41h15.57c2.51,0,3.2,7.57-.84,7.57h-15.57l4.21,7.57c-1.96.28-5.52,1.15-7.57,1.68-1.33-4.37-7.69-9.97-6.56-14.5.33-1.33,11.37-15.73,12.47-16.18,1.83-.77,17.13-.84,19.8-.48,1.56.21,1.74.23,2.93,1.28s11.44,15.14,11.55,16.12c.33,3-5.92,10.68-7.37,13.77Z" style="fill:#05b7fd;"/><path d="M100.99,58.51c-6.14-.92-12.38-.86-18.51,0l-4.21-7.57h15.57c4.04,0,3.35-7.57.84-7.57h-15.57c1.01-1.72,3.93-6.89,5.63-7.41s12.17-.43,13.72.27c.95.43,8.21,10.12,8.29,11.06.16,1.9-5.93,8.23-5.75,11.22Z" style="fill:#92ebfd;"/></g></svg>