<?xml version="1.0" encoding="UTF-8"?><svg id="a" xmlns="http://www.w3.org/2000/svg" viewBox="0 0 230.86 230.01"><g id="b"><path d="M168.78,177.52c-5.72.69-2.32-8.19-3.87-11.18-27.1,28.8-70.67,36.34-106.58,19.91-6.46,3.92-12.55,18.03-21.14,13.12-2.87-1.64-18.15-17.78-18.82-20.75-1.71-7.63.83-14.02,7.52-17.87C-8.57,118,1.06,54.47,47,24.4c32.37-21.19,73.22-19.68,105.05,1.78,1.57.34,1.45-1.54,2.49-2.62,4.51-4.72,8.36-7.15,15.34-5.81,2.01.39,4.21,2.36,5.36,2.36s3.98-2.31,6.89-2.57c15.73-1.41,22.45,17.81,9.91,27.1-.03,1.47,19.3,3.43,14.61,10.75-7.39.02-7.52-2.27-13.54-3.23-11.47-1.83-8.36,2.51-14.63,5.61-4.91,2.43-6.52-2.3-10.52,1.56-.82.79-.73,1.91-.89,2.08-4.39,4.77-6.99,8.63-7.74,15.48,14.04-.07,28.12.11,42.16,0,4.58-.04,9.19.03,13.77,0,2.02-2.06-4.04-11.49-4.32-13.41-.26-1.75.9-3.27.87-3.79,5.27-1.2,7.22,4.01,8.64,8.14.73,2.13,1.44,8.13,1.89,8.87.55.9,3.65.79,3.31,4.06-.21,2.03-2.46,1.95-3.33,3.63s-1.14,5.77-2.1,8.22c-.81,2.08-3.75,6.24-3.97,7.29-.42,2.02,1.63,3.22,1.43,5.59-.47,5.49-4.51,16.11-7.57,20.88-1.49,22.83,1.92,48,.01,70.54-.75,8.85-3.48,6.38-5.82,10.09-1.94,3.07-.72,10.8-5.62,12.88-3.06,1.3-18.47,1-21.94-.04-5.49-1.66-3.6-8.33-5.85-12.18-1.22-2.09-4.54-2.12-5.37-5.81-.68-3.03-1.76-16.58,3.26-16.59.06.1,1.45.08,2.11.86,2.63,3.1.8,10.6,1.33,14.62,6.01-.04,12.06.05,18.07,0,4.29-.04,8.62.03,12.91,0v-74.83h-30.98c-.03,3.14.05,6.32,0,9.46-.19,13.02.16,26.08-.02,39.11-.59,3.07-3.28,2.81-3.42,3.03ZM136.08,33.02c7.42,5.79,7.17,4.62,12.91,12.04-4.68,4.5-9.94-2.52-14.37-4.99-31.55-17.66-71.5-11.16-93.54,17.99-47.65,63,24.25,145.38,94.39,105.53,4.11-2.33,9.23-9.24,13.51-4.99-.4.84.46,2.3-1.22,4.37s-8.16,5.56-10.83,7.67c-22.5,11.69-49.06,13.13-72.28,2.58l-1.73,7.72c15.84,6.75,32.88,8.57,49.91,6.05,14.14-2.1,30.48-10.09,41.31-19.34,1.98-1.69,10.22-9.73,10.79-11.57.8-2.58.97-26.65.4-29.75-.1-.55-3.88-6.22-4.93-9.68-2.19-7.17-1.22-11.06-2.1-16.74-.13-.84-5.09-14.78-5.6-15.93-.64-1.45-2.6-1.14-2.92-3.21-.6-3.86,2.13-3.18,2.92-4.94,1.53-3.42,1.74-9.8,4.01-13.56,1.36-1.35,1.98-2.84,2.58-3.44,1.66-1.64,6.59-4.62,5.93-7.14-.46-1.76-8.49-8.08-10.23-10.5-5.22-7.25-3.87-7.91-12.65-13.16-8.85-5.3-18.54-8.65-28.66-10.49C36.04,3.42-19.6,94.7,29.53,154.58c3.18,3.88,10.98,10,15.33,5.31-34.83-32.24-33.42-87.79,3.05-118.24,24.88-20.77,59.59-23.53,88.17-8.63ZM160.45,26.41c-8.12,8.89,10.23,19.14,14.78,25.52,3.03-4.23,15.66-13.49,16.61-17.81,1.49-6.76-4.9-11.44-11.28-9.52-1.93.58-2.25,3.36-5.34,3.36s-9.12-7.73-14.78-1.54ZM160.17,84.63c-.28,5.7,2.97,10.46,6.6,14.48,9.83.15,19.72.3,29.54.14,2.43-.04,11.58.47,12.73-.19,2.03-1.18,8-14.33,6.21-16.15-4.58-.02-9.19.04-13.77,0-13.75-.11-27.55.08-41.3,0l-.86,1.28.86.44ZM196.31,105.27c-10.6-.08-21.24.06-31.83,0l3.55,13.64c8.55.13,17.15.22,25.7.11,4.55-.06,9.14.13,13.68-.08l2.67-13.68c-4.58-.03-9.19.04-13.77,0ZM29.99,166.53c-4.59,1.05-6.66,6.39-4.98,10.62.82,2.06,15.56,16.86,16.73,16.65,4.71-5.23,23.87-18.67,13.44-26.15-6.75-4.84-10.84,2.21-14.17,2.22-3.62.01-3.62-5.04-11.01-3.35ZM186.85,207.63c-2.86.05-5.75-.04-8.61,0-.32,7.79,1.81,5.83,7.75,6.02,1.52.05,9.91.31,10.28-.05.17-.17.75-3.9.86-4.75.23-1.71.02-1.07-1.23-1.23-2.57-.33-6.31-.05-9.05,0Z" style="fill:#050505;"/><path d="M189.43,139.68c-6.59-4.13-5.97,11.29-4.79,12.96.86,1.22,3.42.79,4.79.81,0,1.26.03,2.97,0,4.3-7.79-2.26-6.8,11.08,0,7.74,0,.15.92,1.3.92,2.91.01,10.78-.13,21.58-.06,32.35-6.01.05-12.06-.04-18.07,0-.53-4.02,1.3-11.52-1.33-14.62-.66-.78-2.05-.77-2.11-.86-.21-.32-.21-7.42,0-7.74.14-.22,2.83.03,3.42-3.03.18-13.03-.17-26.09.02-39.11,3.82.54,15.6-1.42,17.71,1.73.98,1.46-.52,2.43-.5,2.57Z" style="fill:#c6bdc4;"/><path d="M206.64,55.39c1.58,0,5.1,3.1,5.16,4.3.03.53-1.13,2.04-.87,3.79.28,1.92,6.34,11.35,4.32,13.41-4.58.03-9.19-.04-13.77,0,1-4.85-6.68-19.69-10.88-20.51-3.43-.67-10.67,11.14-14.7,11.77-3.24.51-7.04-4.41-8.84-6.75.16-.17.07-1.29.89-2.08,4-3.86,5.61.88,10.52-1.56,6.27-3.1,3.15-7.45,14.63-5.61,6.02.96,6.15,3.26,13.54,3.23Z" style="fill:#786f77;"/><path d="M172.22,135.38c.05-3.14-.03-6.32,0-9.46h30.98v74.83c-4.29.03-8.62-.04-12.91,0-.07-10.77.07-21.57.06-32.35,0-1.62-.93-2.76-.92-2.91.03-.6,1.85-1.76,1.74-3.79-.08-1.49-1.76-3.27-1.74-3.95.03-1.33,0-3.04,0-4.3.02-5.29.64-7.72,0-13.76-.02-.14,1.48-1.11.5-2.57-2.11-3.15-13.89-1.19-17.71-1.73Z" style="fill:#a69ca6;"/><path d="M201.48,82.91c.39,5.99-3.48,10.91-5.16,16.34-9.83.16-19.71,0-29.54-.14-3.63-4.02-6.87-8.78-6.6-14.48.03-.57-.02-1.15,0-1.72,13.75.08,27.55-.11,41.3,0Z" style="fill:#877c84;"/><path d="M160.45,26.41c5.66-6.19,11.73,1.54,14.78,1.54s3.41-2.77,5.34-3.36c6.37-1.92,12.77,2.76,11.28,9.52-.96,4.32-13.58,13.58-16.61,17.81-4.55-6.37-22.91-16.63-14.78-25.52Z" style="fill:#f85893;"/><path d="M201.48,76.89c-14.04.11-28.12-.08-42.16,0,.75-6.85,3.36-10.71,7.74-15.48,1.81,2.34,5.6,7.25,8.84,6.75,4.02-.63,11.26-12.44,14.7-11.77,4.2.82,11.88,15.66,10.88,20.51Z" style="fill:#877c84;"/><path d="M196.31,105.27l-2.58,13.76c-8.55.11-17.15.02-25.7-.11l-3.55-13.64c10.6.05,21.24-.09,31.83,0Z" style="fill:#a6e5ed;"/><path d="M201.48,82.91c4.58.04,9.19-.03,13.77,0,1.8,1.82-4.18,14.98-6.21,16.15-1.14.66-10.3.15-12.73.19,1.68-5.43,5.55-10.35,5.16-16.34Z" style="fill:#786f77;"/><path d="M196.31,105.27c4.58.04,9.19-.03,13.77,0l-2.67,13.68c-4.55.21-9.14.03-13.68.08l2.58-13.76Z" style="fill:#3cbfcc;"/><path d="M186.85,207.63c2.74-.05,6.48-.33,9.05,0,1.25.16,1.45-.49,1.23,1.23-.11.85-.69,4.58-.86,4.75-.37.36-8.76.1-10.28.05l.86-6.02Z" style="fill:#3cbfcc;"/><path d="M186.85,207.63l-.86,6.02c-5.94-.19-8.07,1.77-7.75-6.02,2.86-.04,5.75.05,8.61,0Z" style="fill:#a6e5ed;"/><path d="M160.17,84.63l-.86-.44.86-1.28c-.02.57.03,1.15,0,1.72Z" style="fill:#786f77;"/><path d="M189.43,139.68c.64,6.05.02,8.47,0,13.76-1.37-.02-3.93.42-4.79-.81-1.18-1.67-1.8-17.09,4.79-12.96Z" style="fill:#050505;"/><path d="M189.43,157.74c-.01.68,1.67,2.46,1.74,3.95.1,2.04-1.72,3.19-1.74,3.79-6.8,3.33-7.79-10,0-7.74Z" style="fill:#050505;"/><path d="M148.99,45.06c.5.65,1.99,1.33,2.94,2.64,2.59,3.6,4.82,7.51,7.39,11.12-.61.6-1.22,2.09-2.58,3.44-.13.13-1.4.09-2.16.81-5.76,5.57-7.57,10.07-10.75,17.25-20.12-43.32-87.69-34.95-95.43,13.42-1.64,10.23,1.48,31.99,9.81,39.04,1.87,1.59,3.4.47,4.73.87,1.81.54,3.71,4.14,5.16,4.3-1.44,5.71,7.41,9.32,11.82,10.98,31.87,11.98,66.76-10.35,68.2-44.52,8.76,4.48,2.27,3.79,1.21,5.1-.75.93,3.29,17.38,4.89,18.51.68.48,2.31.12,2.56.99.37,1.26.16,18.76-.26,20.34s-4.53,6.78-5.83,8.61c-.58.82-1.67.55-1.71.63-4.28-4.25-9.4,2.66-13.51,4.99C65.33,203.44-6.56,121.05,41.09,58.06c22.04-29.14,61.98-35.64,93.54-17.99,4.42,2.47,9.69,9.49,14.37,4.99ZM147.9,66.35c2.77-2.83-2.18-7.85-4.47-10.15-34.17-34.37-94.84-17.92-107.41,28.61-15.68,58.01,49.65,104.35,99.14,69.85,2.51-1.75,20.88-16.71,10.77-17.61-2.88-.26-9.27,8.14-12.02,10.34-31.04,24.87-79.44,10.32-91-27.69-17.12-56.26,49.97-99.63,93.63-60.9,2.71,2.4,7.95,11.05,11.37,7.55Z" style="fill:#877c84;"/><path d="M113.71,17.54c-.46,2.22,1.07,1.76,2.35,2.34,10.12,4.55,12.2,7.04,20.02,13.15-28.59-14.91-63.29-12.14-88.17,8.63-36.48,30.45-37.88,86-3.05,118.24-4.35,4.69-12.14-1.43-15.33-5.31C-19.6,94.7,36.04,3.42,113.71,17.54Z" style="fill:#877c84;"/><path d="M156.73,62.27c-2.28,3.76-2.48,10.14-4.01,13.56-.79,1.76-3.53,1.08-2.92,4.94.32,2.07,2.28,1.76,2.92,3.21.51,1.15,5.46,15.09,5.6,15.93.89,5.68-.08,9.57,2.1,16.74,1.06,3.46,4.83,9.13,4.93,9.68.57,3.09.4,27.16-.4,29.75-.57,1.85-8.82,9.89-10.79,11.57-10.84,9.25-27.17,17.24-41.31,19.34-.46-2.21,1.07-1.76,2.35-2.34,9.92-4.44,14-7.9,21.74-14.01,2.67-2.11,9.23-5.69,10.83-7.67s.82-3.53,1.22-4.37c.04-.08,1.14.19,1.71-.63,1.3-1.83,5.4-7.01,5.83-8.61s.63-19.08.26-20.34c-.25-.87-1.88-.51-2.56-.99-1.6-1.14-5.64-17.58-4.89-18.51,1.06-1.32,7.54-.62-1.21-5.1.3-7.09-1.3-17.61-4.3-24.08,3.18-7.18,4.99-11.68,10.75-17.25.75-.73,2.03-.69,2.16-.81Z" style="fill:#786f77;"/><path d="M29.99,166.53c7.39-1.7,7.39,3.36,11.01,3.35,3.33,0,7.43-7.06,14.17-2.22,10.44,7.48-8.72,20.93-13.44,26.15-1.17.21-15.9-14.59-16.73-16.65-1.69-4.23.39-9.57,4.98-10.62Z" style="fill:#f85893;"/><path d="M136.94,170.64c-7.74,6.1-11.82,9.57-21.74,14.01-1.28.57-2.82.12-2.35,2.34-17.03,2.53-34.08.7-49.91-6.05l1.73-7.72c23.21,10.55,49.78,9.11,72.28-2.58Z" style="fill:#877c84;"/><path d="M159.31,58.83c-2.57-3.61-4.79-7.52-7.39-11.12-.95-1.32-2.44-2-2.94-2.64-5.74-7.42-5.48-6.25-12.91-12.04-7.82-6.1-9.89-8.6-20.02-13.15-1.28-.57-2.82-.12-2.35-2.34,10.11,1.84,19.81,5.19,28.66,10.49,8.78,5.25,7.43,5.91,12.65,13.16,1.74,2.42,9.77,8.74,10.23,10.5.66,2.51-4.27,5.5-5.93,7.14Z" style="fill:#786f77;"/><path d="M101.66,58.83l14.21,12.03c17.41,20.33,15.17,50.49-5.59,67.54l-9.48,7.3c-6.51.38-13.46-.88-19.52-3.29-2.76-1.1-6.93-4.41-8.87-4.97s-3.28.63-4.31.52c-1.45-.16-3.35-3.76-5.16-4.3,2.37-5.35-3.83-10.57-5.83-16.11-11.07-30.64,12.28-60.86,44.55-58.72ZM90.9,68.29c-3.08,1.05-2,6.02,0,6.02h14.63c1.76,0,1.76-6.02,0-6.02h-14.63ZM118.07,102.05c0-11.07-8.98-20.05-20.06-20.05s-20.06,8.98-20.06,20.05,8.98,20.05,20.06,20.05,20.06-8.98,20.06-20.05ZM90.9,129.36c-7.32,7.64,6.08,7.44,11.24,6.93,7.09-.7,4.68-6.93,3.39-6.93h-14.63Z" style="fill:#e2dee2;"/><path d="M147.9,66.35c-3.42,3.5-8.67-5.15-11.37-7.55-43.66-38.73-110.75,4.64-93.63,60.9,11.57,38.01,59.97,52.56,91,27.69,2.75-2.2,9.14-10.6,12.02-10.34,10.11.91-8.25,15.86-10.77,17.61-49.49,34.5-114.82-11.84-99.14-69.85,12.58-46.53,73.25-62.98,107.41-28.61,2.29,2.3,7.24,7.31,4.47,10.15Z" style="fill:#050505;"/><path d="M143.82,80.33c3.01,6.47,4.6,16.99,4.3,24.08-1.45,34.17-36.33,56.5-68.2,44.52-4.41-1.66-13.26-5.27-11.82-10.98,1.04.11,2.29-1.1,4.31-.52s6.11,3.88,8.87,4.97c6.06,2.41,13,3.67,19.52,3.29,53.05-3.12,54.04-83.34.86-86.87-32.27-2.14-55.63,28.08-44.55,58.72,2,5.53,8.2,10.76,5.83,16.11-1.33-.4-2.85.72-4.73-.87-8.33-7.05-11.45-28.81-9.81-39.04,7.73-48.37,75.31-56.74,95.43-13.42Z" style="fill:#050505;"/><path d="M100.8,145.7l9.48-7.3c20.76-17.05,23-47.21,5.59-67.54l-14.21-12.03c53.18,3.53,52.19,83.75-.86,86.87Z" style="fill:#c6bdc4;"/><path d="M118.07,102.05c0,11.07-8.98,20.05-20.06,20.05s-20.06-8.98-20.06-20.05,8.98-20.05,20.06-20.05,20.06,8.98,20.06,20.05ZM111.43,102.12c0-7.44-6.03-13.47-13.47-13.47s-13.47,6.03-13.47,13.47,6.03,13.47,13.47,13.47,13.47-6.03,13.47-13.47Z" style="fill:#050505;"/><path d="M90.9,129.36h14.63c1.29,0,3.7,6.23-3.39,6.93-5.16.51-18.55.71-11.24-6.93Z" style="fill:#050505;"/><path d="M90.9,68.29h14.63c1.76,0,1.76,6.02,0,6.02h-14.63c-2,0-3.08-4.97,0-6.02Z" style="fill:#050505;"/><ellipse cx="97.96" cy="102.12" rx="13.47" ry="13.47" style="fill:#fefefe;"/></g></svg>