<?xml version="1.0" encoding="UTF-8"?><svg id="a" xmlns="http://www.w3.org/2000/svg" viewBox="0 0 230.86 230.01"><g id="b"><path d="M177.64,105.29c-5.62-.26-4.39-5.63-4.44-9.78-12.12.26-24.32-.34-36.43,0-2.06.06-4.15-.07-6.21,0,.05,11.58-5.61,27.05-1.96,37.93,2.62,7.81,9.07,13.58,17.06,15.37,14.45,3.25,28.73-5.92,30.12-20.98.38-4.13-1.33-7.37-.6-11.27.57-3.04,2.37-2.23,2.46-2.4,1.49-.14,3.32.34,4.01,1.77.24.49,1.33,9.15,1.32,10.22-.19,14.12-13.02,29.38-27.54,29.77l.18,39.8c5.54,2.1,12.45,9.55,17.63,11.23,4.67,1.51,9.39-1.92,9.72,4.05.21,3.72-1.53,3.23-4.85,3.59l-147.98-.04v8h170.6c-.23-1.4.32-7.7,0-8-.22-.21-4.22.15-6.02-.58-1.63-.66-1.72-2.85-1.98-2.97.02-4.89,9.41-4.28,12.05-2.72,4.67,2.76,5.17,20.16-2.68,20.54H29.66c-9.1,1.5-8.39-18.51-3.06-20.91,5.81-2.62,25.54,1.33,33.09-.67,1.06-.28,18.19-10.89,18.44-11.96l-.02-39.35c-15.03-.89-26.27-14.46-27.48-29.02,4.36-23.92,3.58-50.82,7.98-74.44.83-4.45,4.25-6.24,8.39-6.71,7.06-.8,23.05-.7,30.2.01,3.59.36,7.38,1.02,8.23,5.1,1.46,22.92,6.47,47.19,7.32,69.97.62,16.55-5.42,28.63-21.48,34.47-3.28,1.19-5.54-.72-6.1,3.68-1.35,10.71.97,24.39.19,35.44.35,1.03,16.29,11.74,17.87,12.34,2.89,1.1,22.43,1.25,25.78.5,1.07-.24,17.7-10.97,18.4-11.81.46-.55.92-.98.9-1.77l-.39-36.94c-18.88-3.94-28.1-16.81-27.15-35.91.93-18.85,4.01-47.04,7.21-65.64.59-3.4.56-6.72,4.13-8.31,4.09-1.83,28.8-1.68,34.4-1.12,6.46.65,8.23,2.12,9.24,8.53,2.55,16.04,2.73,33.23,4.08,49.24-.45.99-2.14,1.59-2.21,1.75ZM71.01,52.87c-1.76.06-3.54-.14-5.29.05-.64,7.49-2.23,15.12-2.72,22.61-.15,2.34,4.37,1.28,6.23,1.33,4.42.11,13.48-1.94,14.22,3.55-.18.07-.6,1.47-1.24,1.83-3.02,1.7-10.75.7-14.75.84-1.22.04-5.2-.46-5.35.51-.26,1.73.2,3.9.01,5.71,1.77.05,3.56-.07,5.34,0,11.51.41,23.14-.31,34.66,0v-6.23c-.4-.41-6.58.47-8.35-.12-1.46-.48-1.31-2.46-1.43-2.54-.54-5.45,5.6-3.15,8.89-3.56l-2.8-23.86c-9.1-.01-18.32-.42-27.42-.12ZM141.21,52.87c-2.07.06-4.16-.05-6.22,0l-1.78,24c2.07.04,4.16-.06,6.22,0,10.04.28,20.16-.21,30.21,0,.65-.01.77-.31.89-.89,1.16-5.83-2.9-16.63-1.77-23.1-9.16.2-18.39-.26-27.55,0ZM137.65,83.08c-5.61.25-6.77-.81-6.22,6.22,2.07.05,4.16-.06,6.22,0,11.09.32,22.25-.24,33.35,0,2.75.63.45-6.12-.13-6.28-11.04.46-22.2-.44-33.22.05ZM73.68,147.93c.25.1.61-.09.89,0,.16.05.46.79.89.89,8.27,1.88,15.07.84,21.75-4.46,8.52-6.76,8.97-15.09,8.45-25.29-.14-2.79-2.05-23.29-3.2-23.61-11.93.49-23.98-.48-35.88.05-2.29.1-5.51-1.07-5.8,1.71-1.16,19.32-10.62,41.7,12.91,50.7ZM72.79,207.46h18.66l-9.32-6.19-9.33,6.19ZM160.75,207.46l-9.33-6.19-9.32,6.19h18.66Z" style="fill:#050504;"/><path d="M192.74,211.01c.26.12.35,2.31,1.98,2.97,1.8.73,5.8.37,6.02.58.31.3-.23,6.6,0,8H30.14v-8s147.98.04,147.98.04c3.32-.36,5.06.12,4.85-3.59,2.23.49,8.26-.68,9.77,0Z" style="fill:#aa7349;"/><path d="M136.76,95.51c12.11-.34,24.32.26,36.43,0,.05,4.15-1.18,9.51,4.44,9.78-.62,1.58.62,7.79,0,8.88-.09.17-1.89-.64-2.46,2.4-.73,3.9.98,7.14.6,11.27-1.39,15.06-15.67,24.24-30.12,20.98-18.79-12.85-10.7-34.53-8.89-53.31ZM146.25,104.56c0-1.9-1.54-3.44-3.44-3.44s-3.44,1.54-3.44,3.44,1.54,3.44,3.44,3.44,3.44-1.54,3.44-3.44ZM164.31,112.53c0-1.94-1.57-3.51-3.51-3.51s-3.51,1.57-3.51,3.51,1.57,3.51,3.51,3.51,3.51-1.57,3.51-3.51ZM148.32,120.52c0-1.94-1.57-3.51-3.51-3.51s-3.51,1.57-3.51,3.51,1.57,3.51,3.51,3.51,3.51-1.57,3.51-3.51ZM158.09,134.47c0-1.94-1.57-3.51-3.51-3.51s-3.51,1.57-3.51,3.51,1.57,3.51,3.51,3.51,3.51-1.57,3.51-3.51Z" style="fill:#fcf1a2;"/><path d="M141.21,52.87c9.16-.26,18.39.2,27.55,0-1.12,6.48,2.94,17.27,1.77,23.1l-.89.89c-10.05-.21-20.17.28-30.21,0-.98-7.78,1.34-16.17,1.78-23.99Z" style="fill:#dcf7fc;"/><path d="M136.76,95.51c-1.82,18.78-9.9,40.46,8.89,53.31-7.98-1.8-14.44-7.57-17.06-15.37-3.65-10.88,2.01-26.35,1.96-37.93,2.06-.08,4.15.05,6.21,0Z" style="fill:#ddd355;"/><path d="M137.65,83.08c11.02-.49,22.18.4,33.22-.05.58.16,2.88,6.91.13,6.28-11.1-.25-22.26.32-33.35,0v-6.22Z" style="fill:#f9ddb4;"/><path d="M141.21,52.87c-.44,7.82-2.76,16.21-1.78,23.99-2.07-.06-4.16.05-6.22,0l1.78-24c2.07-.04,4.16.06,6.22,0Z" style="fill:#addfef;"/><polygon points="160.75 207.46 142.1 207.46 151.42 201.27 160.75 207.46" style="fill:#dcf7fc;"/><path d="M137.65,83.08v6.22c-2.07-.06-4.16.05-6.22,0-.55-7.04.61-5.97,6.22-6.22Z" style="fill:#bca180;"/><path d="M169.64,76.86l.89-.89c-.11.58-.24.87-.89.89Z" style="fill:#addfef;"/><circle cx="160.8" cy="112.53" r="3.51" style="fill:#050504;"/><circle cx="144.81" cy="120.52" r="3.51" style="fill:#050504;"/><circle cx="154.58" cy="134.47" r="3.51" style="fill:#050504;"/><circle cx="142.81" cy="104.56" r="3.44" style="fill:#050504;"/><path d="M101.87,1.54c7.68-1.59,11.99,1.41,17.45,5.96,13.85-15.16,36.03-.36,27.07,18.12-4.71,3.57-21.57,24.2-25.37,25.32-2.51.74-4.1-.29-6.02-1.63-3.48-2.43-23.35-22.94-24.48-26.17-3.08-8.8,2.1-19.69,11.35-21.61ZM102.74,8.64c-5.49,1.26-7.26,8.08-5.29,12.91.57,1.4,19.74,21.2,21.22,21.45,2.73.47,22.7-20.1,23.26-24.57.91-7.24-6.52-11.67-13.22-9.59-3.5,1.09-5.52,6.8-9.28,6.8-4.95,0-6.81-9.27-16.7-7.01Z" style="fill:#050504;"/><path d="M102.74,8.64c9.89-2.27,11.75,7.01,16.7,7.01,3.76,0,5.78-5.71,9.28-6.8,6.7-2.08,14.13,2.35,13.22,9.59-.56,4.47-20.53,25.04-23.26,24.57-1.49-.26-20.65-20.06-21.22-21.45-1.97-4.83-.2-11.65,5.29-12.91Z" style="fill:#f93644;"/><path d="M66.57,95.51c11.91-.53,23.96.44,35.88-.05,1.15.31,3.06,20.81,3.2,23.61.52,10.2.06,18.53-8.45,25.29-6.68,5.3-13.48,6.35-21.75,4.46l-.89-.89c-.28-.09-.64.1-.89,0l-6.39-8.27c-7.48-13.24-.61-29.85-.72-44.15ZM90.27,105.12c0-1.9-1.54-3.43-3.43-3.43s-3.43,1.54-3.43,3.43,1.54,3.43,3.43,3.43,3.43-1.54,3.43-3.43ZM74.28,117c0-1.9-1.54-3.44-3.44-3.44s-3.44,1.54-3.44,3.44,1.54,3.44,3.44,3.44,3.44-1.54,3.44-3.44ZM90.27,122.89c0-1.9-1.54-3.43-3.43-3.43s-3.43,1.54-3.43,3.43,1.54,3.43,3.43,3.43,3.43-1.54,3.43-3.43ZM81.39,136.55c0-1.9-1.54-3.44-3.44-3.44s-3.44,1.54-3.44,3.44,1.54,3.44,3.44,3.44,3.44-1.54,3.44-3.44Z" style="fill:#fcf1a2;"/><path d="M71.01,52.87c9.1-.3,18.31.11,27.42.12l2.8,23.86c-3.28.41-9.43-1.9-8.89,3.56-.37-.25-8.47-.16-8.89,0-.74-5.49-9.8-3.45-14.22-3.55l1.78-23.99Z" style="fill:#dcf7fc;"/><path d="M66.57,95.51c.11,14.3-6.76,30.91.72,44.15l6.39,8.27c-23.53-9-14.06-31.39-12.91-50.7.28-2.78,3.51-1.61,5.8-1.71Z" style="fill:#ddd355;"/><path d="M92.34,80.41c.12.08-.03,2.06,1.43,2.54,1.77.58,7.95-.29,8.35.12v6.23c-11.52-.31-23.15.4-34.66,0v-6.22c4-.14,11.73.86,14.75-.84.64-.36,1.06-1.76,1.24-1.83.42-.16,8.52-.25,8.89,0Z" style="fill:#f9ddb4;"/><path d="M71.01,52.87l-1.78,23.99c-1.86-.04-6.39,1.01-6.23-1.33.49-7.49,2.08-15.12,2.72-22.61,1.75-.18,3.53.01,5.29-.05Z" style="fill:#addfef;"/><polygon points="72.79 207.46 82.12 201.27 91.45 207.46 72.79 207.46" style="fill:#dcf7fc;"/><path d="M67.46,83.08v6.22c-1.77-.06-3.57.05-5.34,0,.19-1.82-.27-3.99-.01-5.71.15-.97,4.13-.47,5.35-.51Z" style="fill:#bca180;"/><path d="M75.46,148.82c-.43-.1-.73-.84-.89-.89l.89.89Z" style="fill:#ddd355;"/><circle cx="86.83" cy="105.12" r="3.43" style="fill:#050504;"/><circle cx="70.84" cy="117" r="3.44" style="fill:#050504;"/><circle cx="86.83" cy="122.89" r="3.43" style="fill:#050504;"/><circle cx="77.95" cy="136.55" r="3.44" style="fill:#050504;"/></g></svg>