<?xml version="1.0" encoding="UTF-8"?><svg id="a" xmlns="http://www.w3.org/2000/svg" viewBox="0 0 230.86 230.01"><g id="b"><path d="M121.62,116.5l-3.2-2c1.34-17.9-5.47-37.11,11.27-49.53,12.26-9.09,47.08-8.09,57.51,4.75,7.9,9.73,4.82,15.21,6.47,25.53.37,2.3,2.09,3.74,2.37,6.43.56,5.19-1.95,6.42-2.44,10.4-1.2,9.68,2.56,21.64-2.36,30.43,26.82,9.32,15.11,39.91,17.53,61.55-.45,2.87-3.14,5.55-6,6l-194-.31c-2.78-1.34-4.41-3.31-4.78-6.42-1.12-9.51-1.22-41.04.21-50.23,1.21-7.76,11.36-18.99,19.41-18.99h17.2c-.41-2.05.67-7.21-.17-8.64-.15-.26-3.91-2.2-5.07-3.33s-3.43-3.96-4.23-5.37c-1.4-2.48-3.12-10.1-3.51-10.49-.35-.35-4.49-1.12-6.19-2.21-7.63-4.9-6.36-15.44,1.61-19.21-7.13-14.7-3.66-31.67,13.37-36.13,14.91-3.9,26.66-4.02,41.5.46,11.94,3.61,16.73,13.84,15.26,25.89-.35,2.84-3.01,8.11-2.98,9.06.05,1.67,2.76,2.47,4.02,3.95,4.09,4.82,2.84,12.65-2.45,15.98-1.89,1.19-6.85,1.82-7.09,2.11-.26.32-.06,3.43-.43,4.77-.53,1.93-1.88,4.96-2.98,6.62-1.55,2.32-8.53,7.72-8.68,8.3-.56,2.08.41,5.87.01,8.24h17.2c5.9,0,17.43,9.5,18.01,16,1,.69,8.75-7.49,11.99-6.41-.82-4.93-4.76-17.11,1.6-19.19.09.25,2.5,1.39,3.03,3.77.7,3.14-.51,7.24.33,10.06.22.73,3.18,3.76,3.44,3.76h15.6c1.43-7.72-1.94-6.38-6.33-10.07-11.57-9.71-7.7-23.67-7.72-37.18,9.77-1.75,20.24-2.82,28.03-9.57,1.92-1.66,5.48-7.2,7.22-7.21,3.42-.01,6.2,13.52,14.8,14.43,2.29.24,4.87-.17,7.2,0,1-12.38-3.95-23.11-16.8-25.6-7.36-1.43-26.35-1.84-33.09.91-19.42,7.9-10.12,29.47-12.56,45.04-.58,3.73-2.94,3.34-3.15,3.65ZM85.61,80.5c2.84-7.85,2.93-18.56-4.83-23.56-3.37-2.17-20.07-5.36-24.37-5.3-5.39.08-22.7,3.56-26.31,7.34-4.32,4.53-5.47,15.77-1.68,20.72,6.16-18,19.32-4.45,28.77-4.76,8.29-.27,15.91-9.72,24.45-1.27l3.96,6.82ZM62.42,122.9c8.54-.76,15.7-7.96,16.71-16.49.53-4.5.81-21.39-.08-25.34-1.14-5.1-4.67-4.69-8.63-3.77-7.61,1.77-10.73,4.81-19.23,2.82-5.2-1.22-15.17-8.22-16.73,1.62-.75,4.78-.6,19.71-.05,24.76,1.58,14.67,15.67,17.49,28.01,16.39ZM168.82,93.3c-1.19-1.22-2.71-3.89-3.21-5.6-4.08,1.83-7.64,5.52-12,7.58-5.52,2.61-12.27,4.24-18.39,4.41.31,10.27-2.23,21.47,7.27,28.33,1.58,1.14,6.37,3.02,6.75,3.65,1.17,1.93-.17,9.9.38,10.42,1.54.15,3.32-.22,4.8,0,.43.06,1.21.79,2.71.87,9.31.5,3.32-5.58,5.68-10.47.66-1.37,7.45-4.2,9.52-6.48,6.85-7.51,3.84-18.23,4.51-27.39-.11-.47-6.8-4.06-8.03-5.33ZM28.02,90.11c-5.9.04-7.84,8.72-1.19,9.6,1.64.22,1.05-.12,1.2-1.19.36-2.57-.26-5.75,0-8.42ZM89.41,98.7c3.59-3.42.16-9.34-4.59-8.59v9.6c1.39.02,3.55-.01,4.59-1.01ZM183.22,107.71c1.14,1.12,5.62-.28,6.61-2.63,2.18-5.2-5.08-7.68-6.61-6.17-.31.31-.31,8.5,0,8.81ZM180.02,126.9c-2.38,1.43-3.91,3.85-6.02,5.58-4.48,3.67-7.27,1.87-5.98,9.62,3.18-.11,6.42.14,9.6,0,2.64-.12,9.6-.22,9.6-4.4v-23.6l-4.09.46c-.21,4.36-2.49,8.28-3.11,12.34ZM66.42,128.5h-20v5.6h20v-5.6ZM24.02,140.5c-8.67,1.66-13.17,8.15-14.18,16.62-1.08,9.12-1.45,34.97-.26,43.82.14,1.06,1.02,3.56,2.04,3.56h12.4v-64ZM53.62,140.5h-23.2v20h52.8v-20h-23.2v11.6c0,2.02-6.4,2.88-6.4.8v-12.4ZM103.22,204.5v-50.8c0-4.06-8.59-13.63-13.6-12.4v63.2h13.6ZM109.62,161.7v42.8h13.6v-30.8c0-.9,1.35-5.75,1.78-7.02.76-2.27,9.37-17.5,8.62-18.17-9.06-1.79-22.31,3.1-24,13.2ZM168.02,158.9c.99,2.77-1.51,4.9-3.99,3.64-3.16-1.59-3.68-13.14-4.92-13.94-.35-.23-5.18-.32-5.81-.15-1.38.37-2.06,15.64-7.13,14.36-5.39-1.35,1.35-13.28.24-14.31-1.58.13-3.6-.36-5.07.12-1.88.61-10.36,20.18-11.73,23.47v32.4c15.18-.22,30.42.29,45.6,0,2.39-.05,4.81.04,7.2,0-1.06-10.22,1.44-23.29-.05-33.15-.28-1.86-9.42-22.06-10.48-22.72s-4.71.17-6.27-.13c.52,1.5,2.04,10,2.4,10.4ZM186.42,148.5c-2.51-.23-5.53-.17-7.99.39,2.9,7.2,9.22,15.87,10.17,23.43,1.28,10.18-.48,21.84.22,32.18,2.13-.02,4.28.02,6.4,0,2.96-.03,7.26,1.03,7.98-2.82-2.08-16.66,8.17-50.93-16.78-53.18ZM75.22,166.1c-14.91-.25-29.89.19-44.8,0v9.61c3.59.45,9.69-1.84,10.4,3.2-.16.11-.12,2.44-2.15,3.05-2.32.7-5.75-.16-8.25.15v22.4h52.8v-22.4l-31.58-.02c-2.85-.55-2.62-3.05-2.82-3.18-.03-1.6.98-2.41,2.36-2.84,3.62-1.15,19.25-.57,24.04-.36.66.03,7.76,2.07,8.01.34v-9.94c-2.67-.03-5.36.05-8.01,0Z" style="fill:#060606;"/><path d="M109.62,161.7c1.68-10.1,14.93-14.98,24-13.2.75.67-7.85,15.9-8.62,18.17-.43,1.27-1.78,6.12-1.78,7.02v30.8h-13.6v-42.8Z" style="fill:#facea1;"/><path d="M195.22,204.5c-2.29-18.17,6.46-42.48-8.8-56,24.95,2.24,14.7,36.52,16.78,53.18-.72,3.85-5.02,2.79-7.98,2.82Z" style="fill:#f3b480;"/><path d="M186.42,148.5c15.26,13.52,6.51,37.83,8.8,56-2.13.02-4.28-.01-6.4,0-.7-10.34,1.06-22-.22-32.18-.95-7.56-7.27-16.23-10.17-23.43,2.46-.56,5.48-.62,7.99-.39Z" style="fill:#facea1;"/><path d="M175.22,204.5c-15.18.29-30.42-.22-45.6,0v-32.4c1.37-3.29,9.84-22.86,11.73-23.47,1.47-.48,3.49,0,5.07-.12,1.1,1.03-5.64,12.96-.24,14.31,5.08,1.27,5.76-14,7.13-14.36.63-.17,5.46-.07,5.81.15,1.24.8,1.76,12.35,4.92,13.94,2.48,1.25,4.98-.87,3.99-3.64.09.1,1.19-.43,1.66.5,3.19,6.33,5.07,11.02,5.57,18.26.6,8.69-.51,18.07-.03,26.83Z" style="fill:#c6edfc;"/><path d="M168.02,158.9c-.36-.4-1.88-8.89-2.4-10.4,1.56.3,5.21-.54,6.27.13s10.2,20.86,10.48,22.72c1.49,9.87-1.01,22.93.05,33.15-2.39.03-4.81-.05-7.2,0-.48-8.76.63-18.14.03-26.83-.5-7.25-2.38-11.93-5.57-18.26-.47-.94-1.57-.4-1.66-.5Z" style="fill:#95dbf0;"/><path d="M170.42,66.9c1.81,4.01,5.19,5.83,7.02,10.18,2.15,5.12,1.71,10.03,2.58,15.42-8.6-.91-11.38-14.44-14.8-14.43-1.74,0-5.3,5.55-7.22,7.21-7.79,6.74-18.26,7.81-28.03,9.57.02,13.51-3.85,27.47,7.72,37.18,4.39,3.69,7.76,2.35,6.33,10.07h-15.6c-.25,0-3.22-3.04-3.44-3.76-.84-2.82.37-6.93-.33-10.06-.53-2.38-2.94-3.53-3.03-3.77-.16-.41-.22-7.67,0-8,.21-.32,2.56.08,3.15-3.65,2.44-15.56-6.86-37.14,12.56-45.04,6.75-2.75,25.73-2.33,33.09-.91Z" style="fill:#a297a2;"/><path d="M154.42,142.1c-1.49-.21-3.26.15-4.8,0-.54-.52.79-8.49-.38-10.42-.38-.63-5.17-2.51-6.75-3.65-9.5-6.87-6.96-18.06-7.27-28.33,6.12-.17,12.87-1.8,18.39-4.41,4.35-2.06,7.92-5.75,12-7.58.51,1.71,2.03,4.38,3.21,5.6.03,3.46-.05,6.94,0,10.4-7.28-3.18-7.04,8.26,0,4.8-.3,9.79.76,14.17-7.19,21.21-4.79,4.24-8.76,3.66-7.21,12.39ZM148.86,106.1c0-1.79-1.45-3.24-3.24-3.24s-3.24,1.45-3.24,3.24,1.45,3.24,3.24,3.24,3.24-1.45,3.24-3.24ZM163.82,119.51c1.41-1.36.7-4.75-1.15-5.33-1.26-.4-4.29.79-6.24.79-3.24,0-11.28-2.56-8.02,3.94,1.69,3.38,13,2.91,15.41.6Z" style="fill:#facea1;"/><path d="M168.82,93.3c1.23,1.27,7.92,4.86,8.03,5.33-.67,9.15,2.34,19.87-4.51,27.39-2.08,2.28-8.86,5.11-9.52,6.48-2.37,4.89,3.63,10.97-5.68,10.47-1.5-.08-2.28-.8-2.71-.87-1.55-8.73,2.42-8.15,7.21-12.39,7.95-7.04,6.89-11.42,7.19-21.21.06-1.97.02-2.97,0-4.8-.05-3.46.03-6.94,0-10.4Z" style="fill:#f3b480;"/><path d="M180.02,126.9c.62-4.05,2.9-7.98,3.11-12.34l4.09-.46v23.6c0,4.18-6.96,4.28-9.6,4.4,2.61-4.84,1.66-10.36,2.4-15.2Z" style="fill:#8f808f;"/><path d="M170.42,66.9c12.86,2.49,17.81,13.22,16.8,25.6-2.34-.17-4.92.24-7.2,0-.87-5.39-.43-10.3-2.58-15.42-1.83-4.35-5.21-6.17-7.02-10.18Z" style="fill:#8f808f;"/><path d="M177.62,142.1c-3.18.15-6.42-.11-9.6,0-1.28-7.75,1.51-5.96,5.98-9.62,2.11-1.73,3.64-4.15,6.02-5.58-.74,4.84.21,10.36-2.4,15.2Z" style="fill:#a297a2;"/><path d="M183.22,107.71c-.31-.31-.31-8.5,0-8.81,1.54-1.51,8.79.98,6.61,6.17-.99,2.36-5.47,3.75-6.61,2.63Z" style="fill:#f3b480;"/><path d="M163.82,119.51c-2.41,2.32-13.72,2.78-15.41-.6-3.26-6.5,4.78-3.95,8.02-3.94,1.95,0,4.98-1.18,6.24-.79,1.85.58,2.56,3.97,1.15,5.33Z" style="fill:#060606;"/><circle cx="145.62" cy="106.1" r="3.24" style="fill:#060606;"/><path d="M168.82,103.7c.02,1.83.06,2.83,0,4.8-7.04,3.46-7.28-7.98,0-4.8Z" style="fill:#060606;"/><path d="M48.82,178.9c.2.13-.03,2.63,2.82,3.18l31.58.02v22.4H30.42v-22.4c2.5-.31,5.93.54,8.25-.15,2.04-.61,1.99-2.94,2.15-3.05.34-.22,7.66-.22,8,0Z" style="fill:#6c7fd7;"/><path d="M53.62,140.5v12.4c0,2.08,6.4,1.22,6.4-.8v-11.6h23.2v20H30.42v-20h23.2Z" style="fill:#6c7fd7;"/><path d="M24.02,140.5v64h-12.4c-1.01,0-1.9-2.5-2.04-3.56-1.19-8.85-.82-34.7.26-43.82,1.01-8.48,5.51-14.96,14.18-16.62Z" style="fill:#c6edfc;"/><path d="M103.22,204.5h-13.6v-63.2c5.01-1.23,13.6,8.34,13.6,12.4v50.8Z" style="fill:#c6edfc;"/><path d="M75.22,166.1v9.6c-4.8-.21-20.42-.8-24.04.36-1.38.44-2.39,1.25-2.36,2.84-.34-.22-7.66-.22-8,0-.71-5.03-6.81-2.75-10.4-3.2v-9.61c14.92.19,29.89-.24,44.8,0Z" style="fill:#95dbf0;"/><path d="M75.22,166.1c2.66.04,5.35-.03,8,0v9.94c-.25,1.73-7.34-.31-8-.34v-9.6Z" style="fill:#6c7fd7;"/><path d="M70.42,77.3c.46,1.42.75,2.85.83,4.36.45,8.25,1.13,26.74-2.56,33.51-1.66,3.05-4.99,4.73-6.28,7.72-12.33,1.1-26.42-1.73-28.01-16.39-.55-5.05-.7-19.98.05-24.76,1.55-9.84,11.52-2.84,16.73-1.62,8.5,1.99,11.61-1.05,19.23-2.82ZM49.54,97.42c0-1.75-1.42-3.16-3.16-3.16s-3.16,1.42-3.16,3.16,1.42,3.16,3.16,3.16,3.16-1.42,3.16-3.16ZM70.34,97.42c0-1.75-1.42-3.16-3.16-3.16s-3.16,1.42-3.16,3.16,1.42,3.16,3.16,3.16,3.16-1.42,3.16-3.16ZM64.62,106.31c-1.63-1.62-5.78-.14-8.22-.13-3.11,0-6.2-2.34-7.8.95-4.22,8.66,22.92,6.04,16.02-.81Z" style="fill:#fce2bf;"/><path d="M85.61,80.5l-3.96-6.82c-8.54-8.45-16.16,1-24.45,1.27-9.45.31-22.61-13.25-28.77,4.76-3.79-4.95-2.64-16.19,1.68-20.72,3.61-3.78,20.92-7.26,26.31-7.34,4.3-.06,21,3.13,24.37,5.3,7.76,5,7.67,15.7,4.83,23.56Z" style="fill:#8f808f;"/><path d="M62.42,122.9c1.29-2.99,4.62-4.67,6.28-7.72,3.68-6.78,3.01-25.27,2.56-33.51-.08-1.51-.37-2.94-.83-4.36,3.96-.92,7.49-1.33,8.63,3.77.89,3.96.61,20.84.08,25.34-1.01,8.53-8.17,15.73-16.71,16.49Z" style="fill:#facea1;"/><rect x="46.42" y="128.5" width="20" height="5.6" style="fill:#c6edfc;"/><path d="M89.41,98.7c-1.04,1-3.2,1.03-4.59,1.01v-9.6c4.75-.75,8.18,5.17,4.59,8.59Z" style="fill:#f3b480;"/><path d="M28.02,90.11c-.25,2.66.37,5.85,0,8.42-.15,1.07.44,1.41-1.2,1.19-6.64-.89-4.7-9.56,1.19-9.6Z" style="fill:#facea1;"/><path d="M64.62,106.31c6.9,6.85-20.24,9.47-16.02.81,1.6-3.29,4.69-.94,7.8-.95,2.44,0,6.59-1.49,8.22.13Z" style="fill:#060606;"/><circle cx="46.38" cy="97.42" r="3.16" style="fill:#060606;"/><circle cx="67.18" cy="97.42" r="3.16" style="fill:#060606;"/><path d="M212.85,20.07c2.96-.41,13.96.14,14.54,3.75.42,2.58-4.42,4.97-6.14,7.64-4.09,6.36-3.26,14.84,2.22,20.16,1.93,1.87,7.58,3.89,1.49,6.89-9.72,4.79-22.43.25-27.04-9.47-5.61-11.83,1.72-27.17,14.93-28.97ZM218.38,55.21c.55-.15,2.38.47,1.79-.89-.3-.69-2.03-1.79-2.65-2.74-4-6.1-4.63-13.89-1.46-20.53.97-2.04,3.7-4.51,4.11-5.47.54-1.28-1.15-.85-1.79-.89-20.39-1.24-23.85,24.71-7.19,30.23,3,.99,4.18,1.12,7.19.29Z" style="fill:#060505;"/><path d="M218.38,24.7c-14.26,5.1-14.9,25.84,0,30.52-3.01.83-4.19.7-7.19-.29-16.66-5.51-13.2-31.47,7.19-30.23Z" style="fill:#f9eacd;"/><path d="M218.38,24.7c.64.04,2.34-.39,1.79.89-.41.96-3.14,3.43-4.11,5.47-3.17,6.64-2.54,14.43,1.46,20.53.62.95,2.35,2.05,2.65,2.74.59,1.36-1.24.74-1.79.89-14.9-4.68-14.26-25.42,0-30.52Z" style="fill:#fadda5;"/></g></svg>