<?xml version="1.0" encoding="UTF-8"?><svg id="a" xmlns="http://www.w3.org/2000/svg" viewBox="0 0 230.86 230.01"><g id="b"><path d="M31.08,126.96c-.06-.23-1.18-.89-1.38-1.67-1.06-4.16,6.33-13.69,6.38-17.86.02-1.82-3.06-3.18-3.75-5.37-2.06-6.53,1.49-11.54,7.87-12.86,5.67-1.18,34.34-2.16,36.32-5.39,1.02-1.67-1.18-6.45,1.37-8.53,3.68-3,24.57-4.74,26.29-8.98.72-1.76-1.17-1.21-2.13-1.28-11.61-.8-20.71-1.55-30.1-9.48-3.91-3.3-5.79-4.67-4.07-10.07,1.7-5.33,8.54-14.79,11.52-20.3s2.46-11.46,11.53-12.56c5.81-.7,7.04,2.28,10.28,2.48,3.78.23,7.34-1.5,12.48-.45,10.65,2.18,19.25,19.47,15.35,29.21-1.37,3.43-4.51,4.28-4.92,4.97-1.54,2.59,3.06,8.48,6.26,8.51,2.08.02,16.15-4.23,16.66-5.79.31-.93.4-5.74,0-6.19-.18-.2-2.39-.51-3.43-1.27-10.86-7.88-10.04-29.91,2.25-36.73,16.62-9.23,31.89,5.12,27.07,22.78-.77,2.81-2.93,5.26-3.34,7.85-.72,4.55.42,9.52.94,14.01,10.13,3.8,31.3,7.94,24.39,23.37-.75,1.69-2.22,2.63-2.79,4.09-1.86,4.77-1.01,13.22-3.03,17.61-.91,1.97-1.95,2.52-4.08,2.37-.04-.13-1.27-.65-1.61-1.39-1.97-4.28,1.44-9.36.74-14.1-.28-.38-6.89,3.86-7.73,4.3-4.71,2.48-9.62,5-14.62,6.88v29.25c3.56.13,6.92-.96,10.32-1.72,1.59-.35,5.47-.13,6.48-1.69,1.1-1.71.65-8.39,1.88-11.02,1.14-2.43,3.52-1.74,3.68-1.91,5.41,1.11.95,10.49.84,14.24-.4,13.6,13.09,40.06,14.56,55.11.19,1.94.74,4.47-1.64,5.49-.55-.51-2.85.82-4.73-3.44l-13.75-49.91c-1.76-2.45-5.77.66-7.33.88-7.24,1.02-15.93.72-23.22,0-.49-.05-2.01-1.57-3.44-.86-.14,10.12-2.38,19-2.58,29.25-.32,16.17,2.63,31.41,5.2,47.27,1.98.11,3.99.07,5.98.05,1.72-.02,3.45.02,5.17,0v-55.06c-.8-3.6,4.33-5.99,6.45-3.44l23.56,57.96c.8,1.02,4.65.57,6.11.53,1.71-.05,3.45.04,5.16,0,.48-.4-3.09-9.87-3.18-11.78-.11-2.63,2.19-3.11,2.32-3.7,6.65.4,5.71,11.58,8.23,16.28,1.1,2.05,4.36,3.47,5.15,6.04.95,3.1,1.19,10.14-2.22,11.64-1.8.8-24.91.85-26.64.02-5.6-2.66-.24-12.6-1.22-16.82l-16.84-40.39v52.05c0,1.84-4.4,5.21-6.5,5.54-4.68.74-21.85.72-26.66.09-10.64-1.38-2.71-22.48,8.22-18.97l-5.18-35.26-6.39,10.38c-1.04,1.25-3.03.49-3.92.8-3.84-4.04,2.45-10.27,4.45-14.91,8.28-19.19,10.42-38.24,9.31-59.07-1.18-1.22-5.71,2.91-6.88,3.44-3.99,1.81-6.35,2.35-10.56.67-1.25-.5-2.08-2.38-3.47-2.25-1.88.17-8.26,3.72-10.95,4.56-22.37,6.94-43.63,4.84-64.81-4.76-1.14.18-5.55,14.76-7.35,16.89-1.36,1.6-2.75,1.5-4.35.38ZM166.97,27.17c1.43-11.81-5.38-18.55-17.19-14.61,1.06,1.58,3.61,1.29,5.59,2.56,4.97,3.2,4.92,11.2,11.6,12.04ZM94.72,19.44c-7.16-1.33-10.41,5.04-5.58,10.31l5.58-10.31ZM146.99,19.59c-5.56.64-4.37,4.99-3.87,9.49,1.15,10.36,6.14,12.58,15.84,8.58,9.31-3.84,1.78-4.9-1.45-8.35-3.78-4.04-3.24-10.55-10.52-9.72ZM109.34,20.29c-7.16.13-13.58,5.26-12.55,12.92.28,2.11,2.42,7.75,4.4,8.57,1.81.75,1.12-1.26,1.3-2.11.62-2.88.76-5.87,1.65-8.69,1.23-3.91,4.21-6.83,5.21-10.7ZM108.48,46.1c3.43.76,13.36-1.3,14.46-4.9,1.04-3.39-2.21-15.66-5.58-16.53-5.69-1.47-9.66,17.26-8.88,21.43ZM105.04,58.14c-.27-6.66-5.86-9.41-9.9-13.75-3.92-4.21-6.1-9.42-12.86-11.22-.67,2.72-8.38,13.33-8.07,14.95.59,3.06,15.46,10.02,18.36,10.02h12.47ZM162.66,43.51c-1.29.77-8.23,1.47-8.52,1.79-.27.29-1.05,7.26-.82,7.95.72,2.14,4.61,3.44,6.72,2.72,5.55-1.89,3.3-8.01,2.63-12.46ZM117.9,52.16c-.26-.23-6.6.58-6.84.82-.38.38,1.13,8.21.86,10.76-.33,3.13-1.74,4.55-2.57,7.3,2.83.6,5.52,1.88,8.39,2.37,1.24.21,9.48,1.12,9.97.99,1.91-.52,3.52-8.7,3.09-9.29-.33-.45-6.8-2.68-9.43-5.65-2.24-2.54-3.15-7.02-3.46-7.3ZM174.71,59.87c-7.64-3.19-14.52.55-12.89,9.46,3.62-2.43,8.15-4.17,11.46-7.02.89-.77,1.8-.84,1.43-2.43ZM142.89,60.72c-1.1.34-5.14.49-4.29,2.14.43.83,4.34,3.08,5.87,5.32,1.94,2.84,3.18,6.27,2.73,9.75,2.24.86,2.96-1.48,3.44-1.72,1.03-.52,4-1.2,4.31-2.33.37-1.34.16-10.21-.44-11.44-2.32-4.76-7.97-2.85-11.62-1.71ZM138.74,91.83c-1.02,1.72,1.86,7.51,4.16,6.4l42.24-22.35c8.32-3.86,3.19-14.18-4.61-10.63l-41.79,26.58ZM137.3,70.2c-1.17-.01-2.61,9.28-5.3,10.17-4.17,1.37-15.66-.64-20.26-1.83-3.29-.85-6.49-3.34-9.68-3.25-1.32.04-15.7,3.91-17.05,4.53-.95.44-1.49.57-1.37,1.82.29,3.02,7.71,12.55,10.87,13.33,4.53,1.12,13.56-7.92,17.11-8.27s7.33,7.92,10.99,7.6c1.06-.09,17.6-10.29,18.12-11.22,1.8-3.26.02-10.88-3.43-12.88ZM40.11,101.15h35.26c.83,0,8.7-3.86,8.99-4.84.45-1.53-3.25-6.27-4.7-6.41-1.93-.18-3.67,2.09-6.06,2.59-10.33,2.2-22.8,1.21-33.31,3.67-2.24.45-1.86,4.48-.18,4.99ZM77.95,107.18c-6.11,1.02-14.67-.75-21.07,0,.26,1.59,1.77,1.45,2.9,1.84,14.18,4.83,30.46,3.96,44.59-.36,1.63-.5,12.21-4.48,12.57-5.06,1.79-2.91-2.8-9.36-5.43-9.34-2.28.02-12.01,7.87-14.85,8.47-1.91.41-3.24-1.39-5.02-1.58-4.65-.52-9.53,5.34-13.68,6.03ZM133.32,96.97c-1.86-1.15-9.72,4.08-10.13,5.63-1.75,6.62,10.92,1.57,11.9.21.5-.69-1.49-5.67-1.77-5.84ZM150.63,102.01c-.8.46-2.5.3-3.46,1.26-2.07,2.08-.2,15.68-.85,19.39,1.08.16,2.46-.22,3.45,0,1.45.31,3.06,1.58,5.16.86v-24.09c-.31-.4-3.65,2.21-4.3,2.58ZM160.09,212.99h-21.93c-1.69,0-4.55,4.02-3.87,6.02h23.65c1.07,0,2.69-4.69,2.15-6.02ZM188.47,219.01h17.63c1.7,0,2.23-5.5-2.53-6.07-5.29-.64-16.75-1.73-15.1,6.07Z" style="fill:#070707;"/><path d="M197.93,182.88c.29.27,1.81,7.32,1.72,7.74-.13.59-2.43,1.07-2.32,3.7.08,1.91,3.65,11.38,3.18,11.78-1.71.05-3.44-.04-5.16,0l-23.22-75.7c1.56-.22,5.57-3.33,7.33-.88l13.75,49.91c1.88,4.26,4.18,2.93,4.73,3.44Z" style="fill:#847f7f;"/><path d="M185.03,99.43c.27.78-.56,8.29-.86,8.6-.16.17-2.54-.52-3.68,1.91-1.23,2.63-.78,9.31-1.88,11.02-1.01,1.57-4.89,1.34-6.48,1.69l4.3-34.41c.84-.44,7.45-4.68,7.73-4.3.7,4.73-2.71,9.82-.74,14.1.34.74,1.57,1.26,1.61,1.39Z" style="fill:#c9e5ed;"/><path d="M172.13,130.4l23.22,75.7c-1.46.04-5.31.48-6.11-.53l-23.56-57.96c-2.12-2.55-7.25-.16-6.45,3.44-3.2.29-4.85,4.57-5.18,7.29l.02,47.76c-1.99.03-4,.06-5.98-.05-2.57-15.86-5.52-31.1-5.2-47.27,2.55.52,1.51-1.27,1.95-2.74,2.5-8.3,4.52-16.91,4.07-25.65,7.29.72,15.98,1.02,23.22,0Z" style="fill:#9c9595;"/><path d="M138.74,91.83l41.79-26.58c7.8-3.55,12.93,6.77,4.61,10.63l-42.24,22.35c-2.3,1.11-5.18-4.68-4.16-6.4Z" style="fill:#ecf5f8;"/><path d="M176.43,88.25l-4.3,34.41c-3.4.76-6.76,1.85-10.32,1.72v-29.25c5-1.88,9.91-4.4,14.62-6.88Z" style="fill:#deecf0;"/><path d="M159.23,151.05v55.06c-1.71.02-3.44-.03-5.16,0l-.02-47.76c.33-2.73,1.98-7,5.18-7.29Z" style="fill:#847f7f;"/><path d="M146.99,19.59c7.28-.83,6.74,5.68,10.52,9.72,3.23,3.45,10.77,4.51,1.45,8.35-9.7,4-14.68,1.79-15.84-8.58-.5-4.5-1.7-8.85,3.87-9.49Z" style="fill:#dd8e7c;"/><path d="M160.09,212.99c.54,1.33-1.08,6.02-2.15,6.02h-23.65c-.68-2,2.18-6.02,3.87-6.02h21.93Z" style="fill:#847f7f;"/><path d="M150.63,102.01c.65-.37,3.99-2.98,4.29-2.58v24.09c-2.09.72-3.7-.56-5.15-.86.22-6.88-.67-13.89.86-20.65Z" style="fill:#deecf0;"/><path d="M166.97,27.17c-6.68-.85-6.63-8.85-11.6-12.04-1.98-1.28-4.53-.98-5.59-2.56,11.81-3.94,18.62,2.8,17.19,14.61Z" style="fill:#9c9595;"/><path d="M188.47,219.01c-1.65-7.8,9.81-6.71,15.1-6.07,4.76.57,4.23,6.07,2.53,6.07h-17.63Z" style="fill:#847f7f;"/><path d="M142.89,60.72c3.65-1.14,9.3-3.05,11.62,1.71.6,1.23.8,10.1.44,11.44-.31,1.13-3.28,1.81-4.31,2.33.99-7.19-3.55-10.72-7.74-15.48Z" style="fill:#deecf0;"/><path d="M162.66,43.51c.67,4.45,2.92,10.58-2.63,12.46-2.11.72-6-.58-6.72-2.72-.23-.69.55-7.66.82-7.95.3-.32,7.23-1.02,8.52-1.79Z" style="fill:#dd8e7c;"/><path d="M148.91,130.4c.44,8.74-1.57,17.35-4.07,25.65-.44,1.46.6,3.26-1.95,2.74.2-10.25,2.44-19.13,2.58-29.25,1.43-.7,2.95.81,3.44.86Z" style="fill:#847f7f;"/><path d="M142.89,60.72c4.19,4.76,8.73,8.29,7.74,15.48-.48.24-1.2,2.58-3.44,1.72.45-3.47-.79-6.91-2.73-9.75-1.53-2.24-5.44-4.49-5.87-5.32-.85-1.65,3.19-1.8,4.29-2.14Z" style="fill:#c9e5ed;"/><path d="M174.71,59.87c.37,1.6-.54,1.67-1.43,2.43-3.31,2.86-7.84,4.6-11.46,7.02-1.63-8.91,5.25-12.65,12.89-9.46Z" style="fill:#deecf0;"/><path d="M133.32,96.97c.28.17,2.27,5.15,1.77,5.84-.99,1.36-13.65,6.41-11.9-.21.41-1.55,8.27-6.79,10.13-5.63Z" style="fill:#dd8e7c;"/><path d="M150.63,102.01c-1.53,6.75-.64,13.77-.86,20.65-.98-.21-2.37.16-3.45,0,.65-3.71-1.22-17.32.85-19.39.96-.96,2.66-.8,3.46-1.26Z" style="fill:#c9e5ed;"/><path d="M132.57,111.48c1.42.9.86,3.27.88,4.72.24,23.38-3.81,40.85-15.66,60.92-4.88,8.27-11.31,15.56-16.17,23.82-24.05,1.65-48.31-3.74-68.69-16.48-.55-.94,3.76-12.27,4.33-12.62,1.59-.98,6.35,1.03,8.03-1,.72-.87,8.32-19.94,8.21-21.07-.21-2.27-3.75-3.86-5.7-2.25s-6.22,16.43-7.38,17.15c-3.02,1.87-12.74-3.33-14.86-5.93-4.38-5.37,5.81-15.62,4.49-21.68-.19-.89-1.5-1.96-1.53-2.35-.13-1.39,3.14-5.51,2.58-7.74,1.6,1.11,2.99,1.22,4.35-.38,1.8-2.12,6.22-16.71,7.35-16.89,21.19,9.6,42.45,11.7,64.81,4.76,2.69-.84,9.08-4.39,10.95-4.56,1.39-.12,2.22,1.76,3.47,2.25,4.21,1.68,6.57,1.14,10.56-.67Z" style="fill:#f0f9fd;"/><path d="M28.5,134.7c.04.4,1.34,1.47,1.53,2.35,1.33,6.06-8.87,16.31-4.49,21.68,2.12,2.6,11.84,7.79,14.86,5.93,1.16-.72,5.34-15.47,7.38-17.15s5.5-.02,5.7,2.25c.1,1.13-7.49,20.2-8.21,21.07-1.68,2.03-6.44.02-8.03,1-.57.35-4.88,11.68-4.33,12.62,20.38,12.75,44.64,18.13,68.69,16.48,1.91-.13,2.81.35,4.77-.81,4.95-2.95,8.51-14.37,15.01-11.23,0,.31.84,1.21.77,2.14-.19,2.76-10.83,14.49-13.71,15.45-3.05,1.02-6.76-.39-9.05,1.27-2.08,1.5-6.27,10.14-8.62,12.89-6.31,7.39-11.62,5-16.27-2.52-6.08,14.13-20.98,4.12-19.17-7.94.39-2.61,2.61-4.72,2.4-7.52-6.26-.76-29.78-11.08-31.44-16.31-1.88-5.9,4.62-13.2,3.85-15.82-.95-3.23-14.05-5.54-12.85-16.5.2-1.86,5.44-14.94,6.55-16.68s2.44-2.81,4.65-2.66ZM74.08,206.11c-2.48.57-7.26-1.87-9.29-.68-3.5,2.06-4.26,13.53,2.31,12.62l6.98-11.93ZM91.28,206.97c-6.31.24-12.01-2.2-11.21,6.45.25,2.69,1.62,6.36,4.81,3.92.74-.56,6.89-9.94,6.39-10.37Z" style="fill:#070707;"/><path d="M132.57,111.48c1.16-.53,5.7-4.65,6.88-3.44,1.11,20.83-1.03,39.89-9.31,59.07-2,4.64-8.29,10.87-4.45,14.91-.91.32-4.28,5.66-4.3,6.88-6.5-3.14-10.06,8.28-15.01,11.23-1.96,1.17-2.87.68-4.77.81,4.87-8.27,11.29-15.55,16.17-23.82,11.85-20.08,15.91-37.54,15.66-60.92-.02-1.45.55-3.82-.88-4.72Z" style="fill:#deecf0;"/><path d="M137.3,70.2c3.46,2,5.24,9.62,3.43,12.88-.52.93-17.05,11.12-18.12,11.22-3.66.33-7.27-7.97-10.99-7.6s-12.58,9.39-17.11,8.27c-3.17-.78-10.58-10.31-10.87-13.33-.12-1.24.41-1.37,1.37-1.82,1.35-.63,15.73-4.49,17.05-4.53,3.19-.1,6.38,2.39,9.68,3.25,4.6,1.19,16.09,3.2,20.26,1.83,2.69-.88,4.13-10.18,5.3-10.17Z" style="fill:#ecf5f8;"/><path d="M77.95,107.18c4.16-.69,9.03-6.55,13.68-6.03,1.79.2,3.11,1.99,5.02,1.58,2.84-.6,12.57-8.46,14.85-8.47,2.63-.02,7.22,6.42,5.43,9.34-.35.58-10.94,4.56-12.57,5.06-14.14,4.32-30.42,5.19-44.59.36-1.13-.39-2.63-.25-2.9-1.84,6.41-.75,14.97,1.02,21.07,0Z" style="fill:#ecf5f8;"/><path d="M105.04,58.14h-12.47c-2.9,0-17.77-6.96-18.36-10.02-.31-1.62,7.4-12.23,8.07-14.95,6.76,1.8,8.94,7.01,12.86,11.22,4.05,4.34,9.63,7.1,9.9,13.75Z" style="fill:#ecf5f8;"/><path d="M40.11,101.15c-1.68-.5-2.07-4.54.18-4.99,10.51-2.46,22.98-1.47,33.31-3.67,2.38-.51,4.13-2.78,6.06-2.59,1.46.14,5.16,4.88,4.7,6.41-.29.98-8.16,4.84-8.99,4.84h-35.26Z" style="fill:#f7c8c2;"/><path d="M117.9,52.16c.31.27,1.21,4.76,3.46,7.3,2.63,2.97,9.1,5.2,9.43,5.65.43.59-1.17,8.77-3.09,9.29-.48.13-8.73-.77-9.97-.99-2.87-.49-5.56-1.77-8.39-2.37.83-2.74,2.24-4.17,2.57-7.3.27-2.55-1.24-10.37-.86-10.76.24-.24,6.59-1.05,6.84-.82Z" style="fill:#f7c8c2;"/><path d="M108.48,46.1c-.78-4.16,3.19-22.9,8.88-21.43,3.37.87,6.62,13.14,5.58,16.53-1.1,3.59-11.02,5.66-14.46,4.9Z" style="fill:#f7c8c2;"/><path d="M109.34,20.29c-.99,3.87-3.97,6.79-5.21,10.7-.89,2.82-1.03,5.81-1.65,8.69-.18.84.52,2.86-1.3,2.11-1.98-.82-4.11-6.46-4.4-8.57-1.03-7.66,5.39-12.79,12.55-12.92Z" style="fill:#dd8e7c;"/><path d="M94.72,19.44l-5.58,10.31c-4.83-5.27-1.58-11.64,5.58-10.31Z" style="fill:#dd8e7c;"/><path d="M74.08,206.11l-6.98,11.93c-6.56.92-5.8-10.56-2.31-12.62,2.02-1.19,6.8,1.25,9.29.68Z" style="fill:#deecf0;"/><path d="M91.28,206.97c.49.43-5.66,9.81-6.39,10.37-3.19,2.44-4.56-1.23-4.81-3.92-.8-8.65,4.9-6.21,11.21-6.45Z" style="fill:#deecf0;"/></g></svg>