<?xml version="1.0" encoding="UTF-8"?><svg id="a" xmlns="http://www.w3.org/2000/svg" viewBox="0 0 234.69 235.86"><g id="b"><path d="M108.83,59.04c34.49-3.04,68.85,10.78,91.47,36.74,3.15,3.62,13.61,16.93,12.89,21.24-.59,3.54-10.07,15.91-12.89,19.15-44.75,51.36-125.04,48.85-166.51-5.14-2.22-2.89-9.08-12.29-8.91-15.4.2-3.66,10.5-16.94,13.43-20.27,17.34-19.73,44.15-33.98,70.53-36.31ZM169.54,115.97c0-27.85-22.59-50.43-50.45-50.43s-50.45,22.58-50.45,50.43,22.59,50.43,50.45,50.43,50.45-22.58,50.45-50.43ZM78.7,74.77c-8.63,3.28-17.42,8.71-24.4,14.7-4.33,3.72-21.27,21.39-21.67,26.22s17.48,23.19,21.67,26.78,16.68,12.49,21.48,13.85c1.6.45,1.56-.88,1.12-1.96-.59-1.46-5.71-6.84-7.28-9.54-9.4-16.1-10.32-35.1-2.83-52.12,2.92-6.64,7.43-12.37,11.92-17.93ZM160.32,74.77c-1.18-.6-2.24.53-1.67.82,1.18.6,2.24-.53,1.67-.82ZM161.17,156.33c1.46,1.56,20.56-12.01,22.72-13.86,4.28-3.67,21.28-21.53,21.67-26.22.68-8.02-33.78-39.35-43.97-40.66-1.21.58.11,2.09.56,2.8,14.37,22.54,21.35,41.42,6.09,66.94-1.11,1.86-8.08,9.93-7.08,10.99ZM78.29,156.33v.84c.55-.28.55-.56,0-.84ZM160.32,156.34c-1.18-.6-2.24.53-1.67.82,1.18.6,2.24-.53,1.67-.82Z" style="fill:#070506;"/><path d="M169.54,115.97c0,27.85-22.59,50.43-50.45,50.43s-50.45-22.58-50.45-50.43,22.59-50.43,50.45-50.43,50.45,22.58,50.45,50.43ZM162.84,115.97c0-24.15-19.58-43.72-43.74-43.72s-43.74,19.57-43.74,43.72,19.58,43.72,43.74,43.72,43.74-19.57,43.74-43.72Z" style="fill:#ec8cac;"/><path d="M78.7,74.77c-4.49,5.55-9,11.29-11.92,17.93-7.49,17.02-6.57,36.02,2.83,52.12,1.58,2.7,6.69,8.08,7.28,9.54.44,1.08.48,2.41-1.12,1.96-4.8-1.36-17.35-10.31-21.48-13.85s-22.06-22.12-21.67-26.78,17.34-22.5,21.67-26.22c6.98-5.99,15.78-11.42,24.4-14.7Z" style="fill:#f4b8cb;"/><path d="M161.17,156.33c-1-1.07,5.97-9.14,7.08-10.99,15.26-25.52,8.28-44.39-6.09-66.94-.46-.71-1.77-2.23-.56-2.8,10.19,1.31,44.65,32.64,43.97,40.66-.4,4.68-17.39,22.54-21.67,26.22-2.17,1.86-21.27,15.42-22.72,13.86Z" style="fill:#f4b8cb;"/><path d="M160.32,74.77c.57.29-.49,1.43-1.67.82-.57-.29.49-1.43,1.67-.82Z" style="fill:#f4b8cb;"/><path d="M160.32,156.34c.57.29-.49,1.43-1.67.82-.57-.29.49-1.43,1.67-.82Z" style="fill:#f4b8cb;"/><path d="M78.29,156.33c.55.28.55.56,0,.84v-.84Z" style="fill:#f4b8cb;"/><path d="M162.84,115.97c0,24.15-19.58,43.72-43.74,43.72s-43.74-19.57-43.74-43.72,19.58-43.72,43.74-43.72,43.74,19.57,43.74,43.72ZM156.05,115.97c0-20.4-16.54-36.93-36.95-36.93s-36.95,16.54-36.95,36.93,16.54,36.93,36.95,36.93,36.95-16.54,36.95-36.93Z" style="fill:#070405;"/><path d="M156.05,115.97c0,20.4-16.54,36.93-36.95,36.93s-36.95-16.54-36.95-36.93,16.54-36.93,36.95-36.93,36.95,16.54,36.95,36.93ZM107.11,95.12c-8.23,1.19-13.06,9.69-11.21,17.54.98,4.15,15.47,18.67,19.38,21.82,1.45,1.17,2.56,2.75,4.67,2.17,1.62-.45,18.47-17.26,20.03-19.56,7.43-10.94-1.55-24.44-14.21-21.77-2.45.52-6.4,3.87-6.99,3.77-.54-.1-2.34-2.21-3.9-2.88-2.24-.96-5.32-1.44-7.77-1.08Z" style="fill:#ec6190;"/><path d="M107.11,95.12c2.46-.35,5.53.12,7.77,1.08,1.57.67,3.36,2.79,3.9,2.88.59.11,4.54-3.25,6.99-3.77,12.66-2.67,21.64,10.83,14.21,21.77-1.56,2.3-18.41,19.12-20.03,19.56-2.11.58-3.22-1-4.67-2.17-3.92-3.15-18.41-17.67-19.38-21.82-1.85-7.85,2.99-16.35,11.21-17.54ZM107.93,101.8c-2.47.45-5.35,3.82-5.65,6.25-.82,6.53,12.44,15.52,16.51,20.47,1.24.22,16.34-15.1,16.94-17.39,1.4-5.35-3.7-10.81-9.1-9.09-2.71.86-4.96,5.62-7.82,5.35-3.14-.29-5.25-6.59-10.87-5.58Z" style="fill:#070304;"/><path d="M107.93,101.8c5.62-1.01,7.73,5.29,10.87,5.58,2.87.27,5.12-4.49,7.82-5.35,5.4-1.72,10.5,3.75,9.1,9.09-.6,2.3-15.7,17.61-16.94,17.39-4.07-4.94-17.33-13.94-16.51-20.47.31-2.43,3.18-5.81,5.65-6.25Z" style="fill:#ec8bab;"/></g></svg>