<?xml version="1.0" encoding="UTF-8"?><svg id="a" xmlns="http://www.w3.org/2000/svg" viewBox="0 0 234.69 235.86"><path d="M127.29,5.46c2.89,2.88,2.79,6.25,3.61,9.91l88.79,34.2c3.58,1.84,13.22-1.21,15,2.46v180.17s-2.03,1.65-2.03,1.65l-227.32-.27-1.65-2.03.27-179.52c1.63-3.35,9.56-1.2,12.79-1.91L107.76,15.37c-.52-10.47,11.61-17.82,19.53-9.91ZM123.05,13.42c0-2.06-1.67-3.73-3.73-3.73s-3.73,1.67-3.73,3.73,1.67,3.73,3.73,3.73,3.73-1.67,3.73-3.73ZM39.36,50.19h160.86l-71.68-28.15c-6.41,1.41-10.34,4.44-17-.27l-65.06,24.97-7.12,3.45ZM10.86,57.55v169.13h216.93V57.55H10.86Z" style="fill:#020202;"/><path d="M10.86,57.55h216.93v169.13H10.86V57.55ZM224.16,61.17H14.48s0,161.89,0,161.89h209.69s0-161.89,0-161.89Z" style="fill:#fed1a5;"/><circle cx="119.33" cy="13.42" r="3.73" style="fill:#636b76;"/><path d="M216.76,68.58v147.07h-7.35v-86.87c0-21.68-25.74-41.29-46.38-41.87-21.62-.6-49.22,19.04-49.22,41.87v59.29c-6.48-5.47-13.83-6.08-22.07-5.51.44-2.21-.72-7.45.2-9.01.14-.25,3.77-2.03,4.84-2.97,5.34-4.67,10.06-11.4,11.99-18.34,2.03-7.31,2.58-33.52-.3-40.18-3.27-7.56-11.38-8.53-12.62-10.36-1.88-2.78,1.65-12.39-2.25-14.29-1.96-.95-24.4-.77-27.94-.36-14.49,1.69-27.27,14.46-28.96,28.96-1.76,15.14-1.62,37.19,8.2,49.52,2.25,2.82,9.57,7.47,9.9,8.02.92,1.56-.24,6.8.2,9.01-9.94-.87-19.08.74-25.2,9.27-1.05,1.47-4.21,7.37-4.21,8.65v15.17c0,.18-3.68.18-3.68,0V68.58h194.87Z" style="fill:#754c24;"/><path d="M224.16,61.17v161.88s-209.68.01-209.68.01V61.18s209.68-.01,209.68-.01ZM216.76,68.58H21.89v147.07c0,.18,3.68.18,3.68,0v-15.17c0-1.28,3.16-7.19,4.21-8.65,6.12-8.52,15.26-10.14,25.2-9.27-.44-2.21.72-7.45-.2-9.01-.32-.55-7.65-5.2-9.9-8.02-9.82-12.33-9.96-34.38-8.2-49.52,1.69-14.49,14.46-27.27,28.96-28.96,3.54-.41,25.98-.6,27.94.36,3.91,1.9.37,11.51,2.25,14.29,1.24,1.83,9.35,2.8,12.62,10.36,2.88,6.66,2.33,32.87.3,40.18-1.92,6.94-6.64,13.67-11.99,18.34-1.07.94-4.7,2.72-4.84,2.97-.92,1.56.24,6.8-.2,9.01,8.24-.57,15.59.04,22.07,5.51v-59.29c0-22.83,27.61-42.47,49.22-41.87,20.63.58,46.38,20.19,46.38,41.87v86.87h7.35V68.58ZM88.08,94.31h-22.52c-1.45,0-9.29,3.67-10.88,4.75-7.55,5.11-11.62,15.65-10.72,24.66,2.89-.18,3.73-3.42,6.93-3.64,4.13-.28,15.04,3.44,21.05,3.69,2.89.12,6.25.11,9.12-.16,4.22-.4,12.17-3.7,14.77-3.54,3.19.21,4.07,3.47,6.94,3.65.76-5.14-1.24-11.27-6.17-13.58-2.46-1.15-6.94-.66-8.08-2.95-1.28-2.58.15-12.28-.45-12.88ZM200.21,123.73c-10.9-38.62-64.87-38.84-77.2-.93,24.64-8.3,53.04-9.63,77.2.93ZM124.84,131.08h72.62c-1.24-1.76-4.92-2.98-6.95-3.62-17.03-5.4-43.11-5.29-59.95.62-1.61.56-5.05,1.38-5.72,3.01ZM51.08,128.52c-.95.25-6.69,4.17-6.98,5.01-2.02,5.93.75,17.83,3.87,23.41,13.47,24.14,51.38,16.44,54.71-10.79.91-7.45,1.56-14.44-6.38-17.34-3.28-1.2-10.83,1.9-15.14,2.26-3.04.25-7.06.21-10.14.06-4.97-.24-16.42-3.51-19.94-2.6ZM121.17,138.44v49.64c6.48-5.47,13.83-6.08,22.07-5.51-.43-2.23.71-7.46-.2-9.01-.18-.31-3.33-1.71-4.33-2.56-7.97-6.82-12.51-15.19-13.85-25.67-.55-4.35,2.1-7.99-3.69-6.88ZM191.03,138.44h-58.83c-1.95,43.82,60.78,43.81,58.83,0ZM202.06,138.44c-5.85-1.52-3.18,4.61-3.91,9.41-1.33,8.72-6.59,17.04-13.11,22.73-1.07.94-4.7,2.72-4.84,2.97-.91,1.56.24,6.78-.2,9.01,7.99-.43,15.94-.14,22.07,5.51v-49.64ZM84.39,177.05c-7.55,2.36-14.5,2.36-22.05,0-1.6,14.84,6.47,5.2,11.41,5.52,5.22.34,12.02,8.81,10.63-5.52ZM172.65,177.96c-7.61,1.06-14.46,1.06-22.07,0,.76,10.61.36,13.17-11.03,11.95v7.36c5.08.44,11.06-.66,16.01.08,2.26.33,5.52,2.62,6.34,2.5,1.12-.16,3.16-2.11,5.77-2.5,4.95-.73,10.93.36,16.01-.08v-7.36c-11.39,1.22-11.79-1.34-11.03-11.95ZM56.74,189.98c-.46-.29-1.52.05-2.22-.07-1.95,2.92,2.13,3.72,3.68,5.5,0-.95-1.23-5.28-1.47-5.43ZM92.67,189.92c-2.44-2.18-4.36,3.97-4.14,5.49.76-.74,6.03-3.81,4.14-5.49ZM32.92,201.4c-.69,4.18.5,9.87,0,14.25h22.98c-.8-3.09-9.11-23.96-10.24-24.67-4.15-2.6-12.05,6.3-12.74,10.43ZM80.72,193.6c-6.32-3.17-8.39-3.17-14.71,0l6.45,15.61c2.15.48,1.47-.31,2.04-1.18.81-1.24,6.69-13.8,6.22-14.43ZM113.81,215.65v-14.25c0-3.47-8.52-13.08-12.74-10.43-1.13.71-9.44,21.59-10.24,24.68h22.98ZM121.17,201.4c-.69,4.18.5,9.86,0,14.25,4.91,1.31,3.71-3.47,5.63-7.7,1.13-2.49,5.35-6.66,5.47-7.44.25-1.65.17-6.6-.07-8.32-.17-1.22.5-1.63-1.38-1.37-3.8.53-9.05,6.95-9.65,10.58ZM202.06,215.65c.51-.49,0-12.2,0-14.25,0-3.23-6.92-11.48-11.03-10.57.36,3.04-.78,7.36.47,10.09.68,1.48,3.55,3.61,4.79,6.24,1,2.13,1.82,8.14,2.14,8.43.15.13,3.49.18,3.62.05ZM66.93,215.64l-1.4-5.49-6.86-13.8c.06,1.31-.77,2.76-.63,4.01.11,1,5.57,14.1,6.07,14.72.85,1.05,1.74.49,2.82.57ZM82.43,215.51c.87-.54,7.8-16.78,5.63-19.16l-8.08,17.19c-1.09,2.04.84,2.98,2.45,1.98ZM191.03,215.65c-.5-11.21-11.75-11.99-20.73-11.08-7.54.76-3.47,7-8.27,7.45-5.03.46-3.1-6.16-6.57-7.21-2.31-.7-12.45-.41-15.05.22-4.34,1.04-8.38,6.01-8.21,10.63h58.83Z" style="fill:#020202;"/><path d="M191.03,138.44c1.95,43.81-60.78,43.82-58.83,0h58.83Z" style="fill:#e7c4b9;"/><path d="M200.21,123.73c-24.17-10.55-52.56-9.23-77.2-.93,12.33-37.92,66.3-37.69,77.2.93Z" style="fill:#935151;"/><path d="M172.65,177.96c-.76,10.61-.36,13.17,11.03,11.95v7.36c-5.08.44-11.06-.66-16.01.08-2.62.39-4.66,2.34-5.77,2.5-.81.12-4.08-2.17-6.34-2.5-4.95-.73-10.93.36-16.01-.08v-7.36c11.39,1.22,11.79-1.34,11.03-11.95,7.61,1.06,14.46,1.06,22.07,0Z" style="fill:#d1afa7;"/><path d="M191.03,215.65h-58.83c-.17-4.62,3.87-9.6,8.21-10.63,2.6-.62,12.74-.91,15.05-.22,3.47,1.05,1.54,7.68,6.57,7.21,4.8-.44.73-6.69,8.27-7.45,8.99-.9,20.23-.12,20.73,11.08Z" style="fill:#f6f6f6;"/><path d="M121.17,138.44c5.79-1.11,3.14,2.53,3.69,6.88,1.34,10.48,5.88,18.85,13.85,25.67,1,.85,4.15,2.25,4.33,2.56.91,1.56-.24,6.78.2,9.01-8.24-.57-15.59.04-22.07,5.51v-49.64Z" style="fill:#824646;"/><path d="M202.06,138.44v49.64c-6.12-5.65-14.07-5.94-22.07-5.51.43-2.23-.71-7.45.2-9.01.14-.25,3.77-2.03,4.84-2.97,6.52-5.7,11.78-14.01,13.11-22.73.73-4.81-1.94-10.93,3.91-9.41Z" style="fill:#824646;"/><path d="M124.84,131.08c.68-1.63,4.12-2.45,5.72-3.01,16.83-5.9,42.92-6.01,59.95-.62,2.03.64,5.7,1.87,6.95,3.62h-72.62Z" style="fill:#f6f6f6;"/><path d="M121.17,201.4c.6-3.64,5.85-10.06,9.65-10.58,1.88-.26,1.21.15,1.38,1.37.24,1.73.32,6.67.07,8.32-.12.78-4.34,4.95-5.47,7.44-1.92,4.23-.72,9.01-5.63,7.7.5-4.38-.69-10.07,0-14.25Z" style="fill:#d1afa7;"/><path d="M202.06,215.65c-.13.13-3.47.08-3.62-.05-.32-.29-1.14-6.3-2.14-8.43-1.24-2.64-4.11-4.76-4.79-6.24-1.25-2.73-.11-7.05-.47-10.09,4.11-.91,11.03,7.34,11.03,10.57,0,2.04.51,13.75,0,14.25Z" style="fill:#d1afa7;"/><path d="M51.08,128.52c3.52-.91,14.97,2.36,19.94,2.6,3.08.15,7.1.2,10.14-.06,4.31-.36,11.86-3.46,15.14-2.26,7.93,2.9,7.29,9.89,6.38,17.34-3.33,27.23-41.24,34.93-54.71,10.79-3.11-5.58-5.89-17.48-3.87-23.41.29-.84,6.03-4.76,6.98-5.01Z" style="fill:#e7c4b9;"/><path d="M88.08,94.31c.6.6-.83,10.3.45,12.88,1.14,2.29,5.62,1.8,8.08,2.95,4.93,2.31,6.93,8.45,6.17,13.58-2.88-.18-3.76-3.44-6.94-3.65-2.6-.17-10.55,3.14-14.77,3.54-2.87.27-6.23.28-9.12.16-6.01-.25-16.93-3.97-21.05-3.69-3.2.22-4.05,3.45-6.93,3.64-.91-9.02,3.17-19.55,10.72-24.66,1.59-1.07,9.43-4.75,10.88-4.75h22.52Z" style="fill:#636b76;"/><path d="M32.92,201.4c.68-4.12,8.59-13.03,12.74-10.43,1.14.71,9.44,21.59,10.24,24.67h-22.98c.5-4.38-.69-10.07,0-14.25Z" style="fill:#525a64;"/><path d="M113.81,215.65h-22.98c.8-3.09,9.11-23.96,10.24-24.68,4.21-2.65,12.74,6.96,12.74,10.43v14.25Z" style="fill:#525a64;"/><path d="M84.39,177.05c1.39,14.33-5.41,5.86-10.63,5.52-4.95-.32-13.02,9.32-11.41-5.52,7.55,2.36,14.5,2.36,22.05,0Z" style="fill:#f6f6f6;"/><path d="M80.72,193.6c.47.63-5.4,13.19-6.22,14.43-.57.87.11,1.66-2.04,1.18l-6.45-15.61c6.32-3.17,8.39-3.17,14.71,0ZM77.09,197.26c0-2.06-1.67-3.73-3.73-3.73s-3.73,1.67-3.73,3.73,1.67,3.73,3.73,3.73,3.73-1.67,3.73-3.73Z" style="fill:#e7c4b9;"/><path d="M66.93,215.64c-1.08-.07-1.97.48-2.82-.57-.5-.62-5.96-13.72-6.07-14.72-.14-1.25.69-2.69.63-4.01l6.86,13.8,1.4,5.49Z" style="fill:#525a64;"/><path d="M82.43,215.51c-1.62,1-3.54.06-2.45-1.98l8.08-17.19c2.17,2.38-4.76,18.63-5.63,19.16Z" style="fill:#525a64;"/><path d="M56.74,189.98c.24.15,1.46,4.48,1.47,5.43-1.55-1.78-5.63-2.58-3.68-5.5.69.12,1.76-.22,2.22.07Z" style="fill:#525a64;"/><path d="M92.67,189.92c1.89,1.68-3.38,4.75-4.14,5.49-.22-1.52,1.7-7.67,4.14-5.49Z" style="fill:#525a64;"/><circle cx="73.37" cy="197.26" r="3.73" style="fill:#020202;"/></svg>