<?xml version="1.0" encoding="UTF-8"?><svg id="a" xmlns="http://www.w3.org/2000/svg" viewBox="0 0 234.69 235.86"><g id="b"><path d="M168.59,75.13c1.4.02,2.81-.03,4.21,0,.4,2.22-.6,13.43.09,14.22.16.19,3.37.8,4.71,1.6,1.23.74,3.76,3.52,4.03,3.52.33,0,3.82-3.28,5.2-4.05s3.64-.79,3.64-.97v-14.31h9.26v14.31c0,.19,2.42.25,3.69.93,16.76,8.95,6.78,24.53,5.58,38.22-.28,3.16-.53,11.46,0,14.27.44,2.28,3.53,3.95,4.89,6.05,8.57,13.22,14.42,54.13,12.77,69.72-.44,4.2-1.41,4.31-5.44,4.65-25.62,2.13-54.11-1.7-80.05,0-2.46-.08-4.22-1.87-4.59-4.25-.64-4.16.42-15.85.85-20.61,1.29-14.16,4.84-37.16,12.26-49.17,1.33-2.15,5.06-5.55,5.38-7.24,3.18-16.72-14.33-40.44,4.31-51.23,1-.58,3.84-1.19,4.01-1.46.88-1.34-.51-13.61.11-14.2,1.68.01,3.37-.02,5.06,0ZM199.73,142.46c.27-4.52-.38-9.39.01-13.87.8-9.06,11.78-34.2-7.13-30.68-7.97,1.48-4.72,12.61-10.26,13.2s-4.57-5.55-6-8.81c-2.67-6.07-12.63-6.2-15.82-.29-2.58,4.78,1.44,17.62,3.42,22.78h26.52v8.42h-25.67c-1.93,0-1.15,7.57-1.26,9.26h36.2ZM217.41,213.99c-.22-11.99-1.23-24.61-3.62-36.36-.94-4.6-5.56-22.56-8.6-25.07-3.2-2.64-38.83.29-45.47-.91l-1.07.24c-10.25,18.64-11.38,41.2-12.8,62.1h13.47c.24-1.42-.33-8.1,0-8.42s8.94-.33,9.27,0-.25,7,0,8.42h7.94c1.26-.18-.04-7.91.48-8.42.33-.33,8.94-.33,9.27,0,.38.38-.39,8.04,0,8.42.34.34,7.32-.26,8.78.01l.97-8.44h7.94s0,8.43,0,8.43h13.47Z" style="fill:#4a4f57;"/><path d="M217.41,213.99h-13.47v-8.42s-7.93-.01-7.93-.01l-.97,8.44c-1.46-.27-8.44.33-8.78-.01-.38-.38.39-8.04,0-8.42-.33-.33-8.94-.33-9.27,0-.52.52.78,8.25-.48,8.43h-7.94c-.24-1.43.34-8.1,0-8.43s-8.94-.33-9.27,0,.24,7,0,8.42h-13.47c1.42-20.9,2.54-43.45,12.8-62.1l1.07-.24c6.64,1.2,42.27-1.73,45.47.91s7.66,20.46,8.6,25.07c2.39,11.75,3.39,24.37,3.62,36.36Z" style="fill:#ced5dd;"/><path d="M199.73,142.46h-36.2c.12-1.69-.67-9.26,1.26-9.26h25.67v-8.42h-26.52c-1.98-5.16-6.01-18-3.42-22.78,3.19-5.91,13.16-5.79,15.82.29,1.43,3.26.24,9.42,6,8.81s2.29-11.72,10.26-13.2c18.91-3.51,7.92,21.63,7.13,30.68-.39,4.48.26,9.35-.01,13.87Z" style="fill:#ecedee;"/><path d="M128.18,219.04c.03-1.68-.01-3.38,0-5.05H20.44s0-165.78,0-165.78h28.2c.88,0,2.95-2.07,2.95-2.95v-28.19h111.95v47.55c.27,2.79,2.91,2.04,5.05,2.1v8.42c-1.68-.03-3.38.01-5.06,0-.62.59.78,12.86-.11,14.2-.18.27-3.01.88-4.01,1.46-18.64,10.79-1.13,34.51-4.31,51.23-.32,1.69-4.05,5.09-5.38,7.24-7.43,12.02-10.97,35.01-12.26,49.17-.44,4.76-1.49,16.45-.85,20.61h-8.42ZM136.92,115.51c0-24.81-20.12-44.93-44.94-44.93s-44.94,20.12-44.94,44.93,20.12,44.93,44.94,44.93,44.94-20.12,44.94-44.93Z" style="fill:#fe7aab;"/><path d="M128.18,219.04c-.02,1.4.03,2.81,0,4.21l-116.23-1.41-.81-4.03.21-175.75L43.96,9.02l2.17-1.19,122.83.06c3.19.45,3.51,1.46,3.84,4.54v53.81c-.12.87-3.19.52-4.21.49-2.14-.07-4.78.69-5.05-2.1V17.07s-111.95,0-111.95,0v28.19c0,.88-2.07,2.95-2.95,2.95h-28.2v165.78h107.75c-.01,1.67.02,3.37,0,5.05ZM42.32,38.95v-15.15l-15.15,15.15h15.15Z" style="fill:#4c4d56;"/><polygon points="42.32 38.95 27.17 38.95 42.32 23.8 42.32 38.95" style="fill:#ecedee;"/><path d="M136.92,115.51c0,24.81-20.12,44.93-44.94,44.93s-44.94-20.12-44.94-44.93,20.12-44.93,44.94-44.93,44.94,20.12,44.94,44.93ZM127.88,115.53c0-19.82-16.07-35.89-35.9-35.89s-35.9,16.07-35.9,35.89,16.07,35.89,35.9,35.89,35.9-16.07,35.9-35.89Z" style="fill:#4a4e56;"/><path d="M127.88,115.53c0,19.82-16.07,35.89-35.9,35.89s-35.9-16.07-35.9-35.89,16.07-35.89,35.9-35.89,35.9,16.07,35.9,35.89ZM106.05,99.63c-2.98.78-21.29,22.62-22.9,22.62-.74,0-3.9-5.06-5.89-5.06-1.41,0-6.79,5.11-5.94,6.76.29.56,8.33,8.56,8.9,8.83,1.99.92,4.35.6,6.19-.51l26.25-25.99c.9-1.75-4.74-7.13-6.62-6.64Z" style="fill:#eeefef;"/><path d="M106.05,99.63c1.88-.49,7.52,4.89,6.62,6.64l-26.25,25.99c-1.84,1.11-4.2,1.43-6.19.51-.57-.26-8.62-8.27-8.9-8.83-.85-1.64,4.54-6.76,5.94-6.76,1.99,0,5.15,5.06,5.89,5.06,1.61,0,19.91-21.84,22.9-22.62Z" style="fill:#4c5058;"/></g></svg>