<?xml version="1.0" encoding="UTF-8"?><svg id="a" xmlns="http://www.w3.org/2000/svg" viewBox="0 0 230.86 230.01"><g id="b"><path d="M26.68,21.14l173.91-.26c14.51,1.22,26.76,13.44,27.98,27.96-2.82,42.76,3.64,90.11,0,132.33-1.25,14.54-13.41,26.71-27.98,27.96H29.08c-13.93-1.02-26.56-13.2-27.94-27.12V47.99c1.3-13.13,12.63-24.68,25.54-26.85ZM79.31,202c40.67.19,81.39-.08,122.07-.08,11.65-2.36,19.17-10.57,20.1-22.52,3.28-41.96-2.53-88.14-.03-130.54-1.61-11.1-9.76-19.25-20.88-20.86-40.42.15-80.86-.18-121.26,0-14.66.07-39.1-2.03-52.45.4-10.8,1.97-17.86,11.61-18.65,22.2-3.11,41.83,2.43,87.45,0,129.68.45,10.2,9.33,19.95,19.34,21.5,13.81,2.14,36.83.14,51.75.21Z" style="fill:#0d0e0f;"/><path d="M79.31,202c-1.57-5.78-2.79-9.67.89-15.09,39.16.42,78.74.38,117.75-.84,5.34-2.26,7.89-6.3,8.43-11.99,3.52-37.37-2.74-80.19,0-118.13-.2-6.49-4.88-11.64-11.22-12.76-38.61-.01-77.25-.25-115.85-.08-2.32-5.59-1.38-9.49,0-15.09,40.41-.18,80.84.14,121.26,0,11.12,1.61,19.26,9.76,20.88,20.86-2.5,42.4,3.31,88.58.03,130.54-.93,11.95-8.45,20.16-20.1,22.52-40.68,0-81.39.26-122.07.08Z" style="fill:#e8eefe;"/><path d="M79.31,28.01c-1.38,5.6-2.32,9.5,0,15.09-12.47.06-34.36-1.83-45.54.21-5,.91-9.08,5.33-10.22,10.21v122.98c1.13,4.86,5.2,9.29,10.22,10.21,2.82.51,13.11.72,15.79.21,2.26-.43,2.35-1.58,2.22-3.56.3.19,6.81.19,7.11,0,.15,2,1.13,3.15,3.13,3.53,4.43.84,13.11-.03,18.19.02-3.68,5.42-2.45,9.32-.89,15.09-14.92-.07-37.94,1.93-51.75-.21-10.01-1.55-18.89-11.3-19.34-21.5,2.43-42.23-3.12-87.85,0-129.68.79-10.59,7.85-20.23,18.65-22.2,13.36-2.43,37.79-.34,52.45-.4Z" style="fill:#d9e1fc;"/><path d="M52.66,141.64c2.31.31,9.46-.58,10.54.12.25.16,1.34,4.26,2.06,5.49,3.74,6.47,9.94,10.22,17.61,9.49-4.64,6.96-8.44,14.46-8.92,23.03-.62.6-10.25-.51-12.67.21-2.26.68-2.21,3.26-2.39,3.38-.3.19-6.81.19-7.11,0-.18-.12-.13-2.71-2.39-3.38-2.14-.64-5.81-.1-8.27-.17-11.48-12.76,3.18-28.18,11.55-38.17Z" style="fill:#7fdeb5;"/><path d="M174.36,134.54l-6.22-3.55c1.55-4.45,1.86-7.67.2-12.19-1.02-2.77-3.86-4.56-2.87-8.23,3.39,1.48,12.47-2.45,11.46-6.49-1.38-5.49-8.95,1.33-12.22-.75-.7-.45-2.52-8.98-3.68-10.51,3.37-1.12,11.94-4.66,12.96-7.99.4-1.32-.56-2.54-.52-2.67.19-.6,4.07-3.23,5.33-3.55,8.22-2.12,3.7-1.19,8.84-5.81,2.54-2.29,8.94-4.7,11.18-1.32,2.37,3.56-.98,42.11.46,49.35-.77,5.79-13.3,12.01-18.66,13.31-2.33.57-4.16.18-6.26.4ZM188.27,97.34c-3.64,1.16-3.91,12.86,3.29,10.46,2.73-.91,2.61-12.34-3.29-10.46Z" style="fill:#fbd9cb;"/><path d="M173.47,82.16c-4.88-3.74-11.27,5.11-15.44,4.28-.71-.14-7.94-8.88-9.86-10.51-5.31-4.53-12.17-8.58-19.12-9.75,1.01-6.65,6.14-11.17,10.68-15.51,16.86.33,36.28-2.01,52.88-.5,8.69.79,6.38,6.51,6.63,13.36-5.55-.13-10.53-.65-15.06,3.15-2.68,2.25-8.35,8.46-5.38,11.93-1.26.33-5.14,2.95-5.33,3.55Z" style="fill:#fac987;"/><path d="M104.18,65.29c-4.25-.65-10.89,4.8-13.88,5.08-3.57.33-5.33-1.11-10.3.51-10.92,3.55-11.52,7.59-25.91,5.87-8.32-1-14.62-8.68-23.64-7,1.04-6.42-3.5-18.73,5.76-19.55h57.77c2.63.53,11.23,14,10.21,15.1Z" style="fill:#213058;"/><path d="M161.03,153.18c2.96-2.28,5.83-10.18,6.36-10.5.77-.47,13.2-1.66,16.52-2.58,1.99-.55,3.98-1.28,5.86-2.13,3.4-1.54,6.02-4.05,9.45-5.2v43.05c0,1.74-3.19,3.66-4.94,3.94-6.63,1.06-24.3.6-31.48.06-.91-2.44-2.88-8.08-5.33-7.99-.06-.58.02-1.19,0-1.78-.04-1.22,0-4.48.18-5.52.65-3.95,2.87-7.4,3.38-11.35Z" style="fill:#3b4e7f;"/><path d="M46.44,82.16c9.8,3.58,21.56,1.8,31.09-1.77.55.51-5.94,9.11-6.7,10.61-2.25,4.44-2.7,12.98-8.84,12.56-1.99-.13-7.14-4.17-8.37-.43-1.69,5.14,8.41,8.72,12.37,7.45-1.5,6.61-5.84,10.47-4.06,17.82.44,1.82,2.02,3.29,2.3,4.81.39,2.17-.96,1.01-1.79,1.33-10.41-6.19-15.24-12.86-20.62-23.37-.57-1.11-.58-3.15-.7-3.26,4.67-.64,4.03-12.82-1.78-10.65.41-1.77-.34-3.54.67-5.99s5.18-6.3,6.43-9.1Z" style="fill:#dcab9f;"/><path d="M46.44,82.16c-1.26,2.81-5.46,6.75-6.43,9.1s-.26,4.22-.67,5.99c-.6,2.58-3.18,4.78-1.66,9.21.65,1.9,3.19,1.21,3.44,1.44.12.11.13,2.15.7,3.26,5.38,10.51,10.21,17.18,20.62,23.37-4.66,1.8-12.77-.6-17.48-2.5-4.2-1.7-14.16-7.76-15.2-12.33.69-5.96-1.69-39.33.2-42.04,3.21-4.58,13.6,3.44,16.49,4.49Z" style="fill:#ce9586;"/><path d="M52.66,141.64c-8.36,9.99-23.03,25.41-11.55,38.17-.11,0-.59.77-1.29.75-3.77-.1-10.26-1.77-10.26-6.52v-43.05c3.82,1.15,6.73,4.36,10.33,6.1,2.59,1.25,10.26,4.21,12.77,4.55Z" style="fill:#34cb94;"/><path d="M129.94,50.2c-6.23,5.57-6.74,21.83-17.82,16.23l-7.94-16.23h25.76Z" style="fill:#d9e1fc;"/><path d="M161.03,153.18c-.51,3.95-2.73,7.4-3.38,11.35-.17,1.03-.21,4.3-.18,5.52l-7.1-13.31c2.96.04,8.39-1.8,10.66-3.56Z" style="fill:#213058;"/><path d="M174.36,134.54c-1.67.17-4.53,2.12-7.13.47-2.36-1.5.61-3.16.91-4.02l6.22,3.55Z" style="fill:#dcab9f;"/><path d="M157.48,171.82c2.45-.09,4.42,5.55,5.33,7.99-5.4-.41-4.78-2.45-5.33-7.99Z" style="fill:#213058;"/><path d="M188.27,97.34c5.9-1.88,6.02,9.55,3.29,10.46-7.19,2.4-6.93-9.3-3.29-10.46Z" style="fill:#0d0e0f;"/><path d="M41.11,107.9c-.25-.23-2.78.46-3.44-1.44-1.52-4.43,1.06-6.64,1.66-9.21,5.81-2.17,6.45,10.01,1.78,10.65Z" style="fill:#060506;"/><path d="M79.31,43.1c38.6-.18,77.24.07,115.85.08,6.33,1.12,11.02,6.27,11.22,12.76-2.74,37.95,3.52,80.76,0,118.13-.54,5.69-3.09,9.73-8.43,11.99-39.01,1.23-78.58,1.27-117.75.84-5.07-.05-13.75.82-18.19-.02-2-.38-2.98-1.53-3.13-3.53.18-.12.13-2.7,2.39-3.38,2.42-.73,12.05.39,12.67-.21.49-8.57,4.29-16.07,8.92-23.03-7.66.73-13.87-3.02-17.61-9.49-.72-1.24-1.81-5.33-2.06-5.49-1.08-.7-8.23.19-10.54-.12-2.51-.34-10.18-3.3-12.77-4.55-3.6-1.74-6.5-4.96-10.33-6.1v43.05c0,4.75,6.49,6.43,10.26,6.52.71.02,1.19-.76,1.29-.75,2.46.07,6.13-.47,8.27.17,2.26.67,2.21,3.26,2.39,3.38.13,1.98.04,3.13-2.22,3.56-2.68.51-12.97.3-15.79-.21-5.02-.91-9.08-5.35-10.22-10.21V53.52c1.14-4.88,5.21-9.3,10.22-10.21,11.18-2.04,33.07-.15,45.54-.21ZM104.18,65.29c1.02-1.1-7.58-14.57-10.21-15.09h-57.77c-9.27.81-4.72,13.12-5.76,19.54,9.03-1.68,15.32,6,23.64,7,14.39,1.72,15-2.32,25.91-5.87,4.98-1.62,6.74-.17,10.3-.51,2.99-.28,9.63-5.72,13.88-5.08ZM129.94,50.2h-25.76l7.94,16.23c11.08,5.6,11.59-10.67,17.82-16.23ZM178.8,78.61c-2.97-3.47,2.7-9.68,5.38-11.93,4.52-3.81,9.51-3.28,15.06-3.15-.25-6.85,2.07-12.57-6.63-13.36-16.6-1.51-36.02.83-52.88.5-4.54,4.34-9.67,8.86-10.68,15.51,6.96,1.17,13.81,5.22,19.12,9.75,1.92,1.63,9.15,10.37,9.86,10.51,4.17.83,10.56-8.02,15.44-4.28-.04.13.92,1.35.52,2.67-1.02,3.33-9.58,6.88-12.96,7.99,1.17,1.53,2.98,10.06,3.68,10.51,3.27,2.08,10.84-4.75,12.22.75,1.01,4.04-8.07,7.97-11.46,6.49-.99,3.67,1.84,5.46,2.87,8.23,1.66,4.52,1.36,7.74-.2,12.19-.3.86-3.27,2.52-.91,4.02,2.6,1.66,5.46-.29,7.13-.47,2.1-.22,3.93.17,6.26-.4,5.35-1.3,17.89-7.52,18.66-13.31-1.44-7.24,1.91-45.78-.46-49.35-2.24-3.37-8.64-.97-11.18,1.32-5.14,4.62-.62,3.69-8.84,5.81ZM111.29,74.17c-.43-.12-1.16-1.43-3.13-1.73-16.61-2.54-35.65,21.55-35.96,37.24l4.7.02,16.84-17.09c4.97-2.05,6.45-.22,9.54,2.87,4.45,4.44,9.29,10.57,15.94,12.03,8.35,1.84,5.67-1.69,9.31-4.1,4.77-3.15,9.88,2.83,14.51,4.27,1.95.6,14.58,2.74,15.32,2,1.06-16.11-20.42-40.56-36.67-37.08-4.61.99-3.62,3.53-10.41,1.57ZM62.43,134.54c.83-.32,2.19.84,1.79-1.33-.28-1.52-1.86-3-2.3-4.81-1.79-7.35,2.55-11.21,4.06-17.82-3.95,1.28-14.06-2.3-12.37-7.45,1.23-3.74,6.38.3,8.37.43,6.14.42,6.6-8.12,8.84-12.56.76-1.5,7.24-10.1,6.7-10.61-9.53,3.57-21.29,5.36-31.09,1.77-2.89-1.06-13.29-9.08-16.49-4.49-1.89,2.71.49,36.07-.2,42.04,1.03,4.57,11,10.63,15.2,12.33,4.72,1.91,12.83,4.3,17.48,2.5ZM131.74,109.69c-.12.09-.32,1.85-1.27,2.71-9.26,8.36-27.57-4.86-32.98-13.37-11.19,9.61-17.75,11.77-15.12,28.45,5.87,37.17,64.14,36.04,67-4.15.78-10.98-1.13-7.05-8.96-9.46-1.79-.55-8.16-4.54-8.67-4.18ZM74.86,116.79c-9.55,1.43-8.03,15.71,1.78,15.97-.72-5.32-2.28-10.54-1.78-15.97ZM154.82,132.76c9.51.3,10.83-14.84,2.21-15.98-1.82-.24-1.16.13-1.33,1.32-.67,4.68.29,9.94-.88,14.66ZM162.81,179.81c7.18.54,24.85,1,31.48-.06,1.75-.28,4.94-2.2,4.94-3.94v-43.05c-3.43,1.15-6.05,3.66-9.45,5.2-1.88.85-3.87,1.58-5.86,2.13-3.32.93-15.75,2.12-16.52,2.58-.53.32-3.4,8.22-6.36,10.5-2.27,1.75-7.7,3.6-10.66,3.56l7.1,13.31c.02.59-.06,1.2,0,1.78.55,5.54-.07,7.58,5.33,7.99ZM86.41,150.51c.51-.44-6.54-10.75-7.1-11.09-1.99-1.19-7.1.11-9.76-1.33.49,9.2,8.26,13.51,16.87,12.42ZM161.03,138.09l-9.63,1.03-7.24,11.39c8.61,1.09,16.37-3.22,16.87-12.42ZM152.15,179.81c-.91-7.29-3.7-13.97-8.43-19.54-7.19-8.47-6.29-3.95-14.42-1.08-6.35,2.25-14.21,2.65-20.89,1.75-3.93-.54-13.28-5.47-15.13-4.98-4.38,1.17-13.6,18.5-12.19,23.85h71.07Z" style="fill:#060506;"/><path d="M131.74,109.69c.5-.36,6.87,3.63,8.67,4.18,7.84,2.41,9.74-1.52,8.96,9.46-2.85,40.19-61.13,41.32-67,4.15-2.63-16.68,3.93-18.85,15.12-28.45,5.41,8.51,23.72,21.73,32.98,13.37.95-.86,1.15-2.62,1.27-2.71ZM91.4,119.51c-1.96.64-3.23,11.08,1.64,10.62,5.14-.49,4.29-12.54-1.64-10.62ZM135.89,119.58c-4.17,1.17-3.38,12.32,2.39,10.45,2-.65,3.46-12.09-2.39-10.45ZM107.41,123.98c-1.12.38-1.33,1.09-1.5,2.15-1.42,8.73,19.27,8.75,17.86,0-.82-5.13-6.56-.2-9.37-.37-2.47-.15-4.04-2.78-6.99-1.78Z" style="fill:#fbd9cb;"/><path d="M111.29,74.17c6.79,1.95,5.8-.59,10.41-1.57,16.26-3.48,37.73,20.97,36.67,37.08-.74.74-13.37-1.4-15.32-2-4.63-1.44-9.74-7.42-14.51-4.27-3.65,2.41-.97,5.94-9.31,4.1-6.64-1.46-11.49-7.59-15.94-12.03-.75-8.03,2.96-15.31,7.99-21.31Z" style="fill:#fc6d7e;"/><path d="M152.15,179.81h-71.07c-1.4-5.35,7.81-22.68,12.19-23.85,1.85-.49,11.2,4.44,15.13,4.98,6.68.91,14.54.5,20.89-1.75,8.14-2.88,7.23-7.4,14.42,1.08,4.73,5.57,7.52,12.25,8.43,19.54Z" style="fill:#807ad0;"/><path d="M111.29,74.17c-5.04,6-8.74,13.28-7.99,21.31-3.09-3.09-4.58-4.92-9.54-2.87l-16.84,17.09-4.7-.02c.31-15.68,19.34-39.77,35.96-37.24,1.97.3,2.69,1.61,3.13,1.73Z" style="fill:#f3455c;"/><path d="M86.41,150.51c-8.61,1.09-16.37-3.22-16.87-12.42,2.66,1.44,7.77.14,9.76,1.33.57.34,7.61,10.65,7.1,11.09Z" style="fill:#f3455c;"/><path d="M161.03,138.09c-.49,9.2-8.26,13.51-16.87,12.42l7.24-11.39,9.63-1.03Z" style="fill:#f3455c;"/><path d="M154.82,132.76c1.17-4.73.21-9.98.88-14.66.17-1.19-.49-1.56,1.33-1.32,8.61,1.14,7.3,16.29-2.21,15.98Z" style="fill:#dcab9f;"/><path d="M74.86,116.79c-.5,5.43,1.05,10.65,1.78,15.97-9.8-.26-11.33-14.54-1.78-15.97Z" style="fill:#dcab9f;"/><path d="M107.41,123.98c2.95-1,4.52,1.63,6.99,1.78,2.81.17,8.54-4.76,9.37.37,1.41,8.75-19.28,8.73-17.86,0,.17-1.06.39-1.77,1.5-2.15Z" style="fill:#060506;"/><path d="M91.4,119.51c5.93-1.93,6.78,10.13,1.64,10.62-4.87.47-3.6-9.98-1.64-10.62Z" style="fill:#060506;"/><path d="M135.89,119.58c5.85-1.64,4.39,9.8,2.39,10.45-5.76,1.87-6.56-9.28-2.39-10.45Z" style="fill:#060506;"/></g></svg>