<?xml version="1.0" encoding="UTF-8"?><svg id="a" xmlns="http://www.w3.org/2000/svg" viewBox="0 0 841.77 834.58"><path d="M431.26,145.31c-21.43,12.92-28.65-15.74-44.21-29.59-33.46-29.77-49.28-13.88-76.38-25.07-4.56-1.88-11.44-15.79-21.41-21.47-20.5-11.69-40.34-11.39-61.03-.58-10.8,5.65-18.17,20.23-23.33,22.56-8.06,3.64-18.22.47-27.08,2.43C65.6,118.4,32.92,314.21,27.67,409.23c-1.46,26.34,3.99,55.13-3.14,80.5-2.87,1.08-16.73,16.56-22.29-2.31-5.4-18.34.43-90.8,2.63-114.12C13.94,277.02,50.47,112.92,152.48,74.83c13.52-5.05,33.06-5.75,42.52-9.97,4.77-2.13,10.87-12.08,16.7-16.1,29.16-20.1,67.05-15.77,96.01,1.97,6,3.68,11.16,12.3,15.34,14.18,8.12,3.63,28.39,3.86,41.08,8.12,22.66,7.6,58.36,34.99,68,56.84,4.32,9.8-.94,11.82-.88,15.45Z" style="fill:#060505;"/><path d="M706.78,56.75c-4.95,1.73-8.33,9.81-14.14,9.33-7.35-.61-35.91-14.04-48.75-16.95-19.39-4.41-121.54-17.08-126.94,6.33-1.08,4.68,18.11,49.49,22.51,52.23,3.07,1.91,56.06-2.84,69.71-.87,56.2,8.12,104.28,70.75,100.88,127.09,26.64-3.11,56.21-1.66,82.14-8.1,28.59-7.1,26.1-9.88,15.8-35.72-8.31-20.84-25.93-47.34-40.48-64.48-12.93-15.23-48.02-35.54-37.76-55.72,10.77,1.59,7.78-6.45,24.51,6.67,29.42,23.06,93.91,108.3,87,145.72-5.36,29-81.43,35.34-104.96,34.58,4.97,26.99-.77,49.91-22.9,67.23,47.01,40.37,77.16,101.36,22.97,150.89,30.89,19.12,45.41,53.84,48.72,88.98s-.29,141.19-12.45,170.39c-3.59,8.62-22.21,25.97-30.05,32.28-15.91,12.81-58.78,39.89-77.13,47.49-11.5,4.77-25.3,8.67-24.28-9.5.45-.29,0-5.89,5.24-9.39,15.47-10.34,34.28-18.26,50.25-28.61,19.31-12.51,48.71-27.43,54.58-50.38,8.86-34.64,11.99-123.28,7.65-158.9-2.2-18.08-23.01-64.84-44-64.27-6.08.16-30.98,25.87-27.79,29.44,14.22,2.7,49.75,10.14,49.1,27.46-16.43,37.97-20.46,123.45-43.03,154.12-4.44,6.03-95.41,75.7-102.04,78.36-15.64,6.28-50.96-3.38-59.87,12.42-2.02,3.59-.86,8.31-1.6,9.74-2.23,4.28-3.68,10.99-8.76,12.71-23.85,5.86-86.66-52.46-101.2-52.03l-83.42,50.99c-10.02,3.79-18.73,1.73-23.1-8.38-2.04-4.71.91-11.23-5.61-16.59-14.11-11.6-38.71-2.47-55.79-8.93-9.24-3.49-88.59-63.42-97.83-72.74-13.6-13.73-19.8-27.76-17.66-47.4.8-7.33,5.86-14.39,6.32-21.63,10.01-6.37,17.12-18.23,29.43-21.42,10.41-2.7,30.84.5,35.52-2.23,1.4-.82,9.24-17.76,17.24-23.73,27.42-20.46,56.21-13.34,76.79,11.46,2.85,3.44,4.27,11.62,5.54,12.43,4.25,2.72,27.25-.94,36.54,1.2,7.46,1.72,10.9,9.39,18.68,9.15,7.08-24.25,16.69-89.03-18.17-94.9-33.67-5.66-57.13,20.58-88.4,19.74-29.41-.79-64-33.66-93.35-14.9-18.57,11.87-12.48,32.55-17.22,48.44-1.8,6.02-8.87,8.12-9.16,8.83-31.77-.64-7.07-60.33,4.81-72.28,39.49-39.73,80.92,3.86,118.2,3.67,33.16-.17,56.59-31.63,97.71-15.99,20.74,7.89,35.71,35.77,38.03,57.06,1.95,17.89-10.41,100.74-16.02,119.37-8.96,29.75-64.12,50.19-82,75.41,16.89-3.71,32.68,24.24,43.53,22.59,9.9-1.51,58.74-36.48,67.99-45.52,21.58-21.08,19.68-34.51,22.94-63.98,5.55-50.16,14.57-140.52-28.42-174.9-26.13-20.9-57.19-21.26-83.08-33.36-15.21-7.11-19.52-32.77-21.53-32.96-7.3-.69-23.82,6.54-35.78,6.9-10.89.33-40.01-6.95-42.51-6.31-3.11.8-10.85,25.1-24.83,32.37-10.71,5.57-32.77,9.93-45.86,14.82-14.5,5.41-29.22,22.28-42.7,8.14,1.5-4.97-2.73-11.44,3.24-18.09,11.33-12.62,75.52-24.34,80.44-34.33,9.68-19.68-11.63-25.69-23.03-39.38-9.94-11.95-20.41-31.5-26.11-46.04-1.9-4.84-4.46-21.79-5.34-22.54-1.97-1.68-19.09-.88-22.68,1.26-10.2,6.11-11.37,34.47-9.06,45.23,1.69,7.86,9.99,14.49,9.13,23.49-.53,5.58-17.35,27.71-21.3,37.96-12.5,32.4-7.71,38.28-1.68,68.84,5.21,26.46-2.98,26.36-6.29,47.83-5.44,35.24-1.93,101.25,3.06,137.45,5.33,38.66,6.49,39.24,36.95,61.46,16.94,12.36,65.24,34.01,74.58,43.59,4.58,4.7,2.81,11.03,3.23,11.45-3.81,21.42-31.03,2.73-41.56-2.72-23.25-12.02-80.87-47.21-90.32-70.4-12.83-31.46-15.62-138.91-12.38-174.48,2.85-31.38,7.37-29.38,3.23-64.01-2.64-22.12-3.9-29.29,2.18-51.94,3.94-14.65,20.02-38.92,20.65-48.27.95-14-9.21-26.98-5.63-48.26,2.32-13.82,17.08-30.77,18.22-37.43,1.74-10.21-14.7-22.8-3.57-52.86,9.61-25.94,31.38-34.5,38.58-46.7,4.25-7.2,6.6-29.87,13.09-42.67,45.49-89.8,200.46-81.93,234.84,14.71,3.02,8.48,1.81,17.86,4.82,24.7s22.99,21.08,29.23,29.81c6.5,9.09,8.5,21.15,16.62,29.3-2.06-16.23,25.13-28.65,27.31-34.98,2.89-8.4,1.34-27.77,3.84-37.16,6.85-25.76,34.31-55.96,56.04-70.97-7.39-27.48-45.47-73.21-9.85-94.41,39.61-23.57,145.5-10.61,186.71,9.56,15.77,7.72,8.81,10.05,13.11,18.05ZM363.34,226.39c-5.14-6.51-6.84-34.3-13.42-47.3-31.23-61.75-134.63-65.33-175.87-10.52-17.01,22.6-9.65,32.9-17.49,51.39-7.09,16.71-47.76,28.92-42.83,63.9,5.58,39.62,42.15,9.96,56.48-7.6,31-37.98,36.87-127.06,101.22-113.76,45.11,9.32,51.5,118.34,101.69,137.71,32.8,12.65,35.17-25.89,18.75-48.25-7.22-9.83-23.28-18.9-28.53-25.54ZM470.62,256.84c-3.77,1.37-9.09-1.08-13.4,4.59-7.9,10.38-.4,38.98,6.81,31.5.83-.86,6.18-20.15,6.59-22.97,25.88-38.04,119.39-43.49,139.16-78.96,4.91-8.8,3.77-25.82,13.98-28.78,22.07-6.38,15.05,29.11,7.58,42.14-37.74,65.91-195,32.55-133.91,155.23,37.56,75.43,137.89,73.71,173.87-2.12,5.51-11.61,10.43-43.03,14.17-48.13,5.17-7.06,19.58-.75,25.67-23.57,6.16-23.09,1.37-21.57-14.2-28.93-21.22-10.03-10.09-35.86-17.32-59.77-28.56-94.44-176.92-86.4-194.4,10.41-3.53,19.58,5.69,42-14.61,49.35ZM241.93,192.19c-15.63,12.78-27.23,71.31-43.6,89.29,6.66,20.82,17.55,6.13,28.18,4.89,25.8-3,16.71,29.76-16.67,29.77-19.56,0-27.84-13.31-29.52-13.31-1.5,0-20.82,17.85-20.73,20.51.33,10.42,10.78,33.11,16.47,42.73,41.72,70.53,135.27,63.95,169.43-9.66,5.63-12.12,14.63-29.67,5.63-40.77-15.76-19.45-24.46-.55-42.79.47-15.75.88-31.11-3.38-34.03-21.09,12.3-23.24,34.86,12.52,45.11-13.05-19.63-17.22-36.32-123.43-77.47-89.77ZM450.94,479.88c-3.19-34.19,59.36-22.85,67.41-45.74,7.19-20.43-9.11-19.14-20.32-30.86-30.87-32.28-25.53-68.26-58.33-94.19l-11.67-22.71c-2.32,13.22-8.49,26.5-19.6,34.54-8.83,6.4-25.31,7.65-28.06,11.3-4.95,6.59-9.11,39.91-19.9,48.99-1.93,11.27-37.48,36.19-37.82,41.25-.42,6.23,1.9,15.72,7.08,19.54,8.78,6.48,45.4,14.8,60.06,21.95,12.81,6.25,28.38,15.54,38.19,25.77,11.1,11.57,16.4,26.15,25.01,39.14,48.23-15.08,97.81-25.26,148.85-22.72-4.06-26.65,11.33-48.46,19.64-72.17-12.54,2.09-24.73,6.84-37.7,6.84-8.11,0-39.17-7.99-40.84-6.76-1.78,1.31-3.29,20.45-22.95,31.25-6.1,3.35-49.77,19.94-55.12,20.69-7.94,1.11-10.8-5.68-13.93-6.1ZM621.5,532.37c-35.52.02-70.04-1.72-105.13,4.75-8.47,1.56-51.32,12.9-55.64,16.52-6.74,5.64.34,44.94.05,57.45-.01.43-3.27,3.7-3.41,7.94-1.46,42.88.13,87.47-16.44,127.89.31,3.72,60.03,38.18,64.31,38.05,3.82-.11,27.21-27.83,40.83-23.04-9.72-17.11-59.66-39.98-67.26-52.46-5.4-8.86,1.71-15.38,1.66-19.67,14.87-2.04,23.1,8.13,37.72,9.84,25.49,2.99,113.03,3.52,136.98-.78,35.85-6.45,30.61-75,23.6-74.76-16.11,2.49-46.08,31.98-60.53,24.82-6.41-3.18-23.64-42.12-29.59-50.94-21.27,1.79-28.55,51.03-44.34,52.57-5.69.56-42.91-21.26-52.49-26.22-5.04-2.61-9.27-3.85-11.35-9.96,1.1-2.38-1.21-6.77,3.21-11.45,11.66-12.34,41.99,14.15,55.78,18.02,25.23-64.95,63.63-64.55,88.67-.01,2.02,1.52,36.26-19.73,45.75-21.6,9.8-1.94,18.54,2.21,21.23,1.56,5.54-1.33,14.8-44.55,11.37-48.54-1.21-1.4-30.27-7.48-35.59-10.09-5.2,10.44-8.88,37.45-21.95,38.35-15.21,1.06-14.75-14.95-11.01-25.29,5.09-14.1,25.99-44.98,36.18-57.3,30.26-36.63,89.64-58.12,57.07-116.31-3.04-5.43-23.6-31.09-29.24-29.75-9.3,19.46-18.95,35.84-33.2,52.13-4.59,5.25-14.24,8.87-17.86,14.94-1.77,2.98-21.86,59.34-23.28,65.28-2.51,10.48-6.04,37.87-6.08,48.05ZM249.91,608.49c-25.28,5.68-17.74,38.51-27.36,41.73-10.06,3.38-20.98-9.81-32.38-9.8-35.26.02-42.66,54,3.28,59.23,22.36,2.54,120.81,3.28,139.5-1.54,23.38-6.03,31.49-35.43,11.43-50.98-23.98-18.6-35.22,6.49-48.54,2.89-11.48-3.1-7.04-15.79-9.79-23.28-5.99-16.33-19.41-22-36.14-18.24ZM300.05,722.61h-85.28c6.76,6.5,37.66,32.86,44.34,32.84,4.6-.01,37.22-25.97,40.94-32.84ZM628.06,722.61h-88.56c6.18,5.56,39.66,32.83,44.22,32.84,6.68.02,37.58-26.35,44.34-32.84Z" style="fill:#060505;"/><path d="M195.09,466.76c33.78,22.46,91.33,24.6,124.64,0,25.9,12.11,56.95,12.46,83.08,33.36,42.99,34.38,33.97,124.75,28.42,174.9-3.26,29.48-1.36,42.91-22.94,63.98-2.73-20.19-8.28-44.67-29.52-52.48,5.61-18.63,17.97-101.48,16.02-119.37-2.32-21.3-17.29-49.17-38.03-57.06-41.11-15.64-64.54,15.82-97.71,15.99-37.29.19-78.72-43.4-118.2-3.67-11.88,11.95-36.57,71.64-4.81,72.28-2.34,5.81,7.26,34.95,6.56,45.92-.46,7.24-5.52,14.29-6.32,21.63-2.15,19.64,4.05,33.68,17.66,47.4,9.24,9.32,88.59,69.25,97.83,72.74,17.09,6.46,41.68-2.66,55.79,8.93,6.52,5.36,3.57,11.87,5.61,16.59-14.42-2.96-107.56,3.92-111.52,0-.42-.42,1.35-6.75-3.23-11.45-9.34-9.58-57.64-31.23-74.58-43.59-30.46-22.22-31.61-22.8-36.95-61.46-4.99-36.2-8.5-102.21-3.06-137.45,3.31-21.46,11.51-21.36,6.29-47.83,2.05-5.36,15.61-13.78,16.4-16.4,13.48,14.14,28.2-2.74,42.7-8.14,13.1-4.88,35.15-9.25,45.86-14.82Z" style="fill:#bf8476;"/><path d="M241.93,192.19c41.15-33.66,57.84,72.55,77.47,89.77-10.25,25.57-32.81-10.18-45.11,13.05,2.92,17.7,18.29,21.97,34.03,21.09,18.33-1.03,27.03-19.92,42.79-.47,9,11.11,0,28.65-5.63,40.77-34.16,73.6-127.71,80.19-169.43,9.66-5.69-9.62-16.14-32.31-16.47-42.73-.08-2.66,19.24-20.51,20.73-20.51,1.68,0,9.96,13.32,29.52,13.31,33.38,0,42.47-32.77,16.67-29.77-10.64,1.24-21.52,15.93-28.18-4.89,16.36-17.97,27.97-76.5,43.6-89.29ZM218.87,359.37c-14.64,14.29,16.85,33.05,30.62,34.94,19.69,2.69,63.73-13.66,47.55-34.4-10.11-12.96-21.19,7.5-34.68,8.72-19.97,1.8-31.02-21.43-43.49-9.25Z" style="fill:#bf8476;"/><path d="M363.34,226.39c5.25,6.65,21.31,15.71,28.53,25.54,16.42,22.37,14.04,60.91-18.75,48.25-50.2-19.36-56.58-128.39-101.69-137.71-64.35-13.3-70.22,75.78-101.22,113.76-14.33,17.56-50.9,47.22-56.48,7.6-4.93-34.98,35.75-47.18,42.83-63.9,7.84-18.48.49-28.78,17.49-51.39,41.24-54.8,144.64-51.22,175.87,10.52,6.58,13.01,8.28,40.8,13.42,47.3Z" style="fill:#634444;"/><path d="M136.05,594.69c.29-.71,7.36-2.81,9.16-8.83,4.74-15.88-1.35-36.57,17.22-48.44,29.35-18.76,63.94,14.12,93.35,14.9,31.27.83,54.73-25.41,88.4-19.74,34.87,5.87,25.26,70.65,18.17,94.9-7.78.24-11.22-7.43-18.68-9.15-9.29-2.14-32.29,1.52-36.54-1.2-1.26-.81-2.68-8.99-5.54-12.43-20.58-24.81-49.37-31.93-76.79-11.46-8,5.97-15.84,22.91-17.24,23.73-4.67,2.73-25.11-.47-35.52,2.23-12.31,3.19-19.42,15.04-29.43,21.42.7-10.97-8.9-40.11-6.56-45.92Z" style="fill:#e4e8ec;"/><path d="M249.91,608.49c16.73-3.76,30.15,1.91,36.14,18.24,2.75,7.5-1.69,20.18,9.79,23.28,13.33,3.6,24.57-21.49,48.54-2.89,20.05,15.56,11.94,44.96-11.43,50.98-18.69,4.82-117.14,4.08-139.5,1.54-45.94-5.23-38.55-59.21-3.28-59.23,11.4,0,22.32,13.18,32.38,9.8,9.62-3.23,2.08-36.05,27.36-41.73Z" style="fill:#db7b82;"/><path d="M90.13,506.13c-6.02-30.55-10.82-36.44,1.68-68.84,3.96-10.25,20.77-32.38,21.3-37.96.86-9-7.44-15.63-9.13-23.49-2.31-10.77-1.14-39.13,9.06-45.23,3.59-2.15,20.7-2.95,22.68-1.26.88.75,3.44,17.7,5.34,22.54,5.7,14.53,16.17,34.09,26.11,46.04,11.39,13.7,32.71,19.7,23.03,39.38-4.91,9.99-69.11,21.71-80.44,34.33-5.97,6.65-1.74,13.12-3.24,18.09-.79,2.62-14.35,11.04-16.4,16.4Z" style="fill:#634444;"/><path d="M408.29,739.01c-9.25,9.04-58.09,44.01-67.99,45.52-10.85,1.65-26.64-26.3-43.53-22.59,17.88-25.21,73.04-45.65,82-75.41,21.24,7.82,26.8,32.29,29.52,52.48Z" style="fill:#b06b58;"/><path d="M195.09,466.76c13.98-7.26,21.72-31.57,24.83-32.37,2.5-.64,31.61,6.64,42.51,6.31,11.96-.36,28.48-7.59,35.78-6.9,2,.19,6.32,25.85,21.53,32.96-33.31,24.6-90.86,22.46-124.64,0Z" style="fill:#b06b58;"/><path d="M300.05,722.61c-3.72,6.87-36.34,32.83-40.94,32.84-6.68.02-37.58-26.35-44.34-32.84h85.28Z" style="fill:#e4e8ec;"/><path d="M218.87,359.37c12.47-12.18,23.51,11.05,43.49,9.25,13.48-1.22,24.57-21.67,34.68-8.72,16.18,20.74-27.85,37.1-47.55,34.4-13.76-1.88-45.25-20.64-30.62-34.94Z" style="fill:#060505;"/><path d="M706.78,56.75c3.89,7.26,14.9,11.93,22.96,13.12-10.26,20.18,24.83,40.49,37.76,55.72,14.55,17.14,32.17,43.64,40.48,64.48,10.3,25.84,12.79,28.62-15.8,35.72-25.93,6.44-55.49,4.99-82.14,8.1,3.4-56.34-44.68-118.97-100.88-127.09-13.64-1.97-66.64,2.78-69.71.87-4.4-2.74-23.59-47.55-22.51-52.23,5.39-23.41,107.55-10.73,126.94-6.33,12.84,2.92,41.4,16.35,48.75,16.95,5.82.48,9.19-7.6,14.14-9.33Z" style="fill:#e4e8ec;"/><path d="M641.18,804.61c-6.4,4.17-95.68-3.15-111.52,0,.75-1.43-.42-6.16,1.6-9.74,8.91-15.8,44.24-6.14,59.87-12.42,6.63-2.67,97.61-72.33,102.04-78.36,22.57-30.67,26.6-116.15,43.03-154.12.65-17.32-34.88-24.77-49.1-27.46-3.19-3.57,21.71-29.28,27.79-29.44,21-.57,41.8,46.19,44,64.27,4.34,35.63,1.21,124.27-7.65,158.9-5.87,22.95-35.27,37.87-54.58,50.38-15.97,10.35-34.77,18.28-50.25,28.61-5.23,3.49-4.79,9.09-5.24,9.39Z" style="fill:#f9d8ca;"/><path d="M631.34,204.36c16.47,28.71,47.28,43.63,63.98,72.15l1.63-19.67c15.57,7.36,20.36,5.85,14.2,28.93-6.09,22.82-20.5,16.51-25.67,23.57-3.74,5.11-8.67,36.53-14.17,48.13-35.98,75.83-136.31,77.54-173.87,2.12-61.08-122.68,96.17-89.33,133.91-155.23ZM510.86,308.48c12.68,14.18,63.09,8.82,54.49-16.75-4.8-14.25-22.41.77-27.74,1.32-8.03.82-13.92-10.21-25.51-6.31-8.41,2.83-5.88,16.56-1.24,21.74ZM607.2,286.72c-4.14,1.4-4.86,4-5.53,7.92-4.87,28.49,64.22,28.49,59.35,0-3.3-19.32-23.79-.83-31.06-1.59-6.72-.71-11.54-10.11-22.76-6.33ZM547.04,380.55c2.26,2.71,20.3,12.42,24.35,13.29,20.07,4.28,67.96-10.89,50.37-33.94-9.56-12.53-16.47,2.66-24.03,5.99-26.16,11.5-36.73-12.65-46.11-10.31-10.44,2.59-10.84,17.48-4.58,24.98Z" style="fill:#f9d8ca;"/><path d="M696.94,256.84l-1.63,19.67c-16.7-28.52-47.5-43.44-63.98-72.15,7.47-13.04,14.48-48.53-7.58-42.14-10.22,2.96-9.07,19.98-13.98,28.78-19.77,35.48-113.29,40.93-139.16,78.96.61-4.11-.41-8.89,0-13.12,20.3-7.35,11.07-29.78,14.61-49.35,17.48-96.81,165.84-104.85,194.4-10.41,7.23,23.91-3.9,49.74,17.32,59.77Z" style="fill:#dd7947;"/><path d="M621.5,532.37c-.03,9.2,8.66,18.73,16.4,22.96-3.73,10.34-4.2,26.34,11.01,25.29,13.08-.91,16.75-27.91,21.95-38.35,5.32,2.6,34.39,8.68,35.59,10.09,3.43,3.99-5.84,47.21-11.37,48.54-2.68.64-11.43-3.5-21.23-1.56-9.49,1.87-43.73,23.13-45.75,21.6-25.04-64.54-63.44-64.94-88.67.01-13.79-3.86-44.12-30.35-55.78-18.02-4.42,4.68-2.12,9.07-3.21,11.45-7.05,15.31-6.61,14.71-6.56,32.8-1.84-.1-5.55.78-6.31-.19-1.3-1.65-4.89-30.26-6.81-35.89.29-12.51-6.79-51.81-.05-57.45,4.32-3.61,47.17-14.95,55.64-16.52,35.09-6.48,69.61-4.74,105.13-4.75Z" style="fill:#e4e8ec;"/><path d="M480.46,614.37c2.08,6.11,6.32,7.35,11.35,9.96,9.58,4.96,46.8,26.78,52.49,26.22,15.79-1.54,23.07-50.78,44.34-52.57,5.95,8.82,23.17,47.76,29.59,50.94,14.45,7.16,44.42-22.33,60.53-24.82,7-.23,12.25,68.32-23.6,74.76-23.95,4.31-111.49,3.77-136.98.78-14.62-1.71-22.85-11.88-37.72-9.84-.13-10.97-6.51-25.16-6.56-42.64s-.49-17.49,6.56-32.8Z" style="fill:#f8bd4e;"/><path d="M637.9,555.33c-7.75-4.23-16.43-13.76-16.4-22.96.03-10.18,3.56-37.57,6.08-48.05,1.43-5.94,21.51-62.3,23.28-65.28,3.62-6.08,13.27-9.69,17.86-14.94,14.25-16.29,23.9-32.67,33.2-52.13,5.64-1.35,26.2,24.32,29.24,29.75,32.57,58.19-26.81,79.68-57.07,116.31-10.19,12.33-31.09,43.21-36.18,57.3Z" style="fill:#dd7947;"/><path d="M450.94,479.88c3.13.43,5.99,7.22,13.93,6.1,5.36-.75,49.03-17.34,55.12-20.69,19.65-10.8,21.17-29.94,22.95-31.25,1.67-1.23,32.73,6.76,40.84,6.76,12.97,0,25.16-4.75,37.7-6.84-8.31,23.7-23.7,45.52-19.64,72.17-51.03-2.54-100.62,7.64-148.85,22.72-8.61-12.99-13.91-27.57-25.01-39.14,8.24.8,16.25-10.76,22.96-9.84Z" style="fill:#f9d8ca;"/><path d="M460.78,611.09c1.92,5.63,5.51,34.24,6.81,35.89.76.97,4.47.08,6.31.19.05,17.48,6.43,31.67,6.56,42.64.05,4.29-7.05,10.81-1.66,19.67,7.6,12.48,57.53,35.35,67.26,52.46-13.61-4.8-37.01,22.92-40.83,23.04-4.28.13-64-34.33-64.31-38.05,16.57-40.42,14.98-85.01,16.44-127.89.14-4.24,3.4-7.51,3.41-7.94Z" style="fill:#f9d8ca;"/><path d="M628.06,722.61c-6.76,6.5-37.66,32.86-44.34,32.84-4.56-.01-38.04-27.29-44.22-32.84h88.56Z" style="fill:#e4e8ec;"/><path d="M470.62,256.84c-.41,4.23.61,9.01,0,13.12-.42,2.82-5.77,22.11-6.59,22.97-7.21,7.48-14.7-21.12-6.81-31.5,4.31-5.66,9.63-3.22,13.4-4.59Z" style="fill:#f9d8ca;"/><path d="M547.04,380.55c-6.26-7.5-5.86-22.39,4.58-24.98,9.38-2.33,19.95,21.82,46.11,10.31,7.56-3.32,14.47-18.51,24.03-5.99,17.59,23.05-30.3,38.22-50.37,33.94-4.05-.86-22.08-10.57-24.35-13.29Z" style="fill:#060505;"/><path d="M607.2,286.72c11.22-3.79,16.04,5.62,22.76,6.33,7.27.76,27.76-17.73,31.06,1.59,4.87,28.49-64.22,28.49-59.35,0,.67-3.91,1.39-6.52,5.53-7.92Z" style="fill:#060505;"/><path d="M510.86,308.48c-4.64-5.19-7.17-18.91,1.24-21.74,11.58-3.9,17.48,7.13,25.51,6.31,5.33-.54,22.95-15.57,27.74-1.32,8.6,25.57-41.81,30.93-54.49,16.75Z" style="fill:#060505;"/></svg>