<?xml version="1.0" encoding="UTF-8"?><svg id="a" xmlns="http://www.w3.org/2000/svg" viewBox="0 0 230.86 230.01"><g id="b"><path d="M189.58,220.66c-.18.07-.76,1.77-1.78,2.23-60.28.63-121.06,1.05-181.31-.22-2.69-1.82-5.53-4.29-5.64-7.82,2.12-21.73-2.8-48.75.1-69.84.75-5.45,5.79-12.71,10.4-15.62,1.03-.65,8.28-3.73,8.84-3.73h28.31c.94-3.36-3.07-3.07-6.22-5.01-4.61-2.84-8.3-6.83-11.04-11.42-.54-.9-.47-2.76-.88-3.12-.3-.26-4.03-.67-5.48-1.26-7.71-3.13-11.78-9.53-10.32-17.96.4-2.32,2.08-4.32,2.42-6.54,1.9-12.16-4.14-11.2-5.84-19.16-1.08-5.06-.78-10.95,1.56-15.57,1.14-2.25,4.6-5.23,5.04-6.63.64-2.04.38-5.11,1.14-7.82,2.37-8.47,10.53-15.29,19.42-15.67,2.71-.12,5.7,1.31,7.75.7,1.84-.55,2.39-3.17,3.78-4.35,8.2-6.91,20.2-7.72,28.62-.76,1.75,1.45,3.4,4.69,4.82,5.11,2.06.61,5.04-.81,7.75-.7,11.11.47,20.22,10.49,20.37,21.44,4.42-1.88,9.12,1.18,13.74-.19,2.37-.7,4.37-4.92,6.12-6.44,13.21-11.46,27.13-13.62,44.38-12.18,4.15.35,20.88,5.01,22.74,8.23.69,1.2-.03,3.7.19,5.19-.87-.09-2.36.99-3.85.74-4.06-.69-9.49-6.08-17.38-6.9-15.23-1.58-37.13-.6-44.37,15.12,7.86,1.84,14.93,8.36,20.23,14.34,4.43,4.99,1.14,6.01,9.77,5.27,11.16-.96,36.88-11.09,40.04,5.1,1.04,5.3-2.43,5.77,5.45,6.67v-17.47c0-3.54-4.74-9.86-5.25-12.78-.35-2.02.87-3.62.75-4.7,5.67-1.67,8.56,6.94,9.84,11.25,3.07,10.32,1.02,19.32,1.84,29.53.58,7.23,4.43,9.76-1.04,17.76-4.68,6.85-10.1,4.7-13.1,7.1-1.12.89-4.71,8.89-9.29,12.69s-8.64,2.53-7.11,10.38h26.51c1.5,0,8.7,3.65,10.35,4.91,4.36,3.31,7.28,8.46,8.75,13.68l.16,71.43c-.52,3.28-4.34,7.09-7.64,7.62s-19.22.66-22.44.07c-2.55-.47-2-2.55-2.22-2.71-1.25-4.93,5.39-3.19,5.39-3.58v-42.57c0-2.73,7.19-2.73,7.19,0v42.57c3.75-.56,11.58,2.01,12.56-3.16-1.38-21.4,1.93-45.22.06-66.33-.79-8.95-6.96-14.14-15.72-14.79-5.48-.4-44.95-.49-46.85.89-1.36.99-5.24,6.32-8.01,6.32h-22.92c-.18,0-.18,3.58,0,3.58h27.41c10.09,0,20.28,11.27,21.15,21.02,1.46,16.25-1.27,34.52.09,50.99,1.13,3.42,10.39-1.18,10.66,5.05ZM76.35,19.92c-.24-.32-.12-1.45-.84-2.26-5.2-5.79-15.05-6.13-20.64-.79-1.84,1.75-3.7,6.9-5.18,7.4-3.31,1.12-7.87-2.08-12.34-1.61-5.56.59-11.09,5.81-12.02,11.36-.43,2.55.24,5.49-.4,7.67-.47,1.62-3.83,3.74-5.06,5.71-2.24,3.59-2.59,8.09-1.74,12.19,1.15,5.58,8.52,7.47,6.08,15h4.5c-1.15-9.03,1.19-17.05,11.68-17.03,1.29,0,3.07.93,4.9.93,7,.01,23.82,1.02,29.53-1.1.63-.23,6.56-7.35,8.24-8.81,5.88-5.14,13.33-9.27,21.07-10.8.86-7.75-5.99-15.26-13.86-15.24-3.55,0-7.36,2.86-10.64,1.74-1.08-.37-2.38-3.12-3.29-4.36ZM115.89,43.22c-24.69-.68-45.27,22.2-42.23,46.6,6.64.57,5.58-4.47,9.39-8.1,1.79-1.7,4.31-3.21,6.78-3.55,7.39-1.01,24.47,1.83,29.99-1.01,2.27-1.17,3.47-4.37,6.59-5.08,2.67-.6,12.2-.57,15.03-.13,4.42.68,8.77,5,9.44,9.41.93,6.14-2.71,8.41,6.34,8.46.78-24.62-15.72-45.89-41.33-46.6ZM163.52,114.01h15.73c3.75,0,11.63-6.31,13.78-9.56,4.43-6.72,4.99-28.57,3.69-36.54-.22-1.33-1.04-3.38-2.13-4.15-4.3-3.03-27.51,3.07-33.74,3.69.36,1.95,1.9,11.6,3.12,11.59,1.67-2.95,6.78-1.92,6.75,1.35-.02,1.99-3.78,4.58-3.51,6.16s10.04,9.15-3.68,6.85c-.4,14.65,8.47,3.86,13.09,3.57,5-.31,3.67,5.4-.22,7.92-5.63,3.66-13.27.46-12.88,9.11ZM70.96,64.73h-32.8c-2.24,0-2.95,3.12-3.14,4.91-.76,6.99-.68,26.51,1.13,32.94,1.62,5.75,10.1,15.02,16.39,15.02h13.93c.53-8.77.16-5.11-5.45-6.67-3.92-1.09-10.21-3.88-8.98-8.88,1.15-4.69,10.55,3.78,12.59,2.06.24-.2,1.21-5.85.9-6.19-.33-.37-7.31-2.25-8.95-4.06-2.74-3.03,3.38-10.79,5.79-12.16,2.01-1.14,4.82-.67,5-.84.2-.19-.06-4.15.23-5.6.73-3.68,2.27-6.99,3.36-10.53ZM87.35,86.44c-1.79,1.78-1.41,20.68-.71,24.04,5.68,27.32,48.18,29.05,56.49,1.56,1.6-5.29,2.85-26.5.53-30.64-2.16-3.84-9.92-3.96-13.81-3.22-2.56.49-5.71,5.29-9.19,6.07-6.93,1.55-29.1-2-33.3,2.19ZM203.06,95.2c9.61-1.57,10.15-16.67,0-17.03v17.03ZM28.72,81.75c-10.15.36-9.61,15.46,0,17.03v-17.03ZM79.04,96.1c-10.1,1.61-9.57,16.4.9,17.02l-.9-17.02ZM150.04,113.11c7.7.45,11.54-8.4,6.7-14.29-1.22-1.48-5.34-4.64-5.8-1.41-.68,4.81.62,10.62-.89,15.7ZM135.66,133.73h13.93c5.64,0,9.61-10.48,7.18-15.25-2.63,1.97-8.46,1.17-10.32,2.25-.94.55-2.44,4.05-3.62,5.36-1,1.11-8.07,6.86-7.17,7.64ZM94.32,132.83c-1.34-2.38-4-3.28-5.86-5.36-5.68-6.31-2.58-7.35-13.46-8.1-1.88-.13-1.16.02-1.35,1.33-.23,1.59-.27,5.65.02,7.18.25,1.3,3.52,4.95,4.02,4.95h16.62ZM178.79,125.66c.24-1.28.03-5.38-1.35-5.38h-13.93v5.38h15.28ZM66.42,124.81l-10.75-.05c-2.38,10.03,6.34,20.47,15.25,12.01-2.72-3.75-4.47-7.13-4.5-11.96ZM29.62,132.83c-5.2.16-9.63-.77-14.34,2.28-4.94,3.21-7.4,8.71-8.02,14.41-1.62,15.09-1.44,46.45-.15,61.76.74,8.75,6.67,5.06,13.52,5.79,1.45-1.44-.81-34.91-.05-40.82.45-3.48,2.56-3.52,2.74-3.99l4.06,1.78.43,43.03h23.36c1.12-8.59-1.52-21.02.02-29.1.39-2.02,1.55-3.01,3.57-3.16.08.13,1.99.19,2.77,1.24,2.46,3.31-.28,29.92.82,31.02h8.09v-29.13c0-6.2,5.35-10.96,7.46-15.86.96-2.22,5.9-20.55,5.12-21.33-8.4-1.36-18.7,3.46-20.47,12.3-.69,3.45.54,7.55-.79,10.79-.68,1.65-2.88,1.73-3,2-2.03-.16-3.18-1.14-3.57-3.16-1.34-6.94,1.71-16.9,6.69-21.96,1.85-1.88,4.48-2.52,5.87-4.44-5.35.18-10.74-3.26-13.08-8.02-.89-1.82-1.13-5.2-1.33-5.4-.7-.69-17.09-.12-19.73-.04ZM123.98,138.21c-5.94.81-11.12,1.33-17.07,0,.89,4.99-1.13,8.16-2.7,12.53,5.27,2.7,16.9,4.56,21.55.45,2.35-2.08-1.28-2.85-1.77-5.38-.44-2.3.25-5.2-.02-7.6ZM99.71,140h-22.02c-.29,0-3.85,3.42-3.15,4.48h25.16v-4.48ZM145.46,150.85c-.39-.34-7.13-.24-8.27.09-1.44.42-6.37,5.67-9.9,7.16-7.87,3.3-15.63,3.22-23.42-.28-6.36-2.86-8.58-9.43-17.09-7.11-.81.22-3.77,13.97-4.14,16.18,9.17-1.93,17.8-.92,25.45,4.64,1.64,1.19,5.95,6.28,7.22,6.05,8.86-9.66,20.84-14.61,33.82-9.8-.32-2.27-3.02-16.37-3.68-16.94ZM172.5,217.07v-51.53c0-8.01-11.82-16.65-19.77-14.78-.87.85,4.57,21.25,5.44,23.7,1.08,3.04,5.35,8.69,5.35,11.69v30.92h8.99ZM96.12,174.06c-7.02-1.34-11.79-1.84-17.43,3.68-1.26,1.23-5.04,6.98-5.04,8.42v30.92c5.08.03,10.2-.04,15.28,0,22.45.16,44.95-.12,67.4,0v-31.81c0-1-4.12-7.01-5.36-8.09-7.67-6.7-19.29-5.09-26.56,1.35-2.8,2.49-5.5,8.11-8.94,8.15-4.79.06-5.56-4.53-8.21-7.14-3.82-3.77-6.14-4.52-11.14-5.47Z" style="fill:#070505;"/><path d="M115.89,43.22c25.62.71,42.11,21.98,41.33,46.6-9.05-.04-5.41-2.32-6.34-8.46-.67-4.4-5.02-8.73-9.44-9.41-2.83-.44-12.36-.47-15.03.13-3.12.7-4.32,3.91-6.59,5.08-5.52,2.84-22.6,0-29.99,1.01,1.41-15.89,13.04-27.26,26.06-34.95Z" style="fill:#fbce5a;"/><path d="M115.89,43.22c-13.02,7.69-24.65,19.06-26.06,34.95-2.47.34-4.99,1.84-6.78,3.55-3.81,3.63-2.75,8.67-9.39,8.1-3.04-24.39,17.54-47.28,42.23-46.6Z" style="fill:#fabf43;"/><path d="M135.66,133.73c-.9-.78,6.16-6.53,7.17-7.64,1.18-1.3,2.67-4.81,3.62-5.36,1.86-1.08,7.69-.29,10.32-2.25,2.43,4.77-1.54,15.25-7.18,15.25h-13.93Z" style="fill:#fbce5a;"/><path d="M150.04,113.11c1.51-5.08.21-10.89.89-15.7.46-3.23,4.59-.07,5.8,1.41,4.85,5.89,1.01,14.75-6.7,14.29Z" style="fill:#eea494;"/><path d="M127.35,116.04c4.27,4.16-5.6,9.05-9.29,9.54-5.12.69-19.69-3.17-14.82-9.4,2.66-3.41,6.97,2.74,11.45,2.9,5.26.18,9.39-6.23,12.66-3.04Z" style="fill:#070505;"/><path d="M29.62,132.83c2.65-.08,19.03-.66,19.73.04.2.2.44,3.58,1.33,5.4,2.34,4.75,7.73,8.2,13.08,8.02-1.39,1.93-4.01,2.56-5.87,4.44-4.98,5.06-8.02,15.02-6.69,21.96.39,2.02,1.55,3,3.57,3.16-.18.41-.24,8.59,0,8.96-2.02.16-3.19,1.14-3.57,3.16-1.55,8.08,1.1,20.51-.02,29.1h-23.36l-.43-43.03-4.06-1.78c1.3-3.29-.67-20.67.08-26.36s4.23-8.26,6.21-13.07Z" style="fill:#a1e42e;"/><path d="M29.62,132.83c-1.98,4.81-5.49,7.51-6.21,13.07s1.23,23.07-.08,26.36c-.19.47-2.3.51-2.74,3.99-.76,5.91,1.5,39.38.05,40.82-6.85-.73-12.78,2.96-13.52-5.79-1.29-15.31-1.47-46.67.15-61.76.61-5.7,3.08-11.2,8.02-14.41,4.7-3.05,9.13-2.12,14.34-2.28Z" style="fill:#92d028;"/><path d="M54.78,175.85c.12-.26,2.32-.35,3-2,1.34-3.24.1-7.34.79-10.79,1.77-8.84,12.07-13.66,20.47-12.3.78.77-4.16,19.1-5.12,21.33-2.11,4.9-7.46,9.66-7.46,15.86v29.12h-8.09c-1.1-1.1,1.64-27.71-.82-31.02-.78-1.05-2.68-1.12-2.77-1.24-.24-.38-.18-8.55,0-8.96Z" style="fill:#f6aa99;"/><path d="M94.32,132.83h-16.62c-.51,0-3.78-3.65-4.02-4.95-.29-1.53-.26-5.59-.02-7.18.19-1.3-.53-1.46,1.35-1.33,10.88.75,7.79,1.78,13.46,8.1,1.87,2.08,4.52,2.97,5.86,5.36Z" style="fill:#fabf43;"/><path d="M66.42,124.81c.03,4.83,1.77,8.21,4.5,11.96-8.91,8.46-17.63-1.98-15.25-12.01l10.75.05Z" style="fill:#cb7967;"/><path d="M99.71,140v4.48h-25.16c-.7-1.06,2.86-4.48,3.15-4.48h22.02Z" style="fill:#92d028;"/><path d="M79.04,96.1l.9,17.02c-10.47-.62-10.99-15.41-.9-17.02Z" style="fill:#eea494;"/><path d="M76.35,19.92c.91,1.23,2.22,3.99,3.29,4.36,3.27,1.12,7.09-1.73,10.64-1.74,7.87-.02,14.72,7.49,13.86,15.24-7.74,1.52-15.19,5.66-21.07,10.8-1.68,1.47-7.61,8.58-8.24,8.81-5.71,2.13-22.53,1.12-29.53,1.1-1.83,0-3.61-.93-4.9-.93-1.62-14.28,4.92-29.03,18.62-34.75,5.5-2.3,11.47-2.21,17.32-2.89Z" style="fill:#3d5858;"/><path d="M70.96,64.73c-1.1,3.54-2.63,6.85-3.36,10.53-.29,1.45-.03,5.4-.23,5.6-.18.18-2.99-.3-5,.84-2.41,1.37-8.54,9.14-5.79,12.16,1.65,1.82,8.62,3.69,8.95,4.06.31.34-.67,5.99-.9,6.19-2.04,1.73-11.44-6.75-12.59-2.06-1.22,5,5.06,7.78,8.98,8.88,5.61,1.56,5.98-2.1,5.45,6.67h-13.93c-6.29,0-14.77-9.27-16.39-15.02-1.81-6.43-1.89-25.95-1.13-32.94.19-1.79.9-4.91,3.14-4.91h32.8ZM47.36,74.77c-7.73,1.49-9.77,11.85-2.2,9.51,1.35-.42,2.02-2.4,3.82-2.58,2.33-.24,6.47,5.4,9.01,1.9,3.21-4.41-5.5-9.82-10.63-8.83Z" style="fill:#cb7967;"/><path d="M76.35,19.92c-5.85.68-11.83.59-17.32,2.89-13.7,5.72-20.24,20.47-18.62,34.75-10.49-.02-12.83,8-11.68,17.03h-4.5c2.44-7.52-4.93-9.41-6.08-15-.85-4.1-.5-8.6,1.74-12.19,1.23-1.96,4.59-4.09,5.06-5.71.64-2.19-.03-5.12.4-7.67.93-5.54,6.45-10.77,12.02-11.36,4.47-.47,9.02,2.72,12.34,1.61,1.48-.5,3.34-5.65,5.18-7.4,5.59-5.34,15.43-5,20.64.79.72.81.61,1.94.84,2.26Z" style="fill:#364747;"/><path d="M28.72,81.75v17.03c-9.61-1.57-10.15-16.67,0-17.03Z" style="fill:#cb7967;"/><path d="M47.36,74.77c5.13-.99,13.85,4.41,10.63,8.83-2.55,3.5-6.68-2.14-9.01-1.9-1.8.18-2.47,2.17-3.82,2.58-7.57,2.34-5.53-8.01,2.2-9.51Z" style="fill:#070505;"/><path d="M96.12,174.06c4.99.95,7.32,1.71,11.14,5.47,2.65,2.61,3.42,7.2,8.21,7.14,3.44-.04,6.14-5.66,8.94-8.15,7.27-6.45,18.89-8.05,26.56-1.35,1.25,1.09,5.36,7.09,5.36,8.09v31.81c-22.45-.12-44.95.16-67.4,0,1.08-14.46-3.92-31.44,7.19-43.02Z" style="fill:#fb5ba5;"/><path d="M87.35,86.44c4.2-4.19,26.36-.64,33.3-2.19,3.48-.78,6.63-5.58,9.19-6.07,3.89-.74,11.65-.62,13.81,3.22,2.33,4.13,1.07,25.35-.53,30.64-8.31,27.49-50.81,25.76-56.49-1.56-.7-3.36-1.07-22.25.71-24.04ZM96.75,98.49c.91-.66.46-2.74,3.38-2.44,2.55.26,3.39,4.24,6.16,3.54,5.84-1.47.53-12.29-8.41-10.29-10.53,2.35-7.47,13.77-1.12,9.2ZM129.09,89.02c-3.69.92-3.69,12.48.73,12.47,4.75,0,4.6-13.8-.73-12.47ZM113.82,95.31c-1.41.41-6.95,8.68-6.91,10.21.09,3.7,11.25,10.4,11.74,4.44.22-2.73-2.7-3.41-2.75-5.33-.05-2.15,3.16-4.61,2.57-7.02-.45-1.84-2.81-2.85-4.65-2.31ZM127.35,116.04c-3.27-3.19-7.41,3.22-12.66,3.04-4.48-.15-8.79-6.3-11.45-2.9-4.86,6.23,9.71,10.08,14.82,9.4,3.68-.5,13.55-5.39,9.29-9.54Z" style="fill:#f8c8ba;"/><path d="M145.46,150.85c.66.57,3.36,14.67,3.68,16.94-12.98-4.82-24.95.14-33.82,9.8-1.27.22-5.58-4.86-7.22-6.05-7.66-5.56-16.29-6.57-25.45-4.64.37-2.21,3.33-15.96,4.14-16.18,8.51-2.32,10.73,4.25,17.09,7.11,7.79,3.5,15.55,3.59,23.42.28,3.53-1.48,8.46-6.73,9.9-7.16,1.13-.33,7.88-.43,8.27-.09Z" style="fill:#fefefe;"/><path d="M172.5,217.07h-8.99v-30.92c0-3-4.27-8.66-5.35-11.69-.87-2.45-6.31-22.85-5.44-23.7,7.95-1.86,19.77,6.78,19.77,14.78v51.53Z" style="fill:#f6aa99;"/><path d="M96.12,174.06c-11.11,11.57-6.11,28.55-7.19,43.02-5.08-.04-10.2.03-15.28,0v-30.92c0-1.44,3.78-7.19,5.04-8.42,5.64-5.52,10.41-5.02,17.43-3.68Z" style="fill:#f63d93;"/><path d="M123.98,138.21c.27,2.4-.42,5.31.02,7.6.49,2.53,4.12,3.3,1.77,5.38-4.66,4.12-16.28,2.25-21.55-.45,1.57-4.37,3.59-7.54,2.7-12.53,5.95,1.33,11.13.81,17.07,0Z" style="fill:#f6aa99;"/><path d="M113.82,95.31c1.83-.54,4.19.47,4.65,2.31.59,2.4-2.62,4.86-2.57,7.02.05,1.91,2.98,2.6,2.75,5.33-.49,5.96-11.65-.74-11.74-4.44-.04-1.53,5.5-9.8,6.91-10.21Z" style="fill:#070505;"/><path d="M96.75,98.49c-6.35,4.58-9.41-6.84,1.12-9.2,8.94-2,14.25,8.82,8.41,10.29-2.76.7-3.61-3.28-6.16-3.54-2.91-.29-2.46,1.79-3.38,2.44Z" style="fill:#070505;"/><path d="M129.09,89.02c5.32-1.32,5.48,12.47.73,12.47-4.41,0-4.42-11.56-.73-12.47Z" style="fill:#070505;"/><path d="M189.58,220.66c-.27-6.23-9.53-1.63-10.66-5.05-1.36-16.47,1.37-34.75-.09-50.99-.88-9.75-11.07-21.02-21.15-21.02h-27.41c-.18,0-.18-3.58,0-3.58h22.92c2.77,0,6.65-5.33,8.01-6.32,1.9-1.38,41.36-1.29,46.85-.89,8.76.65,14.93,5.83,15.72,14.79,1.87,21.1-1.45,44.93-.06,66.33-.97,5.17-8.8,2.6-12.56,3.16v-42.57c0-2.73-7.19-2.73-7.19,0v42.57c0,.39-6.64-1.35-5.39,3.58-.37-.26-8.57-.16-8.99,0Z" style="fill:#ad65d8;"/><path d="M178.79,125.66h-15.28v-5.38h13.93c1.37,0,1.59,4.1,1.35,5.38Z" style="fill:#ad65d8;"/><path d="M198.56,31.57c.87.09,5.3,4.52,5.39,5.38.11,1.08-1.1,2.68-.75,4.7.5,2.91,5.25,9.24,5.25,12.78v17.47c-7.87-.89-4.41-1.36-5.45-6.67-3.16-16.19-28.88-6.06-40.04-5.1-8.63.74-5.34-.28-9.77-5.27-5.3-5.97-12.37-12.49-20.23-14.34,7.24-15.72,29.15-16.7,44.37-15.12,7.89.82,13.33,6.21,17.38,6.9,1.48.25,2.97-.83,3.85-.74Z" style="fill:#fb9537;"/><path d="M163.52,114.01c-.39-8.65,7.24-5.45,12.88-9.11,3.89-2.53,5.22-8.24.22-7.92-4.62.29-13.49,11.08-13.09-3.57,13.72,2.3,3.96-5.2,3.68-6.85s3.49-4.17,3.51-6.16c.03-3.27-5.08-4.3-6.75-1.35-1.22.01-2.76-9.64-3.12-11.59,6.23-.62,29.44-6.73,33.74-3.69,1.09.77,1.91,2.82,2.13,4.15,1.3,7.97.74,29.83-3.69,36.54-2.15,3.25-10.03,9.56-13.78,9.56h-15.73ZM183.07,82.43c2.34-2.42,2.05-11.97-3.63-10.41s-1.69,15.93,3.63,10.41Z" style="fill:#f8c8ba;"/><path d="M203.06,95.2v-17.03c10.15.36,9.61,15.46,0,17.03Z" style="fill:#f6aa99;"/><path d="M183.07,82.43c-5.33,5.52-9.27-8.86-3.63-10.41s5.97,7.99,3.63,10.41Z" style="fill:#070505;"/></g></svg>