<?xml version="1.0" encoding="UTF-8"?><svg id="a" xmlns="http://www.w3.org/2000/svg" viewBox="0 0 841.77 834.58"><path d="M215.47,91.89c-10.09-67.07,48.6-111.75,110.67-83.04,32.67,15.12,43.15,46.65,48.64,79.81,119.59-29.91,218.78,46.77,230.69,167.41.58,5.92-1.08,29.77.05,30.83,2.79,2.61,30.65-3.53,37.46,22.68,5.32,20.47,5.18,66.88-13.01,81.42-9.42,7.53-29.41,8.92-30.56,10.07-1.45,1.44-7.89,31.61-10.97,39.41-8.68,21.98-19.59,41.43-34.84,59.42-7.28,8.59-34.87,29.84-37.45,34.05-4.82,7.87,2.97,39.03,7.46,47.78,19.05,37.09,87.31,36.52,117.49,58.02,7.94,5.66,7.27,11.76,6.68,20.96-1.42.03-16.28,4.16-16.45,5.12-3.39,49.25,5.23,105.85.19,154.14-2.03,19.48-20.72,19.48-22.75,0-5.13-49.2,6.07-109.55.18-157.83-.49-3.99.18-6.55-3.4-9.6-15.01-12.8-55.66,4.17-74.12,7.21-66.85,10.99-122.86,13.72-190.28,3.67-20.42-3.04-80.92-21.81-94.56-12.23-3,2.11-4.96,3.96-5.12,7.89v160.9c-2.46,15.56-20.53,21.22-22.75,0-5.29-50.63,5.29-105.14-1.66-156.05-41.33,17.44-64.19,49.94-72.26,93.5-3.8,20.49-1.21,44.11-4.09,62.54-3.3,21.13-26.19,18.36-26.29-11.39-.22-66.59,19.79-127.26,79.37-161.42,37.35-21.41,121.23-32.68,135.62-72.41,2.33-6.43,8.09-36.08,5.67-40.17-.56-.95-16.6-12.94-17.68-13.15-3.45-.67-24.9,10.48-32.83,11.73-104.64,16.57-168.71-103.69-98.36-181.2-46.56-15.65-60.93-59.84-35.2-101.88,3.03-4.96,13.54-12.21,12.47-16.74-49.79-22.26-76.39-84.97-39.84-130.89,11.53-14.49,53.56-41.87,62.58-13.8-.45.31-.17,6.59-4.59,9.95-14.82,11.28-33.82,1.9-45.75,32.35-13.46,34.33,5.01,62.76,36.12,77.55,9.61,4.57,30.63,6.45,33.28,15.7,4.36,15.25-17.18,19.97-25.54,28.62-28.45,29.46-18.01,77.47,25.98,76.37-2.7-18.69,3.96-34.77,22.69-40.74,5-1.59,15.72-.98,16.31-1.55,1.24-1.17-.56-27.74.05-34.08,1.69-17.52,5.06-65.06,29.21-60.17.13.6,4.34,3.2,5.18,6.25,4.24,15.53-15.38,51.45-8.41,71.74l51.99-22.74c64.53-21.92,145.73-55.08,152.67-133.15-40.43-11.35-72.03-9.55-110.42,6.39-30.58,12.7-46.77,37-61.86,43.83-6.25,2.83-13.5.59-16.14,1.68-18.34-30.29,57.55-59.56,61.28-70.45,4.62-13.5-9.12-44.65-18.89-54.82-18.08-18.83-58.12-21.3-76.68-1.65-23.09,24.45-3.13,63.15-9.37,71.87-10.75,15.03-25.96-7.09-27.86-19.71ZM569.72,212.15c-7.8-33.98-33.78-63.97-63.38-81.19,8.2,34.06,35.41,61.56,63.38,81.19ZM374.73,527.44c153.84,60.98,238.98-136.88,195.15-261.78-11.85-33.75-28.14-38.81-48.8-61.72-11.01-12.21-22.81-28.56-29.38-43.77l-33.6,44.34c-21.36,17.37-43.44,35.33-70.36,43.44-3.27,4.34,19.2,17.75,3.25,27.72-4.16,2.6-40.09-6.67-53.77-5.09-9.78,1.13-11.67,5.77-14.5,6.58-26.73,7.71-49.01,14.22-52.17,46.97-7.74,80.32,25.32,172.06,104.18,203.31ZM571.38,215.4v3.25c2.11-1.08,2.11-2.17,0-3.25ZM244.72,312.91c-4.17.2-9.56-1.08-13.21,1.42-6.22,4.26-8.42,66.99,16.45,60.32,1.26-3.54-3.24-7.12-3.24-8.1v-53.63ZM602.26,374.67c23.1,1.32,21.58-34.06,19.66-50.54-2.19-18.86-19.66-10.31-19.66-6.34v56.88ZM250.82,401.08c-.9-.89-17.9-2.81-24.63-6.26-11.11-5.68-12.46-13.85-19.04-19.98-3.84-3.57-1.83-4.46-6.38-.25-6.69,6.19-16.23,28.51-17.52,37.74-9.14,65.55,47.95,110.04,110.23,92.32-4.82-18.95-19.09-33.15-27.52-52.09-4.93-11.07-13.23-49.6-15.14-51.49ZM348.73,595.7c-.29.76-7.15,6.48-9.75,13-11.41,5.66-19.35,17.7-32.48,19.54,3.32,9.18,19.24,5.2,25.98,6.46,72.33,13.55,139.2,13.06,211.25-3.29l-24.27-16.3c-5.07-4.21-15-14.02-17.97-19.41-7.41-13.45-8.3-30.87-11.42-45.55-43.25,18.45-88.12,16.77-131.57.06.8,14.82-4.43,31.64-9.77,45.49Z" style="fill:#050505;"/><path d="M608.76,819.97H241.47v-160.9c.15-3.93,2.11-5.78,5.11-7.89,13.64-9.59,74.14,9.18,94.56,12.23,67.42,10.05,123.43,7.32,190.28-3.67,18.46-3.03,59.11-20.01,74.12-7.21,3.58,3.05,2.92,5.61,3.4,9.6,5.89,48.28-5.32,108.62-.18,157.83Z" style="fill:#89a8da;"/><path d="M673.77,673.71c-8.48,15.97,6.64,23.43,13.55,36.83,20.84,40.41,17.92,66.31,22.2,109.44h-78.01c5.04-48.3-3.59-104.89-.19-154.14.17-.96,15.03-5.1,16.45-5.12,13.47-.26,19.27,12,26,13Z" style="fill:#c08576;"/><path d="M286.97,166.65c-1.35.55-13.73,22.52-13,26-24.15-4.89-27.53,42.65-29.21,60.17-.61,6.34,1.19,32.91-.05,34.08-.6.56-11.31-.05-16.31,1.55-18.73,5.96-25.39,22.04-22.69,40.74-43.99,1.1-54.42-46.92-25.98-76.37,8.35-8.65,29.9-13.37,25.54-28.62-2.65-9.25-23.66-11.13-33.28-15.7-31.11-14.8-49.58-43.22-36.12-77.55,11.94-30.45,30.93-21.07,45.75-32.35,4.42-3.36,4.13-9.64,4.59-9.95,4.15-2.81,22.66,4.62,29.25,3.25,1.9,12.62,17.11,34.74,27.86,19.71,6.23-8.72-13.73-47.42,9.37-71.87,18.56-19.65,58.59-17.18,76.68,1.65,9.77,10.18,23.51,41.32,18.89,54.82-3.73,10.9-79.62,40.17-61.28,70.45Z" style="fill:#88a7d9;"/><path d="M140.71,819.97c2.88-18.43.29-42.05,4.09-62.54,8.08-43.56,30.94-76.06,72.26-93.5,6.95,50.9-3.63,105.42,1.66,156.05h-78.01Z" style="fill:#ad6a57;"/><path d="M709.52,819.97c-4.28-43.13-1.37-69.03-22.2-109.44-6.91-13.4-22.03-20.86-13.55-36.83,6.77,1.01,9.34-7.21,20.86,3.53,22.79,21.26,34.14,65.55,37.6,95.65.85,7.36,3.66,42.99,2.73,47.89-2.92,15.31-23.32,20.42-25.43-.8Z" style="fill:#050505;"/><path d="M374.73,527.44c-33.74-40.94-46.82-95.81-51.97-147.93-1.16-11.72,2.67-39.36-.03-47.1,15.19,2.62,29.62-16.93,43.61-6.84,6.95,5.01-7.92,50.38,18.31,47.85,12.7-2.29,11.51-41.8,9.52-52.31-4.64-24.53-50.99-27.84-68.19-14.7-6.75-6.65-2.01-20.08-3.25-29.25,2.82-.81,4.72-5.46,14.5-6.58,13.68-1.57,49.61,7.69,53.77,5.09,15.95-9.97-6.52-23.38-3.25-27.72,26.93-8.11,49.01-26.07,70.36-43.44l33.6-44.34c6.57,15.21,18.37,31.56,29.38,43.77,20.66,22.9,36.95,27.97,48.8,61.72,43.84,124.9-41.31,322.76-195.15,261.78ZM456.89,255.25c-7.24,7.78-3.97,20.81,7.34,21.94,8.05.81,25.97-7.49,42.29-6.67,14.55.73,41.52,15.52,43.22-5.34,1.96-23.95-77.69-26.22-92.85-9.94ZM529.96,370.64c5.25-5.4,5.33-37.97,4.21-46.51-4.81-36.49-80.8-30.36-78.42.09,1.58,20.17,29.95-.82,37.83-1.47,26.72-2.19,7.42,30.71,17.4,46.49,3.47,5.49,14.63,5.87,18.98,1.39ZM494.22,433.97c-10.29-9.93-110.07-.87-130.87-4.05-28.39,5.32,7.09,56.52,21.35,66.43,29.79,20.68,70.65,14.55,93.97-12.86,7.39-8.69,25.11-40.29,15.55-49.51Z" style="fill:#c08576;"/><path d="M364.98,121.14c38.39-15.94,69.98-17.74,110.42-6.39-6.94,78.08-88.14,111.24-152.67,133.15,2.91-28.48,7.47-57.07,18.92-83.47,6.87-15.85,17.79-27.54,23.34-43.29Z" style="fill:#765151;"/><path d="M322.73,277.16c1.24,9.17-3.5,22.6,3.25,29.25-2.39,1.83-9.58,11.65-9.94,14.82-1.01,8.83,6.43,10.44,6.69,11.18,2.71,7.74-1.13,35.37.03,47.1,5.15,52.12,18.24,106.99,51.97,147.93-78.85-31.26-111.92-122.99-104.18-203.31,3.16-32.75,25.44-39.26,52.17-46.97Z" style="fill:#b16c59;"/><path d="M250.82,401.08c1.91,1.9,10.21,40.43,15.14,51.49,8.43,18.94,22.7,33.14,27.52,52.09-62.28,17.72-119.37-26.78-110.23-92.32,1.29-9.23,10.83-31.54,17.52-37.74,4.55-4.21,2.54-3.32,6.38.25,6.58,6.13,7.94,14.29,19.04,19.98,6.73,3.44,23.73,5.36,24.63,6.26Z" style="fill:#503838;"/><path d="M348.73,595.7c5.34-13.85,10.57-30.67,9.77-45.49,43.45,16.71,88.33,18.39,131.57-.06,3.12,14.68,4.01,32.1,11.42,45.55-50,25.81-102.86,26.65-152.77,0Z" style="fill:#b16c59;"/><path d="M501.5,595.7c2.97,5.39,12.9,15.21,17.97,19.41l24.27,16.3c-72.06,16.34-138.93,16.84-211.25,3.29,3.4-7.24,3.98-19.69,6.5-26,2.61-6.52,9.46-12.24,9.75-13,49.91,26.65,102.76,25.81,152.77,0Z" style="fill:#c08576;"/><path d="M364.98,121.14c-5.55,15.75-16.47,27.44-23.34,43.29-11.45,26.4-16,55-18.92,83.47l-51.99,22.74c-6.97-20.29,12.65-56.21,8.41-71.74-.84-3.06-5.05-5.65-5.18-6.25-.73-3.49,11.66-25.45,13-26,2.64-1.08,9.89,1.15,16.14-1.68,15.1-6.83,31.28-31.13,61.86-43.83Z" style="fill:#503838;"/><path d="M569.72,212.15c-27.97-19.63-55.19-47.13-63.38-81.19,29.61,17.22,55.59,47.21,63.38,81.19Z" style="fill:#765151;"/><path d="M602.26,374.67v-56.88c0-3.97,17.47-12.52,19.66,6.34,1.91,16.48,3.44,51.86-19.66,50.54Z" style="fill:#ad6a57;"/><path d="M244.72,312.91v53.63c0,.99,4.5,4.57,3.24,8.1-24.86,6.68-22.67-56.05-16.45-60.32,3.65-2.5,9.04-1.22,13.21-1.42Z" style="fill:#ad6a57;"/><path d="M332.48,634.7c-6.74-1.26-22.66,2.72-25.98-6.46,13.13-1.84,21.07-13.88,32.48-19.54-2.52,6.31-3.1,18.76-6.5,26Z" style="fill:#ad6a57;"/><path d="M571.38,215.4c2.11,1.08,2.11,2.17,0,3.25v-3.25Z" style="fill:#765151;"/><path d="M494.22,433.97c9.56,9.22-8.16,40.83-15.55,49.51-23.32,27.41-64.18,33.54-93.97,12.86-14.26-9.9-49.74-61.11-21.35-66.43,20.8,3.18,120.57-5.88,130.87,4.05ZM465.74,455.93h-81.26c12.84,36.78,67.05,34.98,81.26,0Z" style="fill:#0a0808;"/><path d="M325.98,306.41c17.2-13.14,63.54-9.83,68.19,14.7,1.99,10.51,3.18,50.01-9.52,52.31-26.23,2.53-11.36-42.84-18.31-47.85-13.99-10.08-28.42,9.47-43.61,6.84-.26-.74-7.7-2.35-6.69-11.18.36-3.17,7.55-13,9.94-14.82Z" style="fill:#050505;"/><path d="M529.96,370.64c-4.35,4.47-15.51,4.1-18.98-1.39-9.97-15.79,9.33-48.68-17.4-46.49-7.88.65-36.26,21.64-37.83,1.47-2.38-30.46,73.6-36.58,78.42-.09,1.13,8.54,1.04,41.11-4.21,46.51Z" style="fill:#050505;"/><path d="M456.89,255.25c15.16-16.29,94.8-14.01,92.85,9.94-1.7,20.86-28.68,6.07-43.22,5.34-16.32-.82-34.24,7.48-42.29,6.67-11.3-1.14-14.57-14.17-7.34-21.94Z" style="fill:#0a0808;"/></svg>