<?xml version="1.0" encoding="UTF-8"?><svg id="a" xmlns="http://www.w3.org/2000/svg" viewBox="0 0 841.77 834.58"><path d="M798.34,561.6h-217.9c-11.76,0-166.15-126.44-185.39-144.2-3.09-2.86-8.49-2.9-8.49-3.35v-58.33h169.86l238.42,190.51,3.5,15.37Z" style="fill:#622b1a;"/><path d="M770.89,575.32v226.48h-247.07v-260.79c14.3,5.33,38.94,34.31,53.19,34.31h193.88ZM537.55,652.53c-3.98,24.02,0,69.27,0,96.08,0,.36,4.78,5.15,5.15,5.15h85.79c.36,0,5.15-4.78,5.15-5.15v-96.08c0-16.48-30.99-50.73-49.49-49.71-18.72,1.04-43.7,32.27-46.59,49.71ZM661.09,652.53c-3.98,24.02,0,69.27,0,96.08,0,.36,4.78,5.15,5.15,5.15h85.79c.36,0,5.15-4.78,5.15-5.15v-96.08c0-16.48-30.99-50.73-49.49-49.71-18.72,1.04-43.7,32.27-46.59,49.71Z" style="fill:#8baca1;"/><path d="M510.1,801.8h-123.53v-370.6l123.53,97.8v272.8ZM400.29,652.53c-3.98,24.02,0,69.27,0,96.08,0,.36,4.78,5.15,5.15,5.15h85.79c.36,0,5.15-4.78,5.15-5.15v-96.08c0-16.48-30.99-50.73-49.49-49.71-18.72,1.04-43.7,32.27-46.59,49.71Z" style="fill:#97b7a5;"/><path d="M537.55,652.53c2.89-17.44,27.88-48.67,46.59-49.71,18.5-1.03,49.49,33.23,49.49,49.71v96.08c0,.36-4.78,5.15-5.15,5.15h-85.79c-.36,0-5.15-4.78-5.15-5.15,0-26.81-3.98-72.07,0-96.08ZM593.64,641.76c4.02-3.41,9.32-5.24,12.48-9.82-15.01-18.78-26.08-18.74-41.05,0l18.84,18.87c6.11,1.54,6.72-6.5,9.74-9.05ZM578.74,685.13c1.54-16.69-5.76-37.07-24.01-41.17l-3.47,41.18,27.48-.02ZM616.45,643.96c-18.25,4.09-25.55,24.47-24.01,41.17l27.48.02-3.47-41.18ZM551.22,698.79v41.3h27.57v-41.3h-27.57ZM592.4,698.79v41.3h27.57v-41.3h-27.57Z" style="fill:#030404;"/><path d="M64.01,595.91c-.8-.8-16.96.74-22.13-.2-19.14-3.48-28.67-27.97-16.39-43.48,13.18-19.05,116.24-87.45,120.31-99.28,1.44-4.17,2.04-83.58.77-88.28-.87-3.23-29.1-2.85-27.91-31.19,1.06-25.2,27.02-24.65,27.91-27.9,6.14-22.54-6.56-74.72.48-98.43,5.06-17.05,93.14-86.85,107.33-108.86,2.28-5.01,3.17-36.4,1.8-37.7-1.69-1.6-29.44,5.52-27.62-15.24,1.52-17.35,26.15-10.69,27.62-12.17,1.39-1.39-5.15-33.4,18.12-27,13.93,3.83,7.86,25.58,9.28,27s26.11-5.18,27.62,12.17c1.82,20.76-25.93,13.64-27.62,15.24-1.28,1.21-.52,31.14.73,35.35,5.07,17.05,93.14,86.85,107.33,108.86,8.93,19.66-4.38,78.82,1.56,100.79.75,2.77,14.73,3.6,20.92,10.55,5.42,6.09,6.37,17.95,7.12,18.61,5.41,4.72,125.53-4.17,143.6,2.25,72.93,64.72,164.49,121.13,235.12,186.95,28.62,26.67,33.05,45.57-8.69,60.19l.15,215.69c.92,6.23,43.82-7.26,41.39,17.24-.37,3.73-6.61,12.19-8.73,12.19H17.69c-2.13,0-8.36-8.46-8.73-12.19-2.35-23.7,40.82-13.16,55.06-15.26v-205.89ZM311.08,204.72c-1.36-11.64-38.12-88.09-42.97-89.23l-90.86,89.23h133.83ZM362.55,204.69c-14.56-14.12-32.15-38.38-47.87-49.89-4.66-3.41-7.18-6.37-13.89-4.95,6.93,8.74,20.87,49.22,27.41,53.2,7.6,4.62,25.05.27,34.36,1.64ZM317.94,218.45h-150.98v96.08h150.98v-96.08ZM372.84,218.45h-41.18v96.08h41.18v-96.08ZM144.65,328.26c-7.62,3.08-4.47,13.73,0,13.73h195.59c5.92,0,5.91-13.73,0-13.73h-195.59ZM359.1,341.97c1.54,1.62,43.66,3.29,41.18-8.51-1.47-7.01-39.71-6.72-41.18-5.18-.47.5-.47,13.2,0,13.7ZM317.94,355.71h-150.98v446.09h27.45v-149.27c0-1,8.39-14.73,10.3-17.16,17.04-21.67,44.92-25.85,66.89-8.56,4.74,3.73,18.89,21.42,18.89,25.72v149.27h27.45v-446.09ZM372.84,355.71h-41.18v446.09h41.18v-446.09ZM798.34,561.6l-3.5-15.37-238.42-190.51h-169.86v58.33c0,.46,5.39.5,8.49,3.35,19.23,17.76,173.63,144.2,185.39,144.2h217.9ZM510.1,801.8v-272.8l-123.53-97.8v370.6h123.53ZM146.37,602.77c2.04-.71,7.04,2.06,6.99-2.01l-.17-124.95-67.84,52.19c-1.65,20.24-.5,40.76-.75,61.05-.88,70.84.65,141.9,0,212.75h68.63v-48.04h-49.76c-3.76,0-4.92-8.38-5.32-11.84-2.14-18.25-1.96-74.04,1.69-91.3,5.09-23.99,24.93-40.3,46.52-47.84ZM770.89,575.32h-193.88c-14.25,0-38.89-28.99-53.19-34.31v260.79h247.07v-226.48ZM70.86,544.46c-2.35-2.75-65.97,37.46.03,30.88l-.03-30.88ZM138.31,641.76c2.91,2.48,9.7,18.12,14.34,3.36,9.22-29.35-9.6-37.14-26.82-13.18,3.15,4.58,8.46,6.41,12.47,9.82ZM245.81,664.51c1.23-1.03,14.51-26.37,13.76-28.97-2.86-9.87-57.3-13.93-20.84,26.84,2.32,2.6,5.17,3.73,7.08,2.12ZM139.52,685.14c3.01-17.22-6.23-36.89-24-41.18l-3.48,41.18h27.49ZM228.72,671.37c-10.88-22.29-22.03-37.03-20.6.05l20.6-.05ZM276.78,671.42c1.43-37.08-9.73-22.34-20.6-.05l20.6.05ZM276.76,685.13h-68.63v116.67h68.63v-116.67ZM111.99,698.79v41.3h27.57v-41.3h-27.57Z" style="fill:#020202;"/><path d="M317.94,355.71v446.09h-27.45v-149.27c0-4.3-14.15-21.99-18.89-25.72-21.97-17.29-49.86-13.11-66.89,8.56-1.91,2.42-10.3,16.16-10.3,17.16v149.27h-27.45v-446.09h150.98ZM194.41,432.92c-3.98,24.02,0,69.27,0,96.08,0,.36,4.78,5.15,5.15,5.15h85.79c.36,0,5.15-4.78,5.15-5.15v-96.08c0-16.48-30.99-50.73-49.49-49.71-18.72,1.04-43.7,32.27-46.59,49.71Z" style="fill:#e5f0d9;"/><rect x="331.66" y="355.71" width="41.18" height="446.09" style="fill:#b0ccb3;"/><path d="M317.94,218.45v96.08h-150.98v-96.08h150.98ZM199.55,300.8c10.97,3.43,68.79,0,85.79,0,19.57,0-9.17-70.52-44.34-68.58-28.7,1.59-62.38,62.03-41.45,68.58Z" style="fill:#e5f0d9;"/><rect x="208.13" y="685.13" width="68.63" height="116.67" style="fill:#622b1a;"/><path d="M84.6,589.05c18.75.94,37.99-1.3,56.73-.03,9.77.66,3.58,8.49,5.04,13.75-21.59,7.54-41.44,23.85-46.52,47.84-3.66,17.26-3.84,73.06-1.69,91.3.41,3.46,1.56,11.84,5.32,11.84h49.76v48.04h-68.63c.65-70.85-.88-141.91,0-212.75Z" style="fill:#e5f0d9;"/><path d="M311.08,204.72h-133.83l90.86-89.23c4.84,1.14,41.61,77.59,42.97,89.23Z" style="fill:#9b6141;"/><path d="M84.6,589.05c.25-20.29-.9-40.81.75-61.05l67.84-52.19.17,124.95c.05,4.07-4.96,1.3-6.99,2.01-1.46-5.27,4.74-13.09-5.04-13.75-18.73-1.27-37.98.97-56.73.03Z" style="fill:#b0ccb3;"/><rect x="331.66" y="218.45" width="41.18" height="96.08" style="fill:#b0ccb3;"/><path d="M144.65,328.26h195.59c5.91,0,5.92,13.73,0,13.73h-195.59c-4.47,0-7.62-10.64,0-13.73Z" style="fill:#9b6141;"/><path d="M362.55,204.69c-9.3-1.37-26.76,2.98-34.36-1.64-6.54-3.98-20.48-44.45-27.41-53.2,6.71-1.43,9.23,1.53,13.89,4.95,15.72,11.51,33.31,35.77,47.87,49.89Z" style="fill:#622b1a;"/><rect x="111.99" y="698.79" width="27.57" height="41.3" style="fill:#9cb6e3;"/><path d="M139.52,685.14h-27.49s3.48-41.18,3.48-41.18c17.77,4.28,27.01,23.95,24,41.18Z" style="fill:#9cb6e3;"/><path d="M245.81,664.51c-1.91,1.61-4.76.47-7.08-2.12-36.46-40.77,17.98-36.71,20.84-26.84.75,2.6-12.53,27.93-13.76,28.97Z" style="fill:#9cb6e3;"/><path d="M70.86,544.46l.03,30.88c-66.01,6.57-2.38-33.63-.03-30.88Z" style="fill:#622b1a;"/><path d="M138.31,641.76c-4.01-3.41-9.32-5.24-12.47-9.82,17.22-23.97,36.04-16.18,26.82,13.18-4.64,14.77-11.43-.88-14.34-3.36Z" style="fill:#9cb6e3;"/><path d="M359.1,341.97c-.47-.5-.47-13.2,0-13.7,1.46-1.53,39.7-1.83,41.18,5.18,2.48,11.8-39.63,10.13-41.18,8.51Z" style="fill:#622b1a;"/><path d="M228.72,671.37l-20.6.05c-1.43-37.08,9.73-22.34,20.6-.05Z" style="fill:#9cb6e3;"/><path d="M276.78,671.42l-20.6-.05c10.88-22.29,22.03-37.03,20.6.05Z" style="fill:#9cb6e3;"/><path d="M199.55,300.8c-20.94-6.55,12.74-67,41.45-68.58,35.17-1.94,63.91,68.58,44.34,68.58-16.99,0-74.81,3.43-85.79,0ZM276.76,287.08c-16.01-51.19-52.55-51.32-68.63,0h68.63Z" style="fill:#030404;"/><path d="M276.76,287.08h-68.63c16.08-51.32,52.62-51.19,68.63,0Z" style="fill:#9cb6e3;"/><path d="M194.41,432.92c2.89-17.44,27.88-48.67,46.59-49.71,18.5-1.03,49.49,33.23,49.49,49.71v96.08c0,.36-4.78,5.15-5.15,5.15h-85.79c-.36,0-5.15-4.78-5.15-5.15,0-26.81-3.98-72.07,0-96.08ZM245.81,431.18c1.64-1.41,7.53-16.85,17.16-18.85-14.96-18.69-25.97-18.86-41.05,0,2.91,4.16,8.83,5.35,12.1,8.56s5.91,15.35,11.79,10.29ZM235.6,465.51c1.11-16.13-4.68-38.57-24-37.73l-3.49,37.75,27.48-.02ZM273.29,427.78c-19.31-.84-25.1,21.6-24,37.73l27.48.02-3.49-37.75ZM208.07,479.18v41.3h27.57v-41.3h-27.57ZM249.25,479.18v41.3h27.57v-41.3h-27.57Z" style="fill:#030404;"/><rect x="249.25" y="479.18" width="27.57" height="41.3" style="fill:#9cb6e3;"/><rect x="208.07" y="479.18" width="27.57" height="41.3" style="fill:#9cb6e3;"/><path d="M235.6,465.51l-27.48.02,3.49-37.75c19.31-.84,25.1,21.6,24,37.73Z" style="fill:#9cb6e3;"/><path d="M273.29,427.78l3.49,37.75-27.48-.02c-1.11-16.13,4.68-38.57,24-37.73Z" style="fill:#9cb6e3;"/><path d="M245.81,431.18c-5.88,5.06-8.44-7.01-11.79-10.29s-9.19-4.4-12.1-8.56c15.08-18.86,26.09-18.69,41.05,0-9.63,2-15.52,17.43-17.16,18.85Z" style="fill:#9cb6e3;"/><path d="M661.09,652.53c2.89-17.44,27.88-48.67,46.59-49.71,18.5-1.03,49.49,33.23,49.49,49.71v96.08c0,.36-4.78,5.15-5.15,5.15h-85.79c-.36,0-5.15-4.78-5.15-5.15,0-26.81-3.98-72.07,0-96.08ZM717.18,641.76c4.02-3.41,9.32-5.24,12.48-9.82-15.01-18.78-26.08-18.74-41.05,0l18.84,18.87c6.11,1.54,6.72-6.5,9.74-9.05ZM702.28,685.13c1.54-16.69-5.76-37.07-24.01-41.17l-3.47,41.18,27.48-.02ZM739.99,643.96c-18.25,4.09-25.55,24.47-24.01,41.17l27.48.02-3.47-41.18ZM674.75,698.79v41.3h27.57v-41.3h-27.57ZM743.5,698.79h-27.57v41.3h27.57v-41.3Z" style="fill:#030404;"/><rect x="674.75" y="698.79" width="27.57" height="41.3" style="fill:#9cb6e3;"/><rect x="715.93" y="698.79" width="27.57" height="41.3" style="fill:#9cb6e3;"/><path d="M702.28,685.13l-27.48.02,3.47-41.18c18.25,4.09,25.55,24.47,24.01,41.17Z" style="fill:#9cb6e3;"/><path d="M739.99,643.96l3.47,41.18-27.48-.02c-1.54-16.69,5.76-37.07,24.01-41.17Z" style="fill:#9cb6e3;"/><path d="M717.18,641.76c-3.01,2.55-3.62,10.59-9.74,9.05l-18.84-18.87c14.98-18.74,26.05-18.78,41.05,0-3.15,4.57-8.45,6.41-12.48,9.82Z" style="fill:#9cb6e3;"/><rect x="592.4" y="698.79" width="27.57" height="41.3" style="fill:#9cb6e3;"/><rect x="551.22" y="698.79" width="27.57" height="41.3" style="fill:#9cb6e3;"/><path d="M578.74,685.13l-27.48.02,3.47-41.18c18.25,4.09,25.55,24.47,24.01,41.17Z" style="fill:#9cb6e3;"/><path d="M616.45,643.96l3.47,41.18-27.48-.02c-1.54-16.69,5.76-37.07,24.01-41.17Z" style="fill:#9cb6e3;"/><path d="M593.64,641.76c-3.01,2.55-3.62,10.59-9.74,9.05l-18.84-18.87c14.98-18.74,26.05-18.78,41.05,0-3.15,4.57-8.45,6.41-12.48,9.82Z" style="fill:#9cb6e3;"/><path d="M400.29,652.53c2.89-17.44,27.88-48.67,46.59-49.71,18.5-1.03,49.49,33.23,49.49,49.71v96.08c0,.36-4.78,5.15-5.15,5.15h-85.79c-.36,0-5.15-4.78-5.15-5.15,0-26.81-3.98-72.07,0-96.08ZM456.39,641.76c4.02-3.41,9.32-5.24,12.48-9.82-15.01-18.78-26.08-18.74-41.05,0l18.84,18.87c6.11,1.54,6.72-6.5,9.74-9.05ZM441.48,685.13c1.54-16.69-5.76-37.07-24.01-41.17l-3.47,41.18,27.48-.02ZM479.19,643.96c-18.25,4.09-25.55,24.47-24.01,41.17l27.48.02-3.47-41.18ZM413.96,698.79v41.3h27.57v-41.3h-27.57ZM455.14,698.79v41.3h27.57v-41.3h-27.57Z" style="fill:#030404;"/><rect x="413.96" y="698.79" width="27.57" height="41.3" style="fill:#9cb6e3;"/><rect x="455.14" y="698.79" width="27.57" height="41.3" style="fill:#9cb6e3;"/><path d="M441.48,685.13l-27.48.02,3.47-41.18c18.25,4.09,25.55,24.47,24.01,41.17Z" style="fill:#9cb6e3;"/><path d="M479.19,643.96l3.47,41.18-27.48-.02c-1.54-16.69,5.76-37.07,24.01-41.17Z" style="fill:#9cb6e3;"/><path d="M456.39,641.76c-3.01,2.55-3.62,10.59-9.74,9.05l-18.84-18.87c14.98-18.74,26.05-18.78,41.05,0-3.15,4.57-8.45,6.41-12.48,9.82Z" style="fill:#9cb6e3;"/></svg>