<?xml version="1.0" encoding="UTF-8"?><svg id="a" xmlns="http://www.w3.org/2000/svg" viewBox="0 0 841.77 834.58"><path d="M102.84,408.86c.36-.78,6.61-1.72,8.53-3.86,8.48-9.44,1.95-45.25,4.04-58.88,2.93-1.35,9.4,2.78,9.4,4.69v293.39l-9.4.02-.22-189.65c-2.29-14.63-11.53-13.09-12.35-14.33-.86-1.31-.65-29.95,0-31.38Z" style="fill:#d2ecf1;"/><path d="M187.57,468.48v313.79h-47.07l26.48-15.88c3.82-3.92,4.34-8.74,4.95-13.87,1.84-15.42,2.32-76.74-.73-90.39-3.4-15.25-20.59-16.57-21.43-20.02l.21-150.02c2.07-10.98,25.73-25.65,37.57-23.61Z" style="fill:#d2ecf1;"/><path d="M112.26,754.03v-87.86c8.01-.47,22.66-1.29,29.81.01,17.58,3.21,1.19,18.57,1.22,26.66.02,7.42,7.46,11.8,6.75,18.58-.53,5.04-6.73,8.87-6.75,15.93-.02,7.25,14.61,21.92,1.44,26.19-5.88,1.91-24.86.92-32.47.48Z" style="fill:#faddb4;"/><path d="M112.26,666.17v87.86c-5.98-.35-15.89,2.34-18.4-5.14-1.9-5.65-1.68-63.08-.58-71.89,1.8-14.46,7.21-10.14,18.98-10.83Z" style="fill:#efbe81;"/><path d="M410.36,590.86c23.11,4.8,17.3-26.3,22.51-30.84,3.6-3.14,30.83-.68,30.83-20.93v-70.6h21.97v54.91c0,4.35,12.84,14.45,15.3,19.22,6.27,12.15,5.93,80.39-1.33,92.03-14.6,23.4-49.31,9.37-48.63,45.48.67,35.65,31.87,78.41,56.62,102.15H209.53v-312.22c0-.33,4.37-4.71,4.71-4.71h51.78v76.88c0,13.57,26.28,14.77,30.86,22.49,16.93,50.85,29.65,103.3,46.75,154.07,2.54,7.54,7.2,27.5,13.34,30.6,10.57,5.34,17.89.61,22.21-9.28,6.08-13.91,30.16-91.37,31.15-104.14.58-7.46-1.65-11.51-6.24-16.86,1.16-.86,7.14-24.11,6.28-28.24Z" style="fill:#00caa3;"/><path d="M316.22,408.86c-78.1-47.47-57.46-135.71-59.62-213.38,34.55-.98,103.49,6.94,130.88-8.76,5.06-2.9,13.3-12.62,15.46-13,3.52-.62,27.37,21.76,37.23,21.76h50.21c3.44,0,4.5,7.66,4.87,10.82,3.43,29.27,1.91,104.03-7.13,131.25-24.24,72.96-104.67,90.26-171.89,71.3ZM285.6,218.24c-6.34,6.42-6.02,39.74,2.31,44.81,29.05,17.71,24.04-71.48-2.31-44.81ZM444.42,260.89c2.6-4.08,1.55-39.07-3.98-43.73-20.53-17.32-24.79,43.27-9.04,46.91,2.82.65,11.97-1.54,13.02-3.17ZM363.27,277.09c-4.77-4.5,11.49-55.76-15.84-48.96-14.34,3.57-11.48,57.72-1.58,67.95,8.7,8.98,41.25,10.89,42.68-5.05,1.69-18.98-23.68-12.45-25.26-13.94ZM315.06,321.37c-12.09,4.04-2.67,28.66,2.95,37.06,21.76,32.52,72.01,32.44,93.7,0,9.22-13.79,15.8-45.53-8.78-37.07-7.23,2.49-6.81,21.86-14.68,29.3-11.95,11.3-37.06,10.75-48.31-1.6-9.78-10.73-4.01-34.67-24.87-27.69Z" style="fill:#faddb4;"/><path d="M523.32,223.73c-3.86,5.11-5.69-.06-6.28-4.65-1.69-13.1,5.65-37.23-9.48-43.91-19.69-8.69-47.8,6.52-76.3-11.56-14.22-9.02-18.69-26.87-39.59-13.45-16,10.27-13.61,19.92-39.71,23.02-40.19,4.77-86.74-3.39-127.64,1.01-18.54,8.54-9.59,28.92-11.64,44.89-.74,5.72,1.08,5.07-6.28,4.65v-98.84c0-29.21,35.54-69.08,62.85-78.36,25.11-8.53,137.24-7.74,167.92-4.93,41.68,3.81,86.16,46.92,86.16,89.56v92.57Z" style="fill:#373737;"/><path d="M410.36,590.86c.87,4.13-5.11,27.38-6.28,28.24-3.13,2.31-10.14-2.27-16.37,10.31l-24.38,74.39-47.12-156.83c22.18-12.93,35.83,3.31,57.9-.21,10.78-1.72,17.18-11.06,31.02-2.43,13.68,8.53-2.04,24.09-1.02,35.45.46,5.12,5.73,8.58,6.25,11.08ZM376,574.14c0-6.41-5.2-11.61-11.61-11.61s-11.61,5.2-11.61,11.61,5.2,11.61,11.61,11.61,11.61-5.2,11.61-11.61ZM376.59,631.61c0-6.49-5.26-11.74-11.74-11.74s-11.74,5.26-11.74,11.74,5.26,11.74,11.74,11.74,11.74-5.26,11.74-11.74Z" style="fill:#d2ecf1;"/><path d="M256.6,195.48c2.16,77.66-18.48,165.91,59.62,213.38-101.19-28.54-80.21-131.01-81.6-213.39,7.3-.15,14.68.22,21.98.02Z" style="fill:#efbe81;"/><path d="M438.6,481.03v50.21c-6.92.32-30.3-7.68-33.18-12.53-1.81-3.05,3.78-19.85-1.47-26.51l34.65-11.17Z" style="fill:#965528;"/><path d="M212.67,248.83v59.62c-22.42,2.69-25.03-11-25.28-29.83-.28-20.82,1.17-32.36,25.28-29.79Z" style="fill:#faddb4;"/><path d="M291.12,481.03c1.74-1.84,26.41,6.77,29.44,9.08,2.95,2.26,3.1,28.84,1.52,31.28-.89,1.36-26.19,9.81-30.96,9.84v-50.21Z" style="fill:#965528;"/><path d="M429.17,430.82c9.27,30.46-26.34,43.62-50.18,37.63-1.96-2.61,19.78-29.13,23.43-31.43,7.37-4.65,18.14-5.95,26.74-6.2Z" style="fill:#d2ecf1;"/><path d="M517.04,308.45v-59.62c16.41-1.08,20.59,1,22.15,17.08,1.88,19.43,4.58,47.84-22.15,42.54Z" style="fill:#faddb4;"/><path d="M350.72,468.45c-5.94,8.19-48.11-7.76-49.83-9.73-2.2-2.51.77-22.25-.35-27.88l26.87,6.05,23.31,31.56Z" style="fill:#d2ecf1;"/><path d="M363.34,524.32c-6.25-13.73-8.61-22.62,0-36.35,6.85-.57,13.45,2.76,17.05,8.62,3.6,5.86,3.6,13.25,0,19.1-3.6,5.86-10.19,9.19-17.05,8.62Z" style="fill:#efbe81;"/><path d="M363.34,524.32c-9.45-.79-16.72-8.69-16.72-18.17,0-9.48,7.27-17.38,16.72-18.17-8.61,13.72-6.26,22.62,0,36.35Z" style="fill:#b0774c;"/><path d="M315.06,321.37c20.87-6.98,15.1,16.96,24.87,27.69,11.25,12.35,36.36,12.9,48.31,1.6,7.87-7.44,7.45-26.81,14.68-29.3,24.58-8.46,18,23.28,8.78,37.07-21.69,32.44-71.94,32.52-93.7,0-5.62-8.4-15.04-33.02-2.95-37.06Z" style="fill:#050505;"/><path d="M363.27,277.09c1.58,1.49,26.95-5.04,25.26,13.94-1.42,15.94-33.98,14.04-42.68,5.05-9.9-10.23-12.76-64.38,1.58-67.95,27.32-6.8,11.07,44.46,15.84,48.96Z" style="fill:#050505;"/><path d="M285.6,218.24c26.36-26.67,31.36,62.52,2.31,44.81-8.33-5.08-8.66-38.4-2.31-44.81Z" style="fill:#050505;"/><path d="M444.42,260.89c-1.04,1.64-10.2,3.82-13.02,3.17-15.75-3.63-11.49-64.22,9.04-46.91,5.53,4.66,6.58,39.65,3.98,43.73Z" style="fill:#050505;"/><circle cx="364.85" cy="631.61" r="11.74" style="fill:#050505;"/><circle cx="364.38" cy="574.14" r="11.61" style="fill:#050505;"/><path d="M102.84,408.86c-7.06-.55-11.13-3.99-12.48-11.07-1.81-9.51-1.8-103.91,1.3-108.35,3.54-5.06,14.72-3.84,19.34-.12,6.45,5.19,2.93,14.99,6.01,22.21,2.62,6.13,32.89,30.1,32.89,33v111.39c5.95-1.97,25.64-12.55,29.81-12.55h98.84c6.26-29.76-11.06-28.39-26.82-43.78-12.27-11.98-23.85-31.72-31.18-47.26-2.11-4.46-4.44-17.76-5.18-18.38-5.38-4.5-29.39,3.03-42.99-18.2-9.55-14.9-10.33-57.77-1.87-72.98,2.95-5.31,9.18-6.63,10.69-14.42,13.09-67.82-24-142.49,55.53-192.36,40.31-25.28,157.57-24.72,206.21-19.05,47.47,5.54,87.97,45.84,100.73,90.65,4.27-5.85,10.35-6.84,17.28-6.29-6.07-9.98-16.64-14.13-18.65-26.82-1.4-8.81-2.04-44.21,5.05-48.71,15.1-9.59,104.34.77,127.53-2.28,17.46,5.24,13.72,50.31,4.85,63.26-5.43,7.93-13.43,6.18-12.11,14.56,15.6-4.39,22.38,13.76,10.77,21.76-5.75,3.96-15.78.54-17.02,6.47,11.93-.32,24.51,2.68,22.1,17.22-2.25,13.6-19.9,5.73-22.14,7.9-1.75,1.7-3.32,42.45-3.27,48.8.12,16.38,6.16,34.26,3.27,51.64,20.24.68,50.4-6.77,58.24,18.64,2.96,9.6,3.28,81.37,1.24,92.58-1.72,9.45-11.6,20.34-21.8,20.6-2.17,3.05,21.47,28.33,25.7,35.44,14.49,24.3,25.42,72.54,16.82,99.62-2.36,7.42-11.14,12.22-14.94,19.58-5.66,10.97-2.79,28.96-18.18,30.46-1.63-3.42-12.96,3.09-9.47-23.62,2.43-18.55,15.7-23.45,18.25-31.93,2.51-8.36,1.24-38.87-.19-48.76-3.56-24.68-23.85-54.08-46.22-65.14l6.15,127.01c-3.38,17.76-24.59,12.82-25.11,15.96-5.03,30.37,3.97,73.92.03,105.86,28.54,17.26,3.2,21.58.56,29.36-1.69,4.97-1.48,25.14,1.09,29.31,1.57,2.54,10.97,6.03,10.97,7.86v59.62c0,.94-4.36,4.38-3.13,7.82,47.39-11.18,86.25-61.58,89.72-109.94-29.28-3.24-62.15-35.24-51.64-67.01,1.71-5.16,8.68-4.6,8.97-5.03,16.9-1.9,10.83,12.18,14.03,22.06,12.73,39.36,59.04,7.36,51.05,66.56-13.05,96.75-139.83,157.24-226.59,115.25l-416.76-.58c-19.23-4.41-13.13-25.88-14.81-27.55-1.82-1.82-34.91,3.42-44.14-20.19-4.78-12.22-4.79-75.92-2.17-90.48,3.38-18.83,19.46-19.61,21.25-28.96,3.89-59.84-5.3-126.15-.02-185.19.77-8.66,1.36-16.66,12.55-14.09.82,1.24,10.05-.3,12.35,14.33l.22,189.65,9.4-.02v-293.39c0-1.91-6.47-6.04-9.4-4.69-2.09,13.64,4.45,49.44-4.04,58.88-1.92,2.14-8.18,3.08-8.53,3.86ZM523.32,223.73v-92.57c0-42.64-44.48-85.75-86.16-89.56-30.67-2.81-142.8-3.6-167.92,4.93-27.31,9.27-62.85,49.15-62.85,78.36v98.84c7.36.42,5.54,1.07,6.28-4.65,2.06-15.97-6.9-36.35,11.64-44.89,40.9-4.4,87.45,3.76,127.64-1.01,26.1-3.1,23.71-12.75,39.71-23.02,20.9-13.41,25.37,4.44,39.59,13.45,28.5,18.07,56.61,2.86,76.3,11.56,15.13,6.68,7.79,30.81,9.48,43.91.59,4.59,2.42,9.76,6.28,4.65ZM586.08,48c-7.3.21-14.68-.18-21.98-.01-8.81,25.17,20.56,32.06,24.46,49.31,2.5,11.08-1.65,61.47.64,63.68,6.05.58,13.01-.84,18.85-.02,4.59.64,31.38,8.29,31.38-1.57v-65.9c0-2.2,18.22-15.75,20.34-20.45,3.51-7.78,1.07-16.95,1.64-25.06-25.04.55-50.3-.71-75.32.01ZM564.14,123.32l-18.82-3.15-.05,12.54h18.86s0-9.39,0-9.39ZM560.98,251.97c.8,5.01-1.79,34.58,1.57,34.55,3.54-11.22,4.12-22.84,4.71-34.55.91-18.15,3.78-44.67,3.41-61.18-.28-12.49-8.41-23.18-6.56-36.09h-18.81s0,73.73,0,73.73c0,1.41,13.99,12.87,15.69,23.53ZM256.6,195.48c-7.3.21-14.68-.17-21.98-.02,1.39,82.38-19.59,184.85,81.6,213.39,67.22,18.96,147.65,1.66,171.89-71.3,9.04-27.22,10.57-101.98,7.13-131.25-.37-3.16-1.43-10.82-4.87-10.82h-50.21c-9.86,0-33.71-22.38-37.23-21.76-2.15.38-10.4,10.1-15.46,13-27.39,15.7-96.32,7.78-130.88,8.76ZM614.32,186.07h-3.14v332.62h3.14V186.07ZM212.67,248.83c-24.11-2.56-25.55,8.97-25.28,29.79.25,18.83,2.86,32.52,25.28,29.83v-59.62ZM517.04,308.45c26.73,5.3,24.03-23.11,22.15-42.54-1.56-16.08-5.74-18.15-22.15-17.08v59.62ZM661.39,277.07c-6.26.23-12.59-.2-18.84,0,2.43,29.76,2.43,58.12,0,87.88,6.25.19,12.59-.25,18.84,0,7.78.3,32.93,1.87,36.28-2.94,3.05-4.37,2.45-77.64-1.42-83.1-10.25-3.3-24-2.23-34.87-1.83ZM589.22,517.12v-218.08l-6.24,36.12c-.9,62.36-7.13,124.52-9.43,186.68,4.82.53,14.12.37,15.68-4.72ZM560.98,363.36c2.31-15.53-1.69-35.64,0-51.78-6.53,5.73-12.78,14.85-21.83,17.39-7.66,2.15-22.01.11-24.81,1.86-1.98,1.24-12.16,33.94-17.94,43.25-3.24,5.21-6.73,9.75-10.65,14.45-16.11,19.32-41.57,25.4-34.6,54.85,10.14-1.8,33.01,3.21,40.85-1.54,1.76-1.07,15.06-26.56,20.32-33.02,4.77-5.86,13.09-13.63,18.93-18.72,9.81-8.56,27.69-12.97,29.74-26.74ZM639.42,390.03v128.65c0,.63,10.3-.42,12.54.01-2.18-40.95-1.44-83.21-6.24-124.03-.56-4.72-2.57-9.56-6.29-4.64ZM495.08,669.3c-10.94,5.66-20.1-.58-18.71,16.91,2.58,32.46,50.09,94.48,83.06,99.22,7.91,1.14,5.01-19.08,4.69-25.13-.73-13.56-5.37-23.17-2.32-38.55,2.61-13.18,10.81-6.28,11.94-10.28.69-2.46.58-30.67-.15-33.68-1.28-5.27-26.83-8.56-.02-26.41-3.87-31.94,5.07-75.45.06-105.82-.49-3-22.08,1.82-24.62-16.54l8.81-126.42c-36.89,13.99-57.07,72.02-50.13,108.18,1.67,8.68,18.18,20.68,21.16,38.46,2.58,15.41,2.54,55.55.76,71.43-2.52,22.38-15.23,38.64-34.53,48.63ZM350.72,468.45l-23.31-31.56-26.87-6.05c1.12,5.63-1.86,25.37.35,27.88,1.72,1.96,43.89,17.92,49.83,9.73ZM429.17,430.82c-8.6.25-19.37,1.55-26.74,6.2-3.65,2.3-25.39,28.82-23.43,31.43,23.84,5.99,59.45-7.17,50.18-37.63ZM404.08,619.1c4.59,5.36,6.82,9.41,6.24,16.86-1,12.77-25.08,90.23-31.15,104.14-4.32,9.89-11.64,14.62-22.21,9.28-6.14-3.1-10.8-23.06-13.34-30.6-17.11-50.77-29.83-103.22-46.75-154.07-4.57-7.72-30.86-8.92-30.86-22.49v-76.88h-51.78c-.33,0-4.71,4.37-4.71,4.71v312.22h298.1c-24.75-23.75-55.95-66.5-56.62-102.15-.68-36.1,34.03-22.08,48.63-45.48,7.26-11.64,7.6-79.88,1.33-92.03-2.46-4.76-15.3-14.87-15.3-19.22v-54.91h-21.97v70.6c0,20.25-27.24,17.8-30.83,20.93-5.21,4.54.59,35.64-22.51,30.84-.53-2.5-5.8-5.97-6.25-11.08-1.02-11.37,14.71-26.92,1.02-35.45-13.84-8.63-20.24.71-31.02,2.43-22.06,3.52-35.72-12.72-57.9.21l47.12,156.83,24.38-74.39c6.23-12.58,13.24-7.99,16.37-10.31ZM187.57,468.48c-11.84-2.03-35.5,12.63-37.57,23.61l-.21,150.02c.84,3.45,18.03,4.77,21.43,20.02,3.04,13.64,2.56,74.96.73,90.39-.61,5.13-1.13,9.95-4.95,13.87l-26.48,15.88h47.07v-313.79ZM291.12,481.03v50.21c4.77-.03,30.07-8.48,30.96-9.84,1.59-2.44,1.44-29.02-1.52-31.28-3.03-2.31-27.7-10.93-29.44-9.08ZM438.6,481.03l-34.65,11.17c5.25,6.66-.34,23.46,1.47,26.51,2.88,4.85,26.27,12.85,33.18,12.53v-50.21ZM363.34,524.32c6.85.57,13.45-2.76,17.05-8.62,3.6-5.86,3.6-13.25,0-19.1-3.6-5.86-10.19-9.19-17.05-8.62-9.45.79-16.72,8.69-16.72,18.17,0,9.48,7.27,17.39,16.72,18.17ZM601.77,543.79h-3.14v109.83h3.14v-109.83ZM630.01,543.79h-6.28v109.83h6.28v-109.83ZM112.26,754.03c7.61.44,26.59,1.43,32.47-.48,13.17-4.28-1.46-18.94-1.44-26.19.02-7.06,6.22-10.89,6.75-15.93.71-6.79-6.73-11.16-6.75-18.58-.02-8.09,16.36-23.46-1.22-26.66-7.15-1.3-21.8-.48-29.81-.01-11.76.69-17.18-3.63-18.98,10.83-1.1,8.8-1.31,66.23.58,71.89,2.51,7.48,12.42,4.8,18.4,5.14ZM623.73,675.56v37.69s6.29,0,6.29,0v-37.69s-6.29,0-6.29,0ZM639.42,735.2h-53.34l3.14,59.62h45.5c.33,0,4.71-4.37,4.71-4.71v-54.91Z" style="fill:#050505;"/><path d="M495.08,669.3c19.3-9.99,32-26.24,34.53-48.63,1.79-15.88,1.82-56.03-.76-71.43-2.98-17.79-19.49-29.79-21.16-38.46-6.94-36.16,13.23-94.19,50.13-108.18l-8.81,126.42c2.54,18.36,24.12,13.54,24.62,16.54,5.01,30.38-3.93,73.89-.06,105.82-26.81,17.85-1.25,21.14.02,26.41.73,3.01.84,31.22.15,33.68-1.13,4.01-9.33-2.9-11.94,10.28-3.05,15.38,1.58,24.99,2.32,38.55-34.34-14.3-64.67-53.47-69.03-91Z" style="fill:#b0774c;"/><path d="M564.11,760.3c.33,6.05,3.22,26.27-4.69,25.13-32.97-4.74-80.47-66.77-83.06-99.22-1.39-17.49,7.77-11.24,18.71-16.91,4.37,37.53,34.69,76.7,69.03,91Z" style="fill:#965528;"/><polygon points="564.14 123.32 564.13 132.71 545.27 132.71 545.32 120.18 564.14 123.32" style="fill:#faddb4;"/><path d="M708.46,603.41c-.29.43-7.27-.13-8.97,5.03-10.51,31.77,22.36,63.77,51.64,67.01-3.47,48.36-42.33,98.75-89.72,109.94-1.23-3.44,3.13-6.89,3.13-7.82v-59.62c0-1.84-9.4-5.32-10.97-7.86-2.57-4.17-2.79-24.34-1.09-29.31,2.65-7.78,27.98-12.1-.56-29.36,3.94-31.94-5.06-75.49-.03-105.86.52-3.14,21.73,1.8,25.11-15.96l-6.15-127.01c22.37,11.07,42.66,40.46,46.22,65.14,1.43,9.88,2.69,40.39.19,48.76-2.54,8.48-15.82,13.38-18.25,31.93-3.49,26.7,7.83,20.19,9.47,23.62.68,1.42.88,30.08,0,31.38Z" style="fill:#b0774c;"/><path d="M586.08,48c25.02-.72,50.29.54,75.32-.01-.57,8.12,1.87,17.28-1.64,25.06-2.12,4.7-20.34,18.25-20.34,20.45v65.9c0,9.86-26.79,2.21-31.38,1.57-2.32-18.36,3.24-43.85-.07-61.12-1.45-7.58-10.96-13.24-15.62-20.47,85.86,10.27,56.89-45.33-6.28-18.83-.19-4.17.13-8.38,0-12.55Z" style="fill:#b0774c;"/><path d="M661.39,277.07c10.87-.41,24.62-1.48,34.87,1.83,3.87,5.45,4.46,78.73,1.42,83.1-3.35,4.81-28.51,3.24-36.28,2.94-4.04-9.1,5.13-21.65,5.13-26.67,0-4.19-6.07-10.03-5.47-18.85.45-6.68,6.4-11.33,6.05-15.13-.54-5.94-9.86-17.11-5.71-27.21Z" style="fill:#faddb4;"/><path d="M639.42,735.2v54.91c0,.33-4.37,4.71-4.71,4.71h-45.5l-3.14-59.62h53.34Z" style="fill:#68696c;"/><path d="M586.08,48c.13,4.17-.19,8.38,0,12.55.46,10.3.95,10.57,6.28,18.83,4.66,7.22,14.16,12.88,15.62,20.47,3.31,17.27-2.25,42.75.07,61.12-5.84-.82-12.79.6-18.85.02-2.29-2.21,1.86-52.6-.64-63.68-3.9-17.25-33.27-24.14-24.46-49.31,7.3-.17,14.68.22,21.98.01Z" style="fill:#965528;"/><path d="M589.22,517.12c-1.56,5.09-10.85,5.25-15.68,4.72,2.3-62.17,8.53-124.32,9.43-186.68l6.24-36.12v218.08Z" style="fill:#68696c;"/><path d="M661.39,277.07c-4.15,10.1,5.17,21.27,5.71,27.21.34,3.8-5.6,8.45-6.05,15.13-.6,8.82,5.47,14.66,5.47,18.85,0,5.02-9.16,17.57-5.13,26.67-6.26-.24-12.59.2-18.84,0,2.43-29.76,2.43-58.12,0-87.88,6.25-.19,12.59.24,18.84,0Z" style="fill:#efbe81;"/><path d="M639.42,390.03c3.72-4.92,5.74-.08,6.29,4.64,4.8,40.82,4.06,83.08,6.24,124.03-2.24-.43-12.54.61-12.54-.01v-128.65Z" style="fill:#68696c;"/><rect x="611.18" y="186.07" width="3.14" height="332.62" style="fill:#68696c;"/><rect x="623.73" y="543.79" width="6.28" height="109.83" style="fill:#965528;"/><rect x="598.63" y="543.79" width="3.14" height="109.83" style="fill:#b0774c;"/><rect x="608.03" y="691.26" width="37.69" height="6.3" transform="translate(-67.72 1321.07) rotate(-89.98)" style="fill:#965528;"/><path d="M567.25,251.97c-.59,11.71-1.16,23.33-4.71,34.55-3.35.03-.77-29.54-1.57-34.55h6.28Z" style="fill:#68696c;"/><path d="M586.08,60.56c63.17-26.5,92.13,29.09,6.28,18.83-5.33-8.26-5.81-8.53-6.28-18.83Z" style="fill:#050505;"/></svg>