<?xml version="1.0" encoding="UTF-8"?><svg id="a" xmlns="http://www.w3.org/2000/svg" viewBox="0 0 234.69 235.86"><g id="b"><path d="M14.9,106.65c.39.6,2.82-.22,3.38,4.62l-.02,93.03h5.9c-1.36-8.22,3.56-19.29,12.4-20.85,3.17-.56,8.85,1.19,9.5-2.31,1.05-5.62-6.78-11.12-9.43-16.67-5.64-11.78-6.18-46.61-1.09-58.64,8.27-19.54,35.9-23.06,54.73-21.06,9.03.96,2.29,13.85,4.73,17.57.4.61,8.02,2.43,11.17,8.61,4.73,9.27,1.77,15.71,1.36,24.76-.51,11.06,1.32,18.34-3.91,28.92-3.44,6.96-10.5,10.31-8.74,18.63,13.97-1.99,23.03,7.08,21.06,21.04h2.52c-1.78-6.05,6.48-16.84,12.21-16.84h17.26c1.52-6.91-3.44-7.63-7.98-10.96-.93-.68-3.93-4.19-4.23-4.19h-20.21c-.92,0-1.21-2.06-1.31-2.9-1.24-10.58-.91-44.05,1.97-53.67,10.15-33.99,53.71-46.22,80.6-22.98,23.78,20.55,17.1,49.72,17.26,77.87-1.87,3.84-17.94.14-22.3,2.12-1.15.52-3.62,3.76-5.14,4.96-4.22,3.33-8.04,2.5-6.66,9.75h17.26c2.44,0,8.55,4.58,10.05,6.79,2.07,3.05,2.66,9.64,3.04,10,.49.47,8.4-.26,10.07.04V70.46H18.27c-.94,5.73,1.8,24.95-1.3,28.62-.65.77-2.01.75-2.07.84-2.53-.24-3.11-1.5-3.41-3.75-.71-5.31-.7-23.37,0-28.7.15-1.18.19-2.18,1.22-2.99,2.54-2,18.16.08,23.26-1.15l71.79-31.77c3.88-2.45,2.61-12.34,13.43-10.59,7.41,1.2,6.35,8.5,9.65,10.59l71.79,31.77c6.48,1.57,15.24-.75,21.47.42,1.13.21,1.98.63,2.55,1.66l.46,141.88c.01,1.97-1.01,3.45-3.01,3.73l-210.9-.39-1.72-3.33.03-98.52,3.37-2.1ZM121.71,33.29c3.1-1.92-1.5-8.89-5.01-4.56-2.67,3.29,1.96,6.45,5.01,4.56ZM51.95,63.72h134.72l-58.94-26.61c-2.01-.54-2.9,1.75-5.19,2.48-6.69,2.16-9.42-2.83-11.08-2.69l-59.52,26.81ZM207.72,166.41v-42.51c0-4.66-5.85-15.82-8.91-19.71-25.51-32.43-75.7-15.88-78.69,24.73-.31,4.23-.65,35.2.4,36.7,1.16,1.66,8.25.42,10.58.78-5.19-13.31-6.84-37.29-1.25-50.49,12.19-28.78,54.5-29.68,67.92-1.43,6.57,13.82,5.17,38-.99,51.92h10.94ZM88.16,91.5h-16.42c-3.54,0-12.24,2.2-15.8,3.57-14.11,5.44-17.19,16.79-17.46,30.94,2.45-1.72,3.5-6.69,7.15-6.67,2.31.01,11.15,5.3,15.99,5.83,12.09,1.33,24.8-2.63,36.3-5.89,2.98-.59,2.69,2.54,4.53,3.35-.99-5.3-1.2-10.49-6.72-13.05-1.56-.72-7.59-1.6-7.59-3.36v-14.73ZM183.14,105.96c-.21-.36-6.38-3.52-7.42-3.92-19.67-7.49-41.83,6.12-42.08,27.34l49.67-21.05c-.07-.76.24-1.67-.17-2.37ZM194.25,125.17c.91-.94-3.26-11.92-5.63-12.52-1.51-.38-10.37,3.96-12.04,5.37,2.25.93,16.91,7.94,17.67,7.15ZM168.15,178.2c23.77-3.04,28.9-24.01,26.98-44.89-.26-1.1-7.71-3.22-9.29-3.93-5.92-2.66-11.69-5.92-18.04-7.57l-33.33,14.72-.72.96c-1.15,13.36-.07,25.42,10.9,34.33,7.2,5.84,14.53,7.53,23.51,6.38ZM73.84,178.2c11.66-1.38,21.91-8.67,25.66-20.22,1.92-5.91,2.79-27.17-2.92-30.75-2.07-1.3-3.86,1.04-5.06,1.31-14.82,3.41-31.01,6.07-45.06-1.48-.56.05-6.75,8.08-6.96,8.81-.63,2.19-.43,10.62-.21,13.32,1.48,18.45,16.17,31.18,34.55,29.01ZM67.11,184.94c-5.35-.15-10.17-2.66-15.16-4.21-1.61,4.21,6.32,10.34,9.45,9.95s6.67-2.15,5.71-5.74ZM72.99,184.94c-2.05,2.04,3.23,6.22,6.13,5.76,2.45-.39,11.42-6.61,9.02-9.97-1.96,2.71-14.59,3.65-15.15,4.21ZM142.05,204.29h44.63v-10.11c-10.08.26-13.51,1.47-13.06-10.11-6.13,1.28-12.84,1.39-18.93.02,1.4,11.49-3.02,10.41-12.64,10.09v10.11ZM110.05,204.29c-.29-4.9-.55-12.82-6.49-14.14-1.6-.36-9.2-1.1-9.92-.18-1.96,2.51-3.71,11-5.48,14.31h21.89ZM30.9,204.29h21.05c-1.05-3.21-3.18-11.47-4.96-13.79-.49-.63-.6-.5-1.32-.58-10.9-1.28-16.16,3.21-14.77,14.37ZM203.52,204.29c.76-3.55-2.11-7.97-5.12-9.61-8.11-4.42-5.51,4.34-5.83,9.61h10.95ZM83.94,195.88c-2.26.29-2.69,1.86-5.44,1.75-3.33-.13-6.05-3.55-9.08-3.28-1.99.18-5.06,2.2-7.32,2.84-1.67.47-5.67-.38-5.08,1.6.27.92,2.24,5.12,3.03,5.39.99.34,19.76.46,20.84.17l3.04-8.47ZM135.31,194.19c-6.69-1.06-10.58,3.84-10.95,10.1h10.95s0-10.1,0-10.1Z" style="fill:#060605;"/><path d="M14.9,99.92c.06-.09,1.42-.08,2.07-.84,3.1-3.66.36-22.89,1.3-28.62h202.08v133.84c-1.67-.3-9.58.43-10.07-.04-.38-.37-.97-6.95-3.04-10-1.5-2.22-7.61-6.79-10.05-6.79h-17.26c-1.38-7.25,2.45-6.42,6.66-9.75,1.52-1.2,3.99-4.44,5.14-4.96,4.36-1.98,20.43,1.73,22.3-2.12-.16-28.16,6.52-57.32-17.26-77.87-26.9-23.24-70.45-11.01-80.6,22.98-2.88,9.63-3.21,43.09-1.97,53.67.1.85.38,2.9,1.31,2.9h20.21c.3,0,3.3,3.51,4.23,4.19,4.54,3.33,9.5,4.06,7.98,10.96h-17.26c-5.73,0-13.99,10.79-12.21,16.84h-2.52c1.97-13.97-7.09-23.03-21.06-21.05-1.76-8.32,5.3-11.67,8.74-18.63,5.22-10.58,3.4-17.86,3.91-28.92.41-9.04,3.37-15.49-1.36-24.76-3.16-6.18-10.77-8.01-11.17-8.61-2.44-3.71,4.3-16.61-4.73-17.57-18.83-2-46.46,1.52-54.73,21.06-5.09,12.03-4.55,46.86,1.09,58.64,2.65,5.55,10.48,11.05,9.43,16.67-.66,3.5-6.33,1.75-9.5,2.31-8.84,1.56-13.77,12.64-12.4,20.85h-5.9s.02-93.03.02-93.03c-.57-4.84-3-4.02-3.38-4.62-.18-.28-.18-6.45,0-6.73Z" style="fill:#9ccf66;"/><path d="M51.95,63.72l59.52-26.81c1.65-.14,4.38,4.85,11.08,2.69,2.28-.74,3.18-3.02,5.19-2.48l58.94,26.61H51.95Z" style="fill:#f3f3f3;"/><path d="M91.52,128.54c.92,19.47.7,38.45-17.68,49.66-18.38,2.17-33.08-10.56-34.55-29.01-.22-2.7-.42-11.13.21-13.32.21-.74,6.4-8.77,6.96-8.81,14.05,7.55,30.24,4.89,45.06,1.48Z" style="fill:#fcdccd;"/><path d="M88.16,91.5v14.73c0,1.75,6.03,2.63,7.59,3.36,5.52,2.56,5.73,7.75,6.72,13.05-1.85-.81-1.55-3.94-4.53-3.35-11.5,3.25-24.21,7.21-36.3,5.89-4.84-.53-13.69-5.82-15.99-5.83-3.65-.02-4.7,4.95-7.15,6.67.27-14.15,3.35-25.49,17.46-30.94,3.56-1.37,12.26-3.57,15.8-3.57h16.42Z" style="fill:#945252;"/><path d="M73.84,178.2c18.38-11.21,18.6-30.19,17.68-49.66,1.2-.28,2.98-2.61,5.06-1.31,5.71,3.58,4.84,24.84,2.92,30.75-3.75,11.55-14,18.85-25.66,20.22Z" style="fill:#fac9bb;"/><path d="M110.05,204.29h-21.89c1.77-3.32,3.53-11.81,5.48-14.31.72-.92,8.32-.18,9.92.18,5.94,1.32,6.19,9.24,6.49,14.14Z" style="fill:#636b75;"/><path d="M30.9,204.29c-1.4-11.16,3.86-15.65,14.77-14.37.72.08.83-.05,1.32.58,1.78,2.32,3.91,10.58,4.96,13.79h-21.05Z" style="fill:#636b75;"/><path d="M83.94,195.88l-3.04,8.47c-1.09.3-19.86.17-20.84-.17-.79-.27-2.76-4.47-3.03-5.39-.59-1.97,3.4-1.12,5.08-1.6,2.25-.64,5.33-2.67,7.32-2.84,3.02-.27,5.75,3.16,9.08,3.28,2.76.11,3.18-1.46,5.44-1.75Z" style="fill:#ebedf0;"/><path d="M67.11,184.94c.97,3.6-2.71,5.38-5.71,5.74s-11.06-5.74-9.45-9.95c4.98,1.55,9.8,4.06,15.16,4.21Z" style="fill:#ebedf0;"/><path d="M72.99,184.94c.56-.56,13.19-1.5,15.15-4.21,2.4,3.36-6.57,9.59-9.02,9.97-2.9.46-8.18-3.72-6.13-5.76Z" style="fill:#ebedf0;"/><path d="M121.71,33.29c-3.05,1.89-7.68-1.27-5.01-4.56,3.51-4.33,8.1,2.64,5.01,4.56Z" style="fill:#faca52;"/><path d="M185.83,129.38c.97,19.03-.04,37.78-17.68,48.82-8.98,1.15-16.31-.54-23.51-6.38-10.98-8.91-12.06-20.96-10.9-34.33l.72-.96,33.33-14.72c6.35,1.65,12.12,4.91,18.04,7.57Z" style="fill:#fcdccd;"/><path d="M207.72,166.41h-10.94c6.16-13.92,7.56-38.1.99-51.92-13.42-28.25-55.73-27.35-67.92,1.43-5.59,13.19-3.94,37.18,1.25,50.49-2.32-.37-9.41.88-10.58-.78-1.05-1.51-.71-32.47-.4-36.7,2.99-40.61,53.18-57.16,78.69-24.73,3.06,3.89,8.91,15.05,8.91,19.71v42.51Z" style="fill:#ebedf0;"/><path d="M183.14,105.96c.4.7.09,1.61.17,2.37l-49.67,21.05c.25-21.22,22.41-34.84,42.08-27.34,1.05.4,7.21,3.56,7.42,3.92Z" style="fill:#faca52;"/><path d="M142.05,204.29v-10.11c9.61.32,14.04,1.39,12.64-10.09,6.09,1.37,12.79,1.26,18.93-.02-.45,11.58,2.99,10.37,13.07,10.11v10.11h-44.63Z" style="fill:#fcdccd;"/><path d="M185.83,129.38c1.58.71,9.03,2.84,9.29,3.93,1.92,20.88-3.21,41.85-26.98,44.89,17.65-11.04,18.65-29.79,17.68-48.82Z" style="fill:#fac9bb;"/><path d="M194.25,125.17c-.77.79-15.43-6.22-17.67-7.15,1.67-1.42,10.53-5.76,12.04-5.37,2.38.6,6.55,11.58,5.63,12.52Z" style="fill:#faca52;"/><path d="M203.52,204.29h-10.95c.32-5.27-2.27-14.03,5.83-9.61,3.01,1.64,5.88,6.06,5.12,9.61Z" style="fill:#fac9bb;"/><path d="M135.31,194.19v10.11s-10.95,0-10.95,0c.37-6.26,4.26-11.16,10.95-10.1Z" style="fill:#fcdccd;"/></g></svg>