<?xml version="1.0" encoding="UTF-8"?><svg id="a" xmlns="http://www.w3.org/2000/svg" viewBox="0 0 234.69 235.86"><g id="b"><path d="M43.3,191.52c-.12-.12-1.76.2-2.53-.41-.99-.79-.61-2.52-.96-2.83-.2-.18-5.14-.78-5.41-.73-.85.15-4.21,12.37-8.36,1.44-2.22-5.85-.37-10.37-1.29-16.37,4.23-18.3,3.52-40.03,7.68-58,.3-1.31,1.12-4.03,2.18-4.77,3.5-1.6,27.86-8.74,28.74-10.17,1.78-2.88-3.53-5.01-5.27-7.5-5.17-7.41-1.86-14.44-3.05-22.19-.71-4.63-5.8-9.52.59-13.82,7.47-5.03,18.96-6.19,26.99-1.97,3.28,1.72,9.65,8.35,8.55,12.19-.33,1.16-2.03,1.69-2.4,3.56-1.5,7.58,2.4,14.46-3.01,22.23-1.89,2.72-6.58,4.09-5.02,6.8,1.77,3.06,23.99,8.7,28.48,10.87.84.58,1.79,3,2.05,4.05,4.48,17.74,3.36,40.51,7.81,58.72-.92,6,.93,10.52-1.29,16.37-4.14,10.94-7.51-1.29-8.36-1.44-.27-.05-5.21.55-5.41.73-.34.31.03,2.04-.96,2.83-.77.62-2.53.28-2.53.41v18.51c0,.17-3.37.17-3.37,0v-17.67c-5.2-.42-10.29,1.61-15.52.79-4.22-.67-6.25-4.91-9.31-5.08-3.65-.2-3.68,1.96-6.03,3.32-6.63,3.82-12.58.64-19.64.98v17.67c0,.17-3.37.17-3.37,0,0-2.58.65-17.85,0-18.51ZM57.67,67.77c1.11.77,9.95-4.14,13.83-4.21,4.58-.08,16.13,6.42,15.58.54-.71-7.65-14.58-9.69-20.56-8.81-1.44.21-9.79,4.13-10.23,4.98-.56,1.09.99,7.24,1.38,7.5ZM85.39,70.36c-4.85.17-8.7-3.51-13.85-3.39s-8.33,3.9-13.04,4.28c-.2,8.74-1.47,19.31,8.39,23.08,15.92,6.08,20.57-11.57,18.5-23.96ZM76.97,98.96c-3.37-.2-6.96.69-10.1-.84-.17,13.85,9.4,15.79,10.1.84ZM64.34,104.01c-3.91,1.06-.49,11.74,1.27,11.76,6.44-4.18-1.51-6.38-1.27-11.76ZM79.51,104.01c.24,5.38-7.71,7.58-1.27,11.76,1.76-.02,5.18-10.7,1.27-11.76ZM59.29,105.7l-5.11,1.34c-.5,3.85,2.58,8.26,2.6,11.68.03,4.81-4.82,10.83-1.24,15.54l9.63,10.97c-2.39-8.72-5.24-17.39-5.89-26.5-.1-1.34.91-2.82.85-4.21-.11-2.73-1.53-5.78-.85-8.83ZM89.52,106.61c-.16-.19-4.8-1.1-4.97-.91-.7,7,.02,13.56-.96,20.5-.88,6.25-3.39,12.04-4.52,18.19,2.18-2.78,9.74-9.44,10.37-12.38.96-4.45-2.41-9.19-2.38-13.28.02-2.45,3.78-10.58,2.46-12.11ZM50.87,108.22c-3.59,1.5-12.88,2.71-14.39,6.23l-8.34,60.23,9.26,1.7c.01-1.5-.13-3.02.11-4.52,1.88-11.71,3.33-26.43,6.18-37.58,2.1-8.23,3.87-2.91,4.55,2.23s1.97,14.4,1.84,19.25-7.14,31.25-5.95,32.39c6.17-.53,15.96,4.17,21-.47s2.96-23.5,5.08-30.21c-5.56-8.97-13.72-16.15-20.07-24.62-.8-2.93,3.17-10.67,3.12-14.14-.04-2.88-2.95-7.11-2.41-10.5ZM115.7,174.68l-8.34-60.23c-1.51-3.52-10.8-4.73-14.39-6.23.55,3.39-2.36,7.62-2.41,10.5-.05,3.47,3.92,11.21,3.12,14.14l-19.93,23.97c1.68,6.72.22,26.52,4.95,30.86,5.04,4.63,14.81-.06,21,.47l-1.69-14.73c.17-1.26,3.67-.28,3.33,1.72l2.55,10.48.79-3.69-5.84-35-1.67,7.98c.71,1.73,3.07,12.9-1.68,9.68-2.87-1.94-.48-23.82.09-28.08.69-5.14,2.45-10.46,4.55-2.23,2.82,11.04,4.31,25.94,6.18,37.58.24,1.5.1,3.02.11,4.52l9.26-1.7ZM80.34,122.52c-.13-4.27-.56-1.55-3.32-2.97-1.52-.78-3.8-4.83-5.4-4.55-1.16.2-3.29,3.77-4.79,4.55-2.75,1.42-3.19-1.3-3.32,2.97-.2,6.89,2.73,13.84,5.05,20.19.8,2.19,1.31,4.37,2.3,6.57.38.84-.26,2.41,1.48,1.85.5-.16,2.49-7.14,2.95-8.42,2.32-6.35,5.26-13.3,5.05-20.19ZM40.77,185.63c1.54-12.87,7.37-25.73,5.05-38.7-1.3-.01-1.18,2.96-1.39,4.06-1.63,8.4-4.9,23.02-5.28,30.98-.07,1.54-.25,3.12,1.62,3.65ZM34.88,179.74c-1.47.18-4.78-1.5-5.82-.78-1.14.79-1.08,7.38-.07,8.34,1.87,1.77,2.24-4.22,2.94-5.06,1.11-1.33,3.57.14,2.94-2.5ZM114.77,178.97c-1.01-.69-5.71.74-6.65,2.03,5.52-.63,4.17,5.42,5.05,6.31,2.3,2.31,3.43-7.09,1.59-8.34Z" style="fill:#591849;"/><path d="M73.49,196.68c.59.37,4.29,12.56,3.47,13.34-4.64,1.79-3.52-3.83-4.63-4.21-2.07-.7-1.29,3.53-2.22,4.09-.73.44-2.27-.02-3.24.12-.73-.69,2.44-11.81,3.27-12.96.59-.82,2.7-.79,3.34-.38Z" style="fill:#591849;"/><path d="M115.7,174.68l-9.26,1.7c-.01-1.5.13-3.02-.11-4.52-1.87-11.64-3.36-26.53-6.18-37.58-2.1-8.23-3.87-2.91-4.55,2.23-.57,4.26-2.96,26.14-.09,28.08,4.75,3.22,2.39-7.95,1.68-9.68l1.67-7.98,5.84,35-.79,3.69-2.55-10.48c.33-2-3.16-2.97-3.33-1.72l1.69,14.73c-6.19-.54-15.96,4.16-21-.47-4.72-4.35-3.27-24.14-4.95-30.86l19.93-23.97c.8-2.93-3.17-10.67-3.12-14.14.04-2.88,2.95-7.11,2.41-10.5,3.59,1.5,12.88,2.71,14.39,6.23l8.34,60.23Z" style="fill:#f1f0f1;"/><path d="M50.87,108.22c-.55,3.39,2.36,7.62,2.41,10.5.05,3.47-3.92,11.21-3.12,14.14,6.34,8.46,14.5,15.64,20.07,24.62-2.12,6.71-.24,25.75-5.08,30.21s-14.83-.06-21,.47c-1.19-1.14,5.83-27.73,5.95-32.39s-1.16-14.11-1.84-19.25-2.45-10.46-4.55-2.23c-2.85,11.15-4.3,25.87-6.18,37.58-.24,1.5-.1,3.02-.11,4.52l-9.26-1.7,8.34-60.23c1.51-3.52,10.8-4.73,14.39-6.23Z" style="fill:#f1f0f1;"/><path d="M85.39,70.36c2.07,12.39-2.58,30.05-18.5,23.96-9.86-3.77-8.59-14.34-8.39-23.08,4.7-.38,7.88-4.16,13.04-4.28s9,3.57,13.85,3.39ZM65.4,74.44l-.58,4.87,3.51.42.58-4.87-3.51-.42ZM75.51,74.44l-.58,4.87,3.51.42.58-4.87-3.51-.42Z" style="fill:#fbe8ce;"/><path d="M57.67,67.77c-.38-.27-1.94-6.42-1.38-7.5.44-.85,8.79-4.77,10.23-4.98,5.98-.88,19.85,1.16,20.56,8.81.55,5.89-11.01-.62-15.58-.54-3.88.07-12.73,4.98-13.83,4.21Z" style="fill:#e13d59;"/><path d="M80.34,122.52c.21,6.89-2.73,13.84-5.05,20.19-3.74.8-1.24-6.75-3.78-5.89-1.09.36.46,6.55-2.95,5.89-2.32-6.35-5.26-13.3-5.05-20.19,2.88.52,5.98-2.99,8.13-3.18,2.29-.2,5.79,3.72,8.7,3.18ZM73.83,123.76c0-1.06-.86-1.91-1.91-1.91s-1.91.86-1.91,1.91.86,1.91,1.91,1.91,1.91-.86,1.91-1.91ZM73.83,130.49c0-1.06-.86-1.91-1.91-1.91s-1.91.86-1.91,1.91.86,1.91,1.91,1.91,1.91-.86,1.91-1.91ZM73.18,135.14v.84c.55-.28.55-.56,0-.84Z" style="fill:#f1f0f1;"/><path d="M59.29,105.7c-.68,3.05.74,6.1.85,8.83.06,1.4-.95,2.87-.85,4.21.65,9.11,3.5,17.78,5.89,26.5l-9.63-10.97c-3.58-4.71,1.27-10.73,1.24-15.54-.02-3.43-3.1-7.84-2.6-11.68l5.11-1.34Z" style="fill:#ede9ec;"/><path d="M40.77,185.63c-1.87-.54-1.7-2.11-1.62-3.65.38-7.96,3.65-22.58,5.28-30.98.21-1.1.09-4.07,1.39-4.06,2.32,12.96-3.52,25.83-5.05,38.7Z" style="fill:#e4e3e3;"/><path d="M76.97,98.96c-.69,14.95-10.26,13.01-10.1-.84,3.14,1.53,6.73.64,10.1.84Z" style="fill:#fbe8ce;"/><path d="M63.5,122.52c.13-4.27.57-1.55,3.32-2.97,1.5-.77,3.63-4.34,4.79-4.55,1.61-.28,3.89,3.77,5.4,4.55,2.76,1.42,3.19-1.3,3.32,2.97-2.91.54-6.41-3.37-8.7-3.18-2.16.19-5.25,3.7-8.13,3.18Z" style="fill:#e4e3e3;"/><path d="M68.55,142.71c3.41.66,1.87-5.53,2.95-5.89,2.54-.85.04,6.7,3.78,5.89-.47,1.28-2.45,8.26-2.95,8.42-1.74.56-1.1-1-1.48-1.85-1-2.2-1.5-4.39-2.3-6.57Z" style="fill:#e4e3e3;"/><path d="M79.51,104.01c3.91,1.06.49,11.74-1.27,11.76-6.44-4.18,1.51-6.38,1.27-11.76Z" style="fill:#f1f0f1;"/><path d="M64.34,104.01c-.24,5.38,7.71,7.58,1.27,11.76-1.76-.02-5.18-10.7-1.27-11.76Z" style="fill:#f1f0f1;"/><path d="M114.77,178.97c1.83,1.26.71,10.65-1.59,8.34-.88-.88.47-6.94-5.05-6.31.94-1.3,5.63-2.73,6.65-2.03Z" style="fill:#e4e3e3;"/><path d="M34.88,179.74c.63,2.64-1.83,1.16-2.94,2.5-.7.84-1.07,6.83-2.94,5.06-1.01-.96-1.08-7.55.07-8.34,1.04-.72,4.35.96,5.82.78Z" style="fill:#e4e3e3;"/><path d="M89.52,106.61c1.32,1.54-2.44,9.66-2.46,12.11-.03,4.09,3.34,8.83,2.38,13.28-.63,2.94-8.19,9.6-10.37,12.38,1.14-6.15,3.65-11.94,4.52-18.19.98-6.94.26-13.49.96-20.5.17-.18,4.8.72,4.97.91Z" style="fill:#ede9ec;"/><rect x="64.42" y="75.32" width="4.91" height="3.54" transform="translate(-17.57 134.39) rotate(-83.22)" style="fill:#581344;"/><rect x="74.52" y="75.32" width="4.91" height="3.54" transform="translate(-8.66 144.42) rotate(-83.22)" style="fill:#581344;"/><circle cx="71.91" cy="130.49" r="1.91" style="fill:#591849;"/><circle cx="71.91" cy="123.76" r="1.91" style="fill:#591849;"/><path d="M73.18,135.14c.55.28.55.56,0,.84v-.84Z" style="fill:#e4e3e3;"/><path d="M104.75,51c-4.89.59-11.91-9-12.57-13.09-1.59-9.91,6.29-17.96,16.31-16.3,2.12.35,4.21,2.43,5.8,2.28,3.46-.31,4.99-3.54,11.73-2.14s8.74,9.79,10.02,10.59c.75.47,2.78.03,4.09.52,4.82,1.83,6.9,8.41,5.47,13.13-.65,2.16-12.08,14.66-13.94,15.53-3.96,1.85-6.82-4.31-9.66-6.3-4.22,4.85-10.82,11.77-12.21.83.6.25,4.28,1.63,4.51,1.59.56-.09,4.48-4.02,4.66-4.71.66-2.52-4.31-4.48-4.92-8.3-1.32-8.39,4.79-13.09,12.82-11.96,1.51.21,4.53,3.31,4.87-.62.3-3.42-5.69-7.07-8.93-7.17-4.32-.13-6.49,3.04-8.52,3.24-3.05.31-6.68-6.36-14.18-1.52-6.21,4.01-5.6,10.52-1.61,15.92,2.61,3.53,3.83,4.66,6.24,8.49ZM122.2,36.02c-4.09.9-5.65,5.4-4.45,9.13.59,1.82,11.49,12.7,12.56,12.52,4.15-4.35,18.31-14.4,9.78-20.53-5.27-3.78-7.34.72-9.81,1.12-1.29.21-3.4-3.26-8.08-2.23Z" style="fill:#581344;"/><path d="M109.8,56.05c-2.78-1.14-3.58-2.72-5.05-5.05-2.41-3.83-3.63-4.96-6.24-8.49-3.99-5.39-4.6-11.91,1.61-15.92,7.5-4.84,11.13,1.83,14.18,1.52,2.03-.2,4.2-3.37,8.52-3.24,3.24.1,9.23,3.75,8.93,7.17-.35,3.92-3.37.83-4.87.62-8.03-1.13-14.15,3.57-12.82,11.96.6,3.82,5.58,5.78,4.92,8.3-.18.69-4.09,4.62-4.66,4.71-.24.04-3.91-1.35-4.51-1.59Z" style="fill:#e13d59;"/><path d="M122.2,36.02c4.67-1.02,6.79,2.44,8.08,2.23,2.47-.39,4.54-4.9,9.81-1.12,8.54,6.13-5.63,16.18-9.78,20.53-1.07.19-11.97-10.69-12.56-12.52-1.2-3.73.36-8.24,4.45-9.13Z" style="fill:#f24d81;"/><path d="M182.19,108.21c6.3,1.19,13.26,2.99,14.78,10.05,1.37,6.34,2.61,19.1,2.89,25.72.06,1.53.29,3.44-.15,4.88s-12.45,10.65-12.45,11.93c12.95,13.27,23.73,30.55,26.07,49.22-.91-.15-2.77.32-3.27-.09s-2.81-10.45-3.67-12.73c-3.55-9.39-8.6-18.51-14.96-26.27-1.81-2.2-5.87-7.94-8.38-6.78-.49.23-7.24,6.96-7.61,7.57-1.84,3.04-1.44,9.71-2.7,11.18-.77.9-12.48,4.35-13.27,3.57.2-5.34.93-9.5-2.14-14.27-.65-1.01-7.89-8.19-8.55-8.36-2.88-.76-5.91,7.7-8.67,4.95-2.22-2.21,5.03-7.43,5.03-7.99,0-1.28-12.02-10.55-12.45-11.93-.7-2.28.41-10.27.69-13.3.42-4.62,1.32-16.22,2.93-19.78,2.46-5.43,8.79-6.24,13.88-7.6-1.34-11.8-7.74-19.93-6.75-32.39.37-4.66,3.79-14.84,7.62-17.63.82-.6,8.85-5.6,9.38-5.77,14.08-4.36,26.46,7.9,28.26,21.12,1.86,13.62-4.83,21.95-6.52,34.7ZM178.82,107.38c.85-11.45,7.89-19.59,6.73-31.55-1.08-11.15-11.12-24.11-23.6-20.25-2.03.63-3.37,2.97-5.07,4.19-3.78,2.71-4.49,1.09-7.27,7.03-7.48,15.94,2.12,25.27,3.97,40.57,4.52-1.14,6.98-.89,5.89-6.32-.37-1.84-4.61-4.07-6.26-6.36-4.48-6.22-4.56-13.11-2.76-20.32,1.53-6.11,2.56-3,6.75-4.19,1.54-.44,2.43-2.84,3.65-3.07.8-.15,7.79,3.49,10.18,3.87,3.03.48,8.1-.82,8.95-.57,1.76.52,2.93,8.48,3.04,10.46.31,5.6-.91,9.71-4.34,14.14-1.63,2.11-5.43,4.46-5.75,6.03-1.09,5.43,1.37,5.18,5.89,6.32ZM178.83,74.56c-2.87-.09-5.77.26-8.64-.2-2.28-.37-7.16-3.13-8.5-3-1.04.11-2.47,1.56-3.73,2.12-.99.43-2.77.04-3.59.61-.91.63-1.78,8.51-1.67,10.12.45,6.65,8.06,15.69,14.98,14.2,10.78-2.32,13.51-14.44,11.15-23.86ZM169.56,101.49c-2.52.88-4.21.88-6.72,0-.26,1.93.76,5.99-.83,7.17-3.44,2.55-17.92,2.92-21.46,7.15-2.9,3.47-2.07,13.85-2.97,18.49,7.07.42,4.26.16,5.15-4.53,2.24-11.84,14.77-11.11,21.81-3.44.95,1.04.29,2.5,2.07,2.09.32-.07,2.43-3.59,4.36-4.91,4.64-3.16,11.3-4,15.87-.16,3.88,3.25,2.51,10.55,2.92,10.97.24.25,4.02-.17,5.06,0-.9-4.64-.07-15.02-2.97-18.49-3.54-4.23-18.02-4.61-21.46-7.15-1.59-1.18-.56-5.24-.83-7.17ZM150.2,135.14c1.81,3.38,3.37,4.47,3.99,9.05.49,3.63-.42,7.86.68,11.1.21.62,7.79,9.8,8.32,10.19,1.68,1.23,4.31,1.25,6.02,0,.53-.39,8.11-9.57,8.32-10.19,1.1-3.25.19-7.48.68-11.1.62-4.59,2.18-5.67,3.99-9.05,1.59-2.98,5.81-7.46,1.07-9.91-3.59-1.85-9.5-.44-12.29,2.3-.84.83-.43,1.48-.57,1.72-.81,1.38-2.85,6.5-3.8,6.73-1.82.43-3.72-5.18-4.62-6.73-.14-.24.27-.89-.57-1.72-2.78-2.74-8.7-4.15-12.29-2.3-4.74,2.45-.52,6.92,1.07,9.91ZM151.04,150.28c.23-4.84-.75-12.46-5.88-14.3.71,2.42-1.27,5.78-.73,7.8.16.59,5.06,6.53,6.61,6.49ZM187.24,135.99c-4.21-.2-7.16,12.83-5.88,14.3,1.59.39,6.44-5.84,6.61-6.49.54-2.01-1.45-5.39-.73-7.8ZM141.79,137.67c-1.03.16-4.81-.26-5.06,0-.36.36-.79,9.51-.43,10.1l22.27,20.66,3.41,1.21c-2.66-5.82-20.99-21.54-21.09-26.46-.03-1.7,1.27-3.62.89-5.5ZM195.66,137.66c-.24-.25-4.02.17-5.06,0-.26,2.77,1.94,5.51.07,8.05l-20.27,23.91,3.41-1.21,22.27-20.66c.37-.59-.07-9.73-.43-10.1ZM170.4,173c-3.02-2.83-6.47,6.97-7.16,9.24,6.39-1.74,7.87-1.78,7.16-9.24Z" style="fill:#591849;"/><path d="M122.33,209.93l-3.27.1c-1.44-1.38,3.8-15.67,4.89-18.25.8-1.89,7.09-14.85,7.82-15.3,1.21-.75,4.33,0,4.04,1.9-.12.76-6.48,10.73-7.65,13.41-2.55,5.81-4.56,11.92-5.84,18.14Z" style="fill:#591849;"/><path d="M161.99,129.25c.9,1.55,2.8,7.16,4.62,6.73.94-.23,2.99-5.35,3.8-6.73,5.72-.93,8.66,1.57,11.78,5.89-1.81,3.38-3.37,4.47-3.99,9.05-.49,3.63.42,7.86-.68,11.1-.21.62-7.79,9.8-8.32,10.19-1.71,1.25-4.34,1.23-6.02,0-.53-.39-8.11-9.57-8.32-10.19-1.1-3.25-.19-7.48-.68-11.1-.62-4.59-2.18-5.67-3.99-9.05,2.94-4.29,6.31-6.55,11.78-5.89Z" style="fill:#e4e3e3;"/><path d="M169.56,101.49c.26,1.93-.76,5.99.83,7.17,3.44,2.55,17.92,2.92,21.46,7.15,2.9,3.47,2.07,13.85,2.97,18.49-1.04-.17-4.82.25-5.06,0-.41-.42.96-7.71-2.92-10.97-4.57-3.83-11.23-3-15.87.16-1.94,1.32-4.04,4.84-4.36,4.91-1.79.41-1.12-1.05-2.07-2.09-7.04-7.66-19.57-8.39-21.81,3.44-.89,4.69,1.92,4.95-5.15,4.53.9-4.64.07-15.02,2.97-18.49,3.54-4.23,18.02-4.61,21.46-7.15,1.59-1.18.56-5.24.83-7.17,2.52.88,4.21.88,6.72,0Z" style="fill:#fbe8ce;"/><path d="M178.82,107.38c-4.52-1.14-6.98-.88-5.89-6.32.32-1.58,4.11-3.93,5.75-6.03,3.43-4.43,4.66-8.54,4.34-14.14-.11-1.98-1.28-9.95-3.04-10.46-.85-.25-5.92,1.05-8.95.57-2.39-.38-9.38-4.03-10.18-3.87-1.22.24-2.11,2.63-3.65,3.07-4.19,1.19-5.22-1.92-6.75,4.19-1.8,7.21-1.72,14.1,2.76,20.32,1.65,2.29,5.89,4.52,6.26,6.36,1.1,5.43-1.37,5.18-5.89,6.32-1.85-15.3-11.46-24.63-3.97-40.57,2.79-5.94,3.49-4.32,7.27-7.03,1.7-1.22,3.04-3.57,5.07-4.19,12.48-3.87,22.52,9.1,23.6,20.25,1.16,11.95-5.88,20.09-6.73,31.55Z" style="fill:#f24d81;"/><path d="M178.83,74.56c2.37,9.42-.36,21.54-11.15,23.86-6.92,1.49-14.53-7.55-14.98-14.2-.11-1.61.76-9.49,1.67-10.12.83-.57,2.6-.18,3.59-.61,1.27-.56,2.69-2.01,3.73-2.12,1.34-.14,6.21,2.63,8.5,3,2.87.46,5.77.11,8.64.2ZM159.68,77.81l-.58,4.87,3.51.42.58-4.87-3.51-.42ZM169.78,77.81l-.58,4.87,3.51.42.58-4.87-3.51-.42Z" style="fill:#fbe8ce;"/><path d="M195.66,137.66c.36.36.79,9.51.43,10.1l-22.27,20.66-3.41,1.21,20.27-23.91c1.87-2.54-.33-5.28-.07-8.05,1.03.16,4.81-.26,5.06,0Z" style="fill:#ede9ec;"/><path d="M141.79,137.67c.38,1.89-.92,3.8-.89,5.5.09,4.92,18.43,20.63,21.09,26.46l-3.41-1.21-22.27-20.66c-.37-.59.07-9.73.43-10.1.24-.25,4.02.17,5.06,0Z" style="fill:#ede9ec;"/><path d="M150.2,135.14c-1.59-2.98-5.81-7.46-1.07-9.91,3.59-1.85,9.5-.44,12.29,2.3.85.83.43,1.48.57,1.72-5.47-.66-8.84,1.6-11.78,5.89Z" style="fill:#f1f0f1;"/><path d="M182.19,135.14c-3.12-4.32-6.06-6.82-11.78-5.89.14-.24-.27-.89.57-1.72,2.78-2.74,8.7-4.15,12.29-2.3,4.74,2.45.52,6.92-1.07,9.91Z" style="fill:#f1f0f1;"/><path d="M187.24,135.99c-.72,2.42,1.27,5.79.73,7.8-.18.66-5.02,6.88-6.61,6.49-1.27-1.47,1.67-14.49,5.88-14.3Z" style="fill:#e4e3e3;"/><path d="M151.04,150.28c-1.55.04-6.45-5.9-6.61-6.49-.54-2.03,1.44-5.38.73-7.8,5.14,1.84,6.11,9.45,5.88,14.3Z" style="fill:#e4e3e3;"/><path d="M170.4,173c.71,7.46-.77,7.5-7.16,9.24.69-2.27,4.14-12.07,7.16-9.24Z" style="fill:#ede9ec;"/><rect x="168.79" y="78.68" width="4.91" height="3.54" transform="translate(71.14 241) rotate(-83.22)" style="fill:#581344;"/><rect x="158.69" y="78.68" width="4.91" height="3.54" transform="translate(62.23 230.97) rotate(-83.22)" style="fill:#581344;"/></g></svg>