<?xml version="1.0" encoding="UTF-8"?><svg id="a" xmlns="http://www.w3.org/2000/svg" viewBox="0 0 230.86 230.01"><g id="b"><rect x="34.25" y="4.48" width="161.5" height="219.69" style="fill:#fefefe;"/><path d="M190.93,219.73V10.1H39.93v209.63h57.29c2.9,0,2.9,8.88,0,8.88h-63.06c-.25,0-2.15-2.14-2.65-2.68V3.9c1.25-1.88,2.89-2.98,5.26-2.74l160.36.52,2.22,2.22v222.02c-.49.54-2.4,2.68-2.64,2.68h-63.06c-2.9,0-2.9-8.88,0-8.88h57.29Z"/><path d="M76.99,130.21l75.32-.21c7.65.9,7.94,8.87-.91,9.78-22.56,2.34-48.96-1.74-71.94,0-6.9,0-9.38-6.94-2.48-9.58Z" style="fill:#090909;"/><path d="M76.99,59.15l56.63-.17c6.42,2.57,5.19,8.97-1.73,9.77-11.51,1.33-40.77,1.19-52.42-.02-7.25-.75-9.37-6.41-2.48-9.58Z" style="fill:#0a0a0a;"/><path d="M76.99,76.91l38.87-.17c5.93,2.05,5.39,8.66-.92,9.7-5.93.97-30.17.85-36.28-.03-6.81-.99-8.04-6.87-1.67-9.5Z" style="fill:#0a0a0a;"/><path d="M96.52,23.61l37.09-.17c5.93,2.05,5.39,8.66-.92,9.7-5.21.85-29.33.85-34.54,0-5.91-.97-6.89-6.79-1.64-9.53Z" style="fill:#0a0a0a;"/><path d="M76.99,41.38c3.18-.74,25.72-.8,29.1-.17,5.38,1.01,5.83,8.59-.92,9.7-4.63.76-21.75.66-26.51-.03-7.33-1.06-7.48-8.15-1.67-9.5Z" style="fill:#0a0a0a;"/><path d="M76.99,112.44c3.18-.74,25.72-.8,29.1-.17,5.38,1.01,5.83,8.59-.92,9.7-4.63.76-21.75.66-26.51-.03-7.33-1.06-7.48-8.15-1.67-9.5Z" style="fill:#0a0a0a;"/><path d="M124.95,41.38c3.59-.83,24.19-.76,28.18-.13,6.44,1.01,6.85,8.51-.92,9.63-5.02.73-20.57.73-25.59,0-7.33-1.06-7.48-8.15-1.67-9.5Z" style="fill:#0a0a0a;"/><path d="M124.95,112.44c3.59-.83,24.19-.76,28.18-.13,6.44,1.01,6.85,8.51-.92,9.63-5.02.73-20.57.73-25.59,0-7.33-1.06-7.48-8.15-1.67-9.5Z" style="fill:#0a0a0a;"/><path d="M76.99,147.97c3.77-.87,20.27-1.06,22.37,2.14,6.11,9.3-16.81,8.08-21.45,7.23-6.62-1.22-6.42-8.09-.91-9.36Z" style="fill:#0a0a0a;"/><circle cx="153.18" cy="63.84" r="4.72" style="fill:#0b0b0b;"/><circle cx="115.43" cy="224.17" r="4.71" style="fill:#0e0e0e;"/><circle cx="115.44" cy="152.44" r="4.68" style="fill:#0e0e0e;"/><path d="M103.69,169.31c6.27-.68,8.13,2.85,11.44,3.15,1.76.16,5.9-3.06,8.85-3.32,4.72-.42,9.4,1.62,12.34,5.27,8.84,10.98-.56,20.92-8.88,28.47-11.16,10.12-12.25,10.44-23.57.43-5.02-4.44-13.49-13.11-13.09-20.22.37-6.64,6.32-13.07,12.91-13.78ZM105.37,178.2c-4.44.2-6.06,4.06-4.86,8.03.5,1.65,12.28,13.4,13.78,13.82,2.32.65,7.25-3.82,9.15-5.63.95-.91,6.72-7.61,6.9-8.2,2.35-7.73-6.43-10.56-9.65-5.21-1.53,2.54,0,5.45-3.76,6.97-7.08,2.86-4.63-10.1-11.56-9.79Z" style="fill:#070606;"/><path d="M105.37,178.2c6.93-.31,4.48,12.65,11.56,9.79,3.76-1.52,2.24-4.42,3.76-6.97,3.22-5.35,12-2.52,9.65,5.21-.18.58-5.95,7.29-6.9,8.2-1.9,1.81-6.83,6.27-9.15,5.63-1.5-.42-13.28-12.17-13.78-13.82-1.21-3.97.42-7.84,4.86-8.03Z" style="fill:#f77992;"/></g></svg>