<?xml version="1.0" encoding="UTF-8"?><svg id="a" xmlns="http://www.w3.org/2000/svg" viewBox="0 0 841.77 834.58"><path d="M685.09,333.13c14.11,20.73,24.28,37.09,20.33,63.88-3.41-1.04-10.01,1.05-15.29-.61-5.93-1.86-11.86-11.19-21.66-13.23-37.32-7.76-55.35,21.03-49.46,55.25,1.88,10.93,21.64,45.94,31.31,49.99,13.34,5.59,42.16-.87,55.11-7.2v213.42c-.35,17.25-14.41,27.44-20.33,42.1-184.13,4.91-369.04-3.78-553.27.13-24.2,0-53.26-10.81-58.73-37.08-5.77-27.72,6.3-129.36-3.84-144.36-2.93-4.33-8.17-4.12-8.43-4.52-.87-1.34-.66-30.49,0-31.94.34-.75,6.88-1.5,8.92-4.83,9.89-16.16-2.85-117.05,3.95-146.36,3.97-17.1,19.94-29.3,36.33-33.36,191.47.87,383.67-5.59,575.09-1.28ZM173.26,383.18c-9.79,2.04-15.25,10.95-21.67,13.15-17.82,6.1-38.75,2.99-45.84,29.63-11.33,42.54,46.04,70.69,81.32,63.9,13.63-2.62,34.24-40.53,36.09-53.89,4.65-33.58-13.94-60.27-49.89-52.79ZM298.91,402.82c2.17,2.04,0,51.33,0,59.52,0,11.72-11.75,15.01-21.76,13.08-10.7-2.06-7.41-12.27-11.61-17.44-3.97-4.88-13.42-4.55-15.54,1.89-12.18,37,61.59,49.44,66.4,8.35,1.14-9.75,1.58-71.77-.47-78.06s-42.54-10.97-39.68,4.98c1.98,11.03,21.58,6.67,22.66,7.69ZM333.75,389.75c-3.25,10.73,0,65.09,0,81.3,0,.84,7.13,12.75,8.86,14.37,9.24,8.62,32.03,9.64,43.56,6.11,4.82-1.47,17.27-13.55,17.27-17.57v-84.21c0-7.66-20.33-3.7-20.33,2.9v75.49c0,9.47-29.04,9.47-29.04,0v-75.49c0-5.06-17.58-11.95-20.33-2.9ZM438.55,405.98c7.16-10.6,51.13,10.74,43.02-13-4.12-12.06-70.89-17.13-62.98,28,4.3,24.49,47.59,24.53,45.96,44.11-2.05,24.63-41.47-1.48-46.32,1.89-1.76,1.22-3.65,10.8-1.91,14.2,10.67,20.83,77.41,20.3,67.75-26.87-5.19-25.34-56.91-31.49-45.53-48.33ZM563.14,385.4h-68.24c-3.77,0-7.27,12.21-1.59,16.11,4.81,3.31,23.37.14,23.37,1.31v85.66c0,5.94,20.33,5.94,20.33,0v-85.66c0-2.17,38.9,9.08,26.13-17.42ZM327.96,667.06c.18-6.08.32-12.14-.71-18.2-2.19-12.91-19.23-68.29-24.82-79.7-6.63-13.54-20.23-12.67-26.97.4-4.66,9.04-23.72,71.61-25.29,82.25-1.74,11.75,1.33,18.69,14.95,15.4,4.78-1.15,3.08-16.08,7.49-19.2,5.56-3.94,25.45.27,33.33-1.45,5.7,17.16-.49,23.75,22.02,20.51ZM542.82,566.88v95.82c0,11.35,63.67,8.4,66.38,3.94,1.79-2.95-.22-10.12.41-14.1h-46.46c.81-4.91-1.13-27.94-.01-29.05,1.18-1.17,31.14,3.89,28.88-9.8-1.91-11.56-27.55-6.27-28.88-7.59-1.12-1.11.83-24.14.01-29.05h46.46c-.63-3.99,1.39-11.15-.41-14.1-2.79-4.59-63.01-7.18-66.38,3.94ZM153.73,566.88v100.18h17.42v-66.78c10.18,4.84,13.01,32.05,24.68,32.05,12.25,0,11.96-26.32,24.68-26.24v60.98h17.42v-100.18c0-1.92-4.89-4.14-7.34-4.52-17.85-2.78-26.12,28.53-33.34,40.81-12.82-9.12-16.7-43.89-36.18-40.8-2.66.42-6.58,2.06-7.34,4.51ZM390.38,562.52c-13.61-2.93-36.03,2.15-50.81,0v100.18c0,4.24,15.16,7.19,19.05,1.62,4.2-6-.43-31.92,1.29-40.83,3.11.45,7.06-.77,9.76-.11,6.2,1.53,25.31,66.85,38.21,40.73,6.65-13.48-17.42-35.29-15.85-41.77.85-3.5,11.81-6.56,15.06-14.07,6.51-15.05.72-41.98-16.7-45.73ZM474.58,562.52c-13.61-2.93-36.03,2.15-50.81,0v104.53c30.03,6.84,18.06-24.3,20.34-43.57,3.44.45,8.37-1.11,11.13.52,5.7,3.37,14.98,48.69,29.56,44.82,22.78-6.04-10.81-37.27-8.55-46.5,1.47-5.97,21.42-9.15,16.54-37.33-1.45-8.37-9.83-20.67-18.2-22.47ZM525.39,562.52h-17.42v104.53h17.42v-104.53ZM669.12,562.52c-12.83-2.78-33.96,2.03-47.91,0v104.53c18.34,5.66,56.31,5,64.93-14.78,8.64-19.8,10.83-83.7-17.02-89.75Z" style="fill:#f2e9dc;"/><path d="M780.91,518.97c-.21-.32-4.88-.27-7.12-2.91-9.99-11.8-2.08-113.6-4.38-138.02-4.65-49.5-47.36-44.06-84.32-44.89-191.41-4.3-383.62,2.15-575.09,1.28-16.38,4.06-32.36,16.26-36.33,33.36-6.8,29.3,5.94,130.2-3.95,146.36-2.04,3.33-8.58,4.08-8.92,4.83l-11.54-10.24c6.39-47.43-15.85-137.55,17.37-174.12,35.9-39.53,95.56-18.82,142.29-26.12l165.66-176.97c3.6-28.3,11.66-53.32,44.77-54.09,34.78-.81,44.18,24.1,47.79,54.09l165.66,176.97c46.73,7.3,106.38-13.41,142.29,26.12,33.21,36.57,10.98,126.69,17.37,174.12l-11.54,10.24ZM441.98,119.7c0-11.66-9.46-21.12-21.12-21.12s-21.12,9.46-21.12,21.12,9.46,21.12,21.12,21.12,21.12-9.46,21.12-21.12ZM603.79,312.81l-148.16-161.34c-5.38-2.65-15.17,8.16-22.36,9.68-18.43,3.89-30.37-1.22-45.38-10.64l-149.96,162.3h365.86Z" style="fill:#060606;"/><path d="M780.91,518.97c.8,1.21.56,27.56,0,29.04-.16.43-5.49,2.8-7.14,5.8-11.54,21.13-1.27,107.07-4.33,138.07-4.61,46.6-48.96,43.92-84.35,44.86,5.91-14.66,19.97-24.85,20.33-42.1v-213.42c39.43-19.29,45.38-70.36,0-84.21,3.96-26.79-6.21-43.15-20.33-63.88,36.95.83,79.67-4.6,84.32,44.89,2.3,24.42-5.61,126.23,4.38,138.02,2.24,2.65,6.91,2.59,7.12,2.91Z" style="fill:#dfd2c0;"/><path d="M780.91,548c8.73.84,10.72,5.17,11.75,12.93,3.41,25.59,2.87,115.98-1.43,141.12-4.77,27.87-32.48,53.22-61.02,55.13l-628.92-1.4c-25.06-7.29-47.55-29.65-51.34-56.09-4.36-30.39-3.57-104.2-.76-135.74.72-8.01,1.26-15.42,11.61-13.04.26.4,5.51.19,8.43,4.52,10.13,15-1.94,116.64,3.84,144.36,5.47,26.27,34.53,37.08,58.73,37.08,184.23-3.91,369.15,4.78,553.27-.13,35.39-.94,79.74,1.73,84.35-44.86,3.07-31.01-7.21-116.94,4.33-138.07,1.64-3.01,6.97-5.37,7.14-5.8Z" style="fill:#060606;"/><path d="M173.26,383.18c35.96-7.48,54.54,19.21,49.89,52.79-1.85,13.36-22.46,51.26-36.09,53.89-35.28,6.8-92.65-21.36-81.32-63.9,7.1-26.64,28.02-23.53,45.84-29.63,6.42-2.2,11.88-11.11,21.67-13.15ZM162.44,423.15c-.8-.53-16.75-2.89-18.95-2.93-15.49-.26-19.02,13.22-14.64,26.34,4.75,14.23,34.29,22.43,48.1,20.14,16.33-2.7,35.88-45.06,17.38-59.47-14.69-11.45-25.19,3.93-31.9,15.92Z" style="fill:#060606;"/><path d="M705.42,397.01c45.39,13.84,39.44,64.91,0,84.21-12.94,6.33-41.76,12.79-55.11,7.2-9.67-4.05-29.43-39.06-31.31-49.99-5.88-34.22,12.14-63.02,49.46-55.25,9.8,2.04,15.73,11.37,21.66,13.23,5.28,1.66,11.88-.43,15.29.61ZM661.86,466.7c10.94,5.81,46.54-6.76,51.01-20.14,4.38-13.12.85-26.59-14.65-26.34-2.16.04-18.14,2.4-18.94,2.93-16.31-35.41-49.78-18.69-36.23,17.38,3.04,8.1,11.26,22.17,18.81,26.17Z" style="fill:#060606;"/><path d="M153.73,566.88c.76-2.45,4.68-4.09,7.34-4.51,19.48-3.09,23.37,31.68,36.18,40.8,7.23-12.28,15.5-43.59,33.34-40.81,2.45.38,7.34,2.6,7.34,4.52v100.18h-17.42v-60.98c-12.72-.08-12.43,26.24-24.68,26.24-11.67,0-14.5-27.21-24.68-32.05v66.78h-17.42v-100.18Z" style="fill:#060606;"/><path d="M390.38,562.52c17.42,3.76,23.2,30.68,16.7,45.73-3.25,7.51-14.21,10.57-15.06,14.07-1.57,6.49,22.51,28.29,15.85,41.77-12.89,26.12-32-39.2-38.21-40.73-2.7-.66-6.65.55-9.76.11-1.72,8.91,2.91,34.83-1.29,40.83-3.89,5.57-19.05,2.61-19.05-1.62v-100.18c14.78,2.15,37.2-2.93,50.81,0ZM388.21,605.35c13.08-15.06-10.31-35.59-28.34-28.33v31.97c6.94-.29,23.81,1.58,28.34-3.64Z" style="fill:#0a0a09;"/><path d="M474.58,562.52c8.37,1.8,16.74,14.1,18.2,22.47,4.89,28.18-15.07,31.35-16.54,37.33-2.26,9.23,31.32,40.46,8.55,46.5-14.57,3.87-23.86-41.46-29.56-44.82-2.76-1.63-7.69-.07-11.13-.52-2.27,19.27,9.69,50.41-20.34,43.57v-104.53c14.78,2.15,37.2-2.93,50.81,0ZM441.17,608.99c11.67-.75,28.98,4.66,31.89-10.28,2.38-12.22-.5-19.6-13.22-21.5-26.2-3.92-17.55,12.68-18.67,31.78Z" style="fill:#060606;"/><path d="M669.12,562.52c27.85,6.04,25.66,69.95,17.02,89.75-8.63,19.78-46.6,20.44-64.93,14.78v-104.53c13.95,2.03,35.08-2.78,47.91,0ZM638.64,652.53c10.19.15,25.41,2.56,30.42-8.78,2.66-6.02,2.85-52.18.07-58.01-4.92-10.35-30.49-11.34-30.49-4.35v71.14Z" style="fill:#060606;"/><path d="M333.75,389.75c2.74-9.04,20.33-2.16,20.33,2.9v75.49c0,9.47,29.04,9.47,29.04,0v-75.49c0-6.6,20.33-10.57,20.33-2.9v84.21c0,4.03-12.45,16.1-17.27,17.57-11.53,3.52-34.32,2.51-43.56-6.11-1.73-1.62-8.86-13.52-8.86-14.37,0-16.21-3.25-70.57,0-81.3Z" style="fill:#0a0a09;"/><path d="M327.96,667.06c-22.51,3.24-16.32-3.35-22.02-20.51-7.88,1.73-27.78-2.49-33.33,1.45-4.41,3.13-2.71,18.05-7.49,19.2-13.62,3.29-16.68-3.65-14.95-15.4,1.58-10.64,20.63-73.21,25.29-82.25,6.74-13.07,20.34-13.94,26.97-.4,5.59,11.41,22.63,66.8,24.82,79.7,1.03,6.06.89,12.12.71,18.2ZM298.92,629.3l-1.35-14.64-10.25-26-8.75,40.62h20.34Z" style="fill:#0a0a09;"/><path d="M542.82,566.88c3.36-11.12,63.59-8.53,66.38-3.94,1.79,2.95-.22,10.12.41,14.1h-46.46c.81,4.91-1.13,27.94-.01,29.05,1.32,1.32,26.97-3.97,28.88,7.59,2.26,13.69-27.7,8.63-28.88,9.8s.83,24.14.01,29.05h46.46c-.63,3.99,1.39,11.15-.41,14.1-2.71,4.46-66.38,7.41-66.38-3.94v-95.82Z" style="fill:#0a0a09;"/><path d="M438.55,405.98c-11.38,16.84,40.35,22.99,45.53,48.33,9.65,47.17-57.08,47.71-67.75,26.87-1.74-3.4.15-12.98,1.91-14.2,4.84-3.36,44.26,22.74,46.32-1.89,1.63-19.58-41.66-19.61-45.96-44.11-7.91-45.12,58.86-40.06,62.98-28,8.11,23.74-35.86,2.4-43.02,13Z" style="fill:#0a0a09;"/><path d="M298.91,402.82c-1.08-1.02-20.68,3.35-22.66-7.69-2.86-15.95,37.57-11.4,39.68-4.98s1.61,68.31.47,78.06c-4.81,41.1-78.58,28.66-66.4-8.35,2.12-6.44,11.57-6.77,15.54-1.89,4.2,5.17.91,15.37,11.61,17.44,10.01,1.93,21.76-1.35,21.76-13.08,0-8.2,2.17-57.49,0-59.52Z" style="fill:#060606;"/><path d="M563.14,385.4c12.77,26.5-26.13,15.25-26.13,17.42v85.66c0,5.94-20.33,5.94-20.33,0v-85.66c0-1.17-18.56,2-23.37-1.31-5.68-3.91-2.18-16.11,1.59-16.11h68.24Z" style="fill:#0a0a09;"/><rect x="507.97" y="562.52" width="17.42" height="104.53" style="fill:#060606;"/><circle cx="420.86" cy="119.7" r="21.12" style="fill:#f5658b;"/><path d="M176.96,466.7c-.48-6.15-12.6-42.29-14.52-43.55,6.72-11.99,17.21-27.37,31.9-15.92,18.49,14.41-1.05,56.77-17.38,59.47Z" style="fill:#f5adc3;"/><path d="M162.44,423.15c1.91,1.27,14.04,37.4,14.52,43.55-13.81,2.29-43.35-5.92-48.1-20.14-4.38-13.12-.86-26.59,14.64-26.34,2.2.04,18.15,2.4,18.95,2.93Z" style="fill:#f7c5d0;"/><path d="M679.29,423.15c-1.96,1.3-11.12,38.77-17.42,43.55-7.55-4-15.77-18.07-18.81-26.17-13.55-36.07,19.92-52.79,36.23-17.38Z" style="fill:#f7c5d0;"/><path d="M679.29,423.15c.8-.53,16.78-2.89,18.94-2.93,15.5-.25,19.03,13.21,14.65,26.34-4.47,13.39-40.06,25.95-51.01,20.14,6.3-4.79,15.47-42.26,17.42-43.55Z" style="fill:#f5adc3;"/><path d="M388.21,605.35c-4.53,5.22-21.4,3.35-28.34,3.64v-31.97c18.02-7.27,41.42,13.27,28.34,28.33Z" style="fill:#f2e9dc;"/><path d="M441.17,608.99c1.12-19.1-7.53-35.7,18.67-31.78,12.72,1.9,15.6,9.27,13.22,21.5-2.91,14.94-20.23,9.53-31.89,10.28Z" style="fill:#e5ddd1;"/><path d="M638.64,652.53v-71.14c0-6.99,25.57-6,30.49,4.35,2.78,5.84,2.59,52-.07,58.01-5.01,11.34-20.23,8.92-30.42,8.78Z" style="fill:#e5ddd1;"/><polygon points="298.92 629.3 278.58 629.29 287.33 588.67 297.57 614.67 298.92 629.3" style="fill:#e5ddd1;"/></svg>