<?xml version="1.0" encoding="UTF-8"?><svg id="a" xmlns="http://www.w3.org/2000/svg" viewBox="0 0 841.77 834.58"><path d="M89.94,42.96l451.53,3.08c1.99,13.44-4.4,48.77,3.95,58.07,1.9,2.11,8.06,3.03,8.41,3.8.64,1.41.85,29.63,0,30.93-.22.34-5.2.28-7.59,3.1-11.1,13.1-1.57,73.11-4.78,92.77h-119.06c-3.92,0-14.69,19.65-19.06,21.15-11.76,4.04-41.97-6.76-44.47,8.28-3.85,23.12,31.56,11.09,46.54,13.85v34.05c-12.82,1.78-50.02-7.16-48.6,13.46,1.23,17.73,35.98,9.51,48.6,11.25v34.05c-9.04,1.46-45.94-4.88-46.71,7.7-1.58,25.79,29.63,15.01,46.71,17v34.05c-14.11,2.82-46.68-8.39-46.68,10.81s32.57,7.99,46.68,10.81v37.14c-14.11,2.82-46.68-8.39-46.68,10.81s32.57,7.99,46.68,10.81v34.05c-13.42,1.28-46.6-6.33-46.71,13.88-.1,19.19,32.67,8.03,46.71,10.83l.04,32.25c-1.02,6.81-50.25-8.14-48.63,15.25,1.23,17.73,35.98,9.51,48.6,11.25v34.05c-14.04,2.8-46.81-8.36-46.71,10.83.11,20.21,33.28,12.6,46.71,13.88v34.05c-9.74,1.85-42.79-4.74-46.04,5.03-9.63,28.89,39.07,11.11,45.69,16.95,1.25,1.1,8.12,27.49,17.34,27.49h119.06l.02,18.57c-119.01,1.57-238.3-2.11-357.33-.14-31.14.51-62.44,4.12-94.2,3.22V42.96ZM359.36,119.94c-5.25-3.78-5.65-27.81-30.44-32.96-29.3-6.08-39.35,11.71-48.84,11.72-4.37,0-11.39-9.03-19.82-11.1-48.48-11.9-77.65,34.77-48.23,72.96,6.54,8.49,53.08,54.36,60.53,57.04,20.42,7.35,31.12-14.96,44.69-26.13,10.28,8.09,22.48,28.68,36.89,27.75,8.88-.58,43.46-34.73,49.76-43.21,17.68-23.77,4.38-57.59-25.03-58.62-5.6-.2-16.05,5.05-19.51,2.55ZM157.2,257.1c-5.86-5.78-31.82-5.81-36.54,1.35-19.86,30.06,61.99,23.76,36.54-1.35ZM323.43,256.35h-128.34c-1.65,0-10.63,19.41,13.73,21.83,25,2.48,83.53,2.54,108.19-.5,17.52-2.16,12.46-19.43,6.42-21.32ZM126.13,312.65c-10.07,2.99-11.71,17.91-2.17,22.56,7.29,3.56,31.45,3.73,35.64-4.63,9.68-19.3-20.2-21.88-33.48-17.94ZM320.34,312.02c-34.53-5.83-84.31,4.33-120.61,0-11.37,3.78-7.79,24.74,0,24.74h120.61c10.37,0,12.77-22.58,0-24.74ZM126.13,371.41c-19.2,5.69-7.18,27.93,21.15,24.27,26.81-3.46,13.89-34.66-21.15-24.27ZM199.73,370.78c-11.37,3.78-7.79,24.74,0,24.74h120.61c7.82,0,11.12-24.74,3.09-24.74h-123.7ZM157.5,450.73c1.62-1.03,3.77-10.05,3.13-12.83-2.45-10.61-26.11-10.23-34.48-7.73-11.09,3.3-8.89,19.75-3.2,21.14,3.28.8,33.1.35,34.55-.58ZM199.73,429.54c-11.07,3.77-7.19,21.65,0,21.65h123.7c6.32,0,6.32-21.65,0-21.65h-123.7ZM126.14,488.93c-21.01,6.27-1.91,28.83,26.56,20.37,20.92-6.22,2.03-28.9-26.56-20.37ZM199.73,488.29c-11.07,3.77-7.19,21.65,0,21.65h123.7c6.32,0,6.32-21.65,0-21.65h-123.7ZM129.28,544.66c-23.4,5.21-11.87,30.27,20.89,23.94,21.22-4.1,12.2-31.31-20.89-23.94ZM199.73,568.7h123.7c4.64,0,13.3-22.41-12.19-24.92-19.36-1.91-90.9-2.8-107.73.87-16.14,3.52-13.57,21.31-3.78,24.05ZM126.13,603.35c-10.07,2.99-11.71,17.91-2.17,22.56,7.29,3.56,31.45,3.73,35.64-4.63,9.68-19.3-20.2-21.88-33.48-17.94ZM320.34,602.72c-34.53-5.83-84.31,4.33-120.61,0-11.37,3.78-7.79,24.74,0,24.74h120.61c10.37,0,12.77-22.58,0-24.74ZM126.13,662.11c-18.38,5.45-8.14,28.32,20.8,23.91,28.17-4.29,13.07-33.96-20.8-23.91ZM200.36,662.11c-14.29,7.98-10.61,21.39,5.76,23.91,15.96,2.46,96.18,2.98,111.05.13s18.52-20.18,3.18-24.68l-119.99.64ZM126.14,720.88c-21.01,6.27-1.91,28.83,26.56,20.37,20.92-6.22,2.03-28.9-26.56-20.37ZM199.73,720.24c-11.07,3.77-7.19,21.65,0,21.65h123.7c6.32,0,6.32-21.65,0-21.65h-123.7Z" style="fill:#dbf5fb;"/><path d="M89.94,42.96v748.4c-7.19-.2-14.48.16-21.67.02l-.04-746.64,21.7-1.78Z" style="fill:#97cbdb;"/><path d="M200.36,662.11l119.99-.64c15.34,4.5,11.68,21.84-3.18,24.68s-95.09,2.33-111.05-.13c-16.37-2.52-20.05-15.93-5.76-23.91Z" style="fill:#0e1010;"/><path d="M320.34,312.02c12.77,2.16,10.37,24.74,0,24.74h-120.61c-7.79,0-11.37-20.96,0-24.74,36.3,4.33,86.08-5.83,120.61,0Z" style="fill:#0e1010;"/><path d="M199.73,370.78h123.7c8.02,0,4.73,24.74-3.09,24.74h-120.61c-7.79,0-11.37-20.96,0-24.74Z" style="fill:#0e1010;"/><path d="M320.34,602.72c12.77,2.16,10.37,24.74,0,24.74h-120.61c-7.79,0-11.37-20.96,0-24.74,36.3,4.33,86.08-5.83,120.61,0Z" style="fill:#0e1010;"/><path d="M199.73,568.7c-9.79-2.74-12.36-20.53,3.78-24.05,16.83-3.67,88.37-2.78,107.73-.87,25.49,2.51,16.83,24.92,12.19,24.92h-123.7Z" style="fill:#0e1010;"/><path d="M323.43,256.35c6.03,1.89,11.09,19.16-6.42,21.32-24.66,3.04-83.18,2.98-108.19.5-24.36-2.41-15.38-21.83-13.73-21.83h128.34Z" style="fill:#020304;"/><path d="M199.73,429.54h123.7c6.32,0,6.32,21.65,0,21.65h-123.7c-7.19,0-11.07-17.87,0-21.65Z" style="fill:#020304;"/><path d="M199.73,720.24h123.7c6.32,0,6.32,21.65,0,21.65h-123.7c-7.19,0-11.07-17.87,0-21.65Z" style="fill:#020304;"/><path d="M199.73,488.29h123.7c6.32,0,6.32,21.65,0,21.65h-123.7c-7.19,0-11.07-17.87,0-21.65Z" style="fill:#020304;"/><path d="M126.13,312.65c13.28-3.95,43.15-1.37,33.48,17.94-4.19,8.35-28.35,8.18-35.64,4.63-9.54-4.65-7.91-19.57,2.17-22.56Z" style="fill:#0e1010;"/><path d="M126.13,603.35c13.28-3.95,43.15-1.37,33.48,17.94-4.19,8.35-28.35,8.18-35.64,4.63-9.54-4.65-7.91-19.57,2.17-22.56Z" style="fill:#0e1010;"/><path d="M126.13,371.41c35.04-10.39,47.96,20.8,21.15,24.27-28.33,3.66-40.34-18.58-21.15-24.27Z" style="fill:#0e1010;"/><path d="M129.28,544.66c33.09-7.37,42.11,19.84,20.89,23.94-32.76,6.33-44.29-18.72-20.89-23.94Z" style="fill:#0e1010;"/><path d="M126.13,662.11c33.87-10.04,48.97,19.63,20.8,23.91-28.95,4.41-39.18-18.47-20.8-23.91Z" style="fill:#0e1010;"/><path d="M157.2,257.1c25.45,25.11-56.4,31.41-36.54,1.35,4.73-7.16,30.68-7.13,36.54-1.35Z" style="fill:#050707;"/><path d="M157.5,450.73c-1.46.93-31.27,1.37-34.55.58-5.69-1.38-7.89-17.83,3.2-21.14,8.38-2.5,32.04-2.88,34.48,7.73.64,2.78-1.51,11.8-3.13,12.83Z" style="fill:#050707;"/><path d="M126.14,488.93c28.59-8.53,47.49,14.14,26.56,20.37-28.48,8.47-47.57-14.1-26.56-20.37Z" style="fill:#050707;"/><path d="M126.14,720.88c28.59-8.53,47.49,14.14,26.56,20.37-28.48,8.47-47.57-14.1-26.56-20.37Z" style="fill:#050707;"/><path d="M359.36,119.94c3.46,2.49,13.91-2.75,19.51-2.55,29.41,1.04,42.71,34.86,25.03,58.62-6.3,8.47-40.88,42.63-49.76,43.21-14.42.94-26.61-19.66-36.89-27.75-13.56,11.18-24.26,33.49-44.69,26.13-7.45-2.68-54-48.56-60.53-57.04-29.42-38.2-.25-84.86,48.23-72.96,8.43,2.07,15.45,11.11,19.82,11.1,9.48,0,19.54-17.8,48.84-11.72,24.79,5.15,25.19,29.18,30.44,32.96ZM331.16,117.15c-19.02-27.53-36.48,12.74-51.1,12.35-10.12-.27-29.68-37.67-51-13.93-10.27,11.43-6.41,18.98,1.54,29.51,4.78,6.33,45.59,46.43,49.54,46.43,3.86,0,19.06-14.23,19.27-17.08.12-1.62-4.84-9.25-5.46-15.43-2.61-25.75,12.55-39.95,37.22-41.85ZM362.09,182.13c7.83-6.89,43.46-33.13,19.43-39.76-13.45-3.72-18.18,15.47-29.78,14.38-8.39-.79-15.05-13.78-20.58-14.82-8.84-1.67-18.42,5.88-14.01,15.4,1.02,2.19,32.14,33.45,34.53,33.86,6.22.75,7.58-6.56,10.41-9.06Z" style="fill:#050707;"/><path d="M331.16,117.15c-24.67,1.9-39.82,16.1-37.22,41.85.62,6.17,5.58,13.81,5.46,15.43-.2,2.85-15.41,17.09-19.27,17.08-3.94,0-44.76-40.11-49.54-46.43-7.96-10.53-11.81-18.08-1.54-29.51,21.32-23.75,40.89,13.66,51,13.93,14.63.39,32.08-39.88,51.1-12.35Z" style="fill:#f33744;"/><path d="M362.09,182.13c-11.95-10.78-30.58-22.58-30.93-40.2,5.53,1.04,12.19,14.03,20.58,14.82,11.6,1.09,16.33-18.1,29.78-14.38,24.02,6.64-11.6,32.87-19.43,39.76Z" style="fill:#97cbdb;"/><path d="M331.16,141.93c.34,17.62,18.98,29.43,30.93,40.2-2.83,2.49-4.19,9.8-10.41,9.06-2.38-.41-33.51-31.67-34.53-33.86-4.4-9.52,5.17-17.07,14.01-15.4Z" style="fill:#f33744;"/><path d="M553.83,107.91c-.35-.77-6.51-1.69-8.41-3.8-8.35-9.29-1.95-44.63-3.95-58.07l-451.53-3.08-21.7,1.78.04,746.64c7.19.15,14.47-.22,21.67-.02,31.75.9,63.05-2.71,94.2-3.22,119.03-1.96,238.32,1.72,357.33.14l-.02-18.57h-119.06c-9.22,0-16.09-26.38-17.34-27.49-6.62-5.84-55.32,11.94-45.69-16.95,3.25-9.76,36.3-3.18,46.04-5.03v-34.05c-13.42-1.28-46.6,6.33-46.71-13.88-.1-19.19,32.67-8.03,46.71-10.83v-34.05c-12.62-1.75-47.37,6.47-48.6-11.25-1.62-23.39,47.61-8.44,48.63-15.25l-.04-32.25c-14.04-2.8-46.81,8.36-46.71-10.83.11-20.21,33.28-12.6,46.71-13.88v-34.05c-14.11-2.82-46.68,8.39-46.68-10.81s32.57-7.99,46.68-10.81v-37.14c-14.11-2.82-46.68,8.39-46.68-10.81s32.57-7.99,46.68-10.81v-34.05c-17.08-1.99-48.29,8.79-46.71-17,.77-12.59,37.67-6.24,46.71-7.7v-34.05c-12.62-1.75-47.37,6.47-48.6-11.25-1.43-20.61,35.77-11.67,48.6-13.46v-34.05c-14.98-2.76-50.38,9.27-46.54-13.85,2.5-15.04,32.71-4.25,44.47-8.28,4.36-1.5,15.14-21.15,19.06-21.15h119.06c3.21-19.66-6.32-79.66,4.78-92.77,2.39-2.82,7.36-2.76,7.59-3.1,9.76-2.01,11.02,2.62,12.05,11.06,3.26,26.64-1.74,57.67.32,84.81h211.84c5.87,0,18.91,15.53,17.08,23.13l-.73,494.22c-3.4,11.33-11.03,16.41-22.47,17.74-27.24,3.16-106.27,3.45-133.19.09-7.31-.91-10.8-2.43-13.77-9.43,1.57-.73,1.52-10.62,10.82-12.39,34.53-6.57,89.68,4.55,126.96.18,3.12-.37,10.67-1.41,10.67-4.8v-482.44c0-2.56-7.5-5.47-10.67-4.8-104.5,3.04-209.66-3.53-314.05.16-6.17.22-12.41-.18-18.57-.02l-.04,489.95c.52,3.37,14.36,1.64,18.61,1.78,45.73,1.56,91.83-1.15,137.62-.01,11.09,2.09,6.61,11.26,7.73,12.38.46,16-25.17,6.6-27.85,9.26-4.58,4.55,12.04,39.57-20.03,43.37H66.69c-12.2-.3-19.81-8.01-20.1-20.1l-.09-748.6c-.32-9.24,2.97-18.66,12.33-21.69l490.16-1.17c23.3-.12,20.02,60.32,17.13,75.49-1.33,6.98-5.34,10.37-12.3,10.91Z" style="fill:#020304;"/><path d="M624.96,760.44c-1.4.65-29.84,1.1-30.93,0s3.37-10.29-7.73-12.38c-45.79-1.14-91.9,1.57-137.62.01l3.09-392.76c1.22,12,3.66,20.05,16.86,21.8,49.49,6.55,113.1-5.31,164.2,0,7.85.1,13.23-4.37,13.77-12.52,1.44.57,29.49.57,30.93,0,3.23,8.59,4.33,11.41,13.74,12.55,12.68,1.55,50.16,3.19,55.77-9.53,2.63-5.97,3.13-64.35,1.55-72.54-1.47-7.68-7.57-11.09-14.52-13.32-81.95,5.5-179-9.61-259.18-.75-19.11,2.11-21.79,7.55-23.13,24.82-6.98-13.96-1.35-33.74-3.09-49.48,104.39-3.69,209.55,2.88,314.05-.16,3.17-.67,10.67,2.24,10.67,4.8v482.44c0,3.39-7.55,4.43-10.67,4.8-37.28,4.38-92.43-6.74-126.96-.18-9.3,1.77-9.24,11.66-10.82,12.39ZM455.68,411.77c-7.09,7.55-6.83,50.7,4.15,57.65,8.49,5.37,58.89,5.18,68.48,1.08,18-7.7,18.11-52.99,1.99-62.27-10.78-6.21-65.66-6-74.62,3.54ZM574.58,405.45c-23.65,5.31-22.96,52.68-11.37,62.64,9.34,8.03,68.34,8.17,77.3-2.9,9-11.1,8.95-44.17-1.51-54.35-8.47-8.24-52.63-8.05-64.43-5.4ZM679.73,405.45c-23.65,5.31-22.96,52.68-11.37,62.64,9.34,8.03,68.34,8.17,77.3-2.9,9-11.1,8.95-44.17-1.51-54.35-8.47-8.24-52.63-8.05-64.43-5.4ZM466.35,488.96c-19.91,4.59-19.22,49.19-8.56,59.81,10.19,10.15,55.19,10.26,68.36,6.17,20.26-6.29,21-54.11,4.69-63.75-7.31-4.32-54.76-4.47-64.48-2.23ZM571.5,488.96c-19.91,4.59-19.22,49.19-8.56,59.81,10.19,10.15,55.19,10.26,68.36,6.17,20.26-6.29,21-54.11,4.69-63.75-7.31-4.32-54.76-4.47-64.48-2.23ZM676.65,488.96c-19.91,4.59-19.22,49.19-8.56,59.81,10.19,10.15,55.19,10.26,68.36,6.17,20.62-6.4,20.18-53.75,4.7-63.77-6.67-4.32-55.1-4.38-64.5-2.21ZM534.55,575.62c-5.28-5.27-66.15-5.78-73.5-2.28-13.47,6.41-13.45,55.48,0,61.87,6.92,3.29,65.85,2.8,72.19-1.29,10.81-6.97,10.25-49.37,1.31-58.29ZM639.69,575.62c-5.28-5.27-66.15-5.78-73.5-2.28-13.47,6.41-13.45,55.48,0,61.87,6.92,3.29,65.85,2.8,72.19-1.29,10.81-6.97,10.25-49.37,1.31-58.29ZM744.78,575.7c-6.32-5.93-68.27-5.94-75.21-1.04-6.13,4.34-7.03,13.31-7.65,20.18-1.43,15.67-1.75,106.21,2.43,115.38,6.42,14.07,67.46,13.17,76.79,7.14,8.07-5.22,9.89-17.49,10.72-26.39,2.19-23.37,2.16-69.63.05-93.05-.55-6.12-2.85-18.2-7.14-22.23ZM469.43,652.85c-24.62,5.52-22.51,55.76-10.16,64.52,7.61,5.4,65.03,4.85,73.14-1.53,12.61-9.93,12.78-47.66,1.47-57.61-8.83-7.76-52.72-8.01-64.45-5.38ZM574.58,652.85c-23.66,5.31-22.96,52.69-11.37,62.64,8.75,7.52,65.52,7.3,74.36.34,12.61-9.93,12.78-47.66,1.47-57.61-8.83-7.76-52.72-8.01-64.45-5.38Z" style="fill:#0076ea;"/><path d="M448.68,256.35c1.74,15.74-3.89,35.52,3.09,49.48-1.05,13.63-1.37,36.1,0,49.48l-3.09,392.76c-4.25-.14-18.09,1.59-18.61-1.78l.04-489.95c6.16-.17,12.41.23,18.57.02Z" style="fill:#0056b1;"/><path d="M677.53,364.59c.64-.25,2.09-5.1,4.33-6.36,11.75-6.62,31.46-1.24,45.15-2.92v-49.48h-253.59v44.84c0,3.39,7.55,4.43,10.67,4.8,30.5,3.58,141.04-6.9,158.19,2.76,2.24,1.26,3.69,6.11,4.33,6.36-.55,8.14-5.92,12.62-13.77,12.52-51.1-5.31-114.71,6.56-164.2,0-13.19-1.75-15.63-9.8-16.86-21.8-1.37-13.38-1.05-35.86,0-49.48,1.33-17.28,4.02-22.71,23.13-24.82,80.19-8.87,177.23,6.25,259.18.75,6.94,2.22,13.04,5.64,14.52,13.32,1.57,8.19,1.08,66.57-1.55,72.54-5.61,12.72-43.09,11.08-55.77,9.53-9.41-1.15-10.51-3.96-13.74-12.55Z" style="fill:#020304;"/><path d="M646.6,364.59c-.64-.25-2.09-5.1-4.33-6.36-17.15-9.66-127.69.82-158.19-2.76-3.12-.37-10.67-1.41-10.67-4.8v-44.84h253.59v49.48c-13.69,1.67-33.4-3.7-45.15,2.92-2.24,1.26-3.69,6.11-4.33,6.36-1.44.57-29.49.57-30.93,0Z" style="fill:#00caa4;"/><path d="M744.78,575.7c4.29,4.02,6.58,16.1,7.14,22.23,2.12,23.42,2.15,69.68-.05,93.05-.83,8.9-2.65,21.17-10.72,26.39-9.33,6.03-70.38,6.92-76.79-7.14-4.18-9.17-3.86-99.71-2.43-115.38.62-6.87,1.52-15.84,7.65-20.18,6.93-4.9,68.89-4.89,75.21,1.04ZM727.01,593.44h-40.2v105.15h40.2v-105.15Z" style="fill:#050707;"/><path d="M466.35,488.96c9.73-2.24,57.17-2.1,64.48,2.23,16.31,9.64,15.57,57.47-4.69,63.75-13.17,4.09-58.16,3.97-68.36-6.17-10.66-10.61-11.35-55.22,8.56-59.81ZM516.73,512.98l-40.29.04.02,18.63,40.29-.04-.02-18.63Z" style="fill:#050707;"/><path d="M455.68,411.77c8.96-9.54,63.83-9.76,74.62-3.54,16.12,9.29,16,54.58-1.99,62.27-9.59,4.1-59.99,4.29-68.48-1.08-10.98-6.95-11.24-50.1-4.15-57.65ZM516.73,429.48l-40.29.04.02,18.63,40.29-.04-.02-18.63Z" style="fill:#050707;"/><path d="M676.65,488.96c9.4-2.17,57.83-2.11,64.5,2.21,15.47,10.01,15.92,57.37-4.7,63.77-13.16,4.09-58.16,3.97-68.36-6.17-10.66-10.61-11.35-55.22,8.56-59.81ZM727.03,512.98l-40.29.04.02,18.63,40.29-.04-.02-18.63Z" style="fill:#050707;"/><path d="M574.58,405.45c11.8-2.65,55.96-2.84,64.43,5.4,10.45,10.18,10.5,43.25,1.51,54.35-8.97,11.06-67.97,10.93-77.3,2.9-11.59-9.97-12.28-57.34,11.37-62.64ZM621.88,429.48l-40.29.04.02,18.63,40.29-.04-.02-18.63Z" style="fill:#050707;"/><path d="M679.73,405.45c11.8-2.65,55.96-2.84,64.43,5.4,10.45,10.18,10.5,43.25,1.51,54.35-8.97,11.06-67.97,10.93-77.3,2.9-11.59-9.97-12.28-57.34,11.37-62.64ZM727.03,429.48l-40.29.04.02,18.63,40.29-.04-.02-18.63Z" style="fill:#050707;"/><path d="M571.5,488.96c9.73-2.24,57.17-2.1,64.48,2.23,16.31,9.64,15.57,57.47-4.69,63.75-13.17,4.09-58.16,3.97-68.36-6.17-10.66-10.61-11.35-55.22,8.56-59.81ZM621.88,509.89l-40.29.04.02,21.72,40.29-.04-.02-21.72Z" style="fill:#050707;"/><path d="M469.43,652.85c11.73-2.63,55.62-2.39,64.45,5.38,11.32,9.95,11.15,47.68-1.47,57.61-8.11,6.39-65.53,6.93-73.14,1.53-12.35-8.76-14.47-59,10.16-64.52ZM516.72,676.94h-43.3c-5.97,32.43,21.79,19.31,43.31,21.66l-.02-21.66Z" style="fill:#050707;"/><path d="M574.58,652.85c11.73-2.63,55.62-2.39,64.45,5.38,11.32,9.95,11.15,47.68-1.47,57.61-8.83,6.95-65.6,7.18-74.36-.34-11.59-9.96-12.28-57.34,11.37-62.64ZM621.86,676.94h-43.3c-5.97,32.43,21.79,19.31,43.31,21.66l-.02-21.66Z" style="fill:#050707;"/><path d="M639.69,575.62c8.94,8.93,9.5,51.32-1.31,58.29-6.34,4.09-65.27,4.57-72.19,1.29-13.45-6.39-13.47-55.45,0-61.87,7.35-3.5,68.23-2.99,73.5,2.28ZM621.88,593.43c-14.81,1.84-51.26-8.39-42.95,16.62,3.2,9.65,33.87,3.27,42.95,5.06v-21.68Z" style="fill:#020304;"/><path d="M534.55,575.62c8.94,8.93,9.5,51.32-1.31,58.29-6.34,4.09-65.27,4.57-72.19,1.29-13.45-6.39-13.47-55.45,0-61.87,7.35-3.5,68.23-2.99,73.5,2.28ZM516.73,593.43c-14.81,1.84-51.26-8.39-42.95,16.62,3.2,9.65,33.87,3.27,42.95,5.06v-21.68Z" style="fill:#020304;"/><rect x="686.81" y="593.44" width="40.2" height="105.15" style="fill:#f33744;"/><rect x="476.45" y="513" width="40.29" height="18.63" style="fill:#97cbdb;"/><rect x="476.45" y="429.5" width="40.29" height="18.63" style="fill:#f33744;"/><rect x="686.75" y="513" width="40.29" height="18.63" style="fill:#f33744;"/><rect x="581.6" y="429.5" width="40.29" height="18.63" style="fill:#f33744;"/><rect x="686.75" y="429.5" width="40.29" height="18.63" style="fill:#f33744;"/><rect x="581.6" y="509.9" width="40.29" height="21.72" style="fill:#97cbdb;"/><path d="M516.72,676.94l.02,21.66c-21.52-2.36-49.28,10.76-43.31-21.66h43.3Z" style="fill:#97cbdb;"/><path d="M621.86,676.94l.02,21.66c-21.52-2.36-49.28,10.76-43.31-21.66h43.3Z" style="fill:#97cbdb;"/><path d="M621.88,593.43v21.68c-9.07-1.79-39.74,4.59-42.95-5.06-8.31-25.01,28.13-14.78,42.95-16.62Z" style="fill:#97cbdb;"/><path d="M516.73,593.43v21.68c-9.07-1.79-39.74,4.59-42.95-5.06-8.31-25.01,28.13-14.78,42.95-16.62Z" style="fill:#97cbdb;"/></svg>