<?xml version="1.0" encoding="UTF-8"?><svg id="a" xmlns="http://www.w3.org/2000/svg" viewBox="0 0 234.69 235.86"><g id="b"><path d="M21.31,171.91c-1.29-.07-2.68-.89-3.03-2.23-1.13-4.31,9.27-17.46,9.95-22.17.49-3.39-4.3-6.36-1.23-14.36.47-1.21,2.79-4,2.79-4.33,0-.29-2.65-3.07-3.17-4.72-.9-2.85-.96-6.73-.23-9.65.53-2.12,3.51-4.99,3.51-5.31,0-.2-1.96-2.08-2.47-3.11-1.71-3.48-1.99-7.45-1.04-11.27.6-2.39,4.21-5.74,4.21-6.12,0-.46-3.55-5.26-3.76-8.31-.39-5.73,4.37-12.51,9.81-13.39,3.79-.61,23.77.87,24.63-.05-.69-13.25,5.62-25.85,16.98-31.86,2.96-1.56,11.24-3.17,12.47-4.17,1.04-.84,2.58-6.25,3.9-8.23,2.58-3.88,7.59-7.57,11.93-8.84,8.04-2.35,41.2-1.95,50.72-1.09,5.23.47,11.29,3.3,14.87,7.4,2.09,2.39,5.35,10.75,5.85,11.11.84.6,7.53,1.68,9.95,2.71,8.52,3.64,17.43,13.33,18.74,23.1.31,2.28.6,5.7-2.82,4.94-.08-.14-1.98-.11-2.73-1.64s-.88-4.76-1.82-7.13c-2.81-7.07-9.09-11.81-15.82-14.2-.59-.21-1.78.21-2.35,0-.06-.02-.28-.64-.78-.82-3.1-1.12-5.15-2.21-7.83-3.28-1.84-8.09-6.48-14.72-14.89-15.59-10.71-1.1-36.04-1.25-46.62,0-4.41.52-9.26,3.59-11.7,7.44-2.2,3.47-1.76,7.29-5.53,9.79-2.88,1.91-6.59,1.71-9.78,2.89-9,3.32-15.7,12.1-16.46,22.14-.54,7.1,0,5.93,2.99,10.78.59.96,1.62,4.12,1.82,4.25.52.34,11.78.37,12.3.02,3.62-9.53,5.04-23.41,18.13-21.22-2.28-2.15-2.09-6.29,1.22-6.59,2.55-.23,6.02,5.61,9.52,6.43,7.03,1.65,17.72-2.11,23.99,1.95,1.39.9,2.42,2.99,3.99,3.09,1.99.12,10.15-3.16,12.36-4.28,2.9-1.48,9.57-7.69,11.81-7.03,5.44,1.6-1.34,7.75-1,8.08,9.48,2.04,17.83,12.59,18.79,22.58,1.06,10.99-3.39,23.29,8.34,29.84,1.23.43,2.41-3.04,3.42-4.01,1.8-1.74,4.39-2.32,6.3-3.83,1-8.43-1.44-20.67-.05-28.6.41-2.33,2.23-1.83,2.37-2.03,1.74-.12,2.76-.04,3.14,2.05,1.42,7.88-1.04,20.18-.03,28.58,13.15,5.21,12.95,19.34,11.69,32.04-.89,8.95-6.1,18.21-13.46,22.82-1.36.85-7.43,3.3-7.62,3.69-.99,2.03-1.57,7.14-2.73,10.08-4.18,10.57-10.41,24.91-11.33,36.54-.28,3.57.73,11.16-.14,13.8-.92,2.78-4.74,2.9-5.36-1.1-.53-3.46-.39-14.76.07-18.39,1.39-11.03,6.76-15.55,5.41-29.6s-13-28.07-15.32-39.75c-1.11-5.58.23-12.28-1.14-18.09-3-.59-7.11.81-8.66,3.64-4.4,8.06,1.33,33.37,1.64,43.49.24,7.84-1.26,12.43-7.62,16.7-8.28,5.58-15.79,6.44-25.32,4.25-5.99-1.38-12.19-2.93-18.21-4.31-17.9-4.09-31.72-17.65-34.18-37.22-.76-6.01,2.15-10.82-4.8-13.44-2.06-.77-5.75-2.23-6.3,1.25-.33,2.08,2.78,19.42,3.53,22.57,1.39,5.81,9.52,23.22,12.8,28.44,1.49,2.36,3.23,4.21,5.59,5.63,3.92,2.35,14.05,4.4,16.5,6.52,1.38,1.2.51,3.22.78,3.69-.92,2.27-3.15,1.76-4.9,1.46-5.2-.92-17.42-6.64-20.93-10.91s-4.23-13.04-10.13-11.8l-9.85,46.7c-1.25,3.71-5.85,3.5-5.89-.83-.08-9.43,6.55-30.44,8.62-41.02.37-1.9,1.08-3.73.79-5.74-13.82,2.27-15.79-9.82-14.88-21.34-4.05-.07-8.14.48-12.05-.88-.9.14-1.57,4.06-2.05,4.99-2.7,5.23-6.13,13.1-10.18,16.41ZM91.03,76.74h49.36c-1.83-4.41-3.08-14.05-7.81-15.18-5.43-1.31-24.78-.98-31-.44-8.68.76-7.56,8.73-10.55,15.62ZM176.43,76.74c-1.57-6.39-6.48-11.5-12.32-13.77-8.89-3.45-12.08,1.72-20.59,3.11l3.14,10.66h29.77ZM33.06,79.2c-.03,3.1,2.32,6.52,5.26,7.21,3.19.75,18.95.62,22.37-.02,8.41-1.59,7.95-12.78-.99-13.75-3.97-.43-17.91-.65-21.38.17-2.56.61-5.23,3.6-5.26,6.39ZM176.22,84.33c-.92-1.03-4.16-1.9-5.63-1.89-30.2,2.08-63.46-2.61-93.3.01-3.07.27-5.66.6-6.63,4.12,5.27-.92,9.14,8.6,11.36,9.04,2.48.49,13.74.37,16.41-.06,5.6-.9,10.24-4.1,17.28-4.1s14.09,3.52,21.16,4.14c12.8,1.13,26.93-.82,39.88.03.8-.13.86-9.73-.54-11.29ZM31.49,98.89c-.19,3.73,2.71,6.56,6.06,7.19,2.61.5,6.96-1.18,7.26,2.65-.17.18.52,2.57-1.28,3.17-3.58,1.2-11.65-1.16-12.04,6.67-.17,3.43,2.37,6.27,5.43,7.03,2.79.69,19.23.86,20.87-.41,1.06-.81,1.39-2.95,3.17-4.07,4.64-2.92,10.58-1.31,14.78,1.55,2.12-5.22,6.61-9.83-1.16-10.67-4.27-.46-19.16,1.24-21.23-1.18-.61-.71-.61-2.04-.7-2.1,2.9-4.59,10.98-1.8,15.99-2.54,8.88-1.3,9.07-12.99-1.1-13.87-6.67-.58-23.92-.98-30.12.05-2.81.46-5.77,3.48-5.92,6.52ZM151.13,134.82c0-20.44-15.83-37.02-35.35-37.02s-35.35,16.57-35.35,37.02,15.83,37.02,35.35,37.02,35.35-16.57,35.35-37.02ZM89.46,101.36c-5.66.15-9.93-2.06-10.13,5.66,5.18,3.86,6.17-3.1,10.13-5.66ZM177.21,101.35h-34.47c3.31,4.42,7.82,8.34,9.41,13.95,2.6-2.6,4.49-6.36,8.4-7.19,17.86-3.83,10.92,11.81,13.75,22.96.36,1.4,1.67,4.77,2.91,5.56v-35.28ZM197.58,153.04c7.15-1.91,12.36-8.62,14.22-15.87s3.86-27.11-6.19-29.1c-3.01-.59-8.03,1.89-8.03,5.18v39.79ZM183.48,111.2v42.25c0,.49,3.35,7.24,3.95,8.98,1.46,4.23,1.17,8.46,3.35.31,3.6-13.46.13-32.35,1.18-46.49l-8.49-5.05ZM32.27,138.27c-.11,3.11,2.12,7.38,5.09,7.38h22.33c.57-2.73-.43-5.02-.78-7.38-.18-1.21-.47-6.47-1.24-6.61-6.84,1.52-25.02-4.29-25.4,6.61ZM51.86,151.4v11.9c0,.82,2.74,3.69,3.53,3.69h11.36l-5.56-15.51-9.32-.08ZM130.2,176c7.61,2.65,23.14-2.09,23.94-11.44.14-1.61-.35-7.71-.81-9.08-.67-1.99-.85-.65-1.39.2-3.13,4.93-5.97,9.07-10.39,12.92l-11.34,7.39Z" style="fill:#060504;"/><path d="M127.07,181.75c9.52,2.19,17.04,1.32,25.32-4.25,6.35-4.28,7.86-8.86,7.62-16.7-.31-10.12-6.04-35.44-1.64-43.49,1.54-2.83,5.65-4.23,8.66-3.64,1.36,5.81.03,12.51,1.14,18.09,2.32,11.68,14.03,26.41,15.32,39.75,1.35,14.05-4.02,18.56-5.41,29.6-.46,3.63-.6,14.92-.07,18.39h-35.25c.5-5.71-2.97-12.41-7.57-15.46-2.78-1.84-20.73-8.74-23.19-8.16-.79.19-1.66,1.39-2.14,1.46-.37.06-6.86-2.13-7.05-2.46-.27-.47.6-2.49-.78-3.69-2.45-2.12-12.57-4.17-16.5-6.52-2.36-1.41-4.11-3.26-5.59-5.63-3.28-5.21-11.41-22.62-12.8-28.44-.75-3.14-3.86-20.48-3.53-22.57.55-3.49,4.24-2.03,6.3-1.25-4.51,34.83,24.59,62.72,57.19,54.97Z" style="fill:#fbc0a8;"/><path d="M59.69,178.47c-2.07,10.58-8.69,31.59-8.62,41.02h-29.77s0-47.58,0-47.58c4.05-3.31,7.48-11.18,10.18-16.41,1.82,1.91,8.19,1.12,9.06,2.41.67.99.27,6.44.87,8.93,1.97,8.06,10.68,12.92,18.27,11.63Z" style="fill:#fbc0a8;"/><path d="M203.85,61.97c.23.38.25,8.65,0,9.02-.13.2-1.96-.3-2.37,2.03-1.4,7.93,1.05,20.17.05,28.6-1.91,1.51-4.49,2.09-6.3,3.83-.16-3.13.22-6.33.03-9.47-.06-1.06-.81-2.14-.81-2.43v-36.92c0-.45-2.29-6-2.79-6.92-2.32-4.26-6.44-6.31-8.18-10.72,6.73,2.39,13.01,7.14,15.82,14.2.94,2.36,1.07,5.57,1.82,7.13s2.65,1.5,2.73,1.64Z" style="fill:#c8634f;"/><path d="M142.74,219.49c-.22,2.53-2.93,4.02-5.01,2.41-2.36-1.83.12-8.18-5.56-12.26-5.17-3.71-16.5-4.98-21.01-8.14-1.2-.84-1.19-2.83-1.32-4.16.48-.07,1.36-1.28,2.14-1.46,2.46-.58,20.41,6.32,23.19,8.16,4.6,3.04,8.07,9.74,7.57,15.46Z" style="fill:#060504;"/><path d="M157.62,19.31c1.82,2.25,3.83,3.63,5.34,6.3,1.78,3.13,1.97,7.62,5.61,8.92,1.41.5,3.29.11,3.94.37,2.69,1.07,4.73,2.16,7.83,3.28l.78.82c.57.21,1.76-.21,2.35,0,1.74,4.41,5.86,6.46,8.18,10.72.5.92,2.79,6.47,2.79,6.92v36.92c0,.29.75,1.37.81,2.43.19,3.13-.18,6.33-.03,9.47-1.01.97-2.18,4.44-3.42,4.01-11.74-6.55-7.28-18.85-8.34-29.84-.96-9.99-9.31-20.54-18.79-22.58-.34-.34,6.44-6.48,1-8.08-2.24-.66-8.91,5.55-11.81,7.03-2.21,1.13-10.37,4.41-12.36,4.28-1.57-.1-2.6-2.19-3.99-3.09-6.28-4.06-16.96-.3-23.99-1.95-3.5-.82-6.97-6.66-9.52-6.43-3.31.3-3.49,4.44-1.22,6.59-13.08-2.18-14.51,11.7-18.13,21.22-.52.35-11.78.32-12.3-.02-.2-.13-1.22-3.29-1.82-4.25-3-4.85-3.53-3.68-2.99-10.78.76-10.04,7.45-18.82,16.46-22.14,3.19-1.18,6.9-.97,9.78-2.89,3.77-2.51,3.33-6.32,5.53-9.79,2.44-3.85,7.29-6.92,11.7-7.44,10.58-1.25,35.9-1.1,46.62,0Z" style="fill:#de7968;"/><path d="M151.13,134.82c0,20.44-15.83,37.02-35.35,37.02s-35.35-16.57-35.35-37.02,15.83-37.02,35.35-37.02,35.35,16.57,35.35,37.02ZM140.39,138.27c.46-.48-.51-7.64,0-9.02.64-1.73,3.25.28,1.15-5.72-8.63-24.71-44.03-23.85-52.1,1.18-11.36,35.21,35.41,55.61,51.1,23.97,1.28-2.58,4.6-9.61-.14-10.4Z" style="fill:#949494;"/><path d="M176.22,84.33c1.4,1.57,1.34,11.17.54,11.29-12.95-.85-27.08,1.1-39.88-.03-7.07-.62-13.81-4.14-21.16-4.14s-11.68,3.2-17.28,4.1c-2.66.43-13.93.55-16.41.06-2.21-.44-6.08-9.96-11.36-9.04.97-3.53,3.56-3.85,6.63-4.12,29.83-2.63,63.1,2.06,93.3-.01,1.47,0,4.71.86,5.63,1.89Z" style="fill:#f1f1f1;"/><path d="M197.58,153.04v-39.79c0-3.28,5.02-5.77,8.03-5.18,10.06,1.98,8.14,21.49,6.19,29.1s-7.07,13.96-14.22,15.87Z" style="fill:#fbc0a8;"/><path d="M91.03,76.74c2.99-6.89,1.86-14.86,10.55-15.62,6.22-.55,25.57-.87,31,.44,4.73,1.14,5.98,10.78,7.81,15.18h-49.36ZM100.04,66.07c-2.25,1.07-2.04,5.74,0,5.74h30.55c2.28,0,2.28-5.74,0-5.74h-30.55Z" style="fill:#949494;"/><path d="M127.07,181.75c-32.6,7.75-61.7-20.13-57.19-54.97,6.95,2.62,4.04,7.43,4.8,13.44,2.46,19.57,16.28,33.13,34.18,37.22,6.02,1.38,12.22,2.93,18.21,4.31Z" style="fill:#f8a38b;"/><path d="M183.48,111.2l8.49,5.05c-1.06,14.14,2.42,33.04-1.18,46.49-2.18,8.16-1.89,3.92-3.35-.31-.6-1.74-3.95-8.49-3.95-8.98v-42.25Z" style="fill:#f9d4bf;"/><path d="M176.43,76.74h-29.77l-3.14-10.66c8.51-1.38,11.7-6.56,20.59-3.11,5.84,2.27,10.74,7.38,12.32,13.77Z" style="fill:#f9d4bf;"/><path d="M52.64,108.73c-.33-.23-7.56-.29-7.83,0-.3-3.83-4.65-2.16-7.26-2.65-3.34-.64-6.24-3.46-6.06-7.19,9.22-1.04,21.25,1.43,30.12-.05,2.6-.43,6.17-3.46,5.92-6.52,10.17.88,9.98,12.57,1.1,13.87-5.01.74-13.09-2.06-15.99,2.54Z" style="fill:#fbc0a8;"/><path d="M177.21,101.35v35.28c-1.25-.79-2.56-4.16-2.91-5.56-2.83-11.15,4.11-26.79-13.75-22.96-3.9.84-5.8,4.6-8.4,7.19-1.59-5.61-6.1-9.53-9.41-13.95h34.47Z" style="fill:#7c7c7c;"/><path d="M52.64,108.73c.09.06.1,1.39.7,2.1,2.08,2.43,16.97.72,21.23,1.18.25,3.05-3.32,6.08-5.92,6.52l-37.17.05c.39-7.84,8.45-5.47,12.04-6.67,1.8-.6,1.11-2.99,1.28-3.17.28-.29,7.51-.23,7.83,0Z" style="fill:#f9d4bf;"/><path d="M33.06,79.2c8.21-1.47,23.78,4.43,26.64-6.56,8.94.97,9.4,12.17.99,13.75-3.42.64-19.17.77-22.37.02-2.93-.69-5.28-4.11-5.26-7.21Z" style="fill:#fbc0a8;"/><path d="M31.49,118.58l37.17-.05c2.6-.43,6.17-3.46,5.92-6.52,7.77.84,3.28,5.45,1.16,10.67-4.19-2.86-10.14-4.48-14.78-1.55-1.77,1.12-2.11,3.26-3.17,4.07-1.64,1.26-18.08,1.1-20.87.41-3.06-.76-5.6-3.6-5.43-7.03Z" style="fill:#fbc0a8;"/><path d="M31.49,155.5c.48-.93,1.16-4.84,2.05-4.99,3.91,1.36,8,.81,12.05.88-.91,11.52,1.06,23.61,14.88,21.34.29,2.02-.41,3.84-.79,5.74-7.59,1.29-16.3-3.58-18.27-11.63-.61-2.49-.21-7.94-.87-8.93-.87-1.28-7.24-.5-9.06-2.41Z" style="fill:#f8a38b;"/><path d="M67.53,92.33c.25,3.05-3.32,6.08-5.92,6.52-8.86,1.47-20.9-1-30.12.05.15-3.03,3.11-6.05,5.92-6.52,6.19-1.02,23.45-.62,30.12-.05Z" style="fill:#f9d4bf;"/><path d="M58.91,138.27c.36,2.36,1.36,4.66.78,7.38h-22.33c-2.97,0-5.2-4.28-5.09-7.38h26.64Z" style="fill:#fbc0a8;"/><path d="M51.86,151.4l9.32.08,5.56,15.51h-11.36c-.79,0-3.53-2.87-3.53-3.69v-11.9Z" style="fill:#7c7c7c;"/><path d="M130.2,176l11.34-7.39c4.42-3.85,7.26-7.99,10.39-12.92.54-.85.72-2.19,1.39-.2.46,1.37.95,7.47.81,9.08-.8,9.34-16.33,14.09-23.94,11.44Z" style="fill:#7c7c7c;"/><path d="M32.27,138.27c.38-10.9,18.56-5.09,25.4-6.61.77.14,1.05,5.4,1.24,6.61h-26.64Z" style="fill:#f9d4bf;"/><path d="M59.69,72.64c-2.86,10.99-18.42,5.1-26.64,6.56.02-2.79,2.7-5.78,5.26-6.39,3.47-.82,17.41-.6,21.38-.17Z" style="fill:#f9d4bf;"/><path d="M172.51,34.9c-.65-.26-2.52.14-3.94-.37-3.64-1.3-3.83-5.79-5.61-8.92-1.51-2.67-3.53-4.05-5.34-6.3,8.41.87,13.04,7.5,14.89,15.59Z" style="fill:#c8634f;"/><path d="M89.46,101.36c-3.96,2.56-4.94,9.52-10.13,5.66.19-7.72,4.46-5.52,10.13-5.66Z" style="fill:#7c7c7c;"/><path d="M181.13,39l-.78-.82c.51.18.72.8.78.82Z" style="fill:#c8634f;"/><path d="M140.39,138.27c-.13.13-1.81-.42-2.74.81-.73.97-1.61,5.17-2.6,7.14-8.44,16.7-32.8,15.37-39.45-2.47-9.95-26.69,23.69-43.91,38.08-22.65,2.05,3.03,2.44,9.29,6.71,8.15-.51,1.39.46,8.54,0,9.02Z" style="fill:#f1f1f1;"/><path d="M140.39,129.24c-4.27,1.14-4.66-5.13-6.71-8.15-14.39-21.26-48.03-4.04-38.08,22.65,6.65,17.84,31.01,19.17,39.45,2.47,1-1.97,1.87-6.17,2.6-7.14.93-1.23,2.61-.67,2.74-.81,4.75.8,1.42,7.82.14,10.4-15.68,31.63-62.45,11.23-51.1-23.97,8.07-25.02,43.47-25.88,52.1-1.18,2.1,6-.51,3.99-1.15,5.72Z" style="fill:#060504;"/><path d="M100.04,66.07h30.55c2.28,0,2.28,5.74,0,5.74h-30.55c-2.04,0-2.25-4.67,0-5.74Z" style="fill:#060504;"/></g></svg>