<?xml version="1.0" encoding="UTF-8"?><svg xmlns="http://www.w3.org/2000/svg" viewBox="0 0 857.53 834.58"><g id="a"><path d="M422.02,60.28c4,4.14,97.73-2.4,115.24.53,14.21,2.38,31.81,17.23,35.09,31.39,7.43,32.07-5.08,83.82,1.04,115.88,1.67,8.78,13.9,10.03,13.91,25.27.02,16.28-13.49,17.33-14.14,22.85l.27,272.97c-1.27,21.7-18.38,38.84-40.12,40.12H53.99c-21.02-1.24-37.46-17.12-40.03-37.91l.05-276.93C13.31,251.59-.02,249.31,0,233.35c.01-15.23,12.24-16.49,13.91-25.27,5.7-29.86-3.66-77.56.05-109.99,2.09-18.3,19.84-35.15,38.03-37.62,34.45-4.69,77.86,3.07,113.29-.19-2.43-43.98,38.02-41.27,68.68-28.59,8.73,3.61,37.7,23.69,40.02,23.81,2.98.16,7.34-2.21,11.54-2.22,6.28-.01,27.11,2.56,29.43,2.03s16.67-12.55,21.55-15.23c31.69-17.36,86.12-34.1,85.51,20.2ZM256.96,117.54c-11.95-19.23-11.12-32.9-.97-52.73-14.03-10.81-52.96-32.7-69.07-20.7-14.39,10.73,3.17,33.22,3.72,44.84.64,13.56-23.59,47.09,3.43,51.41,22.45,3.59,43.97-13.55,62.89-22.82ZM330.34,117.54c18.92,9.27,40.44,26.41,62.89,22.82,27.01-4.32,2.79-37.85,3.43-51.41.55-11.61,18.11-34.1,3.72-44.84-16.1-12.01-55.04,9.89-69.07,20.7,10.15,19.83,10.98,33.49-.97,52.73ZM279.23,72.21c-18.93,4.23-18.47,33.75,2.34,37.96,19.16,3.88,42.34.46,39.75-23.61-1.85-17.23-28.97-17.28-42.09-14.35ZM32.3,168.01c.12,9.06-1.04,18.64,1.14,27.5,23.38-22,44.81-46.3,61.16-74.1,4.98-8.48,17.75-31.22,20.18-39.44,1.27-4.28-.69-3.03-3.33-3.37-5.8-.75-13.36.09-19.54,0-17.18-.23-48.04-4.74-57.01,12.91-5.18,10.19-2.78,61.24-2.59,76.5ZM412.86,204.69c-.91-2.41-5.74-.84-4.12-12.02l38.5-114.05c-16.71,2.09-33.68-8.59-32.01,14.63.46,6.44,5.64,14.01,6.61,21.09,6.38,46.94-31.25,50.19-66.24,36.45-12.01-4.72-34.98-23.18-42.32-24.16-7.06-.94-34.81-1.07-41.34.18-4.6.88-18.66,12.95-24.87,16.39-34.51,19.14-89.31,27.99-81.58-28.86.96-7.07,6.14-14.64,6.61-21.09,1.66-23.22-15.3-12.53-32.01-14.63l151.32,451.61,4.78-3.22,100.84-298.04,11.27-3.64c.61,3.04,7.69,7.57,3.65,13.82l-104.52,311.72h33.24l170.54-226.15c.91-2.95-1.45-3.86-3.68-4.91-8.45-3.98-23.87-6.04-34.96-10.88-6.32-2.76-32.98-17.32-35.59-21.71-13.14-22.14,26.9-15.03,38.65-16.34,22.4-2.49,49.4-9.71,69.51-19.89,39.57-20.02,21.18-19.2-.51-39.36-34.53-32.09-65.96-70.62-83.64-114.67l-36.11,102.53-12,5.2ZM495.39,78.61c-6.17.08-13.74-.76-19.54,0-2.64.34-4.61-.9-3.33,3.37,4.12,13.85,24.85,47.25,33.83,60.18,13.69,19.72,30.24,36.81,47.51,53.35,2.18-8.85,1.02-18.44,1.14-27.5.19-15.26,2.59-66.31-2.59-76.5-8.98-17.65-39.83-13.13-57.01-12.91ZM172.15,470.62l11.38-1.24c10.18,7.73,57.97,81.48,63.12,81.48h33.24L128.56,96.96l-21.95,38.76c-17.87,28.55-40.44,54.18-65.11,77.02-7.85,7.27-29.52,16.1-19.22,26.04,17.11,16.51,65.8,29.47,89.4,32.09,7.26.8,36.85-1.33,39.49,2.91,8.62,13.87-24.92,29.99-34.81,34.45-13.31,6.01-27.43,8.37-40.51,14.58-.07,2.57,1.51,4.37,2.67,6.43,11.96,21.29,87.58,107.85,89.01,119.77.43,3.58-2.28,6.65-2.27,7.84-5.13,3.77-10.98,1.86-14.71-2.5-24.31-38.95-62.16-75.18-85.75-113.68-24.52-40.02,22.9-35.99,42.51-48.3,2.35-1.48,4.03.13,2.92-5.15-26.84-.15-52.54-9.98-76.76-20.67-2.11,0-1.11,17.22-1.17,20.66-1.33,79.83,1.09,159.82-.12,239.68.4,21.09,18.08,24.96,35.57,26.33,41.12,3.22,88.76.43,129.61-2.38,8.27-.57,17.14,1.38,25.2-1.13-7.05-16.16-50.07-58.08-52.09-71.43-.42-2.79,1.83-6.03,1.67-7.67ZM554.99,289.52c-.05-3.58.93-22.95-1.17-22.95-24.11,10.82-49.9,20.32-76.76,20.67-1.11,5.28.57,3.68,2.92,5.15,18.47,11.6,66.74,10.72,42.51,48.3l-157.76,209.04c8.06,2.51,16.93.56,25.2,1.13,40.85,2.81,88.48,5.6,129.61,2.38,17.49-1.37,35.17-5.24,35.57-26.33-1.05-79.11,1-158.32-.12-237.39Z" style="fill:#040404;"/><path d="M412.86,204.69l12-5.2,36.11-102.53c17.68,44.05,49.11,82.58,83.64,114.67,21.69,20.16,40.07,19.33.51,39.36-20.12,10.18-47.11,17.41-69.51,19.89-11.75,1.3-51.79-5.8-38.65,16.34,2.61,4.39,29.27,18.94,35.59,21.71,11.09,4.85,26.51,6.91,34.96,10.88,2.23,1.05,4.59,1.95,3.68,4.91l-170.54,226.15h-33.24l104.52-311.72c4.04-6.25-3.04-10.78-3.65-13.82-1.19-5.95,6.31-16.09,4.58-20.63Z" style="fill:#4c5460;"/><path d="M165.27,456.87c0-1.19,2.7-4.26,2.27-7.84-1.43-11.92-77.05-98.49-89.01-119.77-1.16-2.06-2.74-3.86-2.67-6.43,13.08-6.2,27.2-8.57,40.51-14.58,9.89-4.46,43.43-20.59,34.81-34.45-2.64-4.25-32.23-2.11-39.49-2.91-23.6-2.62-72.29-15.58-89.4-32.09-10.3-9.94,11.37-18.77,19.22-26.04,24.67-22.84,47.24-48.48,65.11-77.02l21.95-38.76,151.33,453.9h-33.24c-5.16,0-52.94-73.75-63.12-81.48l-11.38,1.24c-.55-5.63-6.85-10.63-6.88-13.75Z" style="fill:#4c5460;"/><path d="M32.3,287.22l18.33,6.91c-12.99,16.85-15.88,33.36-5.58,52.55l152.3,204.18c-40.85,2.81-88.48,5.6-129.61,2.38-17.48-1.37-35.17-5.24-35.57-26.33,1.21-79.86-1.21-159.86.12-239.68Z" style="fill:#39444d;"/><path d="M554.99,289.52c1.12,79.07-.93,158.28.12,237.39-.4,21.08-18.08,24.96-35.57,26.33-41.12,3.22-88.76.43-129.61-2.38l152.3-204.18c10.3-19.2,7.41-35.71-5.58-52.55l18.33-4.61Z" style="fill:#39444d;"/><path d="M32.3,287.22c.06-3.43-.94-20.66,1.17-20.66,24.22,10.69,49.93,20.52,76.76,20.67,1.11,5.28-.57,3.68-2.92,5.15-19.61,12.31-67.03,8.28-42.51,48.3,23.59,38.5,61.44,74.73,85.75,113.68,3.73,4.36,9.58,6.27,14.71,2.5.02,3.12,6.33,8.13,6.88,13.75.16,1.65-2.09,4.88-1.67,7.67,2.02,13.36,45.04,55.27,52.09,71.43-8.06,2.51-16.93.56-25.2,1.13L45.06,346.68c-10.3-19.2-7.41-35.71,5.58-52.55l-18.33-6.91Z" style="fill:#2d3739;"/><path d="M389.93,550.86c-8.27-.57-17.14,1.38-25.2-1.13l157.76-209.04c24.23-37.58-24.04-36.7-42.51-48.3-2.35-1.48-4.03.13-2.92-5.15,26.87-.34,52.66-9.85,76.76-20.67,2.09,0,1.12,19.37,1.17,22.95l-18.33,4.61c12.99,16.85,15.88,33.36,5.58,52.55l-152.3,204.18Z" style="fill:#2d3739;"/><path d="M554.99,168.01c-25.65-23.62-48.77-55.9-59.6-89.41,17.18-.23,48.04-4.74,57.01,12.91,5.18,10.19,2.78,61.24,2.59,76.5Z" style="fill:#39444d;"/><path d="M91.91,78.61c-10.71,33.76-34.16,65.42-59.6,89.41-.19-15.26-2.59-66.31,2.59-76.5,8.98-17.65,39.83-13.13,57.01-12.91Z" style="fill:#39444d;"/><path d="M91.91,78.61c6.17.08,13.74-.76,19.54,0,2.65.34,4.6-.91,3.33,3.37-2.43,8.22-15.2,30.96-20.18,39.44-16.35,27.8-37.78,52.1-61.16,74.1-2.18-8.85-1.02-18.44-1.14-27.5,25.44-23.99,48.9-55.64,59.6-89.41Z" style="fill:#2d3739;"/><path d="M495.39,78.61c10.83,33.51,33.95,65.79,59.6,89.41-.12,9.06,1.04,18.64-1.14,27.5-17.28-16.55-33.83-33.64-47.51-53.35-8.98-12.93-29.71-46.33-33.83-60.18-1.27-4.28.69-3.03,3.33-3.37,5.8-.75,13.36.09,19.54,0Z" style="fill:#2d3739;"/><path d="M408.27,225.33l-11.27,3.64-100.84,298.04-4.78,3.22L140.06,78.62c16.71,2.09,33.68-8.59,32.01,14.63-.46,6.44-5.64,14.01-6.61,21.09-7.73,56.84,47.07,47.99,81.58,28.86,6.21-3.44,20.28-15.51,24.87-16.39,6.54-1.25,34.29-1.12,41.34-.18,7.34.98,30.31,19.44,42.32,24.16,34.99,13.75,72.63,10.5,66.24-36.45-.96-7.07-6.14-14.64-6.61-21.09-1.66-23.22,15.3-12.53,32.01-14.63l-38.5,114.05c-1.63,11.18,3.2,9.61,4.12,12.02,1.72,4.54-5.77,14.68-4.58,20.63ZM308.74,202.79c0-8.33-6.75-15.08-15.08-15.08s-15.08,6.75-15.08,15.08,6.75,15.08,15.08,15.08,15.08-6.75,15.08-15.08ZM308.43,281.27c0-8.17-6.62-14.79-14.79-14.79s-14.79,6.62-14.79,14.79,6.62,14.79,14.79,14.79,14.79-6.62,14.79-14.79ZM308.87,360.01c0-8.41-6.81-15.22-15.22-15.22s-15.22,6.81-15.22,15.22,6.81,15.22,15.22,15.22,15.22-6.81,15.22-15.22Z" style="fill:#e7e7ee;"/><circle cx="293.65" cy="360.01" r="15.22" style="fill:#070708;"/><circle cx="293.66" cy="202.79" r="15.08" style="fill:#040404;"/><circle cx="293.64" cy="281.27" r="14.79" style="fill:#040404;"/><path d="M256.96,117.54c-18.92,9.27-40.44,26.41-62.89,22.82-27.01-4.32-2.79-37.85-3.43-51.41-.55-11.61-18.11-34.1-3.72-44.84,16.1-12.01,55.04,9.89,69.07,20.7-10.15,19.83-10.98,33.49.97,52.73Z" style="fill:#eb4749;"/><path d="M330.34,117.54c11.95-19.23,11.12-32.9.97-52.73,14.03-10.81,52.96-32.7,69.07-20.7,14.39,10.73-3.17,33.22-3.72,44.84-.64,13.56,23.59,47.09-3.43,51.41-22.45,3.59-43.97-13.55-62.89-22.82Z" style="fill:#eb4749;"/><path d="M279.23,72.21c13.12-2.93,40.24-2.88,42.09,14.35,2.59,24.08-20.59,27.49-39.75,23.61-20.81-4.21-21.27-33.73-2.34-37.96Z" style="fill:#f75e62;"/></g><g id="b"><path d="M464.14,757.7c-10.44,11.19-22.42.26-33.34-5.94-12.92-7.33-46.15-29.69-48.06-44.03-11.59-86.91,21.86-204.17,71.07-275.92,6.61-9.64,38.96-46.2,40.07-52.02,1.02-5.28.94-27.04-.5-31.89-1.07-3.6-21.2-23.16-26.05-30.83-18.84-29.77-34.67-76.3-4.67-103.91,4.48-4.12,14.15-7.71,14.6-8.42,1.72-2.74-.13-14.14.74-19.59,2.35-14.69,17.27-75.56,29.45-81.6s40.85,17.4,51.2,24.88c-3.16,18.75-14.29,35.03-17.46,54.9-4.76,29.8,1.29,19.28,21.32,30.43,7.65,4.26,16.07,9.62,23.28,14.64,5.89,4.1,9.63,12.88,17.7,12.1,2.33-.23,31.09-22.59,38.55-26.74,20.03-11.15,26.07-.63,21.32-30.43-3.17-19.87-14.3-36.16-17.46-54.9,9.71-7.33,38.31-29.1,49.27-25.78,13.86,4.19,29.02,67.77,31.38,82.5.87,5.45-.97,16.88.74,19.59.66,1.04,7.47,2.16,10.27,4.57,39.43,33.88,16.29,85.15-9.57,120.21-4.05,5.49-15.38,13.51-16.82,18.39-1.44,4.85-1.52,26.62-.5,31.89,1.12,5.82,33.46,42.38,40.07,52.02,38.21,55.7,66.38,135.04,70.9,202.67.91,13.67,2.44,67.99-.53,77.97-3.84,12.93-54.42,44.48-68.03,51.15-66.15,32.39-152.72,40.12-224.5,25.8-13.71-2.74-51.79-8.05-48.2-26.29,1.67-.25,4.69-4.22,7.41-4.83,10.49-2.34,19.91,4.62,29.95,6.74,81.36,17.16,169.39,12.88,242.45-29.53,22.79-13.23,45.68-26.27,42.48-56.35-115.12,84.42-285.67,84.44-400.82,0,.4,8.63.94,21.06,5.27,28.56,8.74,15.17,52.23,31.24,56.44,41.19,1.24,2.92-.03,7.56.56,8.8ZM502.06,178.05c-.91,5.9-5.12,13.48-2.72,21.68,5.53-.58,12.2.85,17.44.05,1.09-.17,3.31-17.72,4.24-21.73,3.49-15.07,8.07-28.91,13.54-43.29-5.63-.14-12.02-6.53-17.33-5.68-5.93.95-14.04,41.63-15.17,48.97ZM702.5,178.05c-1.13-7.34-9.23-48.02-15.17-48.97-5.31-.85-11.7,5.54-17.33,5.68,5.37,14.29,10.02,28.37,13.54,43.29.95,4.04,3.15,21.56,4.24,21.73,5.24.8,11.9-.63,17.44-.05,2.4-8.2-1.81-15.78-2.72-21.68ZM490.49,222.01c-48.82,9.9-7.6,95.03,18.27,110.51,10.68,6.4,56.35,12.69,70.38,13.58,25.18,1.6,93.44-1.19,115.04-12.49,26.8-14.02,70.33-103.82,17.62-112.04-30.02-4.68-58.88,8.21-82.21,25.79-6.99,5.27-18.88,21.53-26.38,22.24-8.51.8-20.98-16.71-28.25-22.24-22.92-17.43-55.08-31.3-84.47-25.34ZM661.87,394.74c-1.33-14.69,25.89-12.41,27.07-13.56,1.07-1.03-.71-20.07,0-24.35-57.04,14.08-116.24,13.61-173.32,0,.72,4.3-1.09,23.29,0,24.34,2.12,2.04,51.3,7.66,58.24,8.12,17.93,1.2,43.34-2.86,59.5.09,5.06.92,7.55,3.6,9.54,8.07-.45.29-.71,7.65-3.33,10.19-5.32,5.15-52.6,4.02-63,3.32-18.81-1.26-46.94-10.68-62.74-10.7-10.98-.01-29.97,26.59-36.76,35.86-22.34,30.52-41.19,68.34-52.79,104.31-6.02,18.65-26.56,100.87-18.37,114.32,2.39,3.92,36.12,27.73,39.25,24.39-1.88-12.55,14.99-78.08,23.47-80.88,3.55-1.17,8.54-1.04,11.78.94,10.64,6.47-6.68,38.71-9.54,50.13-1.5,6.01-7.88,40.72-6.43,43.02,39.86,17.14,83.15,29.21,126.99,27.43v-101.57c0-8.26,21.67-8.26,21.67,0v101.57c43.83,1.78,87.13-10.29,126.99-27.43,1.45-2.3-4.93-37.01-6.43-43.02-2.59-10.35-13.63-32.54-14.28-39.7-.85-9.35,8.43-14.05,16.53-11.37,8.48,2.8,25.35,68.33,23.47,80.88,3.41,3.66,40.01-23.92,40.66-26.29,4.21-15.35-9.44-75.37-14.35-93.48-7.68-28.27-19.12-57.69-33.03-83.44-7.64-14.15-45.81-74.46-59.69-75.8-7.11-.69-16.98,5.65-26.76,2.34-4.5-1.52-3.98-7.47-4.35-7.74Z" style="fill:#080808;"/><path d="M464.14,757.7c-.59-1.24.68-5.88-.56-8.8-4.21-9.95-47.7-26.02-56.44-41.19-4.32-7.5-4.87-19.94-5.27-28.56,115.15,84.44,285.71,84.42,400.82,0,3.2,30.08-19.69,43.13-42.48,56.35-73.06,42.41-161.09,46.69-242.45,29.53-10.03-2.12-19.46-9.08-29.95-6.74-2.72.61-5.75,4.58-7.41,4.83-2.26.34-15.79-4.45-16.25-5.42Z" style="fill:#c6c7d3;"/><path d="M661.87,394.74c.37.28-.15,6.22,4.35,7.74,9.77,3.31,19.64-3.03,26.76-2.34,13.89,1.34,52.05,61.65,59.69,75.8,13.91,25.75,25.35,55.17,33.03,83.44,4.92,18.1,18.56,78.12,14.35,93.48-.65,2.37-37.25,29.95-40.66,26.29,1.88-12.55-14.99-78.08-23.47-80.88-8.1-2.68-17.38,2.01-16.53,11.37.65,7.16,11.69,29.35,14.28,39.7,1.5,6.01,7.88,40.72,6.43,43.02-39.86,17.14-83.15,29.21-126.99,27.43v-101.57c0-8.26-21.67-8.26-21.67,0v101.57c-43.83,1.78-87.13-10.29-126.99-27.43-1.45-2.3,4.93-37.01,6.43-43.02,2.86-11.42,20.18-43.66,9.54-50.13-3.24-1.97-8.24-2.11-11.78-.94-8.48,2.8-25.35,68.34-23.47,80.88-3.13,3.34-36.86-20.47-39.25-24.39-8.19-13.45,12.36-95.67,18.37-114.32,11.61-35.97,30.45-73.79,52.79-104.31,6.78-9.27,25.77-35.87,36.76-35.86,15.8.02,43.93,9.44,62.74,10.7,10.39.69,57.68,1.82,63-3.32,2.63-2.54,2.88-9.9,3.33-10.19.81-.52,18.2-3.29,18.96-2.71Z" style="fill:#e8e8ef;"/><path d="M490.49,222.01c29.39-5.96,61.56,7.91,84.47,25.34,7.26,5.52,19.74,23.04,28.25,22.24,7.5-.71,19.39-16.97,26.38-22.24,23.33-17.57,52.19-30.47,82.21-25.79,52.71,8.22,9.17,98.02-17.62,112.04-21.6,11.3-89.86,14.09-115.04,12.49-14.04-.89-59.7-7.19-70.38-13.58-25.86-15.48-67.08-100.61-18.27-110.51Z" style="fill:#e7e7ee;"/><path d="M642.91,397.45c-2-4.46-4.49-7.14-9.54-8.07-16.16-2.95-41.57,1.11-59.5-.09-6.94-.46-56.12-6.09-58.24-8.12-1.1-1.05.71-20.05,0-24.34,57.07,13.61,116.27,14.08,173.32,0-.71,4.28,1.07,23.33,0,24.35-1.19,1.14-28.4-1.13-27.07,13.56-.76-.58-18.15,2.19-18.96,2.71Z" style="fill:#c7c8d3;"/><path d="M683.54,178.05c-3.51-14.92-8.17-29-13.54-43.29,5.63-.14,12.02-6.53,17.33-5.68,5.93.95,14.04,41.63,15.17,48.97h-18.96Z" style="fill:#c2c3cf;"/><path d="M502.06,178.05c1.13-7.34,9.23-48.02,15.17-48.97,5.31-.85,11.7,5.54,17.33,5.68-5.46,14.38-10.05,28.22-13.54,43.29h-18.96Z" style="fill:#c2c3cf;"/><path d="M521.02,178.05c-.93,4.01-3.15,21.56-4.24,21.73-5.24.8-11.9-.63-17.44-.05-2.4-8.2,1.81-15.78,2.72-21.68h18.96Z" style="fill:#a5a6b6;"/><path d="M702.5,178.05c.91,5.9,5.12,13.48,2.72,21.68-5.54-.58-12.2.85-17.44.05-1.09-.17-3.29-17.69-4.24-21.73h18.96Z" style="fill:#a6a7b6;"/></g></svg>