<?xml version="1.0" encoding="UTF-8"?><svg id="a" xmlns="http://www.w3.org/2000/svg" viewBox="0 0 461.66 2142.35"><path d="M304.37,1072.89c18.09-3.33,41.11,5.33,46.56,27.58,1.25,5.11-1.84,25.21,1.03,27.58,1.18.97,21.56-.59,28.97,2.4,26.41,10.64,21.96,52.19,7.24,73.14-25.07,35.68-87.42,18.67-122.09,16.79-.42-42.69-15.02-137.67,38.28-147.47ZM349.89,1216.76c60.63-10.61,53.3-109.03-12.42-71.94,15-34.74-.29-73.35-37.25-59.95-31.67,11.49-32.6,83.84-30,115.1l30-107.91-23.8,111.5,42.42-41.96c4.93-.88.85,5.93,0,7.19-8.12,12.04-28.35,23.7-35.18,38.37l98.29-17.98-99.32,27.58c13.11,1.78,54.67,2.2,67.25,0ZM381.96,1189.18l-98.29,17.98c6.83-14.66,27.06-26.32,35.18-38.37.85-1.26,4.93-8.08,0-7.19l-42.42,41.96,23.8-111.5-30,107.91c.42,5.09-.29,10.44,0,15.59,1.51,2.48,9.46.8,12.42,1.2l99.32-27.58Z" style="fill:#565656;"/><path d="M422.31,13.01c25.82-.34,6.02,44.36,7.24,46.76,37.95-10.71,42.9,26.98,11.38,44.36-6.29,3.47-44.35,13.33-49.66,11.99-1.86-.47-26.44-26.91-27.94-29.97-25.39-52.06,26.45-64.81,23.8-5.99.61-20.56,13.96-66.86,35.18-67.14ZM393.34,96.94c7.63-13.23,11.07-33.76,17.59-46.76,8.01-15.96-10.1,38.24-5.17,34.77,7.16-8.11,44.81-69.18,14.48-64.74-17.22,2.52-33.41,59.29-26.9,76.73ZM404.72,95.74l28.97-14.39-32.07,27.58c12.32-4.39,47.17-12.79,52.77-27.58,5.76-15.23-8.18-20.4-19.66-17.98-12.28,2.58-20.83,24.29-30,32.37ZM383,99.34c-1.44-10.85.94-59.13-16.55-52.75-16.08,5.86,5.14,48.27,16.55,52.75Z" style="fill:#565656;"/><path d="M89.16,1854.6c53.22-12.02,38.49,89.28,22.76,119.89-34.48-6.72-102.96-16.19-87.94-75.53,9.33-36.86,36.8-15.94,44.49-17.98,2.91-.77,7.61-23.42,20.69-26.38ZM76.75,1897.76c-35.86-44.39-70.44,20.27-31.04,50.36,7.61,5.81,74.97,30.54,45.52,7.19-15.65-12.41-41.72-19.43-56.9-34.77l67.25,39.57-15.52-44.36,20.69,38.37,5.17-77.93-2.07,91.12c14.51-24.96,23.71-114.76-18.62-105.51-11.22,2.45-18.79,24.06-14.48,35.97Z" style="fill:#565656;"/><path d="M37.43,70.56c27.58-9.39,40.48,44.93,38.28,68.34-7.09,75.61-76.92,70.37-28.97,7.19-18.86,9.4-49.61.98-41.39-28.77,7.17-25.93,52.73,5.74,53.8,2.4-10.26-6.3-45.86-40.94-21.73-49.16ZM22.95,144.9c8.93,2.12,31.11-6.96,40.35-10.79l-10.35-2.4c16.63-7-28.38-20.92-36.21-17.98-13.55,5.09-4.51,28.63,6.21,31.17ZM43.64,190.46c13.43,1.39,27.05-47.28,16.55-45.56-9.05,3.47-40.92,43.04-16.55,45.56ZM66.4,118.52c-2.12-9.58,2.08-14.54-3.1-25.18-3.04-6.24-17.54-19.98-23.8-17.98-18.99,6.06,18.94,40.33,26.9,43.16Z" style="fill:#565656;"/><path d="M296.09,1497.31c17.45-3.69,22.25,18.4,24.83,19.18,5.36,1.63,30.05-9.62,32.07,15.59,2.06,25.72-37.23,41.8-54.84,44.36-10.82-16.76-29.14-73.41-2.07-79.13ZM304.37,1569.25c13.57-6.76,45.47-17.58,40.35-39.57-4.56-19.56-24.38-5.67-25.87-5.99-1.7-.37-7.04-22.78-20.69-19.18-21,5.53-5.22,53.35,6.21,64.74Z" style="fill:#565656;"/><path d="M401.62,1809.04c19.86-1.33,16.44,25.5,17.59,27.58,3.13,5.63,19.72,3.8,22.76,16.79,8.64,36.89-40.98,35.91-60.01,26.38-4.76-17.84-1.21-69.34,19.66-70.74ZM386.1,1872.59c3.14,8.41,58.6,13.26,49.66-19.18-3.4-12.33-20.09-8.41-20.69-9.59-.92-1.8,6.89-33.58-17.59-25.18-10.6,3.64-14.43,45.79-11.38,53.95Z" style="fill:#565656;"/><path d="M176.07,149.7c33.53-9.36,13.1,57.4,14.48,76.73-10.33-15.94-49.6-24.82-50.7-46.76-1.26-25.26,20.79-14.48,23.8-15.59,3.51-1.3,5.89-12.57,12.42-14.39ZM171.93,178.47c-6.01-15.38-29.49-15.08-25.87,3.6,1.82,9.4,31.69,25.5,38.28,32.37,3.83-11.25,13.57-60.13-4.14-59.95-8.85.09-11.85,16.15-8.28,23.98Z" style="fill:#565656;"/><path d="M180.21,1684.35c39.29-11.25,14.02,62.01,2.07,64.74-13.34,3.05-55.83-42.01-31.04-57.55,11.27-7.06,16.42,3.07,20.69,2.4,1.34-.21,6.68-9.13,8.28-9.59ZM171.93,1701.14c-1.28.08-16.77-16.14-21.73,1.2-3.84,13.44,18.13,38.45,25.87,39.57,16.39,2.35,33.18-59.54,6.21-52.75-1.65.42-9.08,11.91-10.35,11.99Z" style="fill:#565656;"/><path d="M202.97,1552.47c30.89-8.09,17.65,45.09,5.17,56.35-11.04,9.96-44.89-15.1-41.39-35.97,3.55-21.12,22.36-8.08,23.8-8.39,2.09-.45,8-10.83,12.42-11.99ZM192.62,1569.25c-.37.09-5.85-4.91-6.21-4.8-32.45,10.29-2.7,35.02,14.48,43.16,10.44-12.11,25.57-36.59,10.35-50.36-2.57.44-6.01-.65-8.28,0-1.85.53-8.62,11.58-10.35,11.99Z" style="fill:#565656;"/><path d="M43.64,1583.64c29.22-10.45,22.62,44.36,10.35,59.95-11.88-.62-41.49-10.6-42.42-27.58-1.22-22.21,17.6-15.32,21.73-17.98,2.72-1.75,6.52-13.02,10.35-14.39ZM35.36,1605.22c-.58.28-5.18-7.46-12.42-2.4-20.38,14.26,19.05,38.05,26.9,35.97,9.28-2.46,17.83-55.89-4.14-50.36-5.52,1.39-9.52,16.39-10.35,16.79Z" style="fill:#565656;"/><path d="M308.5,1.03c11.69-4.48,17.56,7.16,18.62,7.19.52.02,6.26-7.03,8.28-7.19,36.31-2.96,14.81,43.09-4.14,55.15-17.36.02-44.43-46.85-22.76-55.15ZM329.2,51.38c8.57-6.49,33.37-39.42,14.48-45.56-9.87-3.21-12,7.41-16.55,7.19-.88-.04-8.14-10.52-16.55-7.19-17.32,6.84,8.62,41.08,18.62,45.56Z" style="fill:#565656;"/><path d="M411.97,550.14c14.96-3.24,15.93,11.72,20.69,14.39,1.11.62,17.98-5.18,21.73,8.39,6.82,24.71-26.2,32.28-40.35,37.17-9.3-11.42-23.04-55.4-2.07-59.95ZM416.11,602.9c9.84,3.62,47.08-19.4,28.97-33.57-7.27-5.69-15.46.49-16.55,0-.96-.43-3.5-16.95-14.48-14.39-16.45,5.01-3.34,45.97,2.07,47.96Z" style="fill:#565656;"/><path d="M25.01,269.59c2.8-1.1,8.92.76,12.42,0,11.8,12.45,9.48,33.58,6.21,50.36-10.03.9-38.93.37-42.42-13.19-5.54-21.54,9.26-16.97,15.52-22.78,2-1.86,3.9-12.67,8.28-14.39ZM18.81,288.77c-2.03,2.02-17.87-1.29-13.45,15.59,8.76,11.77,22.05,11.31,34.14,10.79,7.48-3.85,3.45-46.19-12.42-40.76-4.45,1.52-4.61,10.74-8.28,14.39Z" style="fill:#565656;"/><path d="M258.84,113.73c28.47-2.67,10.13,41.38-6.21,47.96-10.59-6.78-29.64-23.17-23.8-39.57,4.94-13.87,20.3-1.06,21.73-1.2.52-.05,6.31-7.01,8.28-7.19ZM252.63,156.89c5.62-6.4,18.99-20.17,17.59-29.97-2.68-18.79-18.43-1.25-19.66-1.2-.6.03-9.74-7.23-10.35-7.19-21.5,1.44,3.59,35.66,12.42,38.37Z" style="fill:#565656;"/><path d="M171.93,303.16c29.46.47,14.82,29.94,4.14,47.96-13.89-7.26-37.2-22.81-26.9-43.16,6.18.81,21.54-4.82,22.76-4.8ZM167.79,312.75c-5.44,1.16-11.77-7.83-17.59,3.6-3.25,12.03,17.86,23.02,23.8,29.97,7.49-7.45,18.65-41,2.07-40.76-1.65.02-7.77,7.08-8.28,7.19Z" style="fill:#565656;"/><path d="M420.24,1451.75c23.21-.43,5.33,49.69-8.28,47.96-6.56-.84-34.39-33.21-16.55-43.16,7.23-4.03,11.27,2.84,14.48,2.4.6-.08,7.89-7.15,10.35-7.19ZM411.97,1463.74c-3.24.29-17.72-10.37-19.66,3.6-.98,7.04,15.88,21.99,19.66,27.58,11.77-2.41,26.32-42.15,6.21-38.37-1.17.22-5.17,7.1-6.21,7.19Z" style="fill:#565656;"/><path d="M397.48,1053.7c3.37-1.05,28.66,15.58,30,17.98,13.06,23.46-28.27,32.48-35.18,21.58-3.63-5.73-4.07-36.7,5.17-39.57ZM425.42,1076.48c-.43-1.67-22.11-14.65-25.87-17.98-26.44,46.35,31.58,39.96,25.87,17.98Z" style="fill:#565656;"/><path d="M39.5,1303.08c7.49-1.73,9.32,4.68,10.35,4.8,3.83.42,18.37-7.22,19.66,8.39.45,5.4-14.47,26.91-17.59,27.58-9.89,2.12-29.42-36.83-12.42-40.76ZM49.85,1339.05l15.52-22.78c-.11-3.99-24.61-9.11-25.87-8.39-9.56,5.46,4.82,26.93,10.35,31.17Z" style="fill:#565656;"/><path d="M69.5,1216.76c-46.36-54.25,22.48-151.42,94.15-98.31,6.45,4.78,11.79,18.36,19.66,20.38-7.75-59.46-74.27-70.5-112.77-39.57-78.72,63.24-10.82,195.48,49.66,155.86,33.22-21.76,28.13-86.27-6.21-93.52-11.08-2.34-16.94,5.03-25.87,3.6,42.78-29.19,77.33,31.35,53.8,76.73-28.39,54.74-95.18,20.62-109.67-31.17-28.54-102.01,79.25-181.52,143.81-106.71-3.13-25.37.26-61.43-3.1-85.13-.79-5.59-1.9-12.57-7.24-15.59-15.7-8.87-82.92,9.88-115.88-11.99-44-29.19-24.72-118.29,33.11-95.92,14.85-109.4,110.04-32.4,95.19,47.96,13.32-84.82,60.41-159.19,19.66-245.78-36.39-77.33-132.67-71.39-137.61,22.78-10.87-37.15,22.13-79.16,53.8-83.93,77.01-11.59,112.73,88.67,105.53,163.06,70.86-109.31-61.75-260.69-155.19-172.65-86.91,81.88,22.91,217.99,67.25,133.08,13.97-26.75,9.62-56.05-18.62-64.74,43.44-.48,37.05,68.79,7.24,89.92-79.79,56.55-148.63-131.43-37.25-184.64,81.99-39.16,162.17,40.94,165.54,136.68,37.63-52.2-.9-108.13-37.25-143.87-8.57-8.42-83.6-69.66-88.98-69.54-3.37.08-35.15,22.31-47.59,23.98-62.73,8.42-64.22-63.48-6.21-55.15,3.48.5,41.17,19.38,42.42,15.59-20.27-14.21-57.82-22.21-66.22-52.75-17.45-63.49,50.27-52.14,63.11-5.99,3.45-24.7,36.35-74.39,54.84-37.17,15.05,30.3-13.54,86.08-33.11,107.91,55.14,45.67,134.13,84.03,139.68,173.85,6.46-8.51,19.65-36.84,17.59-46.76-1.73-8.3-31.29-16.45-28.97-31.17,2.18-13.85,22.5-5.57,23.8-5.99,6.87-2.28,16.6-31.91,22.76,11.99l23.8-51.55c-31.18-25.76-81.71-28.07-110.71-56.35-54.93-53.58-10.91-156.03,58.97-109.1-3.03-9.36,14.68-31.71,14.48-33.57-.29-2.79-13.37-8.22-15.52-10.79-26.08-31.13-15.48-74.96,22.76-81.53,5.11-.88,17.72,5.15,18.62,4.8,3.57-1.39,12.28-70.9,51.73-28.77-12.47-89.99-64.57-198.4-154.16-200.22,89.09-10.1,144.84,110.23,161.4,196.63,63.28,330.22-209.82,483.77-198.65,791.31,2.17,59.64,18.8,111.34,26.9,167.85,7,48.84,7.53,98.78,15.52,147.47,2.99-24.2,3.94-48.68,3.1-73.14-2.76-80.52-30.62-156.71-33.11-237.39-8.55-276.98,229.11-420.17,221.41-714.57C407.42,198.76,329.83,3.79,188.49,44.19c-100.94,28.85-133.78,207.13-31.04,234.99,63.47,17.21,122.92-69.06,58.97-111.5,59.25,14.09,25.52,109.51-21.73,118.7-122.69,23.86-146.22-186.15-26.9-242.19,145.86-68.5,241.35,127.17,249.35,269.76,11,196.26-79.19,326.3-159.33,484.38l88.98-38.37c-9.33-16.76-28.79-84.82-1.03-89.92,21.2-3.9,16.86,33.2,18.62,47.96,36.61-87.1,98.42-25.79,23.8,25.18,46.54-14.5,64.28,57.15,7.24,49.16-15.31-2.15-35.21-19.84-49.66-26.38-42.6,24.16-95.26,24.12-114.84,82.73l34.14-29.97c127-83.84,212.17,120.3,120.02,208.62-80.93,77.56-177.08-64.89-70.35-107.91-.13,7.99-14.02,8.15-18.62,11.99-73.45,61.25,44.11,174.82,104.5,61.15,22.61-42.56,20.96-95.15-2.07-136.68-53.64-96.72-181.72-31.8-189.34,70.74,14.15-34.13,48.14-71.39,80.7-79.13,104.98-24.94,130.21,132.72,47.59,182.24l32.07-41.96c43.18-125.88-72.3-181.38-140.71-81.53-80.35,117.29,10.29,279.19-2.07,410.04,10.33-1.95,13.82-17.74,21.73-25.18,63.92-60.15,189.14-30.51,176.92,80.33-10.11,91.75-138.14,118.97-124.16,14.39,10.86-81.18,122.37-58.09,72.42,21.58,33-58.96-35.28-93.91-60.01-38.37-27.56,61.91,25.46,97.98,71.39,61.15,60.45-48.47,34.15-148.91-37.25-160.66-77.04-12.68-138.51,46.77-124.16,139.08,7.19-24.1,11.65-50.37,25.87-70.74,40.1-57.44,148.13-72.33,161.4,19.18-6.8-4.49-7.22-18.12-12.42-26.38-39.7-63.13-136.55-22.11-159.33,43.16-26.46,75.81,4.48,114.16,14.48,179.84,12.47,81.83-.7,172.66-18.62,251.78,9.21,1.45,18.48-6.47,24.83,4.8l-5.17,15.59c53.83-30.3,126.57,15.2,116.91,89.92-9.4,72.73-99.76,49.43-72.42-14.39-16.01,55.48,50.72,74.37,64.15,21.58,25.56-100.48-126.16-148.73-155.19-21.58-.81,3.56-6.82,38.96-5.17,39.57,18.58-76.23,125.97-144.51,143.81-32.37-6.54-.96-4.78-17.26-8.28-23.98-32.39-62.25-99.7-7.93-122.09,38.37-23.31,48.21-21.8,100.64,3.1,147.47-18.07-53.62-3.2-130.03,57.94-119.89,3.98.66,37.87,15.57,31.04,26.38-75.47-75.25-123.97,64.07-64.15,119.89-18.59-29.58-11.61-112.19,31.04-105.51,11.92,1.87,19.36,18.86,20.69,19.18,1.83.44,19.18-17.45,27.94,3.6,13.53,32.55-47.65,61.16-42.42,13.19l7.24,13.19c3.04-14.26-22.26-37.07-3.1-34.77-33.73-28.34-56.65,37.41-44.49,70.74,20.85,57.14,90.99-3.5,94.15-46.76,6.39-.16-12.12,42.49-3.1,29.97,13.54-18.79,24.37-68.18,48.63-73.14,30.41-6.21,54.42,33.87,27.94,58.75,41.3,5.3,39.28,68.6-5.17,65.94-21.64-1.29-68.52-41.77-80.7-38.37-1.71.48-19.86,22.48-26.9,26.38-39.54,21.89-74.5.92-90.01-44.36-36.48-106.47,42.73-283.96,45.52-407.64,1.93-85.39-22.65-230.72-112.77-245.78-122.08-20.41-117.58,182.26-22.76,163.06,64.87-13.14,1.78-144.36-31.04-59.95,1.97-54,62.83-34.87,67.25,10.79,8.07,83.31-107.25,76.34-115.88-14.39-10.28-108.12,98.67-141.42,161.4-76.73,4.27-44.71-75.26-29.3-76.56-59.95-1.1-25.91,29.93-19.61,31.04-21.58.62-1.11-3.79-18.41-2.07-26.38,2.85-13.23,19.99-21.39,30-15.59,22.59,13.09,9.05,133.19,39.32,155.86l3.1-3.6c-14.52-78.8-11.91-166.52-24.83-244.59-5.52-33.35-14.89-69.68-42.42-87.52-58.01-37.59-120.83,34.56-85.87,95.92ZM369.55,448.23c12.81-97.13-99.56-115.03-81.74-8.39-26.84-54.98-94.42-41.05-83.81,29.97,7.19,48.09,83.8,67.74,115.88,85.13-35.07-33.4-75.32-60.57-108.64-95.92l111.74,91.12-25.87-89.92,30,87.52,22.76-134.28-15.52,129.49c11.95-22.6,31.81-69.22,35.18-94.72ZM164.69,889.45c-18.61-62.19-98.32-38.52-62.08,26.38-34.64-33-87.63-.65-62.08,50.36,17.52,34.97,79.86,26.77,109.67,29.97-36.02-14.01-73.16-25.14-109.67-39.57l110.71,32.37c-7.99-18.01-20.51-30.71-30-47.96-1.33-1.53-5.81-2.41-6.21-3.6l1.03-5.99c4.1,1.96,4.18,7.78,5.17,9.59,12.73,14.58,24.14,30.34,37.25,44.36l-11.38-109.1,19.66,115.1c4.89-17.37,3.16-84.43-2.07-101.91ZM327.13,298.36c-24.58-28.37-66.7-2.23-58.97,37.17,1.13,5.75,18.98,26.71,23.8,27.58,7.8,1.4,17.13-8.76,24.83-9.59,27.52-2.96,45.16,23.05,60.01,45.56,2.31-19.47,4.82-33.01-13.45-39.57,2.14-8.61,9.52,5.02,13.45,3.6,5.3-1.92.98-93.97-14.48-105.51-5.53-4.12-16.5-6.49-22.76-4.8-14.79,4-17.1,31.56-12.42,45.56ZM431.62,2088.4c6.36-29.97-20.43-39.17-41.39-38.37,41.7-10.22,21.94-71.4-13.45-53.95-8.12,4-38.59,57.54-44.49,69.54l47.59-53.95c-7.57,19.04-20.3,33.67-33.11,47.96l28.97-4.8c-11.28,8.91-31.27,5.61-39.32,17.98,17.2,10.1,87.08,53.82,95.19,15.59ZM50.88,431.45c-6.81,35.04,40.6,62.98,64.15,71.94l-47.59-59.95c-1.65-15.08,27.32,35.85,26.9,21.58l25.87,39.57c5.04-1.85-27.35-98.11-60.01-86.32-1.64.59-8.9,11.07-9.31,13.19ZM126.41,504.58l6.21-26.38,2.07,23.98c12.73-16.34,43.26-102.29,4.14-93.52-27.2,6.1-23.92,74.29-12.42,95.92ZM41.57,535.76c20.3,14.41,51.7-2.92,71.39-13.19l-13.45-1.2,8.28-7.19c-17.24-3.39-40.21-18.05-57.94-14.39-15.53,3.21-23.3,25.3-8.28,35.97ZM368.51,751.57c10.88-6.66,66.53-49.19,47.59-67.14-19.79-18.76-52.61,42.75-54.84,61.15,14.38-13.45,25.38-30.14,39.32-44.36.26-.27-.13-5.84,3.1-7.19,3.83,4.13-2.8,6.57-3.1,7.19-4.57,9.25-36.63,47.21-32.07,50.36ZM188.49,1382.22c2.86-18.43,2.88-82.38-22.76-74.33-31.87,9.99,11.85,63.3,22.76,74.33ZM366.44,758.76l9.31,5.99-12.42,2.4c9.74,5.15,25.97,16.91,36.21,17.98,39.61,4.16,26.59-41.12-4.14-38.37-6.56.59-20.95,11.75-28.97,11.99ZM349.89,413.46l-22.76,134.28-30-87.52,25.87,89.92-111.74-91.12c33.32,35.35,73.57,62.51,108.64,95.92,1.79,1.71,3.67,5.77,7.24,7.19.54-8.65,3.73-12.53,7.24-19.18l15.52-129.49ZM349.89,749.17c8.99-10.62,16.06-76.49-2.07-74.33-20.89,2.48-10.19,62.17,2.07,74.33ZM185.38,1385.81c-7.44-15.66-29.66-42.73-46.56-37.17-36.66,12.08,33.97,45.3,46.56,37.17ZM147.1,876.26l11.38,109.1c-13.1-14.03-24.52-29.78-37.25-44.36,9.49,17.25,22.01,29.95,30,47.96l-110.71-32.37c36.51,14.43,73.65,25.55,109.67,39.57,4.49,1.75,8.91,3.25,13.45,4.8,4.35-2.74,2.29-6.69,3.1-9.59l-19.66-115.1ZM294.02,2048.83l4.14-7.19c2.47,22.53,37.4-22.45,16.55-31.17-10.95-4.58-17.53,9.71-18.62,9.59-2.99-.31-4.81-15.94-10.35-11.99-1.54,1.1,7.05,36.69,8.28,40.76ZM223.66,1852.2l14.48-23.98,2.07,7.19c6.49-6.43,22.46-29.4,4.14-26.38-12.74,2.1-24.64,41.56-20.69,43.16ZM375.75,2054.83l-28.97,4.8c12.8-14.29,25.53-28.92,33.11-47.96l-47.59,53.95c-.13.26-5.14-1.38-4.14,3.6.83,2.09,6.83,2.75,8.28,3.6,8.05-12.37,28.04-9.07,39.32-17.98ZM287.81,638.87c3.55-14.77-5.04-30.14-18.62-26.38-13.9,10.39,10.56,21.09,18.62,26.38ZM284.71,613.69l7.24,17.98c6.81-3.48,8.33-26.18,0-26.38l-7.24,8.39ZM116.06,931.41l-1.03,5.99c.4,1.19,4.87,2.07,6.21,3.6-1-1.81-1.07-7.63-5.17-9.59ZM403.69,694.02c-3.23,1.35-2.84,6.93-3.1,7.19.31-.62,6.94-3.06,3.1-7.19Z" style="fill:#565656;"/><path d="M120.2,1425.38c105.73-13.97,122.16,171.57,116.91,255.38-9.45,151.02-146.5,382.01,42.42,461.6-86.76-15.57-109.63-109.96-102.43-200.22,2.93-36.8,25.06-86.82,26.9-115.1,2.52-38.75-53.19-77.78-81.74-77.93-14.46-.08-32.89,36.49-51.73,40.76-16.16,3.67-36.47-1.78-32.07-25.18,4.4-23.43,36.86-13.96,49.66-21.58-57.82,12.15-88.11-86.16-11.38-46.76-9.67-45.26,25.92-55.33,38.28-13.19,6.48,22.1-.37,42.79,5.17,63.54,35.18,3.86,70.64,24.84,86.91,62.35,31.16-87.06,45.3-317.32-41.39-366.88-65.15-37.25-132.17,50.92-71.39,104.31-56.6-21.97-23.53-114.57,25.87-121.09ZM95.37,1739.5l-6.21-11.99,15.52,8.39c-17.26-19.84-35.9-47.51-63.11-44.36-18.36,33.4,33.64,45.71,53.8,47.96ZM109.85,1734.71l-3.1-17.98,6.21,7.19c3.19-15.8-6.38-68-25.87-61.15-24.92,8.77,12.52,62.54,22.76,71.94ZM47.78,1782.66c15.54,11.42,40.87-10.45,50.7-23.98-.59.48-6.95.51-8.28-1.2,1.41-3.01,6.36-5.12,8.28-3.6-21.31-18.8-75.7,10.4-50.7,28.77ZM102.61,1755.09l-4.14-1.2c.17.14.17,4.66,0,4.8.18-.24,3.61-1.75,4.14-3.6ZM90.2,1757.49c1.33,1.71,7.69,1.68,8.28,1.2.17-.14.17-4.66,0-4.8-1.92-1.52-6.87.59-8.28,3.6Z" style="fill:#565656;"/><path d="M320.92,1595.63c30.44-4.91,40.74,30.86,43.45,31.17,3.39.39,35.78-40.77,58.97-1.2,35.5,60.57-44.46,112.68-81.74,135.48-21.05-38.77-72.33-89.3-50.7-140.28,3.46-8.15,22.37-23.95,30-25.18ZM297.12,1628c-16.64,46.7,31.89,88.84,44.49,128.29,28.46-24.59,88.54-57.11,81.74-106.71-.6-4.4-10.9-25.21-15.52-27.58-20.62-10.55-44.03,9.6-47.59,33.57.22-23.48-13.98-53.52-37.25-50.36-5.86.8-23.89,17.23-25.87,22.78ZM351.96,1741.9l60.01-79.13c-20.01,26.13-45.24,48.42-60.01,79.13Z" style="fill:#565656;"/></svg>